<?xml version="1.0" encoding="utf-8" standalone="no"?>
<!DOCTYPE svg PUBLIC "-//W3C//DTD SVG 1.1//EN"
  "http://www.w3.org/Graphics/SVG/1.1/DTD/svg11.dtd">
<svg xmlns:xlink="http://www.w3.org/1999/xlink" width="460.8pt" height="345.6pt" viewBox="0 0 460.8 345.6" xmlns="http://www.w3.org/2000/svg" version="1.1">
 <metadata>
  <rdf:RDF xmlns:dc="http://purl.org/dc/elements/1.1/" xmlns:cc="http://creativecommons.org/ns#" xmlns:rdf="http://www.w3.org/1999/02/22-rdf-syntax-ns#">
   <cc:Work>
    <dc:type rdf:resource="http://purl.org/dc/dcmitype/StillImage"/>
    <dc:date>2023-11-02T00:18:12.063276</dc:date>
    <dc:format>image/svg+xml</dc:format>
    <dc:creator>
     <cc:Agent>
      <dc:title>Matplotlib v3.7.1, https://matplotlib.org/</dc:title>
     </cc:Agent>
    </dc:creator>
   </cc:Work>
  </rdf:RDF>
 </metadata>
 <defs>
  <style type="text/css">*{stroke-linejoin: round; stroke-linecap: butt}</style>
 </defs>
 <g id="figure_1">
  <g id="patch_1">
   <path d="M 0 345.6 
L 460.8 345.6 
L 460.8 0 
L 0 0 
z
" style="fill: #ffffff"/>
  </g>
  <g id="axes_1">
   <g id="patch_2">
    <path d="M 57.6 307.584 
L 414.72 307.584 
L 414.72 41.472 
L 57.6 41.472 
z
" style="fill: #ffffff"/>
   </g>
   <g id="matplotlib.axis_1">
    <g id="xtick_1">
     <g id="line2d_1">
      <defs>
       <path id="me9131b0c7c" d="M 0 0 
L 0 3.5 
" style="stroke: #000000; stroke-width: 0.8"/>
      </defs>
      <g>
       <use xlink:href="#me9131b0c7c" x="73.832727" y="307.584" style="stroke: #000000; stroke-width: 0.8"/>
      </g>
     </g>
     <g id="text_1">
      <!-- 0.0 -->
      <g transform="translate(65.881165 322.182437) scale(0.1 -0.1)">
       <defs>
        <path id="DejaVuSans-30" d="M 2034 4250 
Q 1547 4250 1301 3770 
Q 1056 3291 1056 2328 
Q 1056 1369 1301 889 
Q 1547 409 2034 409 
Q 2525 409 2770 889 
Q 3016 1369 3016 2328 
Q 3016 3291 2770 3770 
Q 2525 4250 2034 4250 
z
M 2034 4750 
Q 2819 4750 3233 4129 
Q 3647 3509 3647 2328 
Q 3647 1150 3233 529 
Q 2819 -91 2034 -91 
Q 1250 -91 836 529 
Q 422 1150 422 2328 
Q 422 3509 836 4129 
Q 1250 4750 2034 4750 
z
" transform="scale(0.015625)"/>
        <path id="DejaVuSans-2e" d="M 684 794 
L 1344 794 
L 1344 0 
L 684 0 
L 684 794 
z
" transform="scale(0.015625)"/>
       </defs>
       <use xlink:href="#DejaVuSans-30"/>
       <use xlink:href="#DejaVuSans-2e" x="63.623047"/>
       <use xlink:href="#DejaVuSans-30" x="95.410156"/>
      </g>
     </g>
    </g>
    <g id="xtick_2">
     <g id="line2d_2">
      <g>
       <use xlink:href="#me9131b0c7c" x="138.763636" y="307.584" style="stroke: #000000; stroke-width: 0.8"/>
      </g>
     </g>
     <g id="text_2">
      <!-- 0.2 -->
      <g transform="translate(130.812074 322.182437) scale(0.1 -0.1)">
       <defs>
        <path id="DejaVuSans-32" d="M 1228 531 
L 3431 531 
L 3431 0 
L 469 0 
L 469 531 
Q 828 903 1448 1529 
Q 2069 2156 2228 2338 
Q 2531 2678 2651 2914 
Q 2772 3150 2772 3378 
Q 2772 3750 2511 3984 
Q 2250 4219 1831 4219 
Q 1534 4219 1204 4116 
Q 875 4013 500 3803 
L 500 4441 
Q 881 4594 1212 4672 
Q 1544 4750 1819 4750 
Q 2544 4750 2975 4387 
Q 3406 4025 3406 3419 
Q 3406 3131 3298 2873 
Q 3191 2616 2906 2266 
Q 2828 2175 2409 1742 
Q 1991 1309 1228 531 
z
" transform="scale(0.015625)"/>
       </defs>
       <use xlink:href="#DejaVuSans-30"/>
       <use xlink:href="#DejaVuSans-2e" x="63.623047"/>
       <use xlink:href="#DejaVuSans-32" x="95.410156"/>
      </g>
     </g>
    </g>
    <g id="xtick_3">
     <g id="line2d_3">
      <g>
       <use xlink:href="#me9131b0c7c" x="203.694545" y="307.584" style="stroke: #000000; stroke-width: 0.8"/>
      </g>
     </g>
     <g id="text_3">
      <!-- 0.4 -->
      <g transform="translate(195.742983 322.182437) scale(0.1 -0.1)">
       <defs>
        <path id="DejaVuSans-34" d="M 2419 4116 
L 825 1625 
L 2419 1625 
L 2419 4116 
z
M 2253 4666 
L 3047 4666 
L 3047 1625 
L 3713 1625 
L 3713 1100 
L 3047 1100 
L 3047 0 
L 2419 0 
L 2419 1100 
L 313 1100 
L 313 1709 
L 2253 4666 
z
" transform="scale(0.015625)"/>
       </defs>
       <use xlink:href="#DejaVuSans-30"/>
       <use xlink:href="#DejaVuSans-2e" x="63.623047"/>
       <use xlink:href="#DejaVuSans-34" x="95.410156"/>
      </g>
     </g>
    </g>
    <g id="xtick_4">
     <g id="line2d_4">
      <g>
       <use xlink:href="#me9131b0c7c" x="268.625455" y="307.584" style="stroke: #000000; stroke-width: 0.8"/>
      </g>
     </g>
     <g id="text_4">
      <!-- 0.6 -->
      <g transform="translate(260.673892 322.182437) scale(0.1 -0.1)">
       <defs>
        <path id="DejaVuSans-36" d="M 2113 2584 
Q 1688 2584 1439 2293 
Q 1191 2003 1191 1497 
Q 1191 994 1439 701 
Q 1688 409 2113 409 
Q 2538 409 2786 701 
Q 3034 994 3034 1497 
Q 3034 2003 2786 2293 
Q 2538 2584 2113 2584 
z
M 3366 4563 
L 3366 3988 
Q 3128 4100 2886 4159 
Q 2644 4219 2406 4219 
Q 1781 4219 1451 3797 
Q 1122 3375 1075 2522 
Q 1259 2794 1537 2939 
Q 1816 3084 2150 3084 
Q 2853 3084 3261 2657 
Q 3669 2231 3669 1497 
Q 3669 778 3244 343 
Q 2819 -91 2113 -91 
Q 1303 -91 875 529 
Q 447 1150 447 2328 
Q 447 3434 972 4092 
Q 1497 4750 2381 4750 
Q 2619 4750 2861 4703 
Q 3103 4656 3366 4563 
z
" transform="scale(0.015625)"/>
       </defs>
       <use xlink:href="#DejaVuSans-30"/>
       <use xlink:href="#DejaVuSans-2e" x="63.623047"/>
       <use xlink:href="#DejaVuSans-36" x="95.410156"/>
      </g>
     </g>
    </g>
    <g id="xtick_5">
     <g id="line2d_5">
      <g>
       <use xlink:href="#me9131b0c7c" x="333.556364" y="307.584" style="stroke: #000000; stroke-width: 0.8"/>
      </g>
     </g>
     <g id="text_5">
      <!-- 0.8 -->
      <g transform="translate(325.604801 322.182437) scale(0.1 -0.1)">
       <defs>
        <path id="DejaVuSans-38" d="M 2034 2216 
Q 1584 2216 1326 1975 
Q 1069 1734 1069 1313 
Q 1069 891 1326 650 
Q 1584 409 2034 409 
Q 2484 409 2743 651 
Q 3003 894 3003 1313 
Q 3003 1734 2745 1975 
Q 2488 2216 2034 2216 
z
M 1403 2484 
Q 997 2584 770 2862 
Q 544 3141 544 3541 
Q 544 4100 942 4425 
Q 1341 4750 2034 4750 
Q 2731 4750 3128 4425 
Q 3525 4100 3525 3541 
Q 3525 3141 3298 2862 
Q 3072 2584 2669 2484 
Q 3125 2378 3379 2068 
Q 3634 1759 3634 1313 
Q 3634 634 3220 271 
Q 2806 -91 2034 -91 
Q 1263 -91 848 271 
Q 434 634 434 1313 
Q 434 1759 690 2068 
Q 947 2378 1403 2484 
z
M 1172 3481 
Q 1172 3119 1398 2916 
Q 1625 2713 2034 2713 
Q 2441 2713 2670 2916 
Q 2900 3119 2900 3481 
Q 2900 3844 2670 4047 
Q 2441 4250 2034 4250 
Q 1625 4250 1398 4047 
Q 1172 3844 1172 3481 
z
" transform="scale(0.015625)"/>
       </defs>
       <use xlink:href="#DejaVuSans-30"/>
       <use xlink:href="#DejaVuSans-2e" x="63.623047"/>
       <use xlink:href="#DejaVuSans-38" x="95.410156"/>
      </g>
     </g>
    </g>
    <g id="xtick_6">
     <g id="line2d_6">
      <g>
       <use xlink:href="#me9131b0c7c" x="398.487273" y="307.584" style="stroke: #000000; stroke-width: 0.8"/>
      </g>
     </g>
     <g id="text_6">
      <!-- 1.0 -->
      <g transform="translate(390.53571 322.182437) scale(0.1 -0.1)">
       <defs>
        <path id="DejaVuSans-31" d="M 794 531 
L 1825 531 
L 1825 4091 
L 703 3866 
L 703 4441 
L 1819 4666 
L 2450 4666 
L 2450 531 
L 3481 531 
L 3481 0 
L 794 0 
L 794 531 
z
" transform="scale(0.015625)"/>
       </defs>
       <use xlink:href="#DejaVuSans-31"/>
       <use xlink:href="#DejaVuSans-2e" x="63.623047"/>
       <use xlink:href="#DejaVuSans-30" x="95.410156"/>
      </g>
     </g>
    </g>
   </g>
   <g id="matplotlib.axis_2">
    <g id="ytick_1">
     <g id="line2d_7">
      <defs>
       <path id="mecbf31e0b4" d="M 0 0 
L -3.5 0 
" style="stroke: #000000; stroke-width: 0.8"/>
      </defs>
      <g>
       <use xlink:href="#mecbf31e0b4" x="57.6" y="277.589841" style="stroke: #000000; stroke-width: 0.8"/>
      </g>
     </g>
     <g id="text_7">
      <!-- −0.3 -->
      <g transform="translate(26.317187 281.38906) scale(0.1 -0.1)">
       <defs>
        <path id="DejaVuSans-2212" d="M 678 2272 
L 4684 2272 
L 4684 1741 
L 678 1741 
L 678 2272 
z
" transform="scale(0.015625)"/>
        <path id="DejaVuSans-33" d="M 2597 2516 
Q 3050 2419 3304 2112 
Q 3559 1806 3559 1356 
Q 3559 666 3084 287 
Q 2609 -91 1734 -91 
Q 1441 -91 1130 -33 
Q 819 25 488 141 
L 488 750 
Q 750 597 1062 519 
Q 1375 441 1716 441 
Q 2309 441 2620 675 
Q 2931 909 2931 1356 
Q 2931 1769 2642 2001 
Q 2353 2234 1838 2234 
L 1294 2234 
L 1294 2753 
L 1863 2753 
Q 2328 2753 2575 2939 
Q 2822 3125 2822 3475 
Q 2822 3834 2567 4026 
Q 2313 4219 1838 4219 
Q 1578 4219 1281 4162 
Q 984 4106 628 3988 
L 628 4550 
Q 988 4650 1302 4700 
Q 1616 4750 1894 4750 
Q 2613 4750 3031 4423 
Q 3450 4097 3450 3541 
Q 3450 3153 3228 2886 
Q 3006 2619 2597 2516 
z
" transform="scale(0.015625)"/>
       </defs>
       <use xlink:href="#DejaVuSans-2212"/>
       <use xlink:href="#DejaVuSans-30" x="83.789062"/>
       <use xlink:href="#DejaVuSans-2e" x="147.412109"/>
       <use xlink:href="#DejaVuSans-33" x="179.199219"/>
      </g>
     </g>
    </g>
    <g id="ytick_2">
     <g id="line2d_8">
      <g>
       <use xlink:href="#mecbf31e0b4" x="57.6" y="245.124386" style="stroke: #000000; stroke-width: 0.8"/>
      </g>
     </g>
     <g id="text_8">
      <!-- −0.2 -->
      <g transform="translate(26.317187 248.923605) scale(0.1 -0.1)">
       <use xlink:href="#DejaVuSans-2212"/>
       <use xlink:href="#DejaVuSans-30" x="83.789062"/>
       <use xlink:href="#DejaVuSans-2e" x="147.412109"/>
       <use xlink:href="#DejaVuSans-32" x="179.199219"/>
      </g>
     </g>
    </g>
    <g id="ytick_3">
     <g id="line2d_9">
      <g>
       <use xlink:href="#mecbf31e0b4" x="57.6" y="212.658932" style="stroke: #000000; stroke-width: 0.8"/>
      </g>
     </g>
     <g id="text_9">
      <!-- −0.1 -->
      <g transform="translate(26.317187 216.458151) scale(0.1 -0.1)">
       <use xlink:href="#DejaVuSans-2212"/>
       <use xlink:href="#DejaVuSans-30" x="83.789062"/>
       <use xlink:href="#DejaVuSans-2e" x="147.412109"/>
       <use xlink:href="#DejaVuSans-31" x="179.199219"/>
      </g>
     </g>
    </g>
    <g id="ytick_4">
     <g id="line2d_10">
      <g>
       <use xlink:href="#mecbf31e0b4" x="57.6" y="180.193477" style="stroke: #000000; stroke-width: 0.8"/>
      </g>
     </g>
     <g id="text_10">
      <!-- 0.0 -->
      <g transform="translate(34.696875 183.992696) scale(0.1 -0.1)">
       <use xlink:href="#DejaVuSans-30"/>
       <use xlink:href="#DejaVuSans-2e" x="63.623047"/>
       <use xlink:href="#DejaVuSans-30" x="95.410156"/>
      </g>
     </g>
    </g>
    <g id="ytick_5">
     <g id="line2d_11">
      <g>
       <use xlink:href="#mecbf31e0b4" x="57.6" y="147.728023" style="stroke: #000000; stroke-width: 0.8"/>
      </g>
     </g>
     <g id="text_11">
      <!-- 0.1 -->
      <g transform="translate(34.696875 151.527241) scale(0.1 -0.1)">
       <use xlink:href="#DejaVuSans-30"/>
       <use xlink:href="#DejaVuSans-2e" x="63.623047"/>
       <use xlink:href="#DejaVuSans-31" x="95.410156"/>
      </g>
     </g>
    </g>
    <g id="ytick_6">
     <g id="line2d_12">
      <g>
       <use xlink:href="#mecbf31e0b4" x="57.6" y="115.262568" style="stroke: #000000; stroke-width: 0.8"/>
      </g>
     </g>
     <g id="text_12">
      <!-- 0.2 -->
      <g transform="translate(34.696875 119.061787) scale(0.1 -0.1)">
       <use xlink:href="#DejaVuSans-30"/>
       <use xlink:href="#DejaVuSans-2e" x="63.623047"/>
       <use xlink:href="#DejaVuSans-32" x="95.410156"/>
      </g>
     </g>
    </g>
    <g id="ytick_7">
     <g id="line2d_13">
      <g>
       <use xlink:href="#mecbf31e0b4" x="57.6" y="82.797114" style="stroke: #000000; stroke-width: 0.8"/>
      </g>
     </g>
     <g id="text_13">
      <!-- 0.3 -->
      <g transform="translate(34.696875 86.596332) scale(0.1 -0.1)">
       <use xlink:href="#DejaVuSans-30"/>
       <use xlink:href="#DejaVuSans-2e" x="63.623047"/>
       <use xlink:href="#DejaVuSans-33" x="95.410156"/>
      </g>
     </g>
    </g>
    <g id="ytick_8">
     <g id="line2d_14">
      <g>
       <use xlink:href="#mecbf31e0b4" x="57.6" y="50.331659" style="stroke: #000000; stroke-width: 0.8"/>
      </g>
     </g>
     <g id="text_14">
      <!-- 0.4 -->
      <g transform="translate(34.696875 54.130878) scale(0.1 -0.1)">
       <use xlink:href="#DejaVuSans-30"/>
       <use xlink:href="#DejaVuSans-2e" x="63.623047"/>
       <use xlink:href="#DejaVuSans-34" x="95.410156"/>
      </g>
     </g>
    </g>
   </g>
   <g id="line2d_15">
    <path d="M 73.832727 180.193477 
L 73.832727 179.129753 
L 74.614377 177.124797 
L 76.9518 174.255736 
L 80.822485 171.376239 
L 86.189155 168.69267 
L 93.000126 166.016105 
L 101.189805 163.55263 
L 110.679321 161.188449 
L 121.377285 159.205634 
L 133.180668 157.519379 
L 145.975799 156.202288 
L 159.639453 155.272194 
L 174.040042 154.773051 
L 189.03888 154.725846 
L 204.49152 155.098687 
L 220.249145 155.834008 
L 236.16 156.86869 
L 252.070855 158.123754 
L 267.82848 159.598495 
L 283.28112 161.284294 
L 298.279958 163.11966 
L 312.680547 165.036499 
L 326.344201 166.994511 
L 339.139332 168.959546 
L 350.942715 170.87995 
L 361.640679 172.707973 
L 371.130195 174.383254 
L 379.319874 175.913052 
L 386.130845 177.296324 
L 391.497515 178.488437 
L 395.3682 179.402936 
L 397.705623 179.990745 
L 398.487273 180.193477 
" clip-path="url(#p0f6ed91d41)" style="fill: none; stroke: #ff0000; stroke-width: 1.5; stroke-linecap: square"/>
    <defs>
     <path id="m14d7e696d2" d="M 0 3 
C 0.795609 3 1.55874 2.683901 2.12132 2.12132 
C 2.683901 1.55874 3 0.795609 3 0 
C 3 -0.795609 2.683901 -1.55874 2.12132 -2.12132 
C 1.55874 -2.683901 0.795609 -3 0 -3 
C -0.795609 -3 -1.55874 -2.683901 -2.12132 -2.12132 
C -2.683901 -1.55874 -3 -0.795609 -3 0 
C -3 0.795609 -2.683901 1.55874 -2.12132 2.12132 
C -1.55874 2.683901 -0.795609 3 0 3 
z
" style="stroke: #ff0000"/>
    </defs>
    <g clip-path="url(#p0f6ed91d41)">
     <use xlink:href="#m14d7e696d2" x="73.832727" y="180.193477" style="fill: #ff0000; stroke: #ff0000"/>
     <use xlink:href="#m14d7e696d2" x="73.832727" y="179.129753" style="fill: #ff0000; stroke: #ff0000"/>
     <use xlink:href="#m14d7e696d2" x="74.614377" y="177.124797" style="fill: #ff0000; stroke: #ff0000"/>
     <use xlink:href="#m14d7e696d2" x="76.9518" y="174.255736" style="fill: #ff0000; stroke: #ff0000"/>
     <use xlink:href="#m14d7e696d2" x="80.822485" y="171.376239" style="fill: #ff0000; stroke: #ff0000"/>
     <use xlink:href="#m14d7e696d2" x="86.189155" y="168.69267" style="fill: #ff0000; stroke: #ff0000"/>
     <use xlink:href="#m14d7e696d2" x="93.000126" y="166.016105" style="fill: #ff0000; stroke: #ff0000"/>
     <use xlink:href="#m14d7e696d2" x="101.189805" y="163.55263" style="fill: #ff0000; stroke: #ff0000"/>
     <use xlink:href="#m14d7e696d2" x="110.679321" y="161.188449" style="fill: #ff0000; stroke: #ff0000"/>
     <use xlink:href="#m14d7e696d2" x="121.377285" y="159.205634" style="fill: #ff0000; stroke: #ff0000"/>
     <use xlink:href="#m14d7e696d2" x="133.180668" y="157.519379" style="fill: #ff0000; stroke: #ff0000"/>
     <use xlink:href="#m14d7e696d2" x="145.975799" y="156.202288" style="fill: #ff0000; stroke: #ff0000"/>
     <use xlink:href="#m14d7e696d2" x="159.639453" y="155.272194" style="fill: #ff0000; stroke: #ff0000"/>
     <use xlink:href="#m14d7e696d2" x="174.040042" y="154.773051" style="fill: #ff0000; stroke: #ff0000"/>
     <use xlink:href="#m14d7e696d2" x="189.03888" y="154.725846" style="fill: #ff0000; stroke: #ff0000"/>
     <use xlink:href="#m14d7e696d2" x="204.49152" y="155.098687" style="fill: #ff0000; stroke: #ff0000"/>
     <use xlink:href="#m14d7e696d2" x="220.249145" y="155.834008" style="fill: #ff0000; stroke: #ff0000"/>
     <use xlink:href="#m14d7e696d2" x="236.16" y="156.86869" style="fill: #ff0000; stroke: #ff0000"/>
     <use xlink:href="#m14d7e696d2" x="252.070855" y="158.123754" style="fill: #ff0000; stroke: #ff0000"/>
     <use xlink:href="#m14d7e696d2" x="267.82848" y="159.598495" style="fill: #ff0000; stroke: #ff0000"/>
     <use xlink:href="#m14d7e696d2" x="283.28112" y="161.284294" style="fill: #ff0000; stroke: #ff0000"/>
     <use xlink:href="#m14d7e696d2" x="298.279958" y="163.11966" style="fill: #ff0000; stroke: #ff0000"/>
     <use xlink:href="#m14d7e696d2" x="312.680547" y="165.036499" style="fill: #ff0000; stroke: #ff0000"/>
     <use xlink:href="#m14d7e696d2" x="326.344201" y="166.994511" style="fill: #ff0000; stroke: #ff0000"/>
     <use xlink:href="#m14d7e696d2" x="339.139332" y="168.959546" style="fill: #ff0000; stroke: #ff0000"/>
     <use xlink:href="#m14d7e696d2" x="350.942715" y="170.87995" style="fill: #ff0000; stroke: #ff0000"/>
     <use xlink:href="#m14d7e696d2" x="361.640679" y="172.707973" style="fill: #ff0000; stroke: #ff0000"/>
     <use xlink:href="#m14d7e696d2" x="371.130195" y="174.383254" style="fill: #ff0000; stroke: #ff0000"/>
     <use xlink:href="#m14d7e696d2" x="379.319874" y="175.913052" style="fill: #ff0000; stroke: #ff0000"/>
     <use xlink:href="#m14d7e696d2" x="386.130845" y="177.296324" style="fill: #ff0000; stroke: #ff0000"/>
     <use xlink:href="#m14d7e696d2" x="391.497515" y="178.488437" style="fill: #ff0000; stroke: #ff0000"/>
     <use xlink:href="#m14d7e696d2" x="395.3682" y="179.402936" style="fill: #ff0000; stroke: #ff0000"/>
     <use xlink:href="#m14d7e696d2" x="397.705623" y="179.990745" style="fill: #ff0000; stroke: #ff0000"/>
     <use xlink:href="#m14d7e696d2" x="398.487273" y="180.193477" style="fill: #ff0000; stroke: #ff0000"/>
    </g>
   </g>
   <g id="line2d_16">
    <path d="M 73.832727 180.193477 
L 73.832727 181.230476 
L 74.614377 183.029762 
L 76.9518 185.519846 
L 80.822485 187.689948 
L 86.189155 189.457733 
L 93.000126 191.095994 
L 101.189805 192.272864 
L 110.679321 193.186696 
L 121.377285 193.875463 
L 133.180668 194.241589 
L 145.975799 194.330154 
L 159.639453 194.170061 
L 174.040042 193.804354 
L 189.03888 193.347902 
L 204.49152 192.772525 
L 220.249145 192.079711 
L 236.16 191.269257 
L 252.070855 190.351824 
L 267.82848 189.378823 
L 283.28112 188.404834 
L 298.279958 187.449529 
L 312.680547 186.530894 
L 326.344201 185.643362 
L 339.139332 184.768353 
L 350.942715 183.935256 
L 361.640679 183.187275 
L 371.130195 182.562304 
L 379.319874 182.007852 
L 386.130845 181.473171 
L 391.497515 180.973276 
L 395.3682 180.566849 
L 397.705623 180.29116 
L 398.487273 180.193477 
" clip-path="url(#p0f6ed91d41)" style="fill: none; stroke: #ff0000; stroke-width: 1.5; stroke-linecap: square"/>
    <g clip-path="url(#p0f6ed91d41)">
     <use xlink:href="#m14d7e696d2" x="73.832727" y="180.193477" style="fill: #ff0000; stroke: #ff0000"/>
     <use xlink:href="#m14d7e696d2" x="73.832727" y="181.230476" style="fill: #ff0000; stroke: #ff0000"/>
     <use xlink:href="#m14d7e696d2" x="74.614377" y="183.029762" style="fill: #ff0000; stroke: #ff0000"/>
     <use xlink:href="#m14d7e696d2" x="76.9518" y="185.519846" style="fill: #ff0000; stroke: #ff0000"/>
     <use xlink:href="#m14d7e696d2" x="80.822485" y="187.689948" style="fill: #ff0000; stroke: #ff0000"/>
     <use xlink:href="#m14d7e696d2" x="86.189155" y="189.457733" style="fill: #ff0000; stroke: #ff0000"/>
     <use xlink:href="#m14d7e696d2" x="93.000126" y="191.095994" style="fill: #ff0000; stroke: #ff0000"/>
     <use xlink:href="#m14d7e696d2" x="101.189805" y="192.272864" style="fill: #ff0000; stroke: #ff0000"/>
     <use xlink:href="#m14d7e696d2" x="110.679321" y="193.186696" style="fill: #ff0000; stroke: #ff0000"/>
     <use xlink:href="#m14d7e696d2" x="121.377285" y="193.875463" style="fill: #ff0000; stroke: #ff0000"/>
     <use xlink:href="#m14d7e696d2" x="133.180668" y="194.241589" style="fill: #ff0000; stroke: #ff0000"/>
     <use xlink:href="#m14d7e696d2" x="145.975799" y="194.330154" style="fill: #ff0000; stroke: #ff0000"/>
     <use xlink:href="#m14d7e696d2" x="159.639453" y="194.170061" style="fill: #ff0000; stroke: #ff0000"/>
     <use xlink:href="#m14d7e696d2" x="174.040042" y="193.804354" style="fill: #ff0000; stroke: #ff0000"/>
     <use xlink:href="#m14d7e696d2" x="189.03888" y="193.347902" style="fill: #ff0000; stroke: #ff0000"/>
     <use xlink:href="#m14d7e696d2" x="204.49152" y="192.772525" style="fill: #ff0000; stroke: #ff0000"/>
     <use xlink:href="#m14d7e696d2" x="220.249145" y="192.079711" style="fill: #ff0000; stroke: #ff0000"/>
     <use xlink:href="#m14d7e696d2" x="236.16" y="191.269257" style="fill: #ff0000; stroke: #ff0000"/>
     <use xlink:href="#m14d7e696d2" x="252.070855" y="190.351824" style="fill: #ff0000; stroke: #ff0000"/>
     <use xlink:href="#m14d7e696d2" x="267.82848" y="189.378823" style="fill: #ff0000; stroke: #ff0000"/>
     <use xlink:href="#m14d7e696d2" x="283.28112" y="188.404834" style="fill: #ff0000; stroke: #ff0000"/>
     <use xlink:href="#m14d7e696d2" x="298.279958" y="187.449529" style="fill: #ff0000; stroke: #ff0000"/>
     <use xlink:href="#m14d7e696d2" x="312.680547" y="186.530894" style="fill: #ff0000; stroke: #ff0000"/>
     <use xlink:href="#m14d7e696d2" x="326.344201" y="185.643362" style="fill: #ff0000; stroke: #ff0000"/>
     <use xlink:href="#m14d7e696d2" x="339.139332" y="184.768353" style="fill: #ff0000; stroke: #ff0000"/>
     <use xlink:href="#m14d7e696d2" x="350.942715" y="183.935256" style="fill: #ff0000; stroke: #ff0000"/>
     <use xlink:href="#m14d7e696d2" x="361.640679" y="183.187275" style="fill: #ff0000; stroke: #ff0000"/>
     <use xlink:href="#m14d7e696d2" x="371.130195" y="182.562304" style="fill: #ff0000; stroke: #ff0000"/>
     <use xlink:href="#m14d7e696d2" x="379.319874" y="182.007852" style="fill: #ff0000; stroke: #ff0000"/>
     <use xlink:href="#m14d7e696d2" x="386.130845" y="181.473171" style="fill: #ff0000; stroke: #ff0000"/>
     <use xlink:href="#m14d7e696d2" x="391.497515" y="180.973276" style="fill: #ff0000; stroke: #ff0000"/>
     <use xlink:href="#m14d7e696d2" x="395.3682" y="180.566849" style="fill: #ff0000; stroke: #ff0000"/>
     <use xlink:href="#m14d7e696d2" x="397.705623" y="180.29116" style="fill: #ff0000; stroke: #ff0000"/>
     <use xlink:href="#m14d7e696d2" x="398.487273" y="180.193477" style="fill: #ff0000; stroke: #ff0000"/>
    </g>
   </g>
   <g id="line2d_17">
    <path d="M 73.832727 180.193477 
L 73.947456 179.184905 
L 74.265476 178.20672 
L 75.038321 176.779775 
L 76.104762 175.38129 
L 77.49438 173.993994 
L 79.235966 172.612178 
L 81.329404 171.255434 
L 83.770138 169.936723 
L 87.554936 168.209319 
L 91.932141 166.506743 
L 96.884304 164.871889 
L 102.391609 163.302994 
L 108.432197 161.798052 
L 114.981941 160.418331 
L 122.014703 159.18155 
L 129.502524 158.074426 
L 137.415494 157.110206 
L 145.722073 156.30084 
L 154.389199 155.652366 
L 163.382262 155.175086 
L 172.665439 154.878107 
L 182.201741 154.765825 
L 194.420031 154.877159 
L 206.898261 155.246714 
L 219.558716 155.844185 
L 234.880752 156.814089 
L 250.214246 158.004081 
L 265.421735 159.397843 
L 280.366879 160.984529 
L 297.292757 163.020257 
L 315.711726 165.482459 
L 332.86348 168.000849 
L 350.305305 170.789134 
L 368.467308 173.918766 
L 381.536759 176.370434 
L 390.854602 178.351395 
L 398.487273 180.193477 
L 398.487273 180.193477 
" clip-path="url(#p0f6ed91d41)" style="fill: none; stroke: #008000; stroke-width: 1.5; stroke-linecap: square"/>
   </g>
   <g id="line2d_18">
    <path d="M 73.832727 180.193477 
L 73.947456 181.154789 
L 74.265476 182.051326 
L 75.038321 183.319213 
L 76.104762 184.529748 
L 77.49438 185.675959 
L 79.235966 186.746258 
L 81.329404 187.731125 
L 83.770138 188.630485 
L 87.554936 189.741784 
L 91.932141 190.764698 
L 96.884304 191.629892 
L 102.391609 192.342992 
L 110.02287 193.079907 
L 118.439655 193.66085 
L 127.589524 194.054351 
L 137.415494 194.254949 
L 150.012701 194.267903 
L 163.382262 194.061986 
L 184.620921 193.475936 
L 206.898261 192.656025 
L 229.765334 191.589981 
L 252.761273 190.299758 
L 297.292757 187.512207 
L 342.817471 184.507288 
L 390.137638 181.097015 
L 398.487273 180.193477 
L 398.487273 180.193477 
" clip-path="url(#p0f6ed91d41)" style="fill: none; stroke: #008000; stroke-width: 1.5; stroke-linecap: square"/>
   </g>
   <g id="patch_3">
    <path d="M 57.6 307.584 
L 57.6 41.472 
" style="fill: none; stroke: #000000; stroke-width: 0.8; stroke-linejoin: miter; stroke-linecap: square"/>
   </g>
   <g id="patch_4">
    <path d="M 414.72 307.584 
L 414.72 41.472 
" style="fill: none; stroke: #000000; stroke-width: 0.8; stroke-linejoin: miter; stroke-linecap: square"/>
   </g>
   <g id="patch_5">
    <path d="M 57.6 307.584 
L 414.72 307.584 
" style="fill: none; stroke: #000000; stroke-width: 0.8; stroke-linejoin: miter; stroke-linecap: square"/>
   </g>
   <g id="patch_6">
    <path d="M 57.6 41.472 
L 414.72 41.472 
" style="fill: none; stroke: #000000; stroke-width: 0.8; stroke-linejoin: miter; stroke-linecap: square"/>
   </g>
   <g id="legend_1">
    <g id="patch_7">
     <path d="M 267.527813 78.82825 
L 407.72 78.82825 
Q 409.72 78.82825 409.72 76.82825 
L 409.72 48.472 
Q 409.72 46.472 407.72 46.472 
L 267.527813 46.472 
Q 265.527813 46.472 265.527813 48.472 
L 265.527813 76.82825 
Q 265.527813 78.82825 267.527813 78.82825 
z
" style="fill: #ffffff; opacity: 0.8; stroke: #cccccc; stroke-linejoin: miter"/>
    </g>
    <g id="line2d_19">
     <path d="M 269.527813 54.570437 
L 279.527813 54.570437 
L 289.527813 54.570437 
" style="fill: none; stroke: #ff0000; stroke-width: 1.5; stroke-linecap: square"/>
     <g>
      <use xlink:href="#m14d7e696d2" x="279.527813" y="54.570437" style="fill: #ff0000; stroke: #ff0000"/>
     </g>
    </g>
    <g id="text_15">
     <!-- Bspline control points -->
     <g transform="translate(297.527813 58.070437) scale(0.1 -0.1)">
      <defs>
       <path id="DejaVuSans-42" d="M 1259 2228 
L 1259 519 
L 2272 519 
Q 2781 519 3026 730 
Q 3272 941 3272 1375 
Q 3272 1813 3026 2020 
Q 2781 2228 2272 2228 
L 1259 2228 
z
M 1259 4147 
L 1259 2741 
L 2194 2741 
Q 2656 2741 2882 2914 
Q 3109 3088 3109 3444 
Q 3109 3797 2882 3972 
Q 2656 4147 2194 4147 
L 1259 4147 
z
M 628 4666 
L 2241 4666 
Q 2963 4666 3353 4366 
Q 3744 4066 3744 3513 
Q 3744 3084 3544 2831 
Q 3344 2578 2956 2516 
Q 3422 2416 3680 2098 
Q 3938 1781 3938 1306 
Q 3938 681 3513 340 
Q 3088 0 2303 0 
L 628 0 
L 628 4666 
z
" transform="scale(0.015625)"/>
       <path id="DejaVuSans-73" d="M 2834 3397 
L 2834 2853 
Q 2591 2978 2328 3040 
Q 2066 3103 1784 3103 
Q 1356 3103 1142 2972 
Q 928 2841 928 2578 
Q 928 2378 1081 2264 
Q 1234 2150 1697 2047 
L 1894 2003 
Q 2506 1872 2764 1633 
Q 3022 1394 3022 966 
Q 3022 478 2636 193 
Q 2250 -91 1575 -91 
Q 1294 -91 989 -36 
Q 684 19 347 128 
L 347 722 
Q 666 556 975 473 
Q 1284 391 1588 391 
Q 1994 391 2212 530 
Q 2431 669 2431 922 
Q 2431 1156 2273 1281 
Q 2116 1406 1581 1522 
L 1381 1569 
Q 847 1681 609 1914 
Q 372 2147 372 2553 
Q 372 3047 722 3315 
Q 1072 3584 1716 3584 
Q 2034 3584 2315 3537 
Q 2597 3491 2834 3397 
z
" transform="scale(0.015625)"/>
       <path id="DejaVuSans-70" d="M 1159 525 
L 1159 -1331 
L 581 -1331 
L 581 3500 
L 1159 3500 
L 1159 2969 
Q 1341 3281 1617 3432 
Q 1894 3584 2278 3584 
Q 2916 3584 3314 3078 
Q 3713 2572 3713 1747 
Q 3713 922 3314 415 
Q 2916 -91 2278 -91 
Q 1894 -91 1617 61 
Q 1341 213 1159 525 
z
M 3116 1747 
Q 3116 2381 2855 2742 
Q 2594 3103 2138 3103 
Q 1681 3103 1420 2742 
Q 1159 2381 1159 1747 
Q 1159 1113 1420 752 
Q 1681 391 2138 391 
Q 2594 391 2855 752 
Q 3116 1113 3116 1747 
z
" transform="scale(0.015625)"/>
       <path id="DejaVuSans-6c" d="M 603 4863 
L 1178 4863 
L 1178 0 
L 603 0 
L 603 4863 
z
" transform="scale(0.015625)"/>
       <path id="DejaVuSans-69" d="M 603 3500 
L 1178 3500 
L 1178 0 
L 603 0 
L 603 3500 
z
M 603 4863 
L 1178 4863 
L 1178 4134 
L 603 4134 
L 603 4863 
z
" transform="scale(0.015625)"/>
       <path id="DejaVuSans-6e" d="M 3513 2113 
L 3513 0 
L 2938 0 
L 2938 2094 
Q 2938 2591 2744 2837 
Q 2550 3084 2163 3084 
Q 1697 3084 1428 2787 
Q 1159 2491 1159 1978 
L 1159 0 
L 581 0 
L 581 3500 
L 1159 3500 
L 1159 2956 
Q 1366 3272 1645 3428 
Q 1925 3584 2291 3584 
Q 2894 3584 3203 3211 
Q 3513 2838 3513 2113 
z
" transform="scale(0.015625)"/>
       <path id="DejaVuSans-65" d="M 3597 1894 
L 3597 1613 
L 953 1613 
Q 991 1019 1311 708 
Q 1631 397 2203 397 
Q 2534 397 2845 478 
Q 3156 559 3463 722 
L 3463 178 
Q 3153 47 2828 -22 
Q 2503 -91 2169 -91 
Q 1331 -91 842 396 
Q 353 884 353 1716 
Q 353 2575 817 3079 
Q 1281 3584 2069 3584 
Q 2775 3584 3186 3129 
Q 3597 2675 3597 1894 
z
M 3022 2063 
Q 3016 2534 2758 2815 
Q 2500 3097 2075 3097 
Q 1594 3097 1305 2825 
Q 1016 2553 972 2059 
L 3022 2063 
z
" transform="scale(0.015625)"/>
       <path id="DejaVuSans-20" transform="scale(0.015625)"/>
       <path id="DejaVuSans-63" d="M 3122 3366 
L 3122 2828 
Q 2878 2963 2633 3030 
Q 2388 3097 2138 3097 
Q 1578 3097 1268 2742 
Q 959 2388 959 1747 
Q 959 1106 1268 751 
Q 1578 397 2138 397 
Q 2388 397 2633 464 
Q 2878 531 3122 666 
L 3122 134 
Q 2881 22 2623 -34 
Q 2366 -91 2075 -91 
Q 1284 -91 818 406 
Q 353 903 353 1747 
Q 353 2603 823 3093 
Q 1294 3584 2113 3584 
Q 2378 3584 2631 3529 
Q 2884 3475 3122 3366 
z
" transform="scale(0.015625)"/>
       <path id="DejaVuSans-6f" d="M 1959 3097 
Q 1497 3097 1228 2736 
Q 959 2375 959 1747 
Q 959 1119 1226 758 
Q 1494 397 1959 397 
Q 2419 397 2687 759 
Q 2956 1122 2956 1747 
Q 2956 2369 2687 2733 
Q 2419 3097 1959 3097 
z
M 1959 3584 
Q 2709 3584 3137 3096 
Q 3566 2609 3566 1747 
Q 3566 888 3137 398 
Q 2709 -91 1959 -91 
Q 1206 -91 779 398 
Q 353 888 353 1747 
Q 353 2609 779 3096 
Q 1206 3584 1959 3584 
z
" transform="scale(0.015625)"/>
       <path id="DejaVuSans-74" d="M 1172 4494 
L 1172 3500 
L 2356 3500 
L 2356 3053 
L 1172 3053 
L 1172 1153 
Q 1172 725 1289 603 
Q 1406 481 1766 481 
L 2356 481 
L 2356 0 
L 1766 0 
Q 1100 0 847 248 
Q 594 497 594 1153 
L 594 3053 
L 172 3053 
L 172 3500 
L 594 3500 
L 594 4494 
L 1172 4494 
z
" transform="scale(0.015625)"/>
       <path id="DejaVuSans-72" d="M 2631 2963 
Q 2534 3019 2420 3045 
Q 2306 3072 2169 3072 
Q 1681 3072 1420 2755 
Q 1159 2438 1159 1844 
L 1159 0 
L 581 0 
L 581 3500 
L 1159 3500 
L 1159 2956 
Q 1341 3275 1631 3429 
Q 1922 3584 2338 3584 
Q 2397 3584 2469 3576 
Q 2541 3569 2628 3553 
L 2631 2963 
z
" transform="scale(0.015625)"/>
      </defs>
      <use xlink:href="#DejaVuSans-42"/>
      <use xlink:href="#DejaVuSans-73" x="68.603516"/>
      <use xlink:href="#DejaVuSans-70" x="120.703125"/>
      <use xlink:href="#DejaVuSans-6c" x="184.179688"/>
      <use xlink:href="#DejaVuSans-69" x="211.962891"/>
      <use xlink:href="#DejaVuSans-6e" x="239.746094"/>
      <use xlink:href="#DejaVuSans-65" x="303.125"/>
      <use xlink:href="#DejaVuSans-20" x="364.648438"/>
      <use xlink:href="#DejaVuSans-63" x="396.435547"/>
      <use xlink:href="#DejaVuSans-6f" x="451.416016"/>
      <use xlink:href="#DejaVuSans-6e" x="512.597656"/>
      <use xlink:href="#DejaVuSans-74" x="575.976562"/>
      <use xlink:href="#DejaVuSans-72" x="615.185547"/>
      <use xlink:href="#DejaVuSans-6f" x="654.048828"/>
      <use xlink:href="#DejaVuSans-6c" x="715.230469"/>
      <use xlink:href="#DejaVuSans-20" x="743.013672"/>
      <use xlink:href="#DejaVuSans-70" x="774.800781"/>
      <use xlink:href="#DejaVuSans-6f" x="838.277344"/>
      <use xlink:href="#DejaVuSans-69" x="899.458984"/>
      <use xlink:href="#DejaVuSans-6e" x="927.242188"/>
      <use xlink:href="#DejaVuSans-74" x="990.621094"/>
      <use xlink:href="#DejaVuSans-73" x="1029.830078"/>
     </g>
    </g>
    <g id="line2d_20">
     <path d="M 269.527813 69.248562 
L 279.527813 69.248562 
L 289.527813 69.248562 
" style="fill: none; stroke: #008000; stroke-width: 1.5; stroke-linecap: square"/>
    </g>
    <g id="text_16">
     <!-- airfoil curve -->
     <g transform="translate(297.527813 72.748562) scale(0.1 -0.1)">
      <defs>
       <path id="DejaVuSans-61" d="M 2194 1759 
Q 1497 1759 1228 1600 
Q 959 1441 959 1056 
Q 959 750 1161 570 
Q 1363 391 1709 391 
Q 2188 391 2477 730 
Q 2766 1069 2766 1631 
L 2766 1759 
L 2194 1759 
z
M 3341 1997 
L 3341 0 
L 2766 0 
L 2766 531 
Q 2569 213 2275 61 
Q 1981 -91 1556 -91 
Q 1019 -91 701 211 
Q 384 513 384 1019 
Q 384 1609 779 1909 
Q 1175 2209 1959 2209 
L 2766 2209 
L 2766 2266 
Q 2766 2663 2505 2880 
Q 2244 3097 1772 3097 
Q 1472 3097 1187 3025 
Q 903 2953 641 2809 
L 641 3341 
Q 956 3463 1253 3523 
Q 1550 3584 1831 3584 
Q 2591 3584 2966 3190 
Q 3341 2797 3341 1997 
z
" transform="scale(0.015625)"/>
       <path id="DejaVuSans-66" d="M 2375 4863 
L 2375 4384 
L 1825 4384 
Q 1516 4384 1395 4259 
Q 1275 4134 1275 3809 
L 1275 3500 
L 2222 3500 
L 2222 3053 
L 1275 3053 
L 1275 0 
L 697 0 
L 697 3053 
L 147 3053 
L 147 3500 
L 697 3500 
L 697 3744 
Q 697 4328 969 4595 
Q 1241 4863 1831 4863 
L 2375 4863 
z
" transform="scale(0.015625)"/>
       <path id="DejaVuSans-75" d="M 544 1381 
L 544 3500 
L 1119 3500 
L 1119 1403 
Q 1119 906 1312 657 
Q 1506 409 1894 409 
Q 2359 409 2629 706 
Q 2900 1003 2900 1516 
L 2900 3500 
L 3475 3500 
L 3475 0 
L 2900 0 
L 2900 538 
Q 2691 219 2414 64 
Q 2138 -91 1772 -91 
Q 1169 -91 856 284 
Q 544 659 544 1381 
z
M 1991 3584 
L 1991 3584 
z
" transform="scale(0.015625)"/>
       <path id="DejaVuSans-76" d="M 191 3500 
L 800 3500 
L 1894 563 
L 2988 3500 
L 3597 3500 
L 2284 0 
L 1503 0 
L 191 3500 
z
" transform="scale(0.015625)"/>
      </defs>
      <use xlink:href="#DejaVuSans-61"/>
      <use xlink:href="#DejaVuSans-69" x="61.279297"/>
      <use xlink:href="#DejaVuSans-72" x="89.0625"/>
      <use xlink:href="#DejaVuSans-66" x="130.175781"/>
      <use xlink:href="#DejaVuSans-6f" x="165.380859"/>
      <use xlink:href="#DejaVuSans-69" x="226.5625"/>
      <use xlink:href="#DejaVuSans-6c" x="254.345703"/>
      <use xlink:href="#DejaVuSans-20" x="282.128906"/>
      <use xlink:href="#DejaVuSans-63" x="313.916016"/>
      <use xlink:href="#DejaVuSans-75" x="368.896484"/>
      <use xlink:href="#DejaVuSans-72" x="432.275391"/>
      <use xlink:href="#DejaVuSans-76" x="473.388672"/>
      <use xlink:href="#DejaVuSans-65" x="532.568359"/>
     </g>
    </g>
   </g>
  </g>
 </g>
 <defs>
  <clipPath id="p0f6ed91d41">
   <rect x="57.6" y="41.472" width="357.12" height="266.112"/>
  </clipPath>
 </defs>
</svg>
