<?xml version="1.0" encoding="utf-8" standalone="no"?>
<!DOCTYPE svg PUBLIC "-//W3C//DTD SVG 1.1//EN"
  "http://www.w3.org/Graphics/SVG/1.1/DTD/svg11.dtd">
<svg xmlns:xlink="http://www.w3.org/1999/xlink" width="460.8pt" height="345.6pt" viewBox="0 0 460.8 345.6" xmlns="http://www.w3.org/2000/svg" version="1.1">
 <metadata>
  <rdf:RDF xmlns:dc="http://purl.org/dc/elements/1.1/" xmlns:cc="http://creativecommons.org/ns#" xmlns:rdf="http://www.w3.org/1999/02/22-rdf-syntax-ns#">
   <cc:Work>
    <dc:type rdf:resource="http://purl.org/dc/dcmitype/StillImage"/>
    <dc:date>2023-11-02T00:18:12.482900</dc:date>
    <dc:format>image/svg+xml</dc:format>
    <dc:creator>
     <cc:Agent>
      <dc:title>Matplotlib v3.7.1, https://matplotlib.org/</dc:title>
     </cc:Agent>
    </dc:creator>
   </cc:Work>
  </rdf:RDF>
 </metadata>
 <defs>
  <style type="text/css">*{stroke-linejoin: round; stroke-linecap: butt}</style>
 </defs>
 <g id="figure_1">
  <g id="patch_1">
   <path d="M 0 345.6 
L 460.8 345.6 
L 460.8 0 
L 0 0 
z
" style="fill: #ffffff"/>
  </g>
  <g id="axes_1">
   <g id="patch_2">
    <path d="M 57.6 307.584 
L 414.72 307.584 
L 414.72 41.472 
L 57.6 41.472 
z
" style="fill: #ffffff"/>
   </g>
   <g id="matplotlib.axis_1">
    <g id="xtick_1">
     <g id="line2d_1">
      <defs>
       <path id="m3e57c51373" d="M 0 0 
L 0 3.5 
" style="stroke: #000000; stroke-width: 0.8"/>
      </defs>
      <g>
       <use xlink:href="#m3e57c51373" x="73.832727" y="307.584" style="stroke: #000000; stroke-width: 0.8"/>
      </g>
     </g>
     <g id="text_1">
      <!-- 0.0 -->
      <g transform="translate(65.881165 322.182437) scale(0.1 -0.1)">
       <defs>
        <path id="DejaVuSans-30" d="M 2034 4250 
Q 1547 4250 1301 3770 
Q 1056 3291 1056 2328 
Q 1056 1369 1301 889 
Q 1547 409 2034 409 
Q 2525 409 2770 889 
Q 3016 1369 3016 2328 
Q 3016 3291 2770 3770 
Q 2525 4250 2034 4250 
z
M 2034 4750 
Q 2819 4750 3233 4129 
Q 3647 3509 3647 2328 
Q 3647 1150 3233 529 
Q 2819 -91 2034 -91 
Q 1250 -91 836 529 
Q 422 1150 422 2328 
Q 422 3509 836 4129 
Q 1250 4750 2034 4750 
z
" transform="scale(0.015625)"/>
        <path id="DejaVuSans-2e" d="M 684 794 
L 1344 794 
L 1344 0 
L 684 0 
L 684 794 
z
" transform="scale(0.015625)"/>
       </defs>
       <use xlink:href="#DejaVuSans-30"/>
       <use xlink:href="#DejaVuSans-2e" x="63.623047"/>
       <use xlink:href="#DejaVuSans-30" x="95.410156"/>
      </g>
     </g>
    </g>
    <g id="xtick_2">
     <g id="line2d_2">
      <g>
       <use xlink:href="#m3e57c51373" x="138.763636" y="307.584" style="stroke: #000000; stroke-width: 0.8"/>
      </g>
     </g>
     <g id="text_2">
      <!-- 0.2 -->
      <g transform="translate(130.812074 322.182437) scale(0.1 -0.1)">
       <defs>
        <path id="DejaVuSans-32" d="M 1228 531 
L 3431 531 
L 3431 0 
L 469 0 
L 469 531 
Q 828 903 1448 1529 
Q 2069 2156 2228 2338 
Q 2531 2678 2651 2914 
Q 2772 3150 2772 3378 
Q 2772 3750 2511 3984 
Q 2250 4219 1831 4219 
Q 1534 4219 1204 4116 
Q 875 4013 500 3803 
L 500 4441 
Q 881 4594 1212 4672 
Q 1544 4750 1819 4750 
Q 2544 4750 2975 4387 
Q 3406 4025 3406 3419 
Q 3406 3131 3298 2873 
Q 3191 2616 2906 2266 
Q 2828 2175 2409 1742 
Q 1991 1309 1228 531 
z
" transform="scale(0.015625)"/>
       </defs>
       <use xlink:href="#DejaVuSans-30"/>
       <use xlink:href="#DejaVuSans-2e" x="63.623047"/>
       <use xlink:href="#DejaVuSans-32" x="95.410156"/>
      </g>
     </g>
    </g>
    <g id="xtick_3">
     <g id="line2d_3">
      <g>
       <use xlink:href="#m3e57c51373" x="203.694545" y="307.584" style="stroke: #000000; stroke-width: 0.8"/>
      </g>
     </g>
     <g id="text_3">
      <!-- 0.4 -->
      <g transform="translate(195.742983 322.182437) scale(0.1 -0.1)">
       <defs>
        <path id="DejaVuSans-34" d="M 2419 4116 
L 825 1625 
L 2419 1625 
L 2419 4116 
z
M 2253 4666 
L 3047 4666 
L 3047 1625 
L 3713 1625 
L 3713 1100 
L 3047 1100 
L 3047 0 
L 2419 0 
L 2419 1100 
L 313 1100 
L 313 1709 
L 2253 4666 
z
" transform="scale(0.015625)"/>
       </defs>
       <use xlink:href="#DejaVuSans-30"/>
       <use xlink:href="#DejaVuSans-2e" x="63.623047"/>
       <use xlink:href="#DejaVuSans-34" x="95.410156"/>
      </g>
     </g>
    </g>
    <g id="xtick_4">
     <g id="line2d_4">
      <g>
       <use xlink:href="#m3e57c51373" x="268.625455" y="307.584" style="stroke: #000000; stroke-width: 0.8"/>
      </g>
     </g>
     <g id="text_4">
      <!-- 0.6 -->
      <g transform="translate(260.673892 322.182437) scale(0.1 -0.1)">
       <defs>
        <path id="DejaVuSans-36" d="M 2113 2584 
Q 1688 2584 1439 2293 
Q 1191 2003 1191 1497 
Q 1191 994 1439 701 
Q 1688 409 2113 409 
Q 2538 409 2786 701 
Q 3034 994 3034 1497 
Q 3034 2003 2786 2293 
Q 2538 2584 2113 2584 
z
M 3366 4563 
L 3366 3988 
Q 3128 4100 2886 4159 
Q 2644 4219 2406 4219 
Q 1781 4219 1451 3797 
Q 1122 3375 1075 2522 
Q 1259 2794 1537 2939 
Q 1816 3084 2150 3084 
Q 2853 3084 3261 2657 
Q 3669 2231 3669 1497 
Q 3669 778 3244 343 
Q 2819 -91 2113 -91 
Q 1303 -91 875 529 
Q 447 1150 447 2328 
Q 447 3434 972 4092 
Q 1497 4750 2381 4750 
Q 2619 4750 2861 4703 
Q 3103 4656 3366 4563 
z
" transform="scale(0.015625)"/>
       </defs>
       <use xlink:href="#DejaVuSans-30"/>
       <use xlink:href="#DejaVuSans-2e" x="63.623047"/>
       <use xlink:href="#DejaVuSans-36" x="95.410156"/>
      </g>
     </g>
    </g>
    <g id="xtick_5">
     <g id="line2d_5">
      <g>
       <use xlink:href="#m3e57c51373" x="333.556364" y="307.584" style="stroke: #000000; stroke-width: 0.8"/>
      </g>
     </g>
     <g id="text_5">
      <!-- 0.8 -->
      <g transform="translate(325.604801 322.182437) scale(0.1 -0.1)">
       <defs>
        <path id="DejaVuSans-38" d="M 2034 2216 
Q 1584 2216 1326 1975 
Q 1069 1734 1069 1313 
Q 1069 891 1326 650 
Q 1584 409 2034 409 
Q 2484 409 2743 651 
Q 3003 894 3003 1313 
Q 3003 1734 2745 1975 
Q 2488 2216 2034 2216 
z
M 1403 2484 
Q 997 2584 770 2862 
Q 544 3141 544 3541 
Q 544 4100 942 4425 
Q 1341 4750 2034 4750 
Q 2731 4750 3128 4425 
Q 3525 4100 3525 3541 
Q 3525 3141 3298 2862 
Q 3072 2584 2669 2484 
Q 3125 2378 3379 2068 
Q 3634 1759 3634 1313 
Q 3634 634 3220 271 
Q 2806 -91 2034 -91 
Q 1263 -91 848 271 
Q 434 634 434 1313 
Q 434 1759 690 2068 
Q 947 2378 1403 2484 
z
M 1172 3481 
Q 1172 3119 1398 2916 
Q 1625 2713 2034 2713 
Q 2441 2713 2670 2916 
Q 2900 3119 2900 3481 
Q 2900 3844 2670 4047 
Q 2441 4250 2034 4250 
Q 1625 4250 1398 4047 
Q 1172 3844 1172 3481 
z
" transform="scale(0.015625)"/>
       </defs>
       <use xlink:href="#DejaVuSans-30"/>
       <use xlink:href="#DejaVuSans-2e" x="63.623047"/>
       <use xlink:href="#DejaVuSans-38" x="95.410156"/>
      </g>
     </g>
    </g>
    <g id="xtick_6">
     <g id="line2d_6">
      <g>
       <use xlink:href="#m3e57c51373" x="398.487273" y="307.584" style="stroke: #000000; stroke-width: 0.8"/>
      </g>
     </g>
     <g id="text_6">
      <!-- 1.0 -->
      <g transform="translate(390.53571 322.182437) scale(0.1 -0.1)">
       <defs>
        <path id="DejaVuSans-31" d="M 794 531 
L 1825 531 
L 1825 4091 
L 703 3866 
L 703 4441 
L 1819 4666 
L 2450 4666 
L 2450 531 
L 3481 531 
L 3481 0 
L 794 0 
L 794 531 
z
" transform="scale(0.015625)"/>
       </defs>
       <use xlink:href="#DejaVuSans-31"/>
       <use xlink:href="#DejaVuSans-2e" x="63.623047"/>
       <use xlink:href="#DejaVuSans-30" x="95.410156"/>
      </g>
     </g>
    </g>
   </g>
   <g id="matplotlib.axis_2">
    <g id="ytick_1">
     <g id="line2d_7">
      <defs>
       <path id="m809693969e" d="M 0 0 
L -3.5 0 
" style="stroke: #000000; stroke-width: 0.8"/>
      </defs>
      <g>
       <use xlink:href="#m809693969e" x="57.6" y="281.367442" style="stroke: #000000; stroke-width: 0.8"/>
      </g>
     </g>
     <g id="text_7">
      <!-- −0.3 -->
      <g transform="translate(26.317187 285.16666) scale(0.1 -0.1)">
       <defs>
        <path id="DejaVuSans-2212" d="M 678 2272 
L 4684 2272 
L 4684 1741 
L 678 1741 
L 678 2272 
z
" transform="scale(0.015625)"/>
        <path id="DejaVuSans-33" d="M 2597 2516 
Q 3050 2419 3304 2112 
Q 3559 1806 3559 1356 
Q 3559 666 3084 287 
Q 2609 -91 1734 -91 
Q 1441 -91 1130 -33 
Q 819 25 488 141 
L 488 750 
Q 750 597 1062 519 
Q 1375 441 1716 441 
Q 2309 441 2620 675 
Q 2931 909 2931 1356 
Q 2931 1769 2642 2001 
Q 2353 2234 1838 2234 
L 1294 2234 
L 1294 2753 
L 1863 2753 
Q 2328 2753 2575 2939 
Q 2822 3125 2822 3475 
Q 2822 3834 2567 4026 
Q 2313 4219 1838 4219 
Q 1578 4219 1281 4162 
Q 984 4106 628 3988 
L 628 4550 
Q 988 4650 1302 4700 
Q 1616 4750 1894 4750 
Q 2613 4750 3031 4423 
Q 3450 4097 3450 3541 
Q 3450 3153 3228 2886 
Q 3006 2619 2597 2516 
z
" transform="scale(0.015625)"/>
       </defs>
       <use xlink:href="#DejaVuSans-2212"/>
       <use xlink:href="#DejaVuSans-30" x="83.789062"/>
       <use xlink:href="#DejaVuSans-2e" x="147.412109"/>
       <use xlink:href="#DejaVuSans-33" x="179.199219"/>
      </g>
     </g>
    </g>
    <g id="ytick_2">
     <g id="line2d_8">
      <g>
       <use xlink:href="#m809693969e" x="57.6" y="248.901987" style="stroke: #000000; stroke-width: 0.8"/>
      </g>
     </g>
     <g id="text_8">
      <!-- −0.2 -->
      <g transform="translate(26.317187 252.701206) scale(0.1 -0.1)">
       <use xlink:href="#DejaVuSans-2212"/>
       <use xlink:href="#DejaVuSans-30" x="83.789062"/>
       <use xlink:href="#DejaVuSans-2e" x="147.412109"/>
       <use xlink:href="#DejaVuSans-32" x="179.199219"/>
      </g>
     </g>
    </g>
    <g id="ytick_3">
     <g id="line2d_9">
      <g>
       <use xlink:href="#m809693969e" x="57.6" y="216.436533" style="stroke: #000000; stroke-width: 0.8"/>
      </g>
     </g>
     <g id="text_9">
      <!-- −0.1 -->
      <g transform="translate(26.317187 220.235751) scale(0.1 -0.1)">
       <use xlink:href="#DejaVuSans-2212"/>
       <use xlink:href="#DejaVuSans-30" x="83.789062"/>
       <use xlink:href="#DejaVuSans-2e" x="147.412109"/>
       <use xlink:href="#DejaVuSans-31" x="179.199219"/>
      </g>
     </g>
    </g>
    <g id="ytick_4">
     <g id="line2d_10">
      <g>
       <use xlink:href="#m809693969e" x="57.6" y="183.971078" style="stroke: #000000; stroke-width: 0.8"/>
      </g>
     </g>
     <g id="text_10">
      <!-- 0.0 -->
      <g transform="translate(34.696875 187.770297) scale(0.1 -0.1)">
       <use xlink:href="#DejaVuSans-30"/>
       <use xlink:href="#DejaVuSans-2e" x="63.623047"/>
       <use xlink:href="#DejaVuSans-30" x="95.410156"/>
      </g>
     </g>
    </g>
    <g id="ytick_5">
     <g id="line2d_11">
      <g>
       <use xlink:href="#m809693969e" x="57.6" y="151.505623" style="stroke: #000000; stroke-width: 0.8"/>
      </g>
     </g>
     <g id="text_11">
      <!-- 0.1 -->
      <g transform="translate(34.696875 155.304842) scale(0.1 -0.1)">
       <use xlink:href="#DejaVuSans-30"/>
       <use xlink:href="#DejaVuSans-2e" x="63.623047"/>
       <use xlink:href="#DejaVuSans-31" x="95.410156"/>
      </g>
     </g>
    </g>
    <g id="ytick_6">
     <g id="line2d_12">
      <g>
       <use xlink:href="#m809693969e" x="57.6" y="119.040169" style="stroke: #000000; stroke-width: 0.8"/>
      </g>
     </g>
     <g id="text_12">
      <!-- 0.2 -->
      <g transform="translate(34.696875 122.839388) scale(0.1 -0.1)">
       <use xlink:href="#DejaVuSans-30"/>
       <use xlink:href="#DejaVuSans-2e" x="63.623047"/>
       <use xlink:href="#DejaVuSans-32" x="95.410156"/>
      </g>
     </g>
    </g>
    <g id="ytick_7">
     <g id="line2d_13">
      <g>
       <use xlink:href="#m809693969e" x="57.6" y="86.574714" style="stroke: #000000; stroke-width: 0.8"/>
      </g>
     </g>
     <g id="text_13">
      <!-- 0.3 -->
      <g transform="translate(34.696875 90.373933) scale(0.1 -0.1)">
       <use xlink:href="#DejaVuSans-30"/>
       <use xlink:href="#DejaVuSans-2e" x="63.623047"/>
       <use xlink:href="#DejaVuSans-33" x="95.410156"/>
      </g>
     </g>
    </g>
    <g id="ytick_8">
     <g id="line2d_14">
      <g>
       <use xlink:href="#m809693969e" x="57.6" y="54.10926" style="stroke: #000000; stroke-width: 0.8"/>
      </g>
     </g>
     <g id="text_14">
      <!-- 0.4 -->
      <g transform="translate(34.696875 57.908479) scale(0.1 -0.1)">
       <use xlink:href="#DejaVuSans-30"/>
       <use xlink:href="#DejaVuSans-2e" x="63.623047"/>
       <use xlink:href="#DejaVuSans-34" x="95.410156"/>
      </g>
     </g>
    </g>
   </g>
   <g id="line2d_15">
    <path d="M 73.832727 183.971078 
L 73.832727 183.041026 
L 74.614377 181.002869 
L 76.9518 178.055819 
L 80.822485 175.210175 
L 86.189155 172.435044 
L 93.000126 170.058256 
L 101.189805 167.661265 
L 110.679321 165.609135 
L 121.377285 163.814581 
L 133.180668 162.36328 
L 145.975799 161.32193 
L 159.639453 160.749325 
L 174.040042 160.355581 
L 189.03888 160.340982 
L 204.49152 160.849438 
L 220.249145 161.579086 
L 236.16 162.618504 
L 252.070855 163.921203 
L 267.82848 165.191284 
L 283.28112 166.775622 
L 298.279958 168.425229 
L 312.680547 170.483162 
L 326.344201 171.830317 
L 339.139332 173.499181 
L 350.942715 175.12391 
L 361.640679 176.562411 
L 371.130195 177.898982 
L 379.319874 179.147411 
L 386.130845 180.312015 
L 391.497515 181.323459 
L 395.3682 182.548614 
L 397.705623 183.432881 
L 398.487273 183.971078 
" clip-path="url(#pa87094fb07)" style="fill: none; stroke: #ff0000; stroke-width: 1.5; stroke-linecap: square"/>
    <defs>
     <path id="mea79844167" d="M 0 3 
C 0.795609 3 1.55874 2.683901 2.12132 2.12132 
C 2.683901 1.55874 3 0.795609 3 0 
C 3 -0.795609 2.683901 -1.55874 2.12132 -2.12132 
C 1.55874 -2.683901 0.795609 -3 0 -3 
C -0.795609 -3 -1.55874 -2.683901 -2.12132 -2.12132 
C -2.683901 -1.55874 -3 -0.795609 -3 0 
C -3 0.795609 -2.683901 1.55874 -2.12132 2.12132 
C -1.55874 2.683901 -0.795609 3 0 3 
z
" style="stroke: #ff0000"/>
    </defs>
    <g clip-path="url(#pa87094fb07)">
     <use xlink:href="#mea79844167" x="73.832727" y="183.971078" style="fill: #ff0000; stroke: #ff0000"/>
     <use xlink:href="#mea79844167" x="73.832727" y="183.041026" style="fill: #ff0000; stroke: #ff0000"/>
     <use xlink:href="#mea79844167" x="74.614377" y="181.002869" style="fill: #ff0000; stroke: #ff0000"/>
     <use xlink:href="#mea79844167" x="76.9518" y="178.055819" style="fill: #ff0000; stroke: #ff0000"/>
     <use xlink:href="#mea79844167" x="80.822485" y="175.210175" style="fill: #ff0000; stroke: #ff0000"/>
     <use xlink:href="#mea79844167" x="86.189155" y="172.435044" style="fill: #ff0000; stroke: #ff0000"/>
     <use xlink:href="#mea79844167" x="93.000126" y="170.058256" style="fill: #ff0000; stroke: #ff0000"/>
     <use xlink:href="#mea79844167" x="101.189805" y="167.661265" style="fill: #ff0000; stroke: #ff0000"/>
     <use xlink:href="#mea79844167" x="110.679321" y="165.609135" style="fill: #ff0000; stroke: #ff0000"/>
     <use xlink:href="#mea79844167" x="121.377285" y="163.814581" style="fill: #ff0000; stroke: #ff0000"/>
     <use xlink:href="#mea79844167" x="133.180668" y="162.36328" style="fill: #ff0000; stroke: #ff0000"/>
     <use xlink:href="#mea79844167" x="145.975799" y="161.32193" style="fill: #ff0000; stroke: #ff0000"/>
     <use xlink:href="#mea79844167" x="159.639453" y="160.749325" style="fill: #ff0000; stroke: #ff0000"/>
     <use xlink:href="#mea79844167" x="174.040042" y="160.355581" style="fill: #ff0000; stroke: #ff0000"/>
     <use xlink:href="#mea79844167" x="189.03888" y="160.340982" style="fill: #ff0000; stroke: #ff0000"/>
     <use xlink:href="#mea79844167" x="204.49152" y="160.849438" style="fill: #ff0000; stroke: #ff0000"/>
     <use xlink:href="#mea79844167" x="220.249145" y="161.579086" style="fill: #ff0000; stroke: #ff0000"/>
     <use xlink:href="#mea79844167" x="236.16" y="162.618504" style="fill: #ff0000; stroke: #ff0000"/>
     <use xlink:href="#mea79844167" x="252.070855" y="163.921203" style="fill: #ff0000; stroke: #ff0000"/>
     <use xlink:href="#mea79844167" x="267.82848" y="165.191284" style="fill: #ff0000; stroke: #ff0000"/>
     <use xlink:href="#mea79844167" x="283.28112" y="166.775622" style="fill: #ff0000; stroke: #ff0000"/>
     <use xlink:href="#mea79844167" x="298.279958" y="168.425229" style="fill: #ff0000; stroke: #ff0000"/>
     <use xlink:href="#mea79844167" x="312.680547" y="170.483162" style="fill: #ff0000; stroke: #ff0000"/>
     <use xlink:href="#mea79844167" x="326.344201" y="171.830317" style="fill: #ff0000; stroke: #ff0000"/>
     <use xlink:href="#mea79844167" x="339.139332" y="173.499181" style="fill: #ff0000; stroke: #ff0000"/>
     <use xlink:href="#mea79844167" x="350.942715" y="175.12391" style="fill: #ff0000; stroke: #ff0000"/>
     <use xlink:href="#mea79844167" x="361.640679" y="176.562411" style="fill: #ff0000; stroke: #ff0000"/>
     <use xlink:href="#mea79844167" x="371.130195" y="177.898982" style="fill: #ff0000; stroke: #ff0000"/>
     <use xlink:href="#mea79844167" x="379.319874" y="179.147411" style="fill: #ff0000; stroke: #ff0000"/>
     <use xlink:href="#mea79844167" x="386.130845" y="180.312015" style="fill: #ff0000; stroke: #ff0000"/>
     <use xlink:href="#mea79844167" x="391.497515" y="181.323459" style="fill: #ff0000; stroke: #ff0000"/>
     <use xlink:href="#mea79844167" x="395.3682" y="182.548614" style="fill: #ff0000; stroke: #ff0000"/>
     <use xlink:href="#mea79844167" x="397.705623" y="183.432881" style="fill: #ff0000; stroke: #ff0000"/>
     <use xlink:href="#mea79844167" x="398.487273" y="183.971078" style="fill: #ff0000; stroke: #ff0000"/>
    </g>
   </g>
   <g id="line2d_16">
    <path d="M 73.832727 183.971078 
L 73.832727 184.197649 
L 74.614377 184.742891 
L 76.9518 185.61988 
L 80.822485 186.409477 
L 86.189155 186.960898 
L 93.000126 187.69051 
L 101.189805 188.140803 
L 110.679321 188.418723 
L 121.377285 188.595207 
L 133.180668 188.715018 
L 145.975799 188.669877 
L 159.639453 188.588377 
L 174.040042 188.33126 
L 189.03888 188.084602 
L 204.49152 187.794529 
L 220.249145 187.344679 
L 236.16 186.81912 
L 252.070855 186.37249 
L 267.82848 185.785071 
L 283.28112 185.274182 
L 298.279958 184.956935 
L 312.680547 184.626741 
L 326.344201 184.366551 
L 339.139332 184.124515 
L 350.942715 183.904617 
L 361.640679 183.746968 
L 371.130195 183.702394 
L 379.319874 183.657281 
L 386.130845 183.651867 
L 391.497515 183.647052 
L 395.3682 183.719248 
L 397.705623 183.818746 
L 398.487273 183.971078 
" clip-path="url(#pa87094fb07)" style="fill: none; stroke: #ff0000; stroke-width: 1.5; stroke-linecap: square"/>
    <g clip-path="url(#pa87094fb07)">
     <use xlink:href="#mea79844167" x="73.832727" y="183.971078" style="fill: #ff0000; stroke: #ff0000"/>
     <use xlink:href="#mea79844167" x="73.832727" y="184.197649" style="fill: #ff0000; stroke: #ff0000"/>
     <use xlink:href="#mea79844167" x="74.614377" y="184.742891" style="fill: #ff0000; stroke: #ff0000"/>
     <use xlink:href="#mea79844167" x="76.9518" y="185.61988" style="fill: #ff0000; stroke: #ff0000"/>
     <use xlink:href="#mea79844167" x="80.822485" y="186.409477" style="fill: #ff0000; stroke: #ff0000"/>
     <use xlink:href="#mea79844167" x="86.189155" y="186.960898" style="fill: #ff0000; stroke: #ff0000"/>
     <use xlink:href="#mea79844167" x="93.000126" y="187.69051" style="fill: #ff0000; stroke: #ff0000"/>
     <use xlink:href="#mea79844167" x="101.189805" y="188.140803" style="fill: #ff0000; stroke: #ff0000"/>
     <use xlink:href="#mea79844167" x="110.679321" y="188.418723" style="fill: #ff0000; stroke: #ff0000"/>
     <use xlink:href="#mea79844167" x="121.377285" y="188.595207" style="fill: #ff0000; stroke: #ff0000"/>
     <use xlink:href="#mea79844167" x="133.180668" y="188.715018" style="fill: #ff0000; stroke: #ff0000"/>
     <use xlink:href="#mea79844167" x="145.975799" y="188.669877" style="fill: #ff0000; stroke: #ff0000"/>
     <use xlink:href="#mea79844167" x="159.639453" y="188.588377" style="fill: #ff0000; stroke: #ff0000"/>
     <use xlink:href="#mea79844167" x="174.040042" y="188.33126" style="fill: #ff0000; stroke: #ff0000"/>
     <use xlink:href="#mea79844167" x="189.03888" y="188.084602" style="fill: #ff0000; stroke: #ff0000"/>
     <use xlink:href="#mea79844167" x="204.49152" y="187.794529" style="fill: #ff0000; stroke: #ff0000"/>
     <use xlink:href="#mea79844167" x="220.249145" y="187.344679" style="fill: #ff0000; stroke: #ff0000"/>
     <use xlink:href="#mea79844167" x="236.16" y="186.81912" style="fill: #ff0000; stroke: #ff0000"/>
     <use xlink:href="#mea79844167" x="252.070855" y="186.37249" style="fill: #ff0000; stroke: #ff0000"/>
     <use xlink:href="#mea79844167" x="267.82848" y="185.785071" style="fill: #ff0000; stroke: #ff0000"/>
     <use xlink:href="#mea79844167" x="283.28112" y="185.274182" style="fill: #ff0000; stroke: #ff0000"/>
     <use xlink:href="#mea79844167" x="298.279958" y="184.956935" style="fill: #ff0000; stroke: #ff0000"/>
     <use xlink:href="#mea79844167" x="312.680547" y="184.626741" style="fill: #ff0000; stroke: #ff0000"/>
     <use xlink:href="#mea79844167" x="326.344201" y="184.366551" style="fill: #ff0000; stroke: #ff0000"/>
     <use xlink:href="#mea79844167" x="339.139332" y="184.124515" style="fill: #ff0000; stroke: #ff0000"/>
     <use xlink:href="#mea79844167" x="350.942715" y="183.904617" style="fill: #ff0000; stroke: #ff0000"/>
     <use xlink:href="#mea79844167" x="361.640679" y="183.746968" style="fill: #ff0000; stroke: #ff0000"/>
     <use xlink:href="#mea79844167" x="371.130195" y="183.702394" style="fill: #ff0000; stroke: #ff0000"/>
     <use xlink:href="#mea79844167" x="379.319874" y="183.657281" style="fill: #ff0000; stroke: #ff0000"/>
     <use xlink:href="#mea79844167" x="386.130845" y="183.651867" style="fill: #ff0000; stroke: #ff0000"/>
     <use xlink:href="#mea79844167" x="391.497515" y="183.647052" style="fill: #ff0000; stroke: #ff0000"/>
     <use xlink:href="#mea79844167" x="395.3682" y="183.719248" style="fill: #ff0000; stroke: #ff0000"/>
     <use xlink:href="#mea79844167" x="397.705623" y="183.818746" style="fill: #ff0000; stroke: #ff0000"/>
     <use xlink:href="#mea79844167" x="398.487273" y="183.971078" style="fill: #ff0000; stroke: #ff0000"/>
    </g>
   </g>
   <g id="line2d_17">
    <path d="M 73.832727 183.971078 
L 73.947456 183.049689 
L 74.265476 182.094486 
L 75.038321 180.644946 
L 76.104762 179.215849 
L 77.49438 177.81115 
L 79.235966 176.429177 
L 81.329404 175.066696 
L 83.770138 173.729501 
L 86.552552 172.449737 
L 89.67055 171.248426 
L 94.337523 169.707024 
L 99.569875 168.195356 
L 105.346724 166.788404 
L 111.64499 165.507826 
L 118.439655 164.341766 
L 125.703573 163.307593 
L 133.407777 162.425347 
L 141.521623 161.712489 
L 150.012701 161.183568 
L 161.105365 160.733847 
L 172.665439 160.441172 
L 184.620921 160.377311 
L 194.420031 160.543122 
L 206.898261 160.982192 
L 222.105756 161.735003 
L 237.439255 162.757364 
L 260.375021 164.598467 
L 275.422642 165.979658 
L 292.523998 167.811905 
L 304.330116 169.298129 
L 315.711726 170.733513 
L 334.904509 172.953697 
L 360.675015 176.440539 
L 376.7266 178.759644 
L 386.732072 180.438089 
L 391.509937 181.409378 
L 394.090355 182.156308 
L 397.202161 183.299452 
L 398.487273 183.971078 
L 398.487273 183.971078 
" clip-path="url(#pa87094fb07)" style="fill: none; stroke: #008000; stroke-width: 1.5; stroke-linecap: square"/>
   </g>
   <g id="line2d_18">
    <path d="M 73.832727 183.971078 
L 73.947456 184.202764 
L 74.488453 184.588074 
L 75.71541 185.135473 
L 77.49438 185.680311 
L 79.89489 186.18323 
L 83.770138 186.706664 
L 93.116997 187.635032 
L 99.569875 188.031221 
L 108.432197 188.342621 
L 123.84514 188.614249 
L 139.456512 188.688611 
L 161.105365 188.542169 
L 196.897354 187.933033 
L 217.015823 187.430813 
L 267.934473 185.792311 
L 287.699076 185.191305 
L 330.79837 184.282398 
L 365.44665 183.732748 
L 392.655399 183.67242 
L 397.509599 183.848599 
L 398.487273 183.971078 
L 398.487273 183.971078 
" clip-path="url(#pa87094fb07)" style="fill: none; stroke: #008000; stroke-width: 1.5; stroke-linecap: square"/>
   </g>
   <g id="patch_3">
    <path d="M 57.6 307.584 
L 57.6 41.472 
" style="fill: none; stroke: #000000; stroke-width: 0.8; stroke-linejoin: miter; stroke-linecap: square"/>
   </g>
   <g id="patch_4">
    <path d="M 414.72 307.584 
L 414.72 41.472 
" style="fill: none; stroke: #000000; stroke-width: 0.8; stroke-linejoin: miter; stroke-linecap: square"/>
   </g>
   <g id="patch_5">
    <path d="M 57.6 307.584 
L 414.72 307.584 
" style="fill: none; stroke: #000000; stroke-width: 0.8; stroke-linejoin: miter; stroke-linecap: square"/>
   </g>
   <g id="patch_6">
    <path d="M 57.6 41.472 
L 414.72 41.472 
" style="fill: none; stroke: #000000; stroke-width: 0.8; stroke-linejoin: miter; stroke-linecap: square"/>
   </g>
   <g id="legend_1">
    <g id="patch_7">
     <path d="M 267.527813 78.82825 
L 407.72 78.82825 
Q 409.72 78.82825 409.72 76.82825 
L 409.72 48.472 
Q 409.72 46.472 407.72 46.472 
L 267.527813 46.472 
Q 265.527813 46.472 265.527813 48.472 
L 265.527813 76.82825 
Q 265.527813 78.82825 267.527813 78.82825 
z
" style="fill: #ffffff; opacity: 0.8; stroke: #cccccc; stroke-linejoin: miter"/>
    </g>
    <g id="line2d_19">
     <path d="M 269.527813 54.570437 
L 279.527813 54.570437 
L 289.527813 54.570437 
" style="fill: none; stroke: #ff0000; stroke-width: 1.5; stroke-linecap: square"/>
     <g>
      <use xlink:href="#mea79844167" x="279.527813" y="54.570437" style="fill: #ff0000; stroke: #ff0000"/>
     </g>
    </g>
    <g id="text_15">
     <!-- Bspline control points -->
     <g transform="translate(297.527813 58.070437) scale(0.1 -0.1)">
      <defs>
       <path id="DejaVuSans-42" d="M 1259 2228 
L 1259 519 
L 2272 519 
Q 2781 519 3026 730 
Q 3272 941 3272 1375 
Q 3272 1813 3026 2020 
Q 2781 2228 2272 2228 
L 1259 2228 
z
M 1259 4147 
L 1259 2741 
L 2194 2741 
Q 2656 2741 2882 2914 
Q 3109 3088 3109 3444 
Q 3109 3797 2882 3972 
Q 2656 4147 2194 4147 
L 1259 4147 
z
M 628 4666 
L 2241 4666 
Q 2963 4666 3353 4366 
Q 3744 4066 3744 3513 
Q 3744 3084 3544 2831 
Q 3344 2578 2956 2516 
Q 3422 2416 3680 2098 
Q 3938 1781 3938 1306 
Q 3938 681 3513 340 
Q 3088 0 2303 0 
L 628 0 
L 628 4666 
z
" transform="scale(0.015625)"/>
       <path id="DejaVuSans-73" d="M 2834 3397 
L 2834 2853 
Q 2591 2978 2328 3040 
Q 2066 3103 1784 3103 
Q 1356 3103 1142 2972 
Q 928 2841 928 2578 
Q 928 2378 1081 2264 
Q 1234 2150 1697 2047 
L 1894 2003 
Q 2506 1872 2764 1633 
Q 3022 1394 3022 966 
Q 3022 478 2636 193 
Q 2250 -91 1575 -91 
Q 1294 -91 989 -36 
Q 684 19 347 128 
L 347 722 
Q 666 556 975 473 
Q 1284 391 1588 391 
Q 1994 391 2212 530 
Q 2431 669 2431 922 
Q 2431 1156 2273 1281 
Q 2116 1406 1581 1522 
L 1381 1569 
Q 847 1681 609 1914 
Q 372 2147 372 2553 
Q 372 3047 722 3315 
Q 1072 3584 1716 3584 
Q 2034 3584 2315 3537 
Q 2597 3491 2834 3397 
z
" transform="scale(0.015625)"/>
       <path id="DejaVuSans-70" d="M 1159 525 
L 1159 -1331 
L 581 -1331 
L 581 3500 
L 1159 3500 
L 1159 2969 
Q 1341 3281 1617 3432 
Q 1894 3584 2278 3584 
Q 2916 3584 3314 3078 
Q 3713 2572 3713 1747 
Q 3713 922 3314 415 
Q 2916 -91 2278 -91 
Q 1894 -91 1617 61 
Q 1341 213 1159 525 
z
M 3116 1747 
Q 3116 2381 2855 2742 
Q 2594 3103 2138 3103 
Q 1681 3103 1420 2742 
Q 1159 2381 1159 1747 
Q 1159 1113 1420 752 
Q 1681 391 2138 391 
Q 2594 391 2855 752 
Q 3116 1113 3116 1747 
z
" transform="scale(0.015625)"/>
       <path id="DejaVuSans-6c" d="M 603 4863 
L 1178 4863 
L 1178 0 
L 603 0 
L 603 4863 
z
" transform="scale(0.015625)"/>
       <path id="DejaVuSans-69" d="M 603 3500 
L 1178 3500 
L 1178 0 
L 603 0 
L 603 3500 
z
M 603 4863 
L 1178 4863 
L 1178 4134 
L 603 4134 
L 603 4863 
z
" transform="scale(0.015625)"/>
       <path id="DejaVuSans-6e" d="M 3513 2113 
L 3513 0 
L 2938 0 
L 2938 2094 
Q 2938 2591 2744 2837 
Q 2550 3084 2163 3084 
Q 1697 3084 1428 2787 
Q 1159 2491 1159 1978 
L 1159 0 
L 581 0 
L 581 3500 
L 1159 3500 
L 1159 2956 
Q 1366 3272 1645 3428 
Q 1925 3584 2291 3584 
Q 2894 3584 3203 3211 
Q 3513 2838 3513 2113 
z
" transform="scale(0.015625)"/>
       <path id="DejaVuSans-65" d="M 3597 1894 
L 3597 1613 
L 953 1613 
Q 991 1019 1311 708 
Q 1631 397 2203 397 
Q 2534 397 2845 478 
Q 3156 559 3463 722 
L 3463 178 
Q 3153 47 2828 -22 
Q 2503 -91 2169 -91 
Q 1331 -91 842 396 
Q 353 884 353 1716 
Q 353 2575 817 3079 
Q 1281 3584 2069 3584 
Q 2775 3584 3186 3129 
Q 3597 2675 3597 1894 
z
M 3022 2063 
Q 3016 2534 2758 2815 
Q 2500 3097 2075 3097 
Q 1594 3097 1305 2825 
Q 1016 2553 972 2059 
L 3022 2063 
z
" transform="scale(0.015625)"/>
       <path id="DejaVuSans-20" transform="scale(0.015625)"/>
       <path id="DejaVuSans-63" d="M 3122 3366 
L 3122 2828 
Q 2878 2963 2633 3030 
Q 2388 3097 2138 3097 
Q 1578 3097 1268 2742 
Q 959 2388 959 1747 
Q 959 1106 1268 751 
Q 1578 397 2138 397 
Q 2388 397 2633 464 
Q 2878 531 3122 666 
L 3122 134 
Q 2881 22 2623 -34 
Q 2366 -91 2075 -91 
Q 1284 -91 818 406 
Q 353 903 353 1747 
Q 353 2603 823 3093 
Q 1294 3584 2113 3584 
Q 2378 3584 2631 3529 
Q 2884 3475 3122 3366 
z
" transform="scale(0.015625)"/>
       <path id="DejaVuSans-6f" d="M 1959 3097 
Q 1497 3097 1228 2736 
Q 959 2375 959 1747 
Q 959 1119 1226 758 
Q 1494 397 1959 397 
Q 2419 397 2687 759 
Q 2956 1122 2956 1747 
Q 2956 2369 2687 2733 
Q 2419 3097 1959 3097 
z
M 1959 3584 
Q 2709 3584 3137 3096 
Q 3566 2609 3566 1747 
Q 3566 888 3137 398 
Q 2709 -91 1959 -91 
Q 1206 -91 779 398 
Q 353 888 353 1747 
Q 353 2609 779 3096 
Q 1206 3584 1959 3584 
z
" transform="scale(0.015625)"/>
       <path id="DejaVuSans-74" d="M 1172 4494 
L 1172 3500 
L 2356 3500 
L 2356 3053 
L 1172 3053 
L 1172 1153 
Q 1172 725 1289 603 
Q 1406 481 1766 481 
L 2356 481 
L 2356 0 
L 1766 0 
Q 1100 0 847 248 
Q 594 497 594 1153 
L 594 3053 
L 172 3053 
L 172 3500 
L 594 3500 
L 594 4494 
L 1172 4494 
z
" transform="scale(0.015625)"/>
       <path id="DejaVuSans-72" d="M 2631 2963 
Q 2534 3019 2420 3045 
Q 2306 3072 2169 3072 
Q 1681 3072 1420 2755 
Q 1159 2438 1159 1844 
L 1159 0 
L 581 0 
L 581 3500 
L 1159 3500 
L 1159 2956 
Q 1341 3275 1631 3429 
Q 1922 3584 2338 3584 
Q 2397 3584 2469 3576 
Q 2541 3569 2628 3553 
L 2631 2963 
z
" transform="scale(0.015625)"/>
      </defs>
      <use xlink:href="#DejaVuSans-42"/>
      <use xlink:href="#DejaVuSans-73" x="68.603516"/>
      <use xlink:href="#DejaVuSans-70" x="120.703125"/>
      <use xlink:href="#DejaVuSans-6c" x="184.179688"/>
      <use xlink:href="#DejaVuSans-69" x="211.962891"/>
      <use xlink:href="#DejaVuSans-6e" x="239.746094"/>
      <use xlink:href="#DejaVuSans-65" x="303.125"/>
      <use xlink:href="#DejaVuSans-20" x="364.648438"/>
      <use xlink:href="#DejaVuSans-63" x="396.435547"/>
      <use xlink:href="#DejaVuSans-6f" x="451.416016"/>
      <use xlink:href="#DejaVuSans-6e" x="512.597656"/>
      <use xlink:href="#DejaVuSans-74" x="575.976562"/>
      <use xlink:href="#DejaVuSans-72" x="615.185547"/>
      <use xlink:href="#DejaVuSans-6f" x="654.048828"/>
      <use xlink:href="#DejaVuSans-6c" x="715.230469"/>
      <use xlink:href="#DejaVuSans-20" x="743.013672"/>
      <use xlink:href="#DejaVuSans-70" x="774.800781"/>
      <use xlink:href="#DejaVuSans-6f" x="838.277344"/>
      <use xlink:href="#DejaVuSans-69" x="899.458984"/>
      <use xlink:href="#DejaVuSans-6e" x="927.242188"/>
      <use xlink:href="#DejaVuSans-74" x="990.621094"/>
      <use xlink:href="#DejaVuSans-73" x="1029.830078"/>
     </g>
    </g>
    <g id="line2d_20">
     <path d="M 269.527813 69.248562 
L 279.527813 69.248562 
L 289.527813 69.248562 
" style="fill: none; stroke: #008000; stroke-width: 1.5; stroke-linecap: square"/>
    </g>
    <g id="text_16">
     <!-- airfoil curve -->
     <g transform="translate(297.527813 72.748562) scale(0.1 -0.1)">
      <defs>
       <path id="DejaVuSans-61" d="M 2194 1759 
Q 1497 1759 1228 1600 
Q 959 1441 959 1056 
Q 959 750 1161 570 
Q 1363 391 1709 391 
Q 2188 391 2477 730 
Q 2766 1069 2766 1631 
L 2766 1759 
L 2194 1759 
z
M 3341 1997 
L 3341 0 
L 2766 0 
L 2766 531 
Q 2569 213 2275 61 
Q 1981 -91 1556 -91 
Q 1019 -91 701 211 
Q 384 513 384 1019 
Q 384 1609 779 1909 
Q 1175 2209 1959 2209 
L 2766 2209 
L 2766 2266 
Q 2766 2663 2505 2880 
Q 2244 3097 1772 3097 
Q 1472 3097 1187 3025 
Q 903 2953 641 2809 
L 641 3341 
Q 956 3463 1253 3523 
Q 1550 3584 1831 3584 
Q 2591 3584 2966 3190 
Q 3341 2797 3341 1997 
z
" transform="scale(0.015625)"/>
       <path id="DejaVuSans-66" d="M 2375 4863 
L 2375 4384 
L 1825 4384 
Q 1516 4384 1395 4259 
Q 1275 4134 1275 3809 
L 1275 3500 
L 2222 3500 
L 2222 3053 
L 1275 3053 
L 1275 0 
L 697 0 
L 697 3053 
L 147 3053 
L 147 3500 
L 697 3500 
L 697 3744 
Q 697 4328 969 4595 
Q 1241 4863 1831 4863 
L 2375 4863 
z
" transform="scale(0.015625)"/>
       <path id="DejaVuSans-75" d="M 544 1381 
L 544 3500 
L 1119 3500 
L 1119 1403 
Q 1119 906 1312 657 
Q 1506 409 1894 409 
Q 2359 409 2629 706 
Q 2900 1003 2900 1516 
L 2900 3500 
L 3475 3500 
L 3475 0 
L 2900 0 
L 2900 538 
Q 2691 219 2414 64 
Q 2138 -91 1772 -91 
Q 1169 -91 856 284 
Q 544 659 544 1381 
z
M 1991 3584 
L 1991 3584 
z
" transform="scale(0.015625)"/>
       <path id="DejaVuSans-76" d="M 191 3500 
L 800 3500 
L 1894 563 
L 2988 3500 
L 3597 3500 
L 2284 0 
L 1503 0 
L 191 3500 
z
" transform="scale(0.015625)"/>
      </defs>
      <use xlink:href="#DejaVuSans-61"/>
      <use xlink:href="#DejaVuSans-69" x="61.279297"/>
      <use xlink:href="#DejaVuSans-72" x="89.0625"/>
      <use xlink:href="#DejaVuSans-66" x="130.175781"/>
      <use xlink:href="#DejaVuSans-6f" x="165.380859"/>
      <use xlink:href="#DejaVuSans-69" x="226.5625"/>
      <use xlink:href="#DejaVuSans-6c" x="254.345703"/>
      <use xlink:href="#DejaVuSans-20" x="282.128906"/>
      <use xlink:href="#DejaVuSans-63" x="313.916016"/>
      <use xlink:href="#DejaVuSans-75" x="368.896484"/>
      <use xlink:href="#DejaVuSans-72" x="432.275391"/>
      <use xlink:href="#DejaVuSans-76" x="473.388672"/>
      <use xlink:href="#DejaVuSans-65" x="532.568359"/>
     </g>
    </g>
   </g>
  </g>
 </g>
 <defs>
  <clipPath id="pa87094fb07">
   <rect x="57.6" y="41.472" width="357.12" height="266.112"/>
  </clipPath>
 </defs>
</svg>
