<?xml version="1.0" encoding="utf-8" standalone="no"?>
<!DOCTYPE svg PUBLIC "-//W3C//DTD SVG 1.1//EN"
  "http://www.w3.org/Graphics/SVG/1.1/DTD/svg11.dtd">
<svg xmlns:xlink="http://www.w3.org/1999/xlink" width="460.8pt" height="345.6pt" viewBox="0 0 460.8 345.6" xmlns="http://www.w3.org/2000/svg" version="1.1">
 <metadata>
  <rdf:RDF xmlns:dc="http://purl.org/dc/elements/1.1/" xmlns:cc="http://creativecommons.org/ns#" xmlns:rdf="http://www.w3.org/1999/02/22-rdf-syntax-ns#">
   <cc:Work>
    <dc:type rdf:resource="http://purl.org/dc/dcmitype/StillImage"/>
    <dc:date>2024-03-12T06:11:14.630037</dc:date>
    <dc:format>image/svg+xml</dc:format>
    <dc:creator>
     <cc:Agent>
      <dc:title>Matplotlib v3.7.1, https://matplotlib.org/</dc:title>
     </cc:Agent>
    </dc:creator>
   </cc:Work>
  </rdf:RDF>
 </metadata>
 <defs>
  <style type="text/css">*{stroke-linejoin: round; stroke-linecap: butt}</style>
 </defs>
 <g id="figure_1">
  <g id="patch_1">
   <path d="M 0 345.6 
L 460.8 345.6 
L 460.8 0 
L 0 0 
z
" style="fill: #ffffff"/>
  </g>
  <g id="axes_1">
   <g id="patch_2">
    <path d="M 57.6 307.584 
L 414.72 307.584 
L 414.72 41.472 
L 57.6 41.472 
z
" style="fill: #ffffff"/>
   </g>
   <g id="matplotlib.axis_1">
    <g id="xtick_1">
     <g id="line2d_1">
      <defs>
       <path id="mf9b871b600" d="M 0 0 
L 0 3.5 
" style="stroke: #000000; stroke-width: 0.8"/>
      </defs>
      <g>
       <use xlink:href="#mf9b871b600" x="100.6848" y="307.584" style="stroke: #000000; stroke-width: 0.8"/>
      </g>
     </g>
     <g id="text_1">
      <!-- −0.01 -->
      <g transform="translate(85.362144 322.182437) scale(0.1 -0.1)">
       <defs>
        <path id="DejaVuSans-2212" d="M 678 2272 
L 4684 2272 
L 4684 1741 
L 678 1741 
L 678 2272 
z
" transform="scale(0.015625)"/>
        <path id="DejaVuSans-30" d="M 2034 4250 
Q 1547 4250 1301 3770 
Q 1056 3291 1056 2328 
Q 1056 1369 1301 889 
Q 1547 409 2034 409 
Q 2525 409 2770 889 
Q 3016 1369 3016 2328 
Q 3016 3291 2770 3770 
Q 2525 4250 2034 4250 
z
M 2034 4750 
Q 2819 4750 3233 4129 
Q 3647 3509 3647 2328 
Q 3647 1150 3233 529 
Q 2819 -91 2034 -91 
Q 1250 -91 836 529 
Q 422 1150 422 2328 
Q 422 3509 836 4129 
Q 1250 4750 2034 4750 
z
" transform="scale(0.015625)"/>
        <path id="DejaVuSans-2e" d="M 684 794 
L 1344 794 
L 1344 0 
L 684 0 
L 684 794 
z
" transform="scale(0.015625)"/>
        <path id="DejaVuSans-31" d="M 794 531 
L 1825 531 
L 1825 4091 
L 703 3866 
L 703 4441 
L 1819 4666 
L 2450 4666 
L 2450 531 
L 3481 531 
L 3481 0 
L 794 0 
L 794 531 
z
" transform="scale(0.015625)"/>
       </defs>
       <use xlink:href="#DejaVuSans-2212"/>
       <use xlink:href="#DejaVuSans-30" x="83.789062"/>
       <use xlink:href="#DejaVuSans-2e" x="147.412109"/>
       <use xlink:href="#DejaVuSans-30" x="179.199219"/>
       <use xlink:href="#DejaVuSans-31" x="242.822266"/>
      </g>
     </g>
    </g>
    <g id="xtick_2">
     <g id="line2d_2">
      <g>
       <use xlink:href="#mf9b871b600" x="149.0688" y="307.584" style="stroke: #000000; stroke-width: 0.8"/>
      </g>
     </g>
     <g id="text_2">
      <!-- 0.00 -->
      <g transform="translate(137.935988 322.182437) scale(0.1 -0.1)">
       <use xlink:href="#DejaVuSans-30"/>
       <use xlink:href="#DejaVuSans-2e" x="63.623047"/>
       <use xlink:href="#DejaVuSans-30" x="95.410156"/>
       <use xlink:href="#DejaVuSans-30" x="159.033203"/>
      </g>
     </g>
    </g>
    <g id="xtick_3">
     <g id="line2d_3">
      <g>
       <use xlink:href="#mf9b871b600" x="197.4528" y="307.584" style="stroke: #000000; stroke-width: 0.8"/>
      </g>
     </g>
     <g id="text_3">
      <!-- 0.01 -->
      <g transform="translate(186.319988 322.182437) scale(0.1 -0.1)">
       <use xlink:href="#DejaVuSans-30"/>
       <use xlink:href="#DejaVuSans-2e" x="63.623047"/>
       <use xlink:href="#DejaVuSans-30" x="95.410156"/>
       <use xlink:href="#DejaVuSans-31" x="159.033203"/>
      </g>
     </g>
    </g>
    <g id="xtick_4">
     <g id="line2d_4">
      <g>
       <use xlink:href="#mf9b871b600" x="245.8368" y="307.584" style="stroke: #000000; stroke-width: 0.8"/>
      </g>
     </g>
     <g id="text_4">
      <!-- 0.02 -->
      <g transform="translate(234.703988 322.182437) scale(0.1 -0.1)">
       <defs>
        <path id="DejaVuSans-32" d="M 1228 531 
L 3431 531 
L 3431 0 
L 469 0 
L 469 531 
Q 828 903 1448 1529 
Q 2069 2156 2228 2338 
Q 2531 2678 2651 2914 
Q 2772 3150 2772 3378 
Q 2772 3750 2511 3984 
Q 2250 4219 1831 4219 
Q 1534 4219 1204 4116 
Q 875 4013 500 3803 
L 500 4441 
Q 881 4594 1212 4672 
Q 1544 4750 1819 4750 
Q 2544 4750 2975 4387 
Q 3406 4025 3406 3419 
Q 3406 3131 3298 2873 
Q 3191 2616 2906 2266 
Q 2828 2175 2409 1742 
Q 1991 1309 1228 531 
z
" transform="scale(0.015625)"/>
       </defs>
       <use xlink:href="#DejaVuSans-30"/>
       <use xlink:href="#DejaVuSans-2e" x="63.623047"/>
       <use xlink:href="#DejaVuSans-30" x="95.410156"/>
       <use xlink:href="#DejaVuSans-32" x="159.033203"/>
      </g>
     </g>
    </g>
    <g id="xtick_5">
     <g id="line2d_5">
      <g>
       <use xlink:href="#mf9b871b600" x="294.2208" y="307.584" style="stroke: #000000; stroke-width: 0.8"/>
      </g>
     </g>
     <g id="text_5">
      <!-- 0.03 -->
      <g transform="translate(283.087988 322.182437) scale(0.1 -0.1)">
       <defs>
        <path id="DejaVuSans-33" d="M 2597 2516 
Q 3050 2419 3304 2112 
Q 3559 1806 3559 1356 
Q 3559 666 3084 287 
Q 2609 -91 1734 -91 
Q 1441 -91 1130 -33 
Q 819 25 488 141 
L 488 750 
Q 750 597 1062 519 
Q 1375 441 1716 441 
Q 2309 441 2620 675 
Q 2931 909 2931 1356 
Q 2931 1769 2642 2001 
Q 2353 2234 1838 2234 
L 1294 2234 
L 1294 2753 
L 1863 2753 
Q 2328 2753 2575 2939 
Q 2822 3125 2822 3475 
Q 2822 3834 2567 4026 
Q 2313 4219 1838 4219 
Q 1578 4219 1281 4162 
Q 984 4106 628 3988 
L 628 4550 
Q 988 4650 1302 4700 
Q 1616 4750 1894 4750 
Q 2613 4750 3031 4423 
Q 3450 4097 3450 3541 
Q 3450 3153 3228 2886 
Q 3006 2619 2597 2516 
z
" transform="scale(0.015625)"/>
       </defs>
       <use xlink:href="#DejaVuSans-30"/>
       <use xlink:href="#DejaVuSans-2e" x="63.623047"/>
       <use xlink:href="#DejaVuSans-30" x="95.410156"/>
       <use xlink:href="#DejaVuSans-33" x="159.033203"/>
      </g>
     </g>
    </g>
    <g id="xtick_6">
     <g id="line2d_6">
      <g>
       <use xlink:href="#mf9b871b600" x="342.6048" y="307.584" style="stroke: #000000; stroke-width: 0.8"/>
      </g>
     </g>
     <g id="text_6">
      <!-- 0.04 -->
      <g transform="translate(331.471987 322.182437) scale(0.1 -0.1)">
       <defs>
        <path id="DejaVuSans-34" d="M 2419 4116 
L 825 1625 
L 2419 1625 
L 2419 4116 
z
M 2253 4666 
L 3047 4666 
L 3047 1625 
L 3713 1625 
L 3713 1100 
L 3047 1100 
L 3047 0 
L 2419 0 
L 2419 1100 
L 313 1100 
L 313 1709 
L 2253 4666 
z
" transform="scale(0.015625)"/>
       </defs>
       <use xlink:href="#DejaVuSans-30"/>
       <use xlink:href="#DejaVuSans-2e" x="63.623047"/>
       <use xlink:href="#DejaVuSans-30" x="95.410156"/>
       <use xlink:href="#DejaVuSans-34" x="159.033203"/>
      </g>
     </g>
    </g>
    <g id="xtick_7">
     <g id="line2d_7">
      <g>
       <use xlink:href="#mf9b871b600" x="390.9888" y="307.584" style="stroke: #000000; stroke-width: 0.8"/>
      </g>
     </g>
     <g id="text_7">
      <!-- 0.05 -->
      <g transform="translate(379.855988 322.182437) scale(0.1 -0.1)">
       <defs>
        <path id="DejaVuSans-35" d="M 691 4666 
L 3169 4666 
L 3169 4134 
L 1269 4134 
L 1269 2991 
Q 1406 3038 1543 3061 
Q 1681 3084 1819 3084 
Q 2600 3084 3056 2656 
Q 3513 2228 3513 1497 
Q 3513 744 3044 326 
Q 2575 -91 1722 -91 
Q 1428 -91 1123 -41 
Q 819 9 494 109 
L 494 744 
Q 775 591 1075 516 
Q 1375 441 1709 441 
Q 2250 441 2565 725 
Q 2881 1009 2881 1497 
Q 2881 1984 2565 2268 
Q 2250 2553 1709 2553 
Q 1456 2553 1204 2497 
Q 953 2441 691 2322 
L 691 4666 
z
" transform="scale(0.015625)"/>
       </defs>
       <use xlink:href="#DejaVuSans-30"/>
       <use xlink:href="#DejaVuSans-2e" x="63.623047"/>
       <use xlink:href="#DejaVuSans-30" x="95.410156"/>
       <use xlink:href="#DejaVuSans-35" x="159.033203"/>
      </g>
     </g>
    </g>
   </g>
   <g id="matplotlib.axis_2">
    <g id="ytick_1">
     <g id="line2d_8">
      <defs>
       <path id="mfdfd361016" d="M 0 0 
L -3.5 0 
" style="stroke: #000000; stroke-width: 0.8"/>
      </defs>
      <g>
       <use xlink:href="#mfdfd361016" x="57.6" y="295.488" style="stroke: #000000; stroke-width: 0.8"/>
      </g>
     </g>
     <g id="text_8">
      <!-- 0.02 -->
      <g transform="translate(28.334375 299.287219) scale(0.1 -0.1)">
       <use xlink:href="#DejaVuSans-30"/>
       <use xlink:href="#DejaVuSans-2e" x="63.623047"/>
       <use xlink:href="#DejaVuSans-30" x="95.410156"/>
       <use xlink:href="#DejaVuSans-32" x="159.033203"/>
      </g>
     </g>
    </g>
    <g id="ytick_2">
     <g id="line2d_9">
      <g>
       <use xlink:href="#mfdfd361016" x="57.6" y="247.104" style="stroke: #000000; stroke-width: 0.8"/>
      </g>
     </g>
     <g id="text_9">
      <!-- 0.03 -->
      <g transform="translate(28.334375 250.903219) scale(0.1 -0.1)">
       <use xlink:href="#DejaVuSans-30"/>
       <use xlink:href="#DejaVuSans-2e" x="63.623047"/>
       <use xlink:href="#DejaVuSans-30" x="95.410156"/>
       <use xlink:href="#DejaVuSans-33" x="159.033203"/>
      </g>
     </g>
    </g>
    <g id="ytick_3">
     <g id="line2d_10">
      <g>
       <use xlink:href="#mfdfd361016" x="57.6" y="198.72" style="stroke: #000000; stroke-width: 0.8"/>
      </g>
     </g>
     <g id="text_10">
      <!-- 0.04 -->
      <g transform="translate(28.334375 202.519219) scale(0.1 -0.1)">
       <use xlink:href="#DejaVuSans-30"/>
       <use xlink:href="#DejaVuSans-2e" x="63.623047"/>
       <use xlink:href="#DejaVuSans-30" x="95.410156"/>
       <use xlink:href="#DejaVuSans-34" x="159.033203"/>
      </g>
     </g>
    </g>
    <g id="ytick_4">
     <g id="line2d_11">
      <g>
       <use xlink:href="#mfdfd361016" x="57.6" y="150.336" style="stroke: #000000; stroke-width: 0.8"/>
      </g>
     </g>
     <g id="text_11">
      <!-- 0.05 -->
      <g transform="translate(28.334375 154.135219) scale(0.1 -0.1)">
       <use xlink:href="#DejaVuSans-30"/>
       <use xlink:href="#DejaVuSans-2e" x="63.623047"/>
       <use xlink:href="#DejaVuSans-30" x="95.410156"/>
       <use xlink:href="#DejaVuSans-35" x="159.033203"/>
      </g>
     </g>
    </g>
    <g id="ytick_5">
     <g id="line2d_12">
      <g>
       <use xlink:href="#mfdfd361016" x="57.6" y="101.952" style="stroke: #000000; stroke-width: 0.8"/>
      </g>
     </g>
     <g id="text_12">
      <!-- 0.06 -->
      <g transform="translate(28.334375 105.751219) scale(0.1 -0.1)">
       <defs>
        <path id="DejaVuSans-36" d="M 2113 2584 
Q 1688 2584 1439 2293 
Q 1191 2003 1191 1497 
Q 1191 994 1439 701 
Q 1688 409 2113 409 
Q 2538 409 2786 701 
Q 3034 994 3034 1497 
Q 3034 2003 2786 2293 
Q 2538 2584 2113 2584 
z
M 3366 4563 
L 3366 3988 
Q 3128 4100 2886 4159 
Q 2644 4219 2406 4219 
Q 1781 4219 1451 3797 
Q 1122 3375 1075 2522 
Q 1259 2794 1537 2939 
Q 1816 3084 2150 3084 
Q 2853 3084 3261 2657 
Q 3669 2231 3669 1497 
Q 3669 778 3244 343 
Q 2819 -91 2113 -91 
Q 1303 -91 875 529 
Q 447 1150 447 2328 
Q 447 3434 972 4092 
Q 1497 4750 2381 4750 
Q 2619 4750 2861 4703 
Q 3103 4656 3366 4563 
z
" transform="scale(0.015625)"/>
       </defs>
       <use xlink:href="#DejaVuSans-30"/>
       <use xlink:href="#DejaVuSans-2e" x="63.623047"/>
       <use xlink:href="#DejaVuSans-30" x="95.410156"/>
       <use xlink:href="#DejaVuSans-36" x="159.033203"/>
      </g>
     </g>
    </g>
    <g id="ytick_6">
     <g id="line2d_13">
      <g>
       <use xlink:href="#mfdfd361016" x="57.6" y="53.568" style="stroke: #000000; stroke-width: 0.8"/>
      </g>
     </g>
     <g id="text_13">
      <!-- 0.07 -->
      <g transform="translate(28.334375 57.367219) scale(0.1 -0.1)">
       <defs>
        <path id="DejaVuSans-37" d="M 525 4666 
L 3525 4666 
L 3525 4397 
L 1831 0 
L 1172 0 
L 2766 4134 
L 525 4134 
L 525 4666 
z
" transform="scale(0.015625)"/>
       </defs>
       <use xlink:href="#DejaVuSans-30"/>
       <use xlink:href="#DejaVuSans-2e" x="63.623047"/>
       <use xlink:href="#DejaVuSans-30" x="95.410156"/>
       <use xlink:href="#DejaVuSans-37" x="159.033203"/>
      </g>
     </g>
    </g>
   </g>
   <g id="line2d_14">
    <path d="M 225.012688 235.464586 
L 226.190292 226.853995 
L 227.781643 215.757156 
L 228.879495 202.920375 
L 228.576605 189.089955 
L 225.965728 175.012201 
L 220.139618 161.433415 
L 213.448858 149.314432 
L 208.244029 139.616081 
L 206.875713 133.299196 
L 211.694491 131.324609 
L 220.34155 133.233216 
L 230.458077 138.565914 
L 239.685257 146.863601 
L 245.664277 157.667173 
L 249.272595 169.815374 
L 251.387667 182.146946 
L 252.886951 193.500633 
L 254.647905 202.715178 
L 256.20475 210.804746 
L 257.091709 218.783504 
L 256.843007 227.665615 
L 254.992865 238.465248 
L 251.880703 249.457948 
L 247.84594 258.919263 
L 243.227995 265.124743 
L 238.366286 266.349933 
L 233.683275 263.925159 
L 229.601426 259.180743 
L 226.543199 253.447009 
L 224.931056 248.05428 
L 224.506914 242.295743 
L 225.012688 235.464586 
L 226.190292 226.853995 
L 227.781643 215.757156 
" clip-path="url(#p447136a62c)" style="fill: none; stroke: #ff0000; stroke-width: 1.5; stroke-linecap: square"/>
    <defs>
     <path id="mbf49b386b8" d="M 0 3 
C 0.795609 3 1.55874 2.683901 2.12132 2.12132 
C 2.683901 1.55874 3 0.795609 3 0 
C 3 -0.795609 2.683901 -1.55874 2.12132 -2.12132 
C 1.55874 -2.683901 0.795609 -3 0 -3 
C -0.795609 -3 -1.55874 -2.683901 -2.12132 -2.12132 
C -2.683901 -1.55874 -3 -0.795609 -3 0 
C -3 0.795609 -2.683901 1.55874 -2.12132 2.12132 
C -1.55874 2.683901 -0.795609 3 0 3 
z
" style="stroke: #ff0000"/>
    </defs>
    <g clip-path="url(#p447136a62c)">
     <use xlink:href="#mbf49b386b8" x="225.012688" y="235.464586" style="fill: #ff0000; stroke: #ff0000"/>
     <use xlink:href="#mbf49b386b8" x="226.190292" y="226.853995" style="fill: #ff0000; stroke: #ff0000"/>
     <use xlink:href="#mbf49b386b8" x="227.781643" y="215.757156" style="fill: #ff0000; stroke: #ff0000"/>
     <use xlink:href="#mbf49b386b8" x="228.879495" y="202.920375" style="fill: #ff0000; stroke: #ff0000"/>
     <use xlink:href="#mbf49b386b8" x="228.576605" y="189.089955" style="fill: #ff0000; stroke: #ff0000"/>
     <use xlink:href="#mbf49b386b8" x="225.965728" y="175.012201" style="fill: #ff0000; stroke: #ff0000"/>
     <use xlink:href="#mbf49b386b8" x="220.139618" y="161.433415" style="fill: #ff0000; stroke: #ff0000"/>
     <use xlink:href="#mbf49b386b8" x="213.448858" y="149.314432" style="fill: #ff0000; stroke: #ff0000"/>
     <use xlink:href="#mbf49b386b8" x="208.244029" y="139.616081" style="fill: #ff0000; stroke: #ff0000"/>
     <use xlink:href="#mbf49b386b8" x="206.875713" y="133.299196" style="fill: #ff0000; stroke: #ff0000"/>
     <use xlink:href="#mbf49b386b8" x="211.694491" y="131.324609" style="fill: #ff0000; stroke: #ff0000"/>
     <use xlink:href="#mbf49b386b8" x="220.34155" y="133.233216" style="fill: #ff0000; stroke: #ff0000"/>
     <use xlink:href="#mbf49b386b8" x="230.458077" y="138.565914" style="fill: #ff0000; stroke: #ff0000"/>
     <use xlink:href="#mbf49b386b8" x="239.685257" y="146.863601" style="fill: #ff0000; stroke: #ff0000"/>
     <use xlink:href="#mbf49b386b8" x="245.664277" y="157.667173" style="fill: #ff0000; stroke: #ff0000"/>
     <use xlink:href="#mbf49b386b8" x="249.272595" y="169.815374" style="fill: #ff0000; stroke: #ff0000"/>
     <use xlink:href="#mbf49b386b8" x="251.387667" y="182.146946" style="fill: #ff0000; stroke: #ff0000"/>
     <use xlink:href="#mbf49b386b8" x="252.886951" y="193.500633" style="fill: #ff0000; stroke: #ff0000"/>
     <use xlink:href="#mbf49b386b8" x="254.647905" y="202.715178" style="fill: #ff0000; stroke: #ff0000"/>
     <use xlink:href="#mbf49b386b8" x="256.20475" y="210.804746" style="fill: #ff0000; stroke: #ff0000"/>
     <use xlink:href="#mbf49b386b8" x="257.091709" y="218.783504" style="fill: #ff0000; stroke: #ff0000"/>
     <use xlink:href="#mbf49b386b8" x="256.843007" y="227.665615" style="fill: #ff0000; stroke: #ff0000"/>
     <use xlink:href="#mbf49b386b8" x="254.992865" y="238.465248" style="fill: #ff0000; stroke: #ff0000"/>
     <use xlink:href="#mbf49b386b8" x="251.880703" y="249.457948" style="fill: #ff0000; stroke: #ff0000"/>
     <use xlink:href="#mbf49b386b8" x="247.84594" y="258.919263" style="fill: #ff0000; stroke: #ff0000"/>
     <use xlink:href="#mbf49b386b8" x="243.227995" y="265.124743" style="fill: #ff0000; stroke: #ff0000"/>
     <use xlink:href="#mbf49b386b8" x="238.366286" y="266.349933" style="fill: #ff0000; stroke: #ff0000"/>
     <use xlink:href="#mbf49b386b8" x="233.683275" y="263.925159" style="fill: #ff0000; stroke: #ff0000"/>
     <use xlink:href="#mbf49b386b8" x="229.601426" y="259.180743" style="fill: #ff0000; stroke: #ff0000"/>
     <use xlink:href="#mbf49b386b8" x="226.543199" y="253.447009" style="fill: #ff0000; stroke: #ff0000"/>
     <use xlink:href="#mbf49b386b8" x="224.931056" y="248.05428" style="fill: #ff0000; stroke: #ff0000"/>
     <use xlink:href="#mbf49b386b8" x="224.506914" y="242.295743" style="fill: #ff0000; stroke: #ff0000"/>
     <use xlink:href="#mbf49b386b8" x="225.012688" y="235.464586" style="fill: #ff0000; stroke: #ff0000"/>
     <use xlink:href="#mbf49b386b8" x="226.190292" y="226.853995" style="fill: #ff0000; stroke: #ff0000"/>
     <use xlink:href="#mbf49b386b8" x="227.781643" y="215.757156" style="fill: #ff0000; stroke: #ff0000"/>
    </g>
   </g>
   <g id="line2d_15">
    <path d="M 226.259252 226.439615 
L 227.732883 215.167158 
L 228.327386 208.802497 
L 228.626266 203.367663 
L 228.694493 198.191444 
L 228.536638 193.349348 
L 228.17576 188.895067 
L 227.577044 184.416252 
L 226.810207 180.38461 
L 225.804831 176.370852 
L 224.695739 172.832685 
L 223.228375 168.904628 
L 221.390678 164.63214 
L 219.002794 159.676073 
L 215.728201 153.447626 
L 210.054508 142.777473 
L 208.733111 139.806684 
L 208.011823 137.690588 
L 207.691606 136.067293 
L 207.69163 134.859155 
L 207.920909 133.989853 
L 208.282641 133.386774 
L 208.911932 132.807309 
L 209.738358 132.382148 
L 210.745181 132.108002 
L 212.125463 131.974706 
L 213.701901 132.037344 
L 215.709617 132.342244 
L 217.899108 132.888593 
L 220.53014 133.782216 
L 223.284477 134.96065 
L 226.105605 136.412878 
L 228.937005 138.127916 
L 231.722155 140.094776 
L 234.113339 142.04558 
L 236.383636 144.178925 
L 238.493346 146.487103 
L 240.177903 148.64375 
L 241.911656 151.251903 
L 243.454947 153.994392 
L 244.822556 156.851645 
L 246.169484 160.178954 
L 247.45277 163.983489 
L 248.638362 168.255137 
L 249.705459 172.960721 
L 250.71671 178.425054 
L 251.927758 186.350263 
L 253.490676 196.488474 
L 256.595957 214.668709 
L 256.88984 218.622432 
L 256.937539 222.206631 
L 256.757666 226.014198 
L 256.361349 229.787781 
L 255.677033 234.136452 
L 254.750134 238.639234 
L 253.605166 243.1716 
L 252.266632 247.609037 
L 250.759043 251.827026 
L 249.238572 255.418086 
L 247.753074 258.368781 
L 246.339362 260.702635 
L 245.025054 262.47078 
L 243.830226 263.74348 
L 242.616382 264.705436 
L 241.543658 265.287838 
L 240.465994 265.642877 
L 239.388143 265.785563 
L 238.162213 265.707821 
L 236.949371 265.394691 
L 235.756743 264.868535 
L 234.44803 264.049879 
L 233.046762 262.896066 
L 231.585662 261.380487 
L 230.108756 259.499109 
L 228.673637 257.277724 
L 227.439706 254.959366 
L 226.370079 252.462161 
L 225.627148 250.17658 
L 225.107916 247.876025 
L 224.793747 245.509459 
L 224.663363 242.828493 
L 224.737145 239.732979 
L 225.077735 235.605673 
L 225.838414 229.472285 
L 226.259252 226.439615 
L 226.259252 226.439615 
" clip-path="url(#p447136a62c)" style="fill: none; stroke: #008000; stroke-width: 1.5; stroke-linecap: square"/>
   </g>
   <g id="line2d_16">
    <path d="M 226.4832 53.568 
L 226.49538 55.103318 
L 226.531919 56.638249 
L 226.592805 58.172407 
L 226.678025 59.705406 
L 226.787557 61.23686 
L 226.921373 62.766383 
L 227.079439 64.293591 
L 227.261717 65.818099 
L 227.468159 67.339522 
L 227.698714 68.857479 
L 227.953323 70.371587 
L 228.231924 71.881464 
L 228.534445 73.386732 
L 228.86081 74.88701 
L 229.210938 76.381921 
L 229.58474 77.871088 
L 229.982122 79.354138 
L 230.402984 80.830696 
L 230.84722 82.300391 
L 231.314718 83.762852 
L 231.805361 85.217713 
L 232.319024 86.664605 
L 232.85558 88.103166 
L 233.414892 89.533033 
L 233.99682 90.953845 
L 234.601217 92.365246 
L 235.227931 93.76688 
L 235.876805 95.158394 
L 236.547674 96.539438 
L 237.240371 97.909664 
L 237.954721 99.268727 
L 238.690543 100.616286 
L 239.447654 101.952 
L 240.225861 103.275534 
L 241.02497 104.586554 
L 241.844778 105.884731 
L 242.68508 107.169737 
L 243.545665 108.441249 
L 244.426314 109.698947 
L 245.326808 110.942514 
L 246.246918 112.171638 
L 247.186414 113.386009 
L 248.145059 114.58532 
L 249.122611 115.769271 
L 250.118825 116.937564 
L 251.13345 118.089903 
L 252.16623 119.225999 
L 253.216905 120.345566 
L 254.28521 121.448322 
L 255.370878 122.53399 
L 256.473634 123.602295 
L 257.593201 124.65297 
L 258.729297 125.68575 
L 259.881636 126.700375 
L 261.049929 127.696589 
L 262.23388 128.674141 
L 263.433191 129.632786 
L 264.647562 130.572282 
L 265.876686 131.492392 
L 267.120253 132.392886 
L 268.377951 133.273535 
L 269.649463 134.13412 
L 270.934469 134.974422 
L 272.232646 135.79423 
L 273.543666 136.593339 
L 274.8672 137.371546 
L 276.202914 138.128657 
L 277.550473 138.864479 
L 278.909536 139.578829 
L 280.279762 140.271526 
L 281.660806 140.942395 
L 283.05232 141.591269 
L 284.453954 142.217983 
L 285.865355 142.82238 
L 287.286167 143.404308 
L 288.716034 143.96362 
L 290.154595 144.500176 
L 291.601487 145.013839 
L 293.056348 145.504482 
L 294.518809 145.97198 
L 295.988504 146.416216 
L 297.465062 146.837078 
L 298.948112 147.23446 
L 300.437279 147.608262 
L 301.93219 147.95839 
L 303.432468 148.284755 
L 304.937736 148.587276 
L 306.447613 148.865877 
L 307.961721 149.120486 
L 309.479678 149.351041 
L 311.001101 149.557483 
L 312.525609 149.739761 
L 314.052817 149.897827 
L 315.58234 150.031643 
L 317.113794 150.141175 
L 318.646793 150.226395 
L 320.180951 150.287281 
L 321.715882 150.32382 
L 323.2512 150.336 
" clip-path="url(#p447136a62c)" style="fill: none; stroke: #000000; stroke-width: 1.5; stroke-linecap: square"/>
   </g>
   <g id="line2d_17">
    <path d="M 207.1296 92.2752 
L 207.090635 91.047719 
L 206.973897 89.82518 
L 206.779855 88.612507 
L 206.509292 87.414582 
L 206.163296 86.23623 
L 205.743262 85.082193 
L 205.250879 83.957121 
L 204.688131 82.865543 
L 204.057284 81.811854 
L 203.360878 80.800297 
L 202.601718 79.834946 
L 201.782859 78.919687 
L 200.9076 78.058206 
L 199.979464 77.253972 
L 199.002189 76.510223 
L 197.979711 75.829954 
L 196.916145 75.215904 
L 195.815776 74.670546 
L 194.683033 74.196076 
L 193.522478 73.794404 
L 192.338784 73.467148 
L 191.136717 73.215625 
L 189.921118 73.040848 
L 188.696881 72.943521 
L 187.468936 72.924036 
L 186.242228 72.982471 
L 185.021696 73.118592 
L 183.812254 73.331849 
L 182.618772 73.621384 
L 181.446057 73.986032 
L 180.298831 74.424324 
L 179.181712 74.934495 
L 178.0992 75.514491 
L 177.055653 76.161976 
L 176.055272 76.874344 
L 175.102087 77.648725 
L 174.199936 78.482002 
L 173.35245 79.370819 
L 172.563043 80.311598 
L 171.834893 81.30055 
L 171.170932 82.333693 
L 170.573834 83.406867 
L 170.046003 84.515751 
L 169.589565 85.655879 
L 169.206357 86.822661 
L 168.897922 88.011398 
L 168.665503 89.217304 
L 168.510035 90.435523 
L 168.432144 91.66115 
L 168.432144 92.88925 
L 168.510035 94.114877 
L 168.665503 95.333096 
L 168.897922 96.539002 
L 169.206357 97.727739 
L 169.589565 98.894521 
L 170.046003 100.034649 
L 170.573834 101.143533 
L 171.170932 102.216707 
L 171.834893 103.24985 
L 172.563043 104.238802 
L 173.35245 105.179581 
L 174.199936 106.068398 
L 175.102087 106.901675 
L 176.055272 107.676056 
L 177.055653 108.388424 
L 178.0992 109.035909 
L 179.181712 109.615905 
L 180.298831 110.126076 
L 181.446057 110.564368 
L 182.618772 110.929016 
L 183.812254 111.218551 
L 185.021696 111.431808 
L 186.242228 111.567929 
L 187.468936 111.626364 
L 188.696881 111.606879 
L 189.921118 111.509552 
L 191.136717 111.334775 
L 192.338784 111.083252 
L 193.522478 110.755996 
L 194.683033 110.354324 
L 195.815776 109.879854 
L 196.916145 109.334496 
L 197.979711 108.720446 
L 199.002189 108.040177 
L 199.979464 107.296428 
L 200.9076 106.492194 
L 201.782859 105.630713 
L 202.601718 104.715454 
L 203.360878 103.750103 
L 204.057284 102.738546 
L 204.688131 101.684857 
L 205.250879 100.593279 
L 205.743262 99.468207 
L 206.163296 98.31417 
L 206.509292 97.135818 
L 206.779855 95.937893 
L 206.973897 94.72522 
L 207.090635 93.502681 
L 207.1296 92.2752 
" clip-path="url(#p447136a62c)" style="fill: none; stroke: #000000; stroke-width: 1.5; stroke-linecap: square"/>
   </g>
   <g id="line2d_18">
    <path d="M 323.2512 271.296 
L 322.894747 271.299283 
L 322.538415 271.30913 
L 322.182325 271.325539 
L 321.826597 271.348503 
L 321.471353 271.378015 
L 321.116712 271.414065 
L 320.762796 271.456641 
L 320.409724 271.505728 
L 320.057616 271.561309 
L 319.706591 271.623366 
L 319.356769 271.691878 
L 319.008268 271.766821 
L 318.661206 271.84817 
L 318.315701 271.935897 
L 317.971871 272.029973 
L 317.629832 272.130365 
L 317.2897 272.23704 
L 316.95159 272.349962 
L 316.615617 272.469092 
L 316.281896 272.594389 
L 315.950539 272.725812 
L 315.621658 272.863315 
L 315.295366 273.006852 
L 314.971773 273.156375 
L 314.650989 273.311832 
L 314.333122 273.473171 
L 314.018281 273.640337 
L 313.706572 273.813273 
L 313.398101 273.991921 
L 313.092972 274.17622 
L 312.79129 274.366108 
L 312.493157 274.56152 
L 312.198672 274.762389 
L 311.907938 274.968649 
L 311.621052 275.180228 
L 311.338111 275.397055 
L 311.059212 275.619056 
L 310.784448 275.846157 
L 310.513914 276.078279 
L 310.247702 276.315345 
L 309.9859 276.557274 
L 309.728599 276.803983 
L 309.475886 277.05539 
L 309.227845 277.311409 
L 308.984562 277.571952 
L 308.746119 277.836932 
L 308.512597 278.106259 
L 308.284075 278.379841 
L 308.06063 278.657585 
L 307.842339 278.939398 
L 307.629275 279.225183 
L 307.421511 279.514844 
L 307.219117 279.808283 
L 307.022162 280.105399 
L 306.830713 280.406093 
L 306.644834 280.710262 
L 306.464589 281.017802 
L 306.290039 281.32861 
L 306.121243 281.642581 
L 305.958258 281.959606 
L 305.80114 282.27958 
L 305.649941 282.602394 
L 305.504714 282.927937 
L 305.365507 283.2561 
L 305.232369 283.586772 
L 305.105342 283.919839 
L 304.984472 284.255189 
L 304.869799 284.592709 
L 304.761362 284.932283 
L 304.659197 285.273797 
L 304.563339 285.617135 
L 304.473822 285.96218 
L 304.390674 286.308816 
L 304.313925 286.656923 
L 304.243601 287.006386 
L 304.179725 287.357084 
L 304.122318 287.708899 
L 304.071402 288.061712 
L 304.026991 288.415403 
L 303.989103 288.769852 
L 303.957749 289.124938 
L 303.932941 289.480542 
L 303.914686 289.836542 
L 303.902991 290.192819 
L 303.89786 290.54925 
L 303.899295 290.905715 
L 303.907294 291.262093 
L 303.921856 291.618264 
L 303.942976 291.974106 
L 303.970646 292.329498 
L 304.004856 292.684321 
L 304.045596 293.038453 
L 304.092852 293.391775 
L 304.146607 293.744167 
L 304.206843 294.095509 
L 304.273539 294.445681 
L 304.346674 294.794566 
L 304.426223 295.142045 
L 304.512157 295.488 
" clip-path="url(#p447136a62c)" style="fill: none; stroke: #000000; stroke-width: 1.5; stroke-linecap: square"/>
   </g>
   <g id="line2d_19">
    <path d="M 226.4832 53.568 
L 149.0688 53.568 
L 149.0688 295.488 
L 304.512157 295.488 
" clip-path="url(#p447136a62c)" style="fill: none; stroke: #000000; stroke-width: 1.5; stroke-linecap: square"/>
   </g>
   <g id="line2d_20">
    <path d="M 323.2512 271.296 
L 323.2512 150.336 
" clip-path="url(#p447136a62c)" style="fill: none; stroke: #000000; stroke-width: 1.5; stroke-linecap: square"/>
   </g>
   <g id="patch_3">
    <path d="M 57.6 307.584 
L 57.6 41.472 
" style="fill: none; stroke: #000000; stroke-width: 0.8; stroke-linejoin: miter; stroke-linecap: square"/>
   </g>
   <g id="patch_4">
    <path d="M 414.72 307.584 
L 414.72 41.472 
" style="fill: none; stroke: #000000; stroke-width: 0.8; stroke-linejoin: miter; stroke-linecap: square"/>
   </g>
   <g id="patch_5">
    <path d="M 57.6 307.584 
L 414.72 307.584 
" style="fill: none; stroke: #000000; stroke-width: 0.8; stroke-linejoin: miter; stroke-linecap: square"/>
   </g>
   <g id="patch_6">
    <path d="M 57.6 41.472 
L 414.72 41.472 
" style="fill: none; stroke: #000000; stroke-width: 0.8; stroke-linejoin: miter; stroke-linecap: square"/>
   </g>
   <g id="legend_1">
    <g id="patch_7">
     <path d="M 267.527813 78.82825 
L 407.72 78.82825 
Q 409.72 78.82825 409.72 76.82825 
L 409.72 48.472 
Q 409.72 46.472 407.72 46.472 
L 267.527813 46.472 
Q 265.527813 46.472 265.527813 48.472 
L 265.527813 76.82825 
Q 265.527813 78.82825 267.527813 78.82825 
z
" style="fill: #ffffff; opacity: 0.8; stroke: #cccccc; stroke-linejoin: miter"/>
    </g>
    <g id="line2d_21">
     <path d="M 269.527813 54.570437 
L 279.527813 54.570437 
L 289.527813 54.570437 
" style="fill: none; stroke: #ff0000; stroke-width: 1.5; stroke-linecap: square"/>
     <g>
      <use xlink:href="#mbf49b386b8" x="279.527813" y="54.570437" style="fill: #ff0000; stroke: #ff0000"/>
     </g>
    </g>
    <g id="text_14">
     <!-- Bspline control points -->
     <g transform="translate(297.527813 58.070437) scale(0.1 -0.1)">
      <defs>
       <path id="DejaVuSans-42" d="M 1259 2228 
L 1259 519 
L 2272 519 
Q 2781 519 3026 730 
Q 3272 941 3272 1375 
Q 3272 1813 3026 2020 
Q 2781 2228 2272 2228 
L 1259 2228 
z
M 1259 4147 
L 1259 2741 
L 2194 2741 
Q 2656 2741 2882 2914 
Q 3109 3088 3109 3444 
Q 3109 3797 2882 3972 
Q 2656 4147 2194 4147 
L 1259 4147 
z
M 628 4666 
L 2241 4666 
Q 2963 4666 3353 4366 
Q 3744 4066 3744 3513 
Q 3744 3084 3544 2831 
Q 3344 2578 2956 2516 
Q 3422 2416 3680 2098 
Q 3938 1781 3938 1306 
Q 3938 681 3513 340 
Q 3088 0 2303 0 
L 628 0 
L 628 4666 
z
" transform="scale(0.015625)"/>
       <path id="DejaVuSans-73" d="M 2834 3397 
L 2834 2853 
Q 2591 2978 2328 3040 
Q 2066 3103 1784 3103 
Q 1356 3103 1142 2972 
Q 928 2841 928 2578 
Q 928 2378 1081 2264 
Q 1234 2150 1697 2047 
L 1894 2003 
Q 2506 1872 2764 1633 
Q 3022 1394 3022 966 
Q 3022 478 2636 193 
Q 2250 -91 1575 -91 
Q 1294 -91 989 -36 
Q 684 19 347 128 
L 347 722 
Q 666 556 975 473 
Q 1284 391 1588 391 
Q 1994 391 2212 530 
Q 2431 669 2431 922 
Q 2431 1156 2273 1281 
Q 2116 1406 1581 1522 
L 1381 1569 
Q 847 1681 609 1914 
Q 372 2147 372 2553 
Q 372 3047 722 3315 
Q 1072 3584 1716 3584 
Q 2034 3584 2315 3537 
Q 2597 3491 2834 3397 
z
" transform="scale(0.015625)"/>
       <path id="DejaVuSans-70" d="M 1159 525 
L 1159 -1331 
L 581 -1331 
L 581 3500 
L 1159 3500 
L 1159 2969 
Q 1341 3281 1617 3432 
Q 1894 3584 2278 3584 
Q 2916 3584 3314 3078 
Q 3713 2572 3713 1747 
Q 3713 922 3314 415 
Q 2916 -91 2278 -91 
Q 1894 -91 1617 61 
Q 1341 213 1159 525 
z
M 3116 1747 
Q 3116 2381 2855 2742 
Q 2594 3103 2138 3103 
Q 1681 3103 1420 2742 
Q 1159 2381 1159 1747 
Q 1159 1113 1420 752 
Q 1681 391 2138 391 
Q 2594 391 2855 752 
Q 3116 1113 3116 1747 
z
" transform="scale(0.015625)"/>
       <path id="DejaVuSans-6c" d="M 603 4863 
L 1178 4863 
L 1178 0 
L 603 0 
L 603 4863 
z
" transform="scale(0.015625)"/>
       <path id="DejaVuSans-69" d="M 603 3500 
L 1178 3500 
L 1178 0 
L 603 0 
L 603 3500 
z
M 603 4863 
L 1178 4863 
L 1178 4134 
L 603 4134 
L 603 4863 
z
" transform="scale(0.015625)"/>
       <path id="DejaVuSans-6e" d="M 3513 2113 
L 3513 0 
L 2938 0 
L 2938 2094 
Q 2938 2591 2744 2837 
Q 2550 3084 2163 3084 
Q 1697 3084 1428 2787 
Q 1159 2491 1159 1978 
L 1159 0 
L 581 0 
L 581 3500 
L 1159 3500 
L 1159 2956 
Q 1366 3272 1645 3428 
Q 1925 3584 2291 3584 
Q 2894 3584 3203 3211 
Q 3513 2838 3513 2113 
z
" transform="scale(0.015625)"/>
       <path id="DejaVuSans-65" d="M 3597 1894 
L 3597 1613 
L 953 1613 
Q 991 1019 1311 708 
Q 1631 397 2203 397 
Q 2534 397 2845 478 
Q 3156 559 3463 722 
L 3463 178 
Q 3153 47 2828 -22 
Q 2503 -91 2169 -91 
Q 1331 -91 842 396 
Q 353 884 353 1716 
Q 353 2575 817 3079 
Q 1281 3584 2069 3584 
Q 2775 3584 3186 3129 
Q 3597 2675 3597 1894 
z
M 3022 2063 
Q 3016 2534 2758 2815 
Q 2500 3097 2075 3097 
Q 1594 3097 1305 2825 
Q 1016 2553 972 2059 
L 3022 2063 
z
" transform="scale(0.015625)"/>
       <path id="DejaVuSans-20" transform="scale(0.015625)"/>
       <path id="DejaVuSans-63" d="M 3122 3366 
L 3122 2828 
Q 2878 2963 2633 3030 
Q 2388 3097 2138 3097 
Q 1578 3097 1268 2742 
Q 959 2388 959 1747 
Q 959 1106 1268 751 
Q 1578 397 2138 397 
Q 2388 397 2633 464 
Q 2878 531 3122 666 
L 3122 134 
Q 2881 22 2623 -34 
Q 2366 -91 2075 -91 
Q 1284 -91 818 406 
Q 353 903 353 1747 
Q 353 2603 823 3093 
Q 1294 3584 2113 3584 
Q 2378 3584 2631 3529 
Q 2884 3475 3122 3366 
z
" transform="scale(0.015625)"/>
       <path id="DejaVuSans-6f" d="M 1959 3097 
Q 1497 3097 1228 2736 
Q 959 2375 959 1747 
Q 959 1119 1226 758 
Q 1494 397 1959 397 
Q 2419 397 2687 759 
Q 2956 1122 2956 1747 
Q 2956 2369 2687 2733 
Q 2419 3097 1959 3097 
z
M 1959 3584 
Q 2709 3584 3137 3096 
Q 3566 2609 3566 1747 
Q 3566 888 3137 398 
Q 2709 -91 1959 -91 
Q 1206 -91 779 398 
Q 353 888 353 1747 
Q 353 2609 779 3096 
Q 1206 3584 1959 3584 
z
" transform="scale(0.015625)"/>
       <path id="DejaVuSans-74" d="M 1172 4494 
L 1172 3500 
L 2356 3500 
L 2356 3053 
L 1172 3053 
L 1172 1153 
Q 1172 725 1289 603 
Q 1406 481 1766 481 
L 2356 481 
L 2356 0 
L 1766 0 
Q 1100 0 847 248 
Q 594 497 594 1153 
L 594 3053 
L 172 3053 
L 172 3500 
L 594 3500 
L 594 4494 
L 1172 4494 
z
" transform="scale(0.015625)"/>
       <path id="DejaVuSans-72" d="M 2631 2963 
Q 2534 3019 2420 3045 
Q 2306 3072 2169 3072 
Q 1681 3072 1420 2755 
Q 1159 2438 1159 1844 
L 1159 0 
L 581 0 
L 581 3500 
L 1159 3500 
L 1159 2956 
Q 1341 3275 1631 3429 
Q 1922 3584 2338 3584 
Q 2397 3584 2469 3576 
Q 2541 3569 2628 3553 
L 2631 2963 
z
" transform="scale(0.015625)"/>
      </defs>
      <use xlink:href="#DejaVuSans-42"/>
      <use xlink:href="#DejaVuSans-73" x="68.603516"/>
      <use xlink:href="#DejaVuSans-70" x="120.703125"/>
      <use xlink:href="#DejaVuSans-6c" x="184.179688"/>
      <use xlink:href="#DejaVuSans-69" x="211.962891"/>
      <use xlink:href="#DejaVuSans-6e" x="239.746094"/>
      <use xlink:href="#DejaVuSans-65" x="303.125"/>
      <use xlink:href="#DejaVuSans-20" x="364.648438"/>
      <use xlink:href="#DejaVuSans-63" x="396.435547"/>
      <use xlink:href="#DejaVuSans-6f" x="451.416016"/>
      <use xlink:href="#DejaVuSans-6e" x="512.597656"/>
      <use xlink:href="#DejaVuSans-74" x="575.976562"/>
      <use xlink:href="#DejaVuSans-72" x="615.185547"/>
      <use xlink:href="#DejaVuSans-6f" x="654.048828"/>
      <use xlink:href="#DejaVuSans-6c" x="715.230469"/>
      <use xlink:href="#DejaVuSans-20" x="743.013672"/>
      <use xlink:href="#DejaVuSans-70" x="774.800781"/>
      <use xlink:href="#DejaVuSans-6f" x="838.277344"/>
      <use xlink:href="#DejaVuSans-69" x="899.458984"/>
      <use xlink:href="#DejaVuSans-6e" x="927.242188"/>
      <use xlink:href="#DejaVuSans-74" x="990.621094"/>
      <use xlink:href="#DejaVuSans-73" x="1029.830078"/>
     </g>
    </g>
    <g id="line2d_22">
     <path d="M 269.527813 69.248562 
L 279.527813 69.248562 
L 289.527813 69.248562 
" style="fill: none; stroke: #008000; stroke-width: 1.5; stroke-linecap: square"/>
    </g>
    <g id="text_15">
     <!-- curve -->
     <g transform="translate(297.527813 72.748562) scale(0.1 -0.1)">
      <defs>
       <path id="DejaVuSans-75" d="M 544 1381 
L 544 3500 
L 1119 3500 
L 1119 1403 
Q 1119 906 1312 657 
Q 1506 409 1894 409 
Q 2359 409 2629 706 
Q 2900 1003 2900 1516 
L 2900 3500 
L 3475 3500 
L 3475 0 
L 2900 0 
L 2900 538 
Q 2691 219 2414 64 
Q 2138 -91 1772 -91 
Q 1169 -91 856 284 
Q 544 659 544 1381 
z
M 1991 3584 
L 1991 3584 
z
" transform="scale(0.015625)"/>
       <path id="DejaVuSans-76" d="M 191 3500 
L 800 3500 
L 1894 563 
L 2988 3500 
L 3597 3500 
L 2284 0 
L 1503 0 
L 191 3500 
z
" transform="scale(0.015625)"/>
      </defs>
      <use xlink:href="#DejaVuSans-63"/>
      <use xlink:href="#DejaVuSans-75" x="54.980469"/>
      <use xlink:href="#DejaVuSans-72" x="118.359375"/>
      <use xlink:href="#DejaVuSans-76" x="159.472656"/>
      <use xlink:href="#DejaVuSans-65" x="218.652344"/>
     </g>
    </g>
   </g>
  </g>
 </g>
 <defs>
  <clipPath id="p447136a62c">
   <rect x="57.6" y="41.472" width="357.12" height="266.112"/>
  </clipPath>
 </defs>
</svg>
