<?xml version="1.0" encoding="UTF-8" standalone="no"?>
<svg
   inkscape:version="1.2.2 (732a01da63, 2022-12-09)"
   sodipodi:docname="cutout-fit.svg"
   id="svg142642"
   version="1.1"
   viewBox="0 0 1914.9492 763.62604"
   height="763.62604pt"
   width="1914.9492pt"
   xmlns:inkscape="http://www.inkscape.org/namespaces/inkscape"
   xmlns:sodipodi="http://sodipodi.sourceforge.net/DTD/sodipodi-0.dtd"
   xmlns="http://www.w3.org/2000/svg"
   xmlns:svg="http://www.w3.org/2000/svg">
  <sodipodi:namedview
     id="namedview142644"
     pagecolor="#ffffff"
     bordercolor="#000000"
     borderopacity="0.25"
     inkscape:showpageshadow="2"
     inkscape:pageopacity="0.0"
     inkscape:pagecheckerboard="0"
     inkscape:deskcolor="#d1d1d1"
     inkscape:document-units="pt"
     showgrid="false"
     inkscape:zoom="0.35355339"
     inkscape:cx="1264.3069"
     inkscape:cy="816.00122"
     inkscape:window-width="1920"
     inkscape:window-height="1001"
     inkscape:window-x="-9"
     inkscape:window-y="337"
     inkscape:window-maximized="1"
     inkscape:current-layer="svg142642" />
  <defs
     id="defs142371">
    <marker
       style="overflow:visible"
       id="Arrow5"
       refX="0"
       refY="0"
       orient="auto-start-reverse"
       inkscape:stockid="Arrow5"
       markerWidth="5.8874264"
       markerHeight="6.6094756"
       viewBox="0 0 5.8874262 6.6094758"
       inkscape:isstock="true"
       inkscape:collect="always"
       preserveAspectRatio="xMidYMid">
      <path
         transform="scale(0.5)"
         style="fill:context-stroke;fill-rule:evenodd;stroke:context-stroke;stroke-width:1pt"
         d="m 6,0 c -3,1 -7,3 -9,5 0,0 0,-4 2,-5 -2,-1 -2,-5 -2,-5 2,2 6,4 9,5 z"
         id="path8893" />
    </marker>
    <clipPath
       id="clip1">
      <path
         d="M 47.75,23.988281 H 735.00391 V 733.32812 H 47.75 Z m 0,0"
         id="path142368" />
    </clipPath>
    <clipPath
       id="clip1-7">
      <path
         d="M 47.75,23.988281 H 735.00391 V 733.32812 H 47.75 Z m 0,0"
         id="path142368-6" />
    </clipPath>
  </defs>
  <g
     id="g150580"
     transform="translate(1158.375)">
    <rect
       style="fill:#ffffff;stroke-width:3;stroke-linejoin:round;stroke-dasharray:24.0001, 3"
       id="rect142763"
       width="1914.949"
       height="763.62604"
       x="-1158.375"
       y="0" />
    <g
       inkscape:label="GridCartesian:X3:Y3"
       transform="translate(-470.852,496.424)"
       id="g147607" />
    <g
       id="g150388">
      <g
         id="surface1">
        <g
           clip-path="url(#clip1)"
           clip-rule="nonzero"
           id="g142377">
          <path
             style="fill:#ffffff;fill-opacity:1;fill-rule:nonzero;stroke:none"
             d="M 47.699219,733.39844 H 735.10156 V 23.898438 H 47.699219 Z m 0,0"
             id="path142373" />
          <path
             style="fill:#ffffff;fill-opacity:1;fill-rule:nonzero;stroke:none"
             d="M -311.78906,754.72266 H 1067.5898 V 13.488281 H -311.78906 Z m 0,0"
             id="path142375" />
        </g>
        <path
           style="fill:none;stroke:#ff0000;stroke-width:30;stroke-linecap:square;stroke-linejoin:round;stroke-miterlimit:4;stroke-opacity:1"
           d="m 2463.4766,6845 1485.3906,33.75 1590.0781,279.4531 1190.3516,-31.5234 286.0547,-898.9453 -140.8204,-1590.1563 -90.4296,-2105 L 6439.6484,823.125 5536.6406,419.72656 4154.6484,638.98437 2373.2031,797.69531 924.96094,1122.4219 542.57812,1839.6484 697.69531,3047.3828 861.79687,4843.6328 1346.5625,6389.1797 2463.4766,6845 l 1485.3906,33.75 1590.0781,279.4531"
           transform="matrix(0.1,0,0,-0.1,0,763)"
           id="path142379" />
        <path
           style="fill:#ff0000;fill-opacity:1;fill-rule:nonzero;stroke:#ff0000;stroke-width:10;stroke-linecap:butt;stroke-linejoin:round;stroke-miterlimit:4;stroke-opacity:1"
           d="m 2463.4766,6815 c 7.9687,0 15.5859,3.1641 21.2109,8.7891 5.625,5.625 8.7891,13.2421 8.7891,21.2109 0,7.9687 -3.1641,15.5859 -8.7891,21.2109 -5.625,5.625 -13.2422,8.7891 -21.2109,8.7891 -7.9688,0 -15.586,-3.1641 -21.211,-8.7891 -5.625,-5.625 -8.789,-13.2422 -8.789,-21.2109 0,-7.9688 3.164,-15.5859 8.789,-21.2109 5.625,-5.625 13.2422,-8.7891 21.211,-8.7891 z m 0,0"
           transform="matrix(0.1,0,0,-0.1,0,763)"
           id="path142381" />
        <path
           style="fill:#ff0000;fill-opacity:1;fill-rule:nonzero;stroke:#ff0000;stroke-width:10;stroke-linecap:butt;stroke-linejoin:round;stroke-miterlimit:4;stroke-opacity:1"
           d="m 3948.8672,6848.75 c 7.9297,0 15.5859,3.1641 21.2109,8.7891 5.625,5.625 8.7891,13.2812 8.7891,21.2109 0,7.9687 -3.1641,15.5859 -8.7891,21.2109 -5.625,5.625 -13.2812,8.7891 -21.2109,8.7891 -7.9688,0 -15.5859,-3.1641 -21.2109,-8.7891 -5.625,-5.625 -8.7891,-13.2422 -8.7891,-21.2109 0,-7.9297 3.1641,-15.5859 8.7891,-21.2109 5.625,-5.625 13.2421,-8.7891 21.2109,-8.7891 z m 0,0"
           transform="matrix(0.1,0,0,-0.1,0,763)"
           id="path142383" />
        <path
           style="fill:#ff0000;fill-opacity:1;fill-rule:nonzero;stroke:#ff0000;stroke-width:10;stroke-linecap:butt;stroke-linejoin:round;stroke-miterlimit:4;stroke-opacity:1"
           d="m 5538.9453,7128.2031 c 7.9688,0 15.5859,3.1641 21.2109,8.7891 5.625,5.625 8.7891,13.2422 8.7891,21.2109 0,7.9297 -3.1641,15.586 -8.7891,21.211 -5.625,5.625 -13.2421,8.789 -21.2109,8.789 -7.9687,0 -15.5859,-3.164 -21.2109,-8.789 -5.625,-5.625 -8.7891,-13.2813 -8.7891,-21.211 0,-7.9687 3.1641,-15.5859 8.7891,-21.2109 5.625,-5.625 13.2422,-8.7891 21.2109,-8.7891 z m 0,0"
           transform="matrix(0.1,0,0,-0.1,0,763)"
           id="path142385" />
        <path
           style="fill:#ff0000;fill-opacity:1;fill-rule:nonzero;stroke:#ff0000;stroke-width:10;stroke-linecap:butt;stroke-linejoin:round;stroke-miterlimit:4;stroke-opacity:1"
           d="m 6729.2969,7096.6797 c 7.9297,0 15.5859,3.164 21.2109,8.789 5.625,5.625 8.7891,13.2813 8.7891,21.211 0,7.9687 -3.1641,15.625 -8.7891,21.25 -5.625,5.625 -13.2812,8.75 -21.2109,8.75 -7.9688,0 -15.586,-3.125 -21.211,-8.75 -5.625,-5.625 -8.789,-13.2813 -8.789,-21.25 0,-7.9297 3.164,-15.586 8.789,-21.211 5.625,-5.625 13.2422,-8.789 21.211,-8.789 z m 0,0"
           transform="matrix(0.1,0,0,-0.1,0,763)"
           id="path142387" />
        <path
           style="fill:#ff0000;fill-opacity:1;fill-rule:nonzero;stroke:#ff0000;stroke-width:10;stroke-linecap:butt;stroke-linejoin:round;stroke-miterlimit:4;stroke-opacity:1"
           d="m 7015.3516,6197.7344 c 7.9687,0 15.5859,3.164 21.2109,8.789 5.625,5.625 8.7891,13.2422 8.7891,21.211 0,7.9687 -3.1641,15.5859 -8.7891,21.2109 -5.625,5.625 -13.2422,8.7891 -21.2109,8.7891 -7.9297,0 -15.586,-3.1641 -21.211,-8.7891 -5.625,-5.625 -8.789,-13.2422 -8.789,-21.2109 0,-7.9688 3.164,-15.586 8.789,-21.211 5.625,-5.625 13.2813,-8.789 21.211,-8.789 z m 0,0"
           transform="matrix(0.1,0,0,-0.1,0,763)"
           id="path142389" />
        <path
           style="fill:#ff0000;fill-opacity:1;fill-rule:nonzero;stroke:#ff0000;stroke-width:10;stroke-linecap:butt;stroke-linejoin:round;stroke-miterlimit:4;stroke-opacity:1"
           d="m 6874.5312,4607.5781 c 7.9688,0 15.586,3.1641 21.211,8.7891 5.625,5.625 8.789,13.2812 8.789,21.2109 0,7.9688 -3.164,15.586 -8.789,21.211 -5.625,5.625 -13.2422,8.789 -21.211,8.789 -7.9687,0 -15.5859,-3.164 -21.2109,-8.789 -5.625,-5.625 -8.7891,-13.2422 -8.7891,-21.211 0,-7.9297 3.1641,-15.5859 8.7891,-21.2109 5.625,-5.625 13.2422,-8.7891 21.2109,-8.7891 z m 0,0"
           transform="matrix(0.1,0,0,-0.1,0,763)"
           id="path142391" />
        <path
           style="fill:#ff0000;fill-opacity:1;fill-rule:nonzero;stroke:#ff0000;stroke-width:10;stroke-linecap:butt;stroke-linejoin:round;stroke-miterlimit:4;stroke-opacity:1"
           d="m 6784.1016,2502.5781 c 7.9687,0 15.5859,3.1641 21.2109,8.7891 5.625,5.625 8.7891,13.2422 8.7891,21.2109 0,7.9688 -3.1641,15.586 -8.7891,21.211 -5.625,5.625 -13.2422,8.789 -21.2109,8.789 -7.9688,0 -15.586,-3.164 -21.211,-8.789 -5.625,-5.625 -8.789,-13.2422 -8.789,-21.211 0,-7.9687 3.164,-15.5859 8.789,-21.2109 5.625,-5.625 13.2422,-8.7891 21.211,-8.7891 z m 0,0"
           transform="matrix(0.1,0,0,-0.1,0,763)"
           id="path142393" />
        <path
           style="fill:#ff0000;fill-opacity:1;fill-rule:nonzero;stroke:#ff0000;stroke-width:10;stroke-linecap:butt;stroke-linejoin:round;stroke-miterlimit:4;stroke-opacity:1"
           d="m 6439.6484,793.125 c 7.9297,0 15.586,3.16406 21.211,8.78906 5.625,5.625 8.789,13.28125 8.789,21.21094 0,7.96875 -3.164,15.58594 -8.789,21.21094 -5.625,5.625 -13.2813,8.78906 -21.211,8.78906 -7.9687,0 -15.5859,-3.16406 -21.2109,-8.78906 -5.6641,-5.625 -8.7891,-13.24219 -8.7891,-21.21094 0,-7.92969 3.125,-15.58594 8.7891,-21.21094 5.625,-5.625 13.2422,-8.78906 21.2109,-8.78906 z m 0,0"
           transform="matrix(0.1,0,0,-0.1,0,763)"
           id="path142395" />
        <path
           style="fill:#ff0000;fill-opacity:1;fill-rule:nonzero;stroke:#ff0000;stroke-width:10;stroke-linecap:butt;stroke-linejoin:round;stroke-miterlimit:4;stroke-opacity:1"
           d="m 5536.6406,389.72656 c 7.9688,0 15.586,3.125 21.211,8.75 5.625,5.625 8.789,13.28125 8.789,21.25 0,7.92969 -3.164,15.58594 -8.789,21.21094 -5.625,5.625 -13.2422,8.78906 -21.211,8.78906 -7.9687,0 -15.5859,-3.16406 -21.2109,-8.78906 -5.625,-5.625 -8.7891,-13.28125 -8.7891,-21.21094 0,-7.96875 3.1641,-15.625 8.7891,-21.25 5.625,-5.625 13.2422,-8.75 21.2109,-8.75 z m 0,0"
           transform="matrix(0.1,0,0,-0.1,0,763)"
           id="path142397" />
        <path
           style="fill:#ff0000;fill-opacity:1;fill-rule:nonzero;stroke:#ff0000;stroke-width:10;stroke-linecap:butt;stroke-linejoin:round;stroke-miterlimit:4;stroke-opacity:1"
           d="m 4154.6484,608.98437 c 7.9688,0 15.586,3.16407 21.211,8.78907 5.625,5.625 8.789,13.28125 8.789,21.21093 0,7.96875 -3.164,15.58594 -8.789,21.21094 -5.625,5.625 -13.2422,8.78906 -21.211,8.78906 -7.9687,0 -15.5859,-3.16406 -21.2109,-8.78906 -5.625,-5.625 -8.7891,-13.24219 -8.7891,-21.21094 0,-7.92968 3.1641,-15.58593 8.7891,-21.21093 5.625,-5.625 13.2422,-8.78907 21.2109,-8.78907 z m 0,0"
           transform="matrix(0.1,0,0,-0.1,0,763)"
           id="path142399" />
        <path
           style="fill:#ff0000;fill-opacity:1;fill-rule:nonzero;stroke:#ff0000;stroke-width:10;stroke-linecap:butt;stroke-linejoin:round;stroke-miterlimit:4;stroke-opacity:1"
           d="m 2373.2031,767.69531 c 7.9688,0 15.586,3.16406 21.211,8.78906 5.625,5.625 8.789,13.28125 8.789,21.21094 0,7.96875 -3.164,15.58594 -8.789,21.25 -5.625,5.625 -13.2422,8.75 -21.211,8.75 -7.9687,0 -15.5859,-3.125 -21.2109,-8.75 -5.625,-5.66406 -8.7891,-13.28125 -8.7891,-21.25 0,-7.92969 3.1641,-15.58594 8.7891,-21.21094 5.625,-5.625 13.2422,-8.78906 21.2109,-8.78906 z m 0,0"
           transform="matrix(0.1,0,0,-0.1,0,763)"
           id="path142401" />
        <path
           style="fill:#ff0000;fill-opacity:1;fill-rule:nonzero;stroke:#ff0000;stroke-width:10;stroke-linecap:butt;stroke-linejoin:round;stroke-miterlimit:4;stroke-opacity:1"
           d="m 924.96094,1092.4219 c 7.96875,0 15.58593,3.164 21.21093,8.789 5.625,5.625 8.78907,13.2422 8.78907,21.211 0,7.9297 -3.16407,15.5859 -8.78907,21.2109 -5.625,5.625 -13.24218,8.7891 -21.21093,8.7891 -7.96875,0 -15.58594,-3.1641 -21.21094,-8.7891 -5.625,-5.625 -8.78906,-13.2812 -8.78906,-21.2109 0,-7.9688 3.16406,-15.586 8.78906,-21.211 5.625,-5.625 13.24219,-8.789 21.21094,-8.789 z m 0,0"
           transform="matrix(0.1,0,0,-0.1,0,763)"
           id="path142403" />
        <path
           style="fill:#ff0000;fill-opacity:1;fill-rule:nonzero;stroke:#ff0000;stroke-width:10;stroke-linecap:butt;stroke-linejoin:round;stroke-miterlimit:4;stroke-opacity:1"
           d="m 542.57812,1809.6484 c 7.96875,0 15.58594,3.1641 21.21094,8.7891 5.625,5.625 8.78906,13.2422 8.78906,21.2109 0,7.9688 -3.16406,15.586 -8.78906,21.211 -5.625,5.625 -13.24219,8.789 -21.21094,8.789 -7.92968,0 -15.58593,-3.164 -21.21093,-8.789 -5.625,-5.625 -8.78907,-13.2422 -8.78907,-21.211 0,-7.9687 3.16407,-15.5859 8.78907,-21.2109 5.625,-5.625 13.28125,-8.7891 21.21093,-8.7891 z m 0,0"
           transform="matrix(0.1,0,0,-0.1,0,763)"
           id="path142405" />
        <path
           style="fill:#ff0000;fill-opacity:1;fill-rule:nonzero;stroke:#ff0000;stroke-width:10;stroke-linecap:butt;stroke-linejoin:round;stroke-miterlimit:4;stroke-opacity:1"
           d="m 697.69531,3017.3828 c 7.92969,0 15.58594,3.1641 21.21094,8.7891 5.625,5.625 8.78906,13.2812 8.78906,21.2109 0,7.9688 -3.16406,15.586 -8.78906,21.211 -5.625,5.625 -13.28125,8.789 -21.21094,8.789 -7.96875,0 -15.625,-3.164 -21.25,-8.789 -5.625,-5.625 -8.75,-13.2422 -8.75,-21.211 0,-7.9297 3.125,-15.5859 8.75,-21.2109 5.625,-5.625 13.28125,-8.7891 21.25,-8.7891 z m 0,0"
           transform="matrix(0.1,0,0,-0.1,0,763)"
           id="path142407" />
        <path
           style="fill:#ff0000;fill-opacity:1;fill-rule:nonzero;stroke:#ff0000;stroke-width:10;stroke-linecap:butt;stroke-linejoin:round;stroke-miterlimit:4;stroke-opacity:1"
           d="m 861.79687,4813.6328 c 7.96875,0 15.58594,3.125 21.21094,8.75 5.625,5.625 8.78906,13.2813 8.78906,21.25 0,7.9297 -3.16406,15.5859 -8.78906,21.2109 -5.625,5.625 -13.24219,8.7891 -21.21094,8.7891 -7.92968,0 -15.58593,-3.1641 -21.21093,-8.7891 -5.625,-5.625 -8.78907,-13.2812 -8.78907,-21.2109 0,-7.9687 3.16407,-15.625 8.78907,-21.25 5.625,-5.625 13.28125,-8.75 21.21093,-8.75 z m 0,0"
           transform="matrix(0.1,0,0,-0.1,0,763)"
           id="path142409" />
        <path
           style="fill:#ff0000;fill-opacity:1;fill-rule:nonzero;stroke:#ff0000;stroke-width:10;stroke-linecap:butt;stroke-linejoin:round;stroke-miterlimit:4;stroke-opacity:1"
           d="m 1346.5625,6359.1797 c 7.9297,0 15.5859,3.164 21.2109,8.789 5.625,5.625 8.7891,13.2813 8.7891,21.211 0,7.9687 -3.1641,15.5859 -8.7891,21.2109 -5.625,5.625 -13.2812,8.7891 -21.2109,8.7891 -7.9687,0 -15.5859,-3.1641 -21.2109,-8.7891 -5.625,-5.625 -8.7891,-13.2422 -8.7891,-21.2109 0,-7.9297 3.1641,-15.586 8.7891,-21.211 5.625,-5.625 13.2422,-8.789 21.2109,-8.789 z m 0,0"
           transform="matrix(0.1,0,0,-0.1,0,763)"
           id="path142411" />
        <path
           style="fill:#ff0000;fill-opacity:1;fill-rule:nonzero;stroke:#ff0000;stroke-width:10;stroke-linecap:butt;stroke-linejoin:round;stroke-miterlimit:4;stroke-opacity:1"
           d="m 2463.4766,6815 c 7.9687,0 15.5859,3.1641 21.2109,8.7891 5.625,5.625 8.7891,13.2421 8.7891,21.2109 0,7.9687 -3.1641,15.5859 -8.7891,21.2109 -5.625,5.625 -13.2422,8.7891 -21.2109,8.7891 -7.9688,0 -15.586,-3.1641 -21.211,-8.7891 -5.625,-5.625 -8.789,-13.2422 -8.789,-21.2109 0,-7.9688 3.164,-15.5859 8.789,-21.2109 5.625,-5.625 13.2422,-8.7891 21.211,-8.7891 z m 0,0"
           transform="matrix(0.1,0,0,-0.1,0,763)"
           id="path142413" />
        <path
           style="fill:#ff0000;fill-opacity:1;fill-rule:nonzero;stroke:#ff0000;stroke-width:10;stroke-linecap:butt;stroke-linejoin:round;stroke-miterlimit:4;stroke-opacity:1"
           d="m 3948.8672,6848.75 c 7.9297,0 15.5859,3.1641 21.2109,8.7891 5.625,5.625 8.7891,13.2812 8.7891,21.2109 0,7.9687 -3.1641,15.5859 -8.7891,21.2109 -5.625,5.625 -13.2812,8.7891 -21.2109,8.7891 -7.9688,0 -15.5859,-3.1641 -21.2109,-8.7891 -5.625,-5.625 -8.7891,-13.2422 -8.7891,-21.2109 0,-7.9297 3.1641,-15.5859 8.7891,-21.2109 5.625,-5.625 13.2421,-8.7891 21.2109,-8.7891 z m 0,0"
           transform="matrix(0.1,0,0,-0.1,0,763)"
           id="path142415" />
        <path
           style="fill:#ff0000;fill-opacity:1;fill-rule:nonzero;stroke:#ff0000;stroke-width:10;stroke-linecap:butt;stroke-linejoin:round;stroke-miterlimit:4;stroke-opacity:1"
           d="m 5538.9453,7128.2031 c 7.9688,0 15.5859,3.1641 21.2109,8.7891 5.625,5.625 8.7891,13.2422 8.7891,21.2109 0,7.9297 -3.1641,15.586 -8.7891,21.211 -5.625,5.625 -13.2421,8.789 -21.2109,8.789 -7.9687,0 -15.5859,-3.164 -21.2109,-8.789 -5.625,-5.625 -8.7891,-13.2813 -8.7891,-21.211 0,-7.9687 3.1641,-15.5859 8.7891,-21.2109 5.625,-5.625 13.2422,-8.7891 21.2109,-8.7891 z m 0,0"
           transform="matrix(0.1,0,0,-0.1,0,763)"
           id="path142417" />
        <path
           style="fill:none;stroke:#007f00;stroke-width:30;stroke-linecap:square;stroke-linejoin:round;stroke-miterlimit:4;stroke-opacity:1"
           d="m 3966.2891,6919.7266 494.6875,59.6484 488.8671,66.5625 466.5625,55.2344 427.6563,25.7031 372.2656,-22.1094 300.3516,-88.164 214.1406,-170.7032 133.3203,-255.1562 68.1641,-333.9063 18.5156,-406.7968 -15.3906,-473.9844 -33.6719,-535.3906 -36.875,-590.4688 -37.2656,-627.7734 -47.0313,-635.7813 -66.8359,-613.9062 -96.5625,-562.1875 -136.3281,-480.7031 -185.9766,-369.45318 -241.6797,-244.96093 -295.5859,-139.25782 -346.875,-55.85937 -395.6641,5.07812 -441.7187,43.67188 -485.2735,59.84375 -522.6171,58.63281 -539.4922,59.80469 -532.3828,68.47656 -501.25,84.57031 -446.1719,108.04688 -366.9922,138.9453 -266.75783,177.0313 -170.70312,219.5703 -91.875,265.4297 -30.35156,314.414 13.86718,366.6797 40.78125,422.1094 50.89844,480.1172 57.53906,526.0156 73.78907,545 100.19531,536.5625 136.9141,500.5469 183.7109,437.0703 240.7813,346.25 302.0312,243.5937 355.9766,159.375 401.25,96.9922 437.8906,56.4844 465.8984,37.8906 485.2735,41.211"
           id="path142419"
           transform="matrix(0.1,0,0,-0.1,0,763)" />
        <path
           style="fill:#000000;fill-opacity:1;fill-rule:nonzero;stroke:none"
           d="m 203.40234,47.179688 c 0,-1.4375 -0.3125,-2.539063 -0.9375,-3.300782 -0.6289,-0.761718 -1.52734,-1.144531 -2.69922,-1.144531 -0.80078,0 -1.5664,0.207031 -2.29687,0.617187 -0.72656,0.410157 -1.375,1.003907 -1.94141,1.785157 -0.55468,0.773437 -1.0039,1.707031 -1.33593,2.804687 -0.33204,1.09375 -0.5,2.179688 -0.5,3.253906 0,1.367188 0.3125,2.421876 0.9414,3.160157 0.625,0.738281 1.51563,1.105469 2.66797,1.105469 0.85156,0 1.64063,-0.199219 2.37109,-0.601563 0.72657,-0.398437 1.35157,-0.980469 1.86719,-1.746094 0.55469,-0.800781 1.00391,-1.742187 1.34766,-2.828125 0.34375,-1.085937 0.51562,-2.121094 0.51562,-3.105468 z m -8.35937,-3.816407 c 0.72265,-0.945312 1.57812,-1.664062 2.55859,-2.152343 0.98047,-0.488282 2.07422,-0.730469 3.28125,-0.730469 1.67969,0 2.98438,0.546875 3.91406,1.648437 0.92579,1.097656 1.39063,2.640625 1.39063,4.625 0,1.621094 -0.28906,3.167969 -0.86719,4.640625 -0.57422,1.46875 -1.40625,2.785157 -2.49219,3.949219 -0.72265,0.773438 -1.53906,1.363281 -2.44921,1.769531 -0.90625,0.40625 -1.86329,0.609375 -2.8711,0.609375 -1.16406,0 -2.14062,-0.242187 -2.93359,-0.726562 -0.78906,-0.484375 -1.38281,-1.207032 -1.77344,-2.164063 l -1.6875,8.710938 h -2.69922 l 4.41406,-22.671875 h 2.69922 z m 0,0"
           id="path142421" />
        <path
           style="fill:#000000;fill-opacity:1;fill-rule:nonzero;stroke:none"
           d="m 212.8125,25.804688 h 1.88672 l -0.46094,2.394531 h -1.89062 z m -0.86328,4.480468 h 1.88672 l -2.2461,11.496094 h -1.88672 z m 0,0"
           id="path142423" />
        <path
           style="fill:#000000;fill-opacity:1;fill-rule:nonzero;stroke:none"
           d="m 217.26562,39.171875 h 2.16407 V 40.9375 L 217.75,44.222656 h -1.32422 l 0.83984,-3.285156 z m 0,0"
           id="path142425" />
        <path
           style="fill:#000000;fill-opacity:1;fill-rule:nonzero;stroke:none"
           d="m 228.62891,30.285156 h 1.88671 l -2.26562,11.703125 -0.0117,0.04687 c -0.25391,1.308594 -0.54297,2.203125 -0.87109,2.691406 -0.3086,0.457032 -0.75782,0.808594 -1.35157,1.054688 -0.59375,0.246094 -1.29296,0.371094 -2.09765,0.371094 h -0.70703 l 0.30859,-1.601563 H 224 c 0.73828,0 1.26562,-0.152343 1.57812,-0.460937 0.3086,-0.308594 0.57032,-1.007813 0.78516,-2.101563 z m 0.88281,-4.480468 h 1.89062 l -0.46484,2.394531 h -1.88672 z m 0,0"
           id="path142427" />
        <path
           style="fill:#000000;fill-opacity:1;fill-rule:nonzero;stroke:none"
           d="m 214.24609,51.546875 c -1.0664,0 -1.86718,0.527344 -2.40625,1.578125 -0.53906,1.046875 -0.80468,2.628906 -0.80468,4.734375 0,2.101563 0.26562,3.675781 0.80468,4.726563 0.53907,1.054687 1.33985,1.578124 2.40625,1.578124 1.07422,0 1.88282,-0.523437 2.41797,-1.578124 0.53906,-1.050782 0.8086,-2.625 0.8086,-4.726563 0,-2.105469 -0.26954,-3.6875 -0.8086,-4.734375 -0.53515,-1.050781 -1.34375,-1.578125 -2.41797,-1.578125 z m 0,-1.640625 c 1.71875,0 3.03125,0.679688 3.9375,2.039062 0.90625,1.359376 1.36328,3.328126 1.36328,5.914063 0,2.582031 -0.45703,4.550781 -1.36328,5.910156 -0.90625,1.359375 -2.21875,2.035157 -3.9375,2.035157 -1.71484,0 -3.02734,-0.675782 -3.93359,-2.035157 -0.90625,-1.359375 -1.35938,-3.328125 -1.35938,-5.910156 0,-2.585937 0.45313,-4.554687 1.35938,-5.914063 0.90625,-1.359374 2.21875,-2.039062 3.93359,-2.039062 z m 0,0"
           id="path142429" />
        <path
           style="fill:#000000;fill-opacity:1;fill-rule:nonzero;stroke:none"
           d="m 241.55078,34.511719 c -1.30469,2.246093 -2.28125,4.46875 -2.91797,6.671875 -0.63281,2.199218 -0.95312,4.425781 -0.95312,6.683594 0,2.257812 0.32031,4.492187 0.96484,6.707031 0.64063,2.214843 1.60938,4.441406 2.90625,6.683593 h -2.34375 c -1.46484,-2.300781 -2.5625,-4.558593 -3.28906,-6.777343 -0.73047,-2.21875 -1.09375,-4.421875 -1.09375,-6.613281 0,-2.179688 0.35937,-4.371094 1.08203,-6.582032 0.72656,-2.210937 1.82422,-4.46875 3.30078,-6.773437 z m 0,0"
           id="path142431" />
        <path
           style="fill:#000000;fill-opacity:1;fill-rule:nonzero;stroke:none"
           d="m 258.85547,47.179688 c 0,-1.4375 -0.3125,-2.539063 -0.9375,-3.300782 -0.625,-0.761718 -1.52344,-1.144531 -2.69922,-1.144531 -0.80078,0 -1.5625,0.207031 -2.29297,0.617187 -0.73047,0.410157 -1.375,1.003907 -1.94141,1.785157 -0.55859,0.773437 -1.0039,1.707031 -1.33984,2.804687 -0.33203,1.09375 -0.49609,2.179688 -0.49609,3.253906 0,1.367188 0.3125,2.421876 0.9375,3.160157 0.625,0.738281 1.51562,1.105469 2.67187,1.105469 0.85156,0 1.64063,-0.199219 2.36719,-0.601563 0.73047,-0.398437 1.35156,-0.980469 1.86719,-1.746094 0.55859,-0.800781 1.00781,-1.742187 1.34765,-2.828125 0.34375,-1.085937 0.51563,-2.121094 0.51563,-3.105468 z M 250.5,43.363281 c 0.72266,-0.945312 1.57422,-1.664062 2.55859,-2.152343 0.98047,-0.488282 2.07422,-0.730469 3.27735,-0.730469 1.67968,0 2.98437,0.546875 3.91406,1.648437 0.92969,1.097656 1.39453,2.640625 1.39453,4.625 0,1.621094 -0.28906,3.167969 -0.86719,4.640625 -0.57812,1.46875 -1.40625,2.785157 -2.49218,3.949219 -0.72266,0.773438 -1.53907,1.363281 -2.44922,1.769531 -0.91016,0.40625 -1.86719,0.609375 -2.8711,0.609375 -1.16406,0 -2.14453,-0.242187 -2.93359,-0.726562 -0.79297,-0.484375 -1.38281,-1.207032 -1.77344,-2.164063 l -1.6914,8.710938 h -2.69532 l 4.41407,-22.671875 h 2.69921 z m 0,0"
           id="path142433" />
        <path
           style="fill:#000000;fill-opacity:1;fill-rule:nonzero;stroke:none"
           d="m 268.26562,25.804688 h 1.89063 l -0.46484,2.394531 h -1.88672 z m -0.86328,4.480468 h 1.89063 l -2.2461,11.496094 h -1.89062 z m 0,0"
           id="path142435" />
        <path
           style="fill:#000000;fill-opacity:1;fill-rule:nonzero;stroke:none"
           d="m 272.72266,39.171875 h 2.16406 V 40.9375 l -1.6836,3.285156 h -1.32421 l 0.84375,-3.285156 z m 0,0"
           id="path142437" />
        <path
           style="fill:#000000;fill-opacity:1;fill-rule:nonzero;stroke:none"
           d="m 284.08594,30.285156 h 1.88672 l -2.26563,11.703125 -0.0156,0.04687 c -0.25,1.308594 -0.53907,2.203125 -0.86719,2.691406 -0.3086,0.457032 -0.76172,0.808594 -1.35547,1.054688 -0.58984,0.246094 -1.28906,0.371094 -2.09375,0.371094 h -0.71094 l 0.3086,-1.601563 h 0.48437 c 0.73828,0 1.26172,-0.152343 1.57422,-0.460937 0.3125,-0.308594 0.57422,-1.007813 0.78516,-2.101563 z m 0.88281,-4.480468 h 1.88672 l -0.46094,2.394531 h -1.89062 z m 0,0"
           id="path142439" />
        <path
           style="fill:#000000;fill-opacity:1;fill-rule:nonzero;stroke:none"
           d="m 265.62891,63.761719 h 3.38671 V 52.070312 l -3.68359,0.738282 v -1.886719 l 3.66406,-0.742187 h 2.07422 v 13.582031 h 3.38281 v 1.746093 h -8.82421 z m 0,0"
           id="path142441" />
        <path
           style="fill:#000000;fill-opacity:1;fill-rule:nonzero;stroke:none"
           d="m 283.33594,57.019531 c -0.92969,0 -1.66797,0.320313 -2.21485,0.957031 -0.54297,0.632813 -0.8125,1.507813 -0.8125,2.613282 0,1.101562 0.26953,1.972656 0.8125,2.617187 0.54688,0.636719 1.28516,0.957031 2.21485,0.957031 0.92968,0 1.66797,-0.320312 2.21093,-0.957031 0.54297,-0.644531 0.81641,-1.515625 0.81641,-2.617187 0,-1.105469 -0.27344,-1.980469 -0.81641,-2.613282 -0.54296,-0.636718 -1.28125,-0.957031 -2.21093,-0.957031 z m 4.11718,-6.5 v 1.890625 c -0.52343,-0.246094 -1.04687,-0.433594 -1.57812,-0.5625 -0.53125,-0.132812 -1.05469,-0.199218 -1.57813,-0.199218 -1.36718,0 -2.41406,0.464843 -3.13671,1.386718 -0.71875,0.925782 -1.12891,2.320313 -1.23438,4.1875 0.40234,-0.59375 0.91016,-1.050781 1.51953,-1.367187 0.60938,-0.320313 1.28125,-0.476563 2.01172,-0.476563 1.53906,0 2.75781,0.464844 3.64844,1.402344 0.89453,0.933594 1.33984,2.203125 1.33984,3.808594 0,1.574218 -0.46484,2.839844 -1.39453,3.792968 -0.92969,0.949219 -2.16797,1.421876 -3.71484,1.421876 -1.77344,0 -3.12891,-0.675782 -4.06641,-2.035157 -0.9375,-1.359375 -1.40625,-3.328125 -1.40625,-5.910156 0,-2.421875 0.57422,-4.351563 1.72656,-5.792969 1.14844,-1.441406 2.69141,-2.160156 4.625,-2.160156 0.52344,0 1.04688,0.05078 1.57813,0.152344 0.53125,0.105468 1.08203,0.257812 1.66015,0.460937 z m 0,0"
           id="path142443" />
        <path
           style="fill:#000000;fill-opacity:1;fill-rule:nonzero;stroke:none"
           d="m 293,34.511719 h 2.34375 c 1.46484,2.304687 2.5625,4.5625 3.28906,6.773437 0.73047,2.210938 1.09375,4.402344 1.09375,6.582032 0,2.191406 -0.36328,4.394531 -1.09375,6.613281 -0.72656,2.21875 -1.82422,4.476562 -3.28906,6.777343 H 293 c 1.29687,-2.242187 2.26562,-4.46875 2.90625,-6.683593 0.64453,-2.214844 0.96484,-4.449219 0.96484,-6.707031 0,-2.257813 -0.32031,-4.484376 -0.96484,-6.683594 C 295.26562,38.980469 294.29687,36.757812 293,34.511719 Z m 0,0"
           id="path142445" />
        <path
           style="fill:#000000;fill-opacity:1;fill-rule:nonzero;stroke:none"
           d="m 361.80469,37.144531 c 0,-1.460937 -0.32032,-2.574219 -0.95313,-3.347656 -0.63672,-0.773437 -1.54687,-1.160156 -2.73828,-1.160156 -0.8125,0 -1.58984,0.207031 -2.32812,0.625 -0.73829,0.414062 -1.39454,1.019531 -1.96875,1.8125 -0.56641,0.785156 -1.01954,1.730469 -1.35938,2.84375 -0.33594,1.109375 -0.50391,2.210937 -0.50391,3.300781 0,1.386719 0.31641,2.457031 0.95313,3.207031 0.63281,0.746094 1.53516,1.121094 2.70703,1.121094 0.86328,0 1.66406,-0.203125 2.40625,-0.609375 0.73828,-0.40625 1.37109,-0.996094 1.89453,-1.769531 0.5625,-0.8125 1.01953,-1.769531 1.36719,-2.871094 0.34766,-1.101563 0.52344,-2.152344 0.52344,-3.152344 z m -8.48047,-3.871093 c 0.73437,-0.960938 1.59765,-1.6875 2.59375,-2.183594 0.99609,-0.496094 2.10547,-0.742188 3.32812,-0.742188 1.70313,0 3.02735,0.558594 3.97266,1.675782 0.94141,1.113281 1.41406,2.675781 1.41406,4.6875 0,1.648437 -0.29687,3.21875 -0.88281,4.710937 -0.58203,1.488281 -1.42578,2.824219 -2.52734,4.007813 -0.73438,0.78125 -1.5625,1.382812 -2.48438,1.792968 -0.92187,0.414063 -1.89453,0.621094 -2.91406,0.621094 -1.17969,0 -2.17188,-0.246094 -2.97656,-0.738281 -0.80079,-0.492188 -1.40235,-1.222657 -1.80079,-2.195313 l -1.71093,8.835938 h -2.73828 l 4.48046,-23 h 2.73829 z m 0,0"
           id="path142447" />
        <path
           style="fill:#000000;fill-opacity:1;fill-rule:nonzero;stroke:none"
           d="m 371.35156,15.742188 h 1.91406 l -0.46875,2.429687 h -1.91406 z m -0.8789,4.539062 h 1.91796 l -2.28125,11.664062 h -1.91406 z m 0,0"
           id="path142449" />
        <path
           style="fill:#000000;fill-opacity:1;fill-rule:nonzero;stroke:none"
           d="m 375.87109,29.300781 h 2.19532 v 1.792969 l -1.70704,3.332031 h -1.34375 l 0.85547,-3.332031 z m 0,0"
           id="path142451" />
        <path
           style="fill:#000000;fill-opacity:1;fill-rule:nonzero;stroke:none"
           d="m 387.39844,20.28125 h 1.91406 l -2.29688,11.875 -0.0156,0.05078 c -0.25391,1.324219 -0.54688,2.234375 -0.88281,2.730469 -0.3125,0.460938 -0.76953,0.820312 -1.3711,1.066406 -0.60156,0.253906 -1.30859,0.378906 -2.125,0.378906 h -0.72265 l 0.3125,-1.625 h 0.49218 c 0.75,0 1.28125,-0.15625 1.59766,-0.46875 0.31641,-0.3125 0.58203,-1.023437 0.79688,-2.132812 z m 0.89453,-4.539062 h 1.91797 l -0.46875,2.429687 h -1.91797 z m 0,0"
           id="path142453" />
        <path
           style="fill:#000000;fill-opacity:1;fill-rule:nonzero;stroke:none"
           d="m 368.67578,53.972656 h 3.43359 V 42.105469 l -3.73828,0.75 v -1.914063 l 3.71875,-0.75 h 2.10157 v 13.78125 h 3.4375 v 1.769532 h -8.95313 z m 0,0"
           id="path142455" />
        <path
           style="fill:#000000;fill-opacity:1;fill-rule:nonzero;stroke:none"
           d="m 400.51172,24.289062 c -1.32813,2.28125 -2.31641,4.539063 -2.96485,6.773438 -0.64453,2.230469 -0.96484,4.492188 -0.96484,6.78125 0,2.289062 0.32422,4.558594 0.97656,6.804688 0.64844,2.246093 1.63282,4.507812 2.95313,6.777343 h -2.38281 c -1.48438,-2.332031 -2.59766,-4.621093 -3.33594,-6.875 -0.74219,-2.25 -1.10938,-4.484375 -1.10938,-6.707031 0,-2.210938 0.36719,-4.4375 1.09766,-6.679688 0.73828,-2.242187 1.85156,-4.535156 3.34766,-6.875 z m 0,0"
           id="path142457" />
        <path
           style="fill:#000000;fill-opacity:1;fill-rule:nonzero;stroke:none"
           d="m 418.06641,37.144531 c 0,-1.460937 -0.31641,-2.574219 -0.95313,-3.347656 -0.63281,-0.773437 -1.54687,-1.160156 -2.73437,-1.160156 -0.8125,0 -1.58985,0.207031 -2.32813,0.625 -0.74219,0.414062 -1.39844,1.019531 -1.97266,1.8125 -0.5664,0.785156 -1.01562,1.730469 -1.35546,2.84375 -0.33594,1.109375 -0.50391,2.210937 -0.50391,3.300781 0,1.386719 0.31641,2.457031 0.94922,3.207031 0.63672,0.746094 1.53906,1.121094 2.71094,1.121094 0.86328,0 1.66406,-0.203125 2.40234,-0.609375 0.74219,-0.40625 1.37109,-0.996094 1.89453,-1.769531 0.56641,-0.8125 1.01953,-1.769531 1.36719,-2.871094 0.34765,-1.101563 0.52344,-2.152344 0.52344,-3.152344 z m -8.47657,-3.871093 c 0.73047,-0.960938 1.59766,-1.6875 2.59375,-2.183594 0.9961,-0.496094 2.10547,-0.742188 3.32813,-0.742188 1.70312,0 3.02734,0.558594 3.96875,1.675782 0.9414,1.113281 1.41406,2.675781 1.41406,4.6875 0,1.648437 -0.29297,3.21875 -0.87891,4.710937 -0.58593,1.488281 -1.42968,2.824219 -2.53125,4.007813 -0.73046,0.78125 -1.55859,1.382812 -2.48437,1.792968 -0.91797,0.414063 -1.89063,0.621094 -2.91406,0.621094 -1.17969,0 -2.17188,-0.246094 -2.97266,-0.738281 -0.80469,-0.492188 -1.40234,-1.222657 -1.80078,-2.195313 l -1.71484,8.835938 h -2.73829 l 4.48047,-23 h 2.73828 z m 0,0"
           id="path142459" />
        <path
           style="fill:#000000;fill-opacity:1;fill-rule:nonzero;stroke:none"
           d="m 427.61328,15.742188 h 1.91797 l -0.46875,2.429687 h -1.91797 z m -0.875,4.539062 h 1.91797 L 426.375,31.945312 h -1.91797 z m 0,0"
           id="path142461" />
        <path
           style="fill:#000000;fill-opacity:1;fill-rule:nonzero;stroke:none"
           d="m 432.13281,29.300781 h 2.19531 v 1.792969 l -1.70312,3.332031 h -1.34375 l 0.85156,-3.332031 z m 0,0"
           id="path142463" />
        <path
           style="fill:#000000;fill-opacity:1;fill-rule:nonzero;stroke:none"
           d="m 443.66016,20.28125 h 1.91796 l -2.30078,11.875 -0.0117,0.05078 c -0.2539,1.324219 -0.55078,2.234375 -0.88281,2.730469 -0.3125,0.460938 -0.76953,0.820312 -1.375,1.066406 -0.59765,0.253906 -1.30859,0.378906 -2.125,0.378906 h -0.71875 l 0.3125,-1.625 h 0.48828 c 0.75,0 1.28516,-0.15625 1.60157,-0.46875 0.3164,-0.3125 0.58203,-1.023437 0.79687,-2.132812 z m 0.89843,-4.539062 h 1.91797 l -0.47265,2.429687 h -1.91407 z m 0,0"
           id="path142465" />
        <path
           style="fill:#000000;fill-opacity:1;fill-rule:nonzero;stroke:none"
           d="m 424.9375,53.972656 h 3.4375 V 42.105469 l -3.73828,0.75 v -1.914063 l 3.71875,-0.75 h 2.10156 v 13.78125 h 3.4375 v 1.769532 h -8.95703 z m 0,0"
           id="path142467" />
        <path
           style="fill:#000000;fill-opacity:1;fill-rule:nonzero;stroke:none"
           d="m 437.61328,40.191406 h 9.99609 v 0.894532 l -5.64453,14.65625 h -2.19922 l 5.3125,-13.777344 h -7.46484 z m 0,0"
           id="path142469" />
        <path
           style="fill:#000000;fill-opacity:1;fill-rule:nonzero;stroke:none"
           d="m 452.70703,24.289062 h 2.37891 c 1.48828,2.339844 2.59765,4.632813 3.33984,6.875 0.73828,2.242188 1.10938,4.46875 1.10938,6.679688 0,2.222656 -0.3711,4.457031 -1.10938,6.707031 -0.74219,2.253907 -1.85156,4.542969 -3.33984,6.875 h -2.37891 c 1.31641,-2.269531 2.30078,-4.53125 2.95313,-6.777343 0.64843,-2.246094 0.97265,-4.515626 0.97265,-6.804688 0,-2.289062 -0.32422,-4.550781 -0.97265,-6.78125 -0.65235,-2.234375 -1.63672,-4.492188 -2.95313,-6.773438 z m 0,0"
           id="path142471" />
        <path
           style="fill:#000000;fill-opacity:1;fill-rule:nonzero;stroke:none"
           d="m 515.54297,21.371094 c 0,-1.4375 -0.3125,-2.535156 -0.94141,-3.296875 -0.625,-0.761719 -1.52344,-1.144531 -2.69531,-1.144531 -0.80078,0 -1.56641,0.203124 -2.29688,0.613281 -0.72656,0.410156 -1.375,1.007812 -1.9414,1.789062 -0.5586,0.773438 -1.00391,1.707031 -1.33594,2.800781 -0.33203,1.09375 -0.5,2.179688 -0.5,3.257813 0,1.367187 0.3125,2.417969 0.94141,3.15625 0.625,0.738281 1.51562,1.109375 2.66797,1.109375 0.85156,0 1.64062,-0.203125 2.37109,-0.601562 0.72656,-0.402344 1.35156,-0.984376 1.86719,-1.746094 0.55468,-0.800782 1.0039,-1.742188 1.34765,-2.828125 0.34375,-1.085938 0.51563,-2.121094 0.51563,-3.109375 z m -8.35938,-3.8125 c 0.72266,-0.949219 1.57813,-1.667969 2.5586,-2.15625 0.98047,-0.484375 2.07422,-0.730469 3.28125,-0.730469 1.67968,0 2.98437,0.550781 3.91015,1.652344 0.92969,1.097656 1.39453,2.636719 1.39453,4.621093 0,1.625 -0.28906,3.171876 -0.86718,4.640626 -0.57422,1.472656 -1.40625,2.789062 -2.49219,3.953124 -0.72266,0.769532 -1.53906,1.359376 -2.44922,1.765626 -0.90625,0.410156 -1.86328,0.613281 -2.87109,0.613281 -1.16407,0 -2.14063,-0.242188 -2.9336,-0.730469 -0.78906,-0.484375 -1.38281,-1.203125 -1.77343,-2.160156 l -1.6875,8.707031 h -2.69922 l 4.41406,-22.667969 h 2.69922 z m 0,0"
           id="path142473" />
        <path
           style="fill:#000000;fill-opacity:1;fill-rule:nonzero;stroke:none"
           d="m 524.95312,0 h 1.88672 l -0.46093,2.394531 h -1.89063 z m -0.86328,4.476562 h 1.88672 l -2.24609,11.496094 h -1.89063 z m 0,0"
           id="path142475" />
        <path
           style="fill:#000000;fill-opacity:1;fill-rule:nonzero;stroke:none"
           d="m 529.40625,13.367188 h 2.16406 v 1.765624 l -1.67969,3.285157 h -1.32421 l 0.83984,-3.285157 z m 0,0"
           id="path142477" />
        <path
           style="fill:#000000;fill-opacity:1;fill-rule:nonzero;stroke:none"
           d="m 540.76953,4.476562 h 1.88672 l -2.26563,11.703126 -0.0117,0.05078 c -0.25391,1.304687 -0.54297,2.203125 -0.8711,2.6875 -0.30859,0.460937 -0.76172,0.8125 -1.35156,1.054687 -0.59375,0.25 -1.29297,0.371094 -2.09766,0.371094 h -0.71093 l 0.3125,-1.597656 h 0.48046 c 0.73829,0 1.26563,-0.15625 1.57813,-0.464844 0.30859,-0.304688 0.57031,-1.007812 0.78516,-2.101562 z M 541.65234,0 h 1.89063 l -0.46485,2.394531 h -1.88671 z m 0,0"
           id="path142479" />
        <path
           style="fill:#000000;fill-opacity:1;fill-rule:nonzero;stroke:none"
           d="m 523.73828,37.957031 h 7.23828 v 1.742188 h -9.73047 v -1.742188 c 0.78516,-0.816406 1.85938,-1.90625 3.21485,-3.277343 1.36328,-1.375 2.21484,-2.257813 2.5625,-2.65625 0.66406,-0.746094 1.1289,-1.378907 1.39062,-1.894532 0.26563,-0.515625 0.39844,-1.023437 0.39844,-1.523437 0,-0.816407 -0.28516,-1.476563 -0.85938,-1.992188 -0.57031,-0.511719 -1.3164,-0.769531 -2.23437,-0.769531 -0.64844,0 -1.33594,0.113281 -2.05859,0.335938 -0.71875,0.226562 -1.49219,0.570312 -2.3125,1.03125 v -2.097657 c 0.83593,-0.335937 1.61328,-0.585937 2.33984,-0.757812 0.72656,-0.171875 1.39062,-0.257813 1.99219,-0.257813 1.58984,0 2.85547,0.398438 3.79687,1.195313 0.94531,0.792969 1.41797,1.851562 1.41797,3.179687 0,0.628906 -0.11719,1.226563 -0.35547,1.792969 -0.23437,0.5625 -0.66406,1.226563 -1.28906,1.992187 -0.16797,0.199219 -0.71484,0.773438 -1.63281,1.722657 -0.91407,0.945312 -2.20703,2.273437 -3.87891,3.976562 z m 0,0"
           id="path142481" />
        <path
           style="fill:#000000;fill-opacity:1;fill-rule:nonzero;stroke:none"
           d="m 553.69141,8.703125 c -1.3086,2.246094 -2.28125,4.46875 -2.91797,6.671875 -0.63672,2.199219 -0.95313,4.429688 -0.95313,6.6875 0,2.253906 0.32031,4.492188 0.96094,6.707031 0.64453,2.214844 1.61328,4.441407 2.91016,6.679688 h -2.34375 c -1.46485,-2.296875 -2.5625,-4.558594 -3.28907,-6.773438 -0.73047,-2.21875 -1.09375,-4.421875 -1.09375,-6.613281 0,-2.179688 0.35938,-4.375 1.08203,-6.582031 0.72657,-2.214844 1.82422,-4.472657 3.30079,-6.777344 z m 0,0"
           id="path142483" />
        <path
           style="fill:#000000;fill-opacity:1;fill-rule:nonzero;stroke:none"
           d="m 570.99609,21.371094 c 0,-1.4375 -0.3125,-2.535156 -0.9375,-3.296875 -0.625,-0.761719 -1.52343,-1.144531 -2.69922,-1.144531 -0.80078,0 -1.5664,0.203124 -2.29296,0.613281 -0.73047,0.410156 -1.375,1.007812 -1.94141,1.789062 -0.55859,0.773438 -1.00391,1.707031 -1.33984,2.800781 -0.33204,1.09375 -0.4961,2.179688 -0.4961,3.257813 0,1.367187 0.3125,2.417969 0.9375,3.15625 0.625,0.738281 1.51563,1.109375 2.67188,1.109375 0.84765,0 1.64062,-0.203125 2.36718,-0.601562 0.73047,-0.402344 1.35157,-0.984376 1.86719,-1.746094 0.5586,-0.800782 1.00781,-1.742188 1.34766,-2.828125 0.34375,-1.085938 0.51562,-2.121094 0.51562,-3.109375 z m -8.35547,-3.8125 c 0.72266,-0.949219 1.57422,-1.667969 2.5586,-2.15625 0.98047,-0.484375 2.07422,-0.730469 3.27734,-0.730469 1.67969,0 2.98438,0.550781 3.91406,1.652344 0.92969,1.097656 1.39454,2.636719 1.39454,4.621093 0,1.625 -0.28907,3.171876 -0.86719,4.640626 -0.57813,1.472656 -1.40625,2.789062 -2.49219,3.953124 -0.72266,0.769532 -1.53906,1.359376 -2.44922,1.765626 -0.91015,0.410156 -1.86719,0.613281 -2.87109,0.613281 -1.16406,0 -2.14453,-0.242188 -2.9336,-0.730469 -0.79296,-0.484375 -1.38281,-1.203125 -1.77343,-2.160156 l -1.69141,8.707031 h -2.69922 l 4.41797,-22.667969 h 2.69922 z m 0,0"
           id="path142485" />
        <path
           style="fill:#000000;fill-opacity:1;fill-rule:nonzero;stroke:none"
           d="m 580.40625,0 h 1.89062 l -0.46484,2.394531 h -1.88672 z m -0.86328,4.476562 h 1.89062 l -2.24609,11.496094 h -1.89063 z m 0,0"
           id="path142487" />
        <path
           style="fill:#000000;fill-opacity:1;fill-rule:nonzero;stroke:none"
           d="m 584.86328,13.367188 h 2.16406 v 1.765624 l -1.68359,3.285157 h -1.32422 l 0.84375,-3.285157 z m 0,0"
           id="path142489" />
        <path
           style="fill:#000000;fill-opacity:1;fill-rule:nonzero;stroke:none"
           d="m 596.22266,4.476562 h 1.89062 l -2.26562,11.703126 -0.0156,0.05078 c -0.25,1.304687 -0.53906,2.203125 -0.86719,2.6875 -0.30859,0.460937 -0.76172,0.8125 -1.35547,1.054687 -0.58984,0.25 -1.28906,0.371094 -2.09375,0.371094 h -0.71093 l 0.30859,-1.597656 h 0.48438 c 0.73828,0 1.26171,-0.15625 1.57421,-0.464844 0.3125,-0.304688 0.57422,-1.007812 0.78516,-2.101562 z M 597.10937,0 h 1.88672 l -0.46093,2.394531 h -1.89063 z m 0,0"
           id="path142491" />
        <path
           style="fill:#000000;fill-opacity:1;fill-rule:nonzero;stroke:none"
           d="m 577.76953,37.957031 h 3.38672 V 26.261719 l -3.6875,0.742187 V 25.113281 L 581.13672,24.375 h 2.07031 v 13.582031 h 3.38672 v 1.742188 h -8.82422 z m 0,0"
           id="path142493" />
        <path
           style="fill:#000000;fill-opacity:1;fill-rule:nonzero;stroke:none"
           d="m 595.21875,32.421875 c -0.98828,0 -1.76172,0.265625 -2.32813,0.792969 -0.5625,0.527344 -0.84375,1.25 -0.84375,2.171875 0,0.925781 0.28125,1.652343 0.84375,2.179687 0.56641,0.527344 1.33985,0.792969 2.32813,0.792969 0.98437,0 1.76172,-0.265625 2.32812,-0.796875 0.57032,-0.53125 0.85157,-1.257812 0.85157,-2.175781 0,-0.921875 -0.28125,-1.644531 -0.84766,-2.171875 -0.5625,-0.527344 -1.33984,-0.792969 -2.33203,-0.792969 z m -2.07422,-0.878906 c -0.89062,-0.21875 -1.58203,-0.632813 -2.07812,-1.242188 -0.4961,-0.609375 -0.74219,-1.355469 -0.74219,-2.230469 0,-1.222656 0.43359,-2.191406 1.30469,-2.902343 0.875,-0.714844 2.07031,-1.070313 3.58984,-1.070313 1.52344,0 2.72266,0.355469 3.59375,1.070313 0.86719,0.710937 1.30078,1.679687 1.30078,2.902343 0,0.875 -0.24609,1.621094 -0.74609,2.230469 -0.49219,0.609375 -1.1836,1.023438 -2.0625,1.242188 0.99609,0.230469 1.77343,0.6875 2.33203,1.367187 0.55859,0.675782 0.83594,1.5 0.83594,2.476563 0,1.488281 -0.45313,2.628906 -1.35938,3.425781 -0.90625,0.792969 -2.20703,1.1875 -3.89453,1.1875 -1.69141,0 -2.98828,-0.394531 -3.89844,-1.1875 -0.90625,-0.796875 -1.35937,-1.9375 -1.35937,-3.425781 0,-0.976563 0.28125,-1.800781 0.83984,-2.476563 0.56641,-0.679687 1.34375,-1.136718 2.34375,-1.367187 z m -0.75781,-3.277344 c 0,0.792969 0.24609,1.414063 0.74219,1.859375 0.49609,0.441406 1.1914,0.664062 2.08984,0.664062 0.89062,0 1.58594,-0.222656 2.08594,-0.664062 0.5039,-0.445312 0.75781,-1.066406 0.75781,-1.859375 0,-0.792969 -0.25391,-1.414063 -0.75781,-1.859375 -0.5,-0.441406 -1.19532,-0.664062 -2.08594,-0.664062 -0.89844,0 -1.59375,0.222656 -2.08984,0.664062 -0.4961,0.445312 -0.74219,1.066406 -0.74219,1.859375 z m 0,0"
           id="path142495" />
        <path
           style="fill:#000000;fill-opacity:1;fill-rule:nonzero;stroke:none"
           d="m 605.14062,8.703125 h 2.34375 c 1.46485,2.304687 2.5625,4.5625 3.28907,6.777344 0.73047,2.207031 1.09375,4.402343 1.09375,6.582031 0,2.191406 -0.36328,4.394531 -1.09375,6.613281 -0.72657,2.214844 -1.82422,4.476563 -3.28907,6.773438 h -2.34375 c 1.29688,-2.238281 2.26563,-4.464844 2.90625,-6.679688 0.64454,-2.214843 0.96485,-4.453125 0.96485,-6.707031 0,-2.257812 -0.32031,-4.488281 -0.96485,-6.6875 -0.64062,-2.203125 -1.60937,-4.425781 -2.90625,-6.671875 z m 0,0"
           id="path142497" />
        <path
           style="fill:#000000;fill-opacity:1;fill-rule:nonzero;stroke:none"
           d="m 697.50391,28.65625 c 0,-1.441406 -0.31641,-2.539062 -0.94141,-3.300781 -0.625,-0.761719 -1.52344,-1.144531 -2.69531,-1.144531 -0.80078,0 -1.56641,0.207031 -2.29688,0.617187 -0.72656,0.410156 -1.375,1.003906 -1.9414,1.785156 -0.5586,0.773438 -1.00391,1.707031 -1.33594,2.800781 -0.33203,1.097657 -0.5,2.183594 -0.5,3.257813 0,1.367187 0.3125,2.421875 0.9375,3.160156 0.6289,0.738281 1.51562,1.105469 2.67187,1.105469 0.85157,0 1.64063,-0.199219 2.3711,-0.601562 0.72656,-0.398438 1.35156,-0.980469 1.86718,-1.746094 0.55469,-0.800782 1.00391,-1.742188 1.34375,-2.828125 0.34766,-1.085938 0.51954,-2.121094 0.51954,-3.105469 z m -8.35938,-3.816406 c 0.72266,-0.945313 1.57422,-1.664063 2.55859,-2.152344 0.98047,-0.488281 2.07422,-0.734375 3.27735,-0.734375 1.68359,0 2.98437,0.550781 3.91406,1.652344 0.92969,1.097656 1.39453,2.640625 1.39453,4.625 0,1.621093 -0.28906,3.167969 -0.86719,4.640625 -0.57421,1.46875 -1.40625,2.785156 -2.49218,3.949218 -0.72266,0.773438 -1.53907,1.363282 -2.44922,1.769532 -0.90625,0.40625 -1.86328,0.609375 -2.8711,0.609375 -1.16406,0 -2.14062,-0.242188 -2.93359,-0.726563 -0.79297,-0.484375 -1.38281,-1.207031 -1.77344,-2.164062 l -1.6875,8.710937 h -2.69922 l 4.41407,-22.671875 h 2.69922 z m 0,0"
           id="path142499" />
        <path
           style="fill:#000000;fill-opacity:1;fill-rule:nonzero;stroke:none"
           d="m 706.91406,7.28125 h 1.88672 l -0.46094,2.394531 h -1.89062 z m -0.86719,4.476562 h 1.89063 l -2.24609,11.5 h -1.89063 z m 0,0"
           id="path142501" />
        <path
           style="fill:#000000;fill-opacity:1;fill-rule:nonzero;stroke:none"
           d="m 711.36719,20.648438 h 2.16406 v 1.765624 l -1.67969,3.285157 h -1.32422 l 0.83985,-3.285157 z m 0,0"
           id="path142503" />
        <path
           style="fill:#000000;fill-opacity:1;fill-rule:nonzero;stroke:none"
           d="m 722.73047,11.757812 h 1.88672 l -2.26563,11.707032 -0.0117,0.04687 c -0.2539,1.308593 -0.54297,2.203125 -0.87109,2.691406 -0.30859,0.457031 -0.76172,0.808594 -1.35547,1.054687 -0.58984,0.246094 -1.28906,0.371094 -2.09375,0.371094 h -0.71094 l 0.3086,-1.601562 h 0.48437 c 0.73828,0 1.26172,-0.152344 1.57813,-0.460938 0.30859,-0.308594 0.57031,-1.007812 0.78515,-2.101562 z M 723.61328,7.28125 H 725.5 l -0.46094,2.394531 h -1.89062 z m 0,0"
           id="path142505" />
        <path
           style="fill:#000000;fill-opacity:1;fill-rule:nonzero;stroke:none"
           d="m 710.19531,38.71875 c 0.99219,0.214844 1.76953,0.65625 2.32422,1.328125 0.55859,0.667969 0.83594,1.496094 0.83594,2.484375 0,1.507812 -0.51953,2.679688 -1.5586,3.511719 -1.03906,0.824219 -2.51953,1.238281 -4.43359,1.238281 -0.64453,0 -1.30469,-0.0625 -1.98437,-0.1875 -0.67969,-0.128906 -1.38282,-0.320312 -2.10938,-0.574219 v -2 c 0.57422,0.335938 1.20313,0.589844 1.88672,0.757813 0.68359,0.171875 1.39844,0.257812 2.14844,0.257812 1.29687,0 2.28515,-0.257812 2.96875,-0.769531 0.67968,-0.511719 1.01953,-1.257813 1.01953,-2.234375 0,-0.90625 -0.31641,-1.613281 -0.94922,-2.121094 -0.63281,-0.507812 -1.51172,-0.765625 -2.64063,-0.765625 h -1.78515 v -1.703125 h 1.86719 c 1.01953,0 1.79687,-0.203125 2.33984,-0.609375 0.53906,-0.410156 0.8125,-0.996093 0.8125,-1.761719 0,-0.785156 -0.28125,-1.390624 -0.83984,-1.808593 -0.55469,-0.425781 -1.35547,-0.636719 -2.39454,-0.636719 -0.57031,0 -1.17968,0.0625 -1.82812,0.1875 -0.65234,0.125 -1.36719,0.3125 -2.14453,0.570312 v -1.84375 c 0.78906,-0.21875 1.52344,-0.382812 2.21094,-0.492187 0.6875,-0.109375 1.33593,-0.164063 1.94531,-0.164063 1.57422,0 2.82031,0.355469 3.73437,1.074219 0.91797,0.710938 1.37891,1.679688 1.37891,2.894531 0,0.851563 -0.24609,1.566407 -0.73047,2.152344 -0.48437,0.585938 -1.17578,0.992188 -2.07422,1.214844 z m 0,0"
           id="path142507" />
        <path
           style="fill:#000000;fill-opacity:1;fill-rule:nonzero;stroke:none"
           d="m 728.16797,129.34766 c 0,-1.46094 -0.32031,-2.57422 -0.95313,-3.34766 -0.63672,-0.77344 -1.54687,-1.16016 -2.73828,-1.16016 -0.8125,0 -1.58984,0.20704 -2.32812,0.625 -0.73828,0.41407 -1.39453,1.01954 -1.97266,1.8125 -0.5625,0.78516 -1.01562,1.73047 -1.35547,2.84375 -0.33594,1.10938 -0.5039,2.21094 -0.5039,3.30078 0,1.39063 0.3164,2.45704 0.95312,3.20704 0.63281,0.74609 1.53516,1.12109 2.70703,1.12109 0.86328,0 1.66406,-0.20313 2.40625,-0.60938 0.73828,-0.40625 1.3711,-0.99609 1.89453,-1.76953 0.5625,-0.8125 1.01953,-1.76953 1.36719,-2.87109 0.34766,-1.10156 0.52344,-2.15234 0.52344,-3.15234 z m -8.48047,-3.8711 c 0.73437,-0.96093 1.59766,-1.6875 2.59375,-2.18359 0.99609,-0.49609 2.10547,-0.74219 3.32812,-0.74219 1.70313,0 3.02735,0.5586 3.97266,1.67578 0.94141,1.11328 1.41406,2.67578 1.41406,4.6875 0,1.64844 -0.29687,3.21875 -0.88281,4.71094 -0.58203,1.49219 -1.42578,2.82812 -2.52734,4.00781 -0.73438,0.78516 -1.5625,1.38281 -2.48438,1.79297 -0.92187,0.41406 -1.89453,0.62109 -2.91406,0.62109 -1.17969,0 -2.17188,-0.24609 -2.97656,-0.73828 -0.80078,-0.49218 -1.40235,-1.22265 -1.80078,-2.19531 l -1.71094,8.83594 h -2.73828 l 4.48047,-23 h 2.73437 z m 0,0"
           id="path142509" />
        <path
           style="fill:#000000;fill-opacity:1;fill-rule:nonzero;stroke:none"
           d="m 737.71484,107.94531 h 1.91407 l -0.46875,2.42969 h -1.91797 z m -0.8789,4.53907 h 1.91797 l -2.28125,11.66406 h -1.91407 z m 0,0"
           id="path142511" />
        <path
           style="fill:#000000;fill-opacity:1;fill-rule:nonzero;stroke:none"
           d="m 742.23437,121.50391 h 2.19532 v 1.79297 l -1.70703,3.33203 h -1.34375 l 0.85546,-3.33203 z m 0,0"
           id="path142513" />
        <path
           style="fill:#000000;fill-opacity:1;fill-rule:nonzero;stroke:none"
           d="m 753.76172,112.48438 h 1.91406 l -2.29687,11.875 -0.0156,0.0508 c -0.25391,1.32812 -0.54687,2.23437 -0.88281,2.73047 -0.3125,0.46484 -0.76953,0.82031 -1.3711,1.07031 -0.60156,0.25 -1.30859,0.375 -2.125,0.375 h -0.72265 l 0.3125,-1.625 h 0.49219 c 0.75,0 1.28125,-0.15625 1.59765,-0.46875 0.31641,-0.3086 0.58203,-1.01953 0.79688,-2.13281 z m 0.89453,-4.53907 h 1.91797 l -0.46875,2.42969 h -1.91797 z m 0,0"
           id="path142515" />
        <path
           style="fill:#000000;fill-opacity:1;fill-rule:nonzero;stroke:none"
           d="m 740.45312,134.22656 -5.3125,8.30078 h 5.3125 z m -0.55468,-1.83203 h 2.64843 v 10.13281 h 2.21875 v 1.75 h -2.21875 v 3.66797 h -2.09375 v -3.66797 h -7.01953 V 142.25 Z m 0,0"
           id="path142517" />
        <path
           style="fill:#000000;fill-opacity:1;fill-rule:nonzero;stroke:none"
           d="m 713.50781,293.71484 c 0,-1.44922 -0.3125,-2.55859 -0.94531,-3.32422 -0.62891,-0.76562 -1.53516,-1.15234 -2.71484,-1.15234 -0.8086,0 -1.57813,0.20703 -2.3125,0.62109 -0.73438,0.41016 -1.38672,1.01172 -1.95313,1.80079 -0.5625,0.77734 -1.01172,1.71484 -1.34766,2.82031 -0.33593,1.10156 -0.5,2.19531 -0.5,3.27734 0,1.375 0.3125,2.4375 0.94141,3.17969 0.63281,0.74219 1.52734,1.11719 2.69141,1.11719 0.85547,0 1.65234,-0.20313 2.38672,-0.60547 0.73046,-0.40235 1.35937,-0.98828 1.8789,-1.75781 0.5625,-0.8086 1.01172,-1.75782 1.35547,-2.85157 0.34766,-1.08984 0.51953,-2.13281 0.51953,-3.125 z m -8.41406,-3.84375 c 0.72656,-0.95312 1.58594,-1.67578 2.57422,-2.16797 0.98828,-0.49218 2.08984,-0.73828 3.30469,-0.73828 1.6914,0 3.0039,0.55469 3.9375,1.66407 0.9375,1.10546 1.40625,2.65625 1.40625,4.65625 0,1.63281 -0.29297,3.1914 -0.875,4.67187 -0.57813,1.48047 -1.41797,2.80469 -2.50782,3.97656 -0.73047,0.78125 -1.55078,1.375 -2.46875,1.78125 -0.91406,0.41016 -1.875,0.61719 -2.89062,0.61719 -1.17188,0 -2.15625,-0.24609 -2.95313,-0.73437 -0.79687,-0.48829 -1.39062,-1.21485 -1.78515,-2.17579 l -1.70313,8.76954 h -2.71484 l 4.44531,-22.82813 h 2.71875 z m 0,0"
           id="path142519" />
        <path
           style="fill:#000000;fill-opacity:1;fill-rule:nonzero;stroke:none"
           d="m 722.98437,272.46875 h 1.90235 l -0.46485,2.41406 h -1.90234 z m -0.87109,4.50781 h 1.90234 l -2.26171,11.57813 h -1.90235 z m 0,0"
           id="path142521" />
        <path
           style="fill:#000000;fill-opacity:1;fill-rule:nonzero;stroke:none"
           d="m 727.46875,285.92969 h 2.17969 v 1.77734 l -1.69141,3.30859 H 726.625 l 0.84375,-3.30859 z m 0,0"
           id="path142523" />
        <path
           style="fill:#000000;fill-opacity:1;fill-rule:nonzero;stroke:none"
           d="m 738.91016,276.97656 h 1.90234 l -2.28125,11.78516 -0.0117,0.0508 c -0.25391,1.31641 -0.54687,2.21875 -0.87891,2.70703 -0.30859,0.46094 -0.76562,0.81641 -1.36328,1.0625 -0.59375,0.25 -1.29687,0.375 -2.10937,0.375 h -0.71485 l 0.3125,-1.60937 H 734.25 c 0.74219,0 1.27344,-0.15625 1.58984,-0.46875 0.3125,-0.3086 0.57422,-1.01172 0.78907,-2.11719 z m 0.89062,-4.50781 h 1.90234 l -0.46484,2.41406 h -1.90234 z m 0,0"
           id="path142525" />
        <path
           style="fill:#000000;fill-opacity:1;fill-rule:nonzero;stroke:none"
           d="m 719.98828,296.73828 h 8.19531 v 1.75781 h -6.28515 v 3.78125 c 0.30468,-0.10547 0.60547,-0.17968 0.90625,-0.23047 0.30468,-0.0508 0.60937,-0.0781 0.91406,-0.0781 1.72266,0 3.08594,0.47266 4.08984,1.41406 1.00782,0.94531 1.51172,2.22266 1.51172,3.83594 0,1.66016 -0.51562,2.94922 -1.55078,3.87109 -1.03516,0.92188 -2.49219,1.37891 -4.37109,1.37891 -0.64844,0 -1.3086,-0.0547 -1.98047,-0.16406 -0.67188,-0.10938 -1.36719,-0.27735 -2.08203,-0.4961 v -2.10156 c 0.62109,0.33984 1.26172,0.58984 1.92187,0.75391 0.66016,0.16797 1.35938,0.25 2.09766,0.25 1.1914,0 2.13672,-0.3125 2.83203,-0.94141 0.69531,-0.625 1.04297,-1.47656 1.04297,-2.55078 0,-1.07422 -0.34766,-1.92578 -1.04297,-2.55078 -0.69531,-0.62891 -1.64063,-0.94141 -2.83203,-0.94141 -0.5586,0 -1.11719,0.0586 -1.67188,0.1836 -0.55468,0.125 -1.11718,0.3164 -1.69531,0.57812 z m 0,0"
           id="path142527" />
        <path
           style="fill:#000000;fill-opacity:1;fill-rule:nonzero;stroke:none"
           d="m 704.36328,513.33203 c 0,-1.44141 -0.3125,-2.53906 -0.94141,-3.30078 -0.625,-0.76172 -1.52343,-1.14453 -2.69531,-1.14453 -0.80078,0 -1.5664,0.20703 -2.29687,0.61328 -0.72657,0.41016 -1.375,1.00781 -1.94141,1.78906 -0.55469,0.77344 -1.00391,1.70703 -1.33594,2.80078 -0.33203,1.09766 -0.5,2.17969 -0.5,3.25782 0,1.36718 0.3125,2.41796 0.94141,3.15625 0.625,0.73828 1.51562,1.10937 2.66797,1.10937 0.85156,0 1.64062,-0.19922 2.37109,-0.60156 0.72656,-0.39844 1.35156,-0.98047 1.86719,-1.7461 0.55469,-0.80078 1.00391,-1.74218 1.34766,-2.82812 0.34375,-1.08594 0.51562,-2.12109 0.51562,-3.10547 z m -8.35937,-3.81641 c 0.72265,-0.94921 1.57812,-1.66406 2.55859,-2.15234 0.98047,-0.48828 2.07422,-0.73437 3.28125,-0.73437 1.67969,0 2.98437,0.55078 3.91406,1.65234 0.92578,1.09766 1.39063,2.64062 1.39063,4.62109 0,1.625 -0.28907,3.17188 -0.86719,4.64063 -0.57422,1.47265 -1.40625,2.78906 -2.49219,3.95312 -0.72265,0.77344 -1.53906,1.36328 -2.44922,1.76953 -0.90625,0.40625 -1.86328,0.60938 -2.87109,0.60938 -1.16406,0 -2.14063,-0.24219 -2.93359,-0.72656 -0.78907,-0.48438 -1.38282,-1.20703 -1.77344,-2.16407 l -1.6875,8.70704 H 689.375 l 4.41406,-22.66797 h 2.69922 z m 0,0"
           id="path142529" />
        <path
           style="fill:#000000;fill-opacity:1;fill-rule:nonzero;stroke:none"
           d="m 713.77344,491.95703 h 1.88672 l -0.46094,2.39453 h -1.89063 z m -0.86328,4.47656 h 1.88671 l -2.24609,11.4961 h -1.88672 z m 0,0"
           id="path142531" />
        <path
           style="fill:#000000;fill-opacity:1;fill-rule:nonzero;stroke:none"
           d="m 718.22656,505.32422 h 2.16406 v 1.76562 l -1.67968,3.28516 h -1.32422 l 0.83984,-3.28516 z m 0,0"
           id="path142533" />
        <path
           style="fill:#000000;fill-opacity:1;fill-rule:nonzero;stroke:none"
           d="m 729.58984,496.43359 h 1.88672 l -2.26562,11.70313 -0.0117,0.0508 c -0.25391,1.30859 -0.54297,2.20312 -0.8711,2.69141 -0.30859,0.45703 -0.75781,0.80859 -1.35156,1.05468 -0.59375,0.2461 -1.29297,0.3711 -2.09765,0.3711 h -0.71094 l 0.3125,-1.60157 h 0.48047 c 0.73828,0 1.26562,-0.15234 1.57812,-0.46093 0.3086,-0.3086 0.57031,-1.00782 0.78516,-2.10547 z m 0.88282,-4.47656 h 1.89062 l -0.46484,2.39453 h -1.88672 z m 0,0"
           id="path142535" />
        <path
           style="fill:#000000;fill-opacity:1;fill-rule:nonzero;stroke:none"
           d="m 715.46875,523.17187 c -0.93359,0 -1.67188,0.31641 -2.21484,0.95704 -0.54297,0.63281 -0.81641,1.5039 -0.81641,2.61328 0,1.10156 0.27344,1.97265 0.81641,2.61328 0.54296,0.64062 1.28125,0.96094 2.21484,0.96094 0.92969,0 1.66406,-0.32032 2.21094,-0.96094 0.54297,-0.64063 0.8125,-1.51172 0.8125,-2.61328 0,-1.10938 -0.26953,-1.98047 -0.8125,-2.61328 -0.54688,-0.64063 -1.28125,-0.95704 -2.21094,-0.95704 z m 4.11328,-6.5 v 1.88672 c -0.51953,-0.24218 -1.04687,-0.42968 -1.57422,-0.55859 -0.53125,-0.13281 -1.05859,-0.19922 -1.57812,-0.19922 -1.36719,0 -2.41407,0.46094 -3.13672,1.38672 -0.71875,0.92187 -1.13281,2.32031 -1.23438,4.1875 0.40235,-0.59375 0.90625,-1.05078 1.51563,-1.37109 0.61328,-0.31641 1.28125,-0.47657 2.01562,-0.47657 1.53907,0 2.75391,0.46875 3.64844,1.40625 0.89453,0.92969 1.33984,2.19922 1.33984,3.8086 0,1.57422 -0.46484,2.83593 -1.39453,3.78906 -0.93359,0.95312 -2.17187,1.42578 -3.71484,1.42578 -1.77344,0 -3.12891,-0.67969 -4.06641,-2.03516 -0.9375,-1.35937 -1.40625,-3.32812 -1.40625,-5.91015 0,-2.42188 0.57422,-4.35156 1.72266,-5.79297 1.14844,-1.44141 2.69141,-2.16016 4.62891,-2.16016 0.51953,0 1.04687,0.0508 1.57812,0.15235 0.52734,0.10156 1.08203,0.25781 1.65625,0.46093 z m 0,0"
           id="path142537" />
        <path
           style="fill:#000000;fill-opacity:1;fill-rule:nonzero;stroke:none"
           d="m 663.70312,699.20312 c 0,-1.45703 -0.3164,-2.57421 -0.95312,-3.34375 -0.63281,-0.77734 -1.54688,-1.16406 -2.73828,-1.16406 -0.8125,0 -1.58594,0.20703 -2.32813,0.625 -0.73828,0.41406 -1.39453,1.01953 -1.96875,1.8125 -0.5664,0.78516 -1.01953,1.73047 -1.35547,2.84375 -0.33984,1.10938 -0.50781,2.21094 -0.50781,3.30469 0,1.38672 0.32031,2.45312 0.95313,3.20312 0.63672,0.75 1.53906,1.1211 2.71093,1.1211 0.86329,0 1.66407,-0.20313 2.40235,-0.60938 0.73828,-0.40625 1.37109,-0.99609 1.89453,-1.76953 0.56641,-0.8125 1.01953,-1.76953 1.36719,-2.87109 0.34765,-1.10156 0.52343,-2.15235 0.52343,-3.15235 z m -8.48046,-3.86718 c 0.73437,-0.96485 1.59765,-1.69141 2.59765,-2.1875 0.9961,-0.4961 2.10547,-0.74219 3.32422,-0.74219 1.70703,0 3.03125,0.55859 3.97266,1.67578 0.9414,1.11328 1.41406,2.67578 1.41406,4.6875 0,1.64844 -0.29297,3.21875 -0.88281,4.71094 -0.58203,1.49219 -1.42578,2.82812 -2.52735,4.00781 -0.73047,0.78516 -1.5625,1.38281 -2.48437,1.79297 -0.92188,0.41406 -1.89063,0.62109 -2.91406,0.62109 -1.17969,0 -2.17188,-0.24609 -2.97657,-0.73828 -0.80078,-0.49219 -1.40234,-1.22265 -1.79687,-2.19531 l -1.71485,8.83594 h -2.73828 l 4.48047,-23 h 2.73828 z m 0,0"
           id="path142539" />
        <path
           style="fill:#000000;fill-opacity:1;fill-rule:nonzero;stroke:none"
           d="m 673.25,677.80078 h 1.91797 l -0.47266,2.42969 h -1.91406 z m -0.875,4.54297 h 1.91406 l -2.27734,11.66406 h -1.91797 z m 0,0"
           id="path142541" />
        <path
           style="fill:#000000;fill-opacity:1;fill-rule:nonzero;stroke:none"
           d="m 677.76953,691.35937 h 2.19531 v 1.79297 l -1.70312,3.33203 h -1.34375 l 0.85156,-3.33203 z m 0,0"
           id="path142543" />
        <path
           style="fill:#000000;fill-opacity:1;fill-rule:nonzero;stroke:none"
           d="m 689.29687,682.34375 h 1.91797 l -2.30078,11.87109 -0.0117,0.0508 c -0.25781,1.32813 -0.55078,2.23829 -0.88281,2.73047 -0.31641,0.46485 -0.77344,0.82032 -1.375,1.07032 -0.59766,0.25 -1.30859,0.375 -2.125,0.375 h -0.71875 l 0.3125,-1.6211 h 0.48828 c 0.75,0 1.28125,-0.15625 1.60156,-0.47265 0.3125,-0.3086 0.57813,-1.01954 0.79688,-2.13282 z m 0.89844,-4.54297 h 1.91406 l -0.46875,2.42969 h -1.91796 z m 0,0"
           id="path142545" />
        <path
           style="fill:#000000;fill-opacity:1;fill-rule:nonzero;stroke:none"
           d="m 669.67578,702.25 h 10 v 0.89844 l -5.64453,14.65234 h -2.19922 l 5.3125,-13.77734 h -7.46875 z m 0,0"
           id="path142547" />
        <path
           style="fill:#000000;fill-opacity:1;fill-rule:nonzero;stroke:none"
           d="m 562.16016,743.44922 c 0,-1.4375 -0.3125,-2.53906 -0.9375,-3.29688 -0.625,-0.76562 -1.52344,-1.14843 -2.69922,-1.14843 -0.80078,0 -1.5625,0.20703 -2.29297,0.61718 -0.73047,0.41016 -1.375,1.00391 -1.94141,1.78516 -0.55859,0.77344 -1.0039,1.70703 -1.33984,2.80469 -0.33203,1.09375 -0.4961,2.17968 -0.4961,3.2539 0,1.36719 0.3125,2.42188 0.9375,3.16016 0.625,0.73828 1.51563,1.10547 2.67188,1.10547 0.85156,0 1.64062,-0.19922 2.36719,-0.60156 0.73047,-0.39844 1.35156,-0.98047 1.86718,-1.74219 0.5586,-0.80078 1.00782,-1.7461 1.34766,-2.83203 0.34375,-1.08594 0.51563,-2.1211 0.51563,-3.10547 z m -8.35547,-3.81641 c 0.72265,-0.94531 1.57422,-1.66406 2.55859,-2.15234 0.98047,-0.48828 2.07422,-0.73047 3.27734,-0.73047 1.67969,0 2.98438,0.55078 3.91407,1.64844 0.92968,1.10156 1.39453,2.64062 1.39453,4.625 0,1.62109 -0.28906,3.16797 -0.86719,4.64062 -0.57812,1.46875 -1.40625,2.78516 -2.49219,3.94922 -0.72265,0.77344 -1.53906,1.36328 -2.44922,1.76953 -0.91015,0.40625 -1.86718,0.60938 -2.87109,0.60938 -1.16406,0 -2.14453,-0.24219 -2.93359,-0.72657 -0.79297,-0.48437 -1.38282,-1.20703 -1.77344,-2.16406 l -1.69141,8.71094 h -2.69531 l 4.41406,-22.66797 h 2.69922 z m 0,0"
           id="path142549" />
        <path
           style="fill:#000000;fill-opacity:1;fill-rule:nonzero;stroke:none"
           d="m 571.57031,722.07812 h 1.89063 l -0.46485,2.39454 h -1.88672 z m -0.86328,4.47657 h 1.89063 l -2.2461,11.49609 h -1.89062 z m 0,0"
           id="path142551" />
        <path
           style="fill:#000000;fill-opacity:1;fill-rule:nonzero;stroke:none"
           d="m 576.02734,735.44141 h 2.16407 v 1.76562 l -1.6836,3.28516 h -1.32422 l 0.84375,-3.28516 z m 0,0"
           id="path142553" />
        <path
           style="fill:#000000;fill-opacity:1;fill-rule:nonzero;stroke:none"
           d="m 587.39062,726.55469 h 1.88672 l -2.26562,11.70312 -0.0156,0.0469 c -0.25,1.30859 -0.53906,2.20703 -0.86718,2.6914 -0.3086,0.45703 -0.76172,0.8086 -1.35547,1.05469 -0.58985,0.24609 -1.28907,0.37109 -2.09375,0.37109 h -0.71094 l 0.30859,-1.60156 h 0.48438 c 0.73828,0 1.26172,-0.15234 1.57422,-0.46094 0.3125,-0.30859 0.57422,-1.00781 0.78515,-2.10156 z m 0.88282,-4.47657 h 1.88672 l -0.46094,2.39454 h -1.89063 z m 0,0"
           id="path142555" />
        <path
           style="fill:#000000;fill-opacity:1;fill-rule:nonzero;stroke:none"
           d="m 573.00781,754.5 c -0.98828,0 -1.76172,0.26172 -2.32812,0.78906 -0.5625,0.52735 -0.84375,1.25391 -0.84375,2.17578 0,0.92578 0.28125,1.64844 0.84375,2.17969 0.5664,0.52734 1.33984,0.78906 2.32812,0.78906 0.98438,0 1.76172,-0.26562 2.32813,-0.79297 0.57031,-0.53515 0.85547,-1.25781 0.85547,-2.17578 0,-0.92187 -0.28516,-1.64843 -0.84766,-2.17578 C 574.78125,754.76172 574,754.5 573.00781,754.5 Z m -2.07422,-0.88281 c -0.88672,-0.21875 -1.58203,-0.63282 -2.07812,-1.23828 -0.4961,-0.61329 -0.74219,-1.35547 -0.74219,-2.23047 0,-1.22657 0.43359,-2.19532 1.30859,-2.90625 0.8711,-0.71094 2.06641,-1.06641 3.58594,-1.06641 1.52344,0 2.72266,0.35547 3.59375,1.06641 0.86719,0.71093 1.30078,1.67968 1.30078,2.90625 0,0.875 -0.24609,1.61718 -0.74218,2.23047 -0.4961,0.60546 -1.1836,1.01953 -2.06641,1.23828 0.99609,0.23437 1.77344,0.6875 2.33203,1.36718 0.55859,0.67579 0.83594,1.50391 0.83594,2.48047 0,1.48828 -0.45313,2.62891 -1.35938,3.42188 -0.90625,0.79297 -2.20312,1.1914 -3.89453,1.1914 -1.6875,0 -2.98828,-0.39843 -3.89844,-1.1914 -0.90625,-0.79297 -1.35937,-1.9336 -1.35937,-3.42188 0,-0.97656 0.28125,-1.80468 0.84375,-2.48047 0.5625,-0.67968 1.34375,-1.13281 2.33984,-1.36718 z m -0.75781,-3.27344 c 0,0.79297 0.24609,1.41016 0.74219,1.85547 0.49609,0.44531 1.1914,0.66797 2.08984,0.66797 0.89063,0 1.58594,-0.22266 2.08985,-0.66797 0.5,-0.44531 0.7539,-1.0625 0.7539,-1.85547 0,-0.79297 -0.2539,-1.41406 -0.7539,-1.85938 -0.50391,-0.44531 -1.19922,-0.66796 -2.08985,-0.66796 -0.89844,0 -1.59375,0.22265 -2.08984,0.66796 -0.4961,0.44532 -0.74219,1.06641 -0.74219,1.85938 z m 0,0"
           id="path142557" />
        <path
           style="fill:#000000;fill-opacity:1;fill-rule:nonzero;stroke:none"
           d="m 405.58984,730.70703 c 0,-1.44141 -0.3125,-2.53906 -0.9375,-3.30078 -0.625,-0.76172 -1.52734,-1.14453 -2.69922,-1.14453 -0.80078,0 -1.5664,0.20703 -2.29296,0.61719 -0.73047,0.41015 -1.37891,1.0039 -1.94532,1.78515 -0.55468,0.77344 -1,1.70703 -1.33593,2.80078 -0.33204,1.09766 -0.4961,2.1836 -0.4961,3.25782 0,1.36718 0.3125,2.42187 0.9375,3.16015 0.625,0.73828 1.51563,1.10547 2.66797,1.10547 0.85156,0 1.64453,-0.19922 2.37109,-0.60156 0.73047,-0.39844 1.35157,-0.98047 1.86719,-1.7461 0.5586,-0.80078 1.00781,-1.74218 1.34766,-2.82812 0.34375,-1.08594 0.51562,-2.12109 0.51562,-3.10547 z m -8.35547,-3.81641 c 0.72266,-0.94531 1.57422,-1.66406 2.55469,-2.15234 0.98438,-0.48828 2.07813,-0.73437 3.28125,-0.73437 1.67969,0 2.98438,0.55078 3.91406,1.65234 0.92969,1.09766 1.39454,2.64062 1.39454,4.625 0,1.62109 -0.28907,3.16797 -0.8711,4.64062 -0.57422,1.46875 -1.40625,2.78516 -2.48828,3.94922 -0.72266,0.77344 -1.53906,1.36328 -2.45312,1.76953 -0.90625,0.40625 -1.86329,0.60938 -2.8711,0.60938 -1.16406,0 -2.14062,-0.24219 -2.92969,-0.72656 -0.79296,-0.48438 -1.38281,-1.20703 -1.77734,-2.16407 l -1.6875,8.71094 h -2.69922 l 4.41797,-22.67187 h 2.69531 z m 0,0"
           id="path142559" />
        <path
           style="fill:#000000;fill-opacity:1;fill-rule:nonzero;stroke:none"
           d="m 415,709.33203 h 1.89062 l -0.46484,2.39453 h -1.88672 z m -0.86328,4.48047 h 1.89062 l -2.25,11.49609 h -1.88672 z m 0,0"
           id="path142561" />
        <path
           style="fill:#000000;fill-opacity:1;fill-rule:nonzero;stroke:none"
           d="m 419.45703,722.69922 h 2.16406 v 1.76562 L 419.9375,727.75 h -1.32422 l 0.84375,-3.28516 z m 0,0"
           id="path142563" />
        <path
           style="fill:#000000;fill-opacity:1;fill-rule:nonzero;stroke:none"
           d="m 430.81641,713.8125 h 1.89062 l -2.26562,11.70312 -0.0156,0.0469 c -0.25,1.30859 -0.54297,2.20312 -0.87109,2.69141 -0.3086,0.45703 -0.75782,0.80859 -1.35157,1.05468 -0.58984,0.2461 -1.28906,0.3711 -2.09765,0.3711 h -0.70703 l 0.30859,-1.60157 h 0.48438 c 0.73437,0 1.26171,-0.15234 1.57421,-0.46093 0.3125,-0.3086 0.57422,-1.00782 0.78516,-2.10157 z m 0.88281,-4.48047 h 1.89062 l -0.46484,2.39453 h -1.88672 z m 0,0"
           id="path142565" />
        <path
           style="fill:#000000;fill-opacity:1;fill-rule:nonzero;stroke:none"
           d="m 412.0625,748.71484 v -1.88672 c 0.52344,0.2461 1.05078,0.4336 1.58203,0.5625 0.53516,0.13282 1.05859,0.19532 1.57422,0.19532 1.36719,0 2.41016,-0.46094 3.13281,-1.37891 0.72266,-0.92187 1.13281,-2.31641 1.23828,-4.19531 -0.39843,0.58984 -0.90234,1.04297 -1.51172,1.35547 -0.60937,0.3164 -1.28125,0.47656 -2.01953,0.47656 -1.53515,0 -2.74609,-0.46484 -3.64062,-1.39063 -0.89453,-0.92968 -1.33985,-2.19921 -1.33985,-3.80859 0,-1.57031 0.46485,-2.83203 1.39454,-3.78125 0.93359,-0.95312 2.17187,-1.42969 3.71484,-1.42969 1.77734,0 3.12891,0.67969 4.0625,2.03907 0.93359,1.35937 1.40234,3.32812 1.40234,5.91406 0,2.41797 -0.57422,4.34375 -1.72265,5.78515 -1.14453,1.44141 -2.6836,2.16016 -4.6211,2.16016 -0.51953,0 -1.04687,-0.0508 -1.58203,-0.15234 -0.53125,-0.10157 -1.08594,-0.25782 -1.66406,-0.46485 z m 4.125,-6.49609 c 0.93359,0 1.66797,-0.31641 2.21094,-0.95313 0.54687,-0.63671 0.82031,-1.51171 0.82031,-2.62109 0,-1.10156 -0.27344,-1.97266 -0.82031,-2.60937 -0.54297,-0.64063 -1.27735,-0.96094 -2.21094,-0.96094 -0.92969,0 -1.66406,0.32031 -2.20703,0.96094 -0.54297,0.63671 -0.81641,1.50781 -0.81641,2.60937 0,1.10938 0.27344,1.98438 0.81641,2.62109 0.54297,0.63672 1.27734,0.95313 2.20703,0.95313 z m 0,0"
           id="path142567" />
        <path
           style="fill:#000000;fill-opacity:1;fill-rule:nonzero;stroke:none"
           d="m 223.76953,716.21484 c 0,-1.4414 -0.3125,-2.53906 -0.9375,-3.30078 -0.625,-0.76172 -1.52344,-1.14453 -2.69922,-1.14453 -0.80078,0 -1.5625,0.20313 -2.29297,0.61328 -0.73047,0.41016 -1.375,1.00781 -1.9414,1.78906 -0.5586,0.77344 -1.00391,1.70704 -1.33985,2.80079 -0.33203,1.09375 -0.49609,2.17968 -0.49609,3.25781 0,1.36719 0.3125,2.41797 0.9375,3.15625 0.625,0.73828 1.51562,1.10937 2.67187,1.10937 0.85157,0 1.64063,-0.19922 2.36719,-0.60156 0.73047,-0.40234 1.35156,-0.98047 1.86719,-1.74609 0.55859,-0.80078 1.00781,-1.74219 1.34766,-2.82813 0.34375,-1.08594 0.51562,-2.12109 0.51562,-3.10547 z m -8.35547,-3.8164 c 0.72266,-0.94922 1.57422,-1.66407 2.5586,-2.15235 0.98046,-0.48828 2.07421,-0.73437 3.27734,-0.73437 1.67969,0 2.98437,0.55078 3.91406,1.65234 0.92969,1.09766 1.39453,2.64063 1.39453,4.6211 0,1.625 -0.28906,3.17187 -0.86718,4.64062 -0.57813,1.47266 -1.40625,2.78906 -2.49219,3.95313 -0.72266,0.77343 -1.53906,1.35937 -2.44922,1.76953 -0.90625,0.40625 -1.86719,0.60937 -2.87109,0.60937 -1.16407,0 -2.14454,-0.24219 -2.9336,-0.72656 -0.79297,-0.48828 -1.38281,-1.20703 -1.77344,-2.16406 l -1.6914,8.70703 h -2.69531 l 4.41406,-22.66797 h 2.69922 z m 0,0"
           id="path142569" />
        <path
           style="fill:#000000;fill-opacity:1;fill-rule:nonzero;stroke:none"
           d="m 233.17969,694.83984 h 1.89062 l -0.46484,2.39453 h -1.88672 z m -0.86328,4.47657 h 1.89062 l -2.24609,11.49609 h -1.89063 z m 0,0"
           id="path142571" />
        <path
           style="fill:#000000;fill-opacity:1;fill-rule:nonzero;stroke:none"
           d="m 237.63672,708.20703 h 2.16406 v 1.76563 l -1.68359,3.28515 h -1.32032 l 0.83985,-3.28515 z m 0,0"
           id="path142573" />
        <path
           style="fill:#000000;fill-opacity:1;fill-rule:nonzero;stroke:none"
           d="m 249,699.31641 h 1.88672 l -2.26563,11.70312 -0.0156,0.0508 c -0.25,1.3086 -0.53906,2.20313 -0.86719,2.69141 -0.30859,0.45703 -0.76172,0.80859 -1.35547,1.05078 -0.58984,0.25 -1.28906,0.37109 -2.09375,0.37109 h -0.71094 l 0.3086,-1.59765 h 0.48437 c 0.73828,0 1.26172,-0.15625 1.57422,-0.46485 0.3125,-0.30468 0.57422,-1.0039 0.78516,-2.10156 z m 0.88281,-4.47657 h 1.88672 l -0.46094,2.39453 h -1.89062 z m 0,0"
           id="path142575" />
        <path
           style="fill:#000000;fill-opacity:1;fill-rule:nonzero;stroke:none"
           d="m 230.54297,732.79687 h 3.38672 v -11.6914 l -3.6836,0.73828 v -1.89063 l 3.66407,-0.73828 h 2.07421 v 13.58203 h 3.38672 v 1.7461 h -8.82812 z m 0,0"
           id="path142577" />
        <path
           style="fill:#000000;fill-opacity:1;fill-rule:nonzero;stroke:none"
           d="m 247.99219,720.58203 c -1.06641,0 -1.8711,0.52344 -2.41016,1.57813 -0.53516,1.04687 -0.80469,2.625 -0.80469,4.73437 0,2.10156 0.26953,3.67578 0.80469,4.72656 0.53906,1.05078 1.34375,1.57813 2.41016,1.57813 1.07422,0 1.8789,-0.52735 2.41797,-1.57813 0.53906,-1.05078 0.80468,-2.625 0.80468,-4.72656 0,-2.10937 -0.26562,-3.6875 -0.80468,-4.73437 -0.53907,-1.05469 -1.34375,-1.57813 -2.41797,-1.57813 z m 0,-1.64453 c 1.71875,0 3.03125,0.68359 3.9375,2.04297 0.90625,1.35547 1.35937,3.32812 1.35937,5.91406 0,2.57813 -0.45312,4.55078 -1.35937,5.91016 -0.90625,1.35547 -2.21875,2.03515 -3.9375,2.03515 -1.71875,0 -3.03125,-0.67968 -3.9375,-2.03515 -0.90625,-1.35938 -1.35938,-3.33203 -1.35938,-5.91016 0,-2.58594 0.45313,-4.55859 1.35938,-5.91406 0.90625,-1.35938 2.21875,-2.04297 3.9375,-2.04297 z m 0,0"
           id="path142579" />
        <path
           style="fill:#000000;fill-opacity:1;fill-rule:nonzero;stroke:none"
           d="m 61.25,674.32812 c 0,-1.45703 -0.316406,-2.57421 -0.949219,-3.34375 -0.636719,-0.77734 -1.546875,-1.16406 -2.738281,-1.16406 -0.8125,0 -1.589844,0.20703 -2.328125,0.625 -0.738281,0.41406 -1.398437,1.01953 -1.972656,1.8125 -0.5625,0.78516 -1.015625,1.73047 -1.355469,2.84375 -0.335938,1.10938 -0.503906,2.21094 -0.503906,3.30469 0,1.38672 0.316406,2.45312 0.953125,3.20312 0.632812,0.75 1.535156,1.1211 2.707031,1.1211 0.863281,0 1.664062,-0.20313 2.40625,-0.60938 0.738281,-0.40625 1.371094,-0.99609 1.894531,-1.76953 0.5625,-0.8125 1.019531,-1.76953 1.363281,-2.87109 0.351563,-1.10156 0.523438,-2.15235 0.523438,-3.15235 z m -8.476562,-3.86718 c 0.734374,-0.96485 1.597656,-1.69141 2.59375,-2.1875 0.996093,-0.4961 2.105468,-0.74219 3.328124,-0.74219 1.703126,0 3.027344,0.55859 3.96875,1.67578 0.945313,1.11328 1.414063,2.67578 1.414063,4.6875 0,1.64844 -0.292969,3.21875 -0.878906,4.71094 -0.585938,1.49219 -1.425781,2.82812 -2.527344,4.00781 -0.734375,0.78516 -1.5625,1.38281 -2.484375,1.79297 -0.921875,0.41406 -1.894531,0.62109 -2.914062,0.62109 -1.183594,0 -2.171876,-0.24609 -2.976563,-0.73828 -0.804687,-0.49219 -1.402344,-1.22265 -1.800781,-2.19531 l -1.710938,8.83594 h -2.738281 l 4.480469,-23 h 2.734375 z m 0,0"
           id="path142581" />
        <path
           style="fill:#000000;fill-opacity:1;fill-rule:nonzero;stroke:none"
           d="m 70.800781,652.92578 h 1.914063 l -0.46875,2.42969 h -1.917969 z m -0.878906,4.54297 h 1.917969 l -2.28125,11.66406 h -1.914063 z m 0,0"
           id="path142583" />
        <path
           style="fill:#000000;fill-opacity:1;fill-rule:nonzero;stroke:none"
           d="m 75.320312,666.48437 h 2.195313 v 1.79297 l -1.707031,3.33203 h -1.34375 l 0.855468,-3.33203 z m 0,0"
           id="path142585" />
        <path
           style="fill:#000000;fill-opacity:1;fill-rule:nonzero;stroke:none"
           d="m 86.847656,657.46875 h 1.914063 l -2.296875,11.87109 -0.01563,0.0508 c -0.253907,1.32813 -0.550781,2.23829 -0.882813,2.73047 -0.3125,0.46485 -0.769531,0.82032 -1.371094,1.07032 -0.601562,0.25 -1.308593,0.375 -2.128906,0.375 h -0.71875 l 0.3125,-1.6211 h 0.492188 c 0.746094,0 1.28125,-0.15625 1.597656,-0.47265 0.316406,-0.3086 0.582031,-1.01954 0.796875,-2.13282 z m 0.894532,-4.54297 h 1.917968 l -0.46875,2.42969 h -1.917968 z m 0,0"
           id="path142587" />
        <path
           style="fill:#000000;fill-opacity:1;fill-rule:nonzero;stroke:none"
           d="m 68.121094,691.15625 h 3.4375 v -11.86328 l -3.738282,0.75 V 678.125 l 3.71875,-0.75 h 2.101563 v 13.78125 h 3.4375 v 1.76953 h -8.957031 z m 0,0"
           id="path142589" />
        <path
           style="fill:#000000;fill-opacity:1;fill-rule:nonzero;stroke:none"
           d="m 81.691406,691.15625 h 3.4375 v -11.86328 l -3.738281,0.75 V 678.125 l 3.71875,-0.75 h 2.101563 v 13.78125 h 3.4375 v 1.76953 h -8.957032 z m 0,0"
           id="path142591" />
        <path
           style="fill:#000000;fill-opacity:1;fill-rule:nonzero;stroke:none"
           d="m 15.101562,589.21484 c 0,-1.44922 -0.316406,-2.55859 -0.945312,-3.32422 -0.632812,-0.76953 -1.539062,-1.15234 -2.71875,-1.15234 -0.808594,0 -1.578125,0.20703 -2.3125,0.61719 -0.734375,0.41406 -1.386719,1.01562 -1.957031,1.80078 -0.5625,0.78125 -1.011719,1.72266 -1.347657,2.82422 -0.335937,1.10156 -0.5,2.19531 -0.5,3.28125 0,1.3789 0.3125,2.4375 0.945313,3.17969 0.628906,0.74609 1.527344,1.11718 2.6875,1.11718 0.859375,0 1.652344,-0.20312 2.386719,-0.60547 0.734375,-0.40234 1.363281,-0.98828 1.882812,-1.75781 0.5625,-0.80859 1.015625,-1.75781 1.359375,-2.85156 0.34375,-1.09375 0.519531,-2.13672 0.519531,-3.12891 z m -8.421874,-3.84375 c 0.730468,-0.95312 1.585937,-1.67968 2.578124,-2.17187 0.988282,-0.48828 2.089844,-0.73438 3.304688,-0.73438 1.691406,0 3.003906,0.55469 3.941406,1.66407 0.9375,1.10546 1.40625,2.65625 1.40625,4.65625 0,1.63671 -0.292968,3.19531 -0.875,4.67578 -0.582031,1.48047 -1.417968,2.80859 -2.511718,3.98047 -0.726563,0.77734 -1.550782,1.37109 -2.46875,1.78125 -0.914063,0.41015 -1.878907,0.61328 -2.890626,0.61328 -1.175781,0 -2.160156,-0.24219 -2.957031,-0.73047 C 5.410156,598.61719 4.8125,597.89062 4.421875,596.92578 L 2.71875,605.69922 H 0 l 4.449219,-22.83985 h 2.71875 z m 0,0"
           id="path142593" />
        <path
           style="fill:#000000;fill-opacity:1;fill-rule:nonzero;stroke:none"
           d="m 24.582031,567.67969 h 1.902344 l -0.464844,2.41406 h -1.90625 z m -0.871093,4.51172 h 1.902343 l -2.261719,11.58203 h -1.902343 z m 0,0"
           id="path142595" />
        <path
           style="fill:#000000;fill-opacity:1;fill-rule:nonzero;stroke:none"
           d="M 29.070312,581.14844 H 31.25 v 1.77734 l -1.695312,3.3125 h -1.332032 l 0.847656,-3.3125 z m 0,0"
           id="path142597" />
        <path
           style="fill:#000000;fill-opacity:1;fill-rule:nonzero;stroke:none"
           d="m 40.515625,572.19141 h 1.90625 l -2.285156,11.79296 -0.01172,0.0469 c -0.253906,1.32031 -0.546875,2.22266 -0.878906,2.71094 -0.308594,0.46093 -0.765625,0.8164 -1.363282,1.0625 -0.59375,0.25 -1.300781,0.375 -2.109374,0.375 h -0.714844 l 0.308594,-1.61328 h 0.488281 c 0.742187,0 1.273437,-0.15625 1.585937,-0.46485 0.316406,-0.30859 0.578125,-1.01562 0.792969,-2.11719 z m 0.890625,-4.51172 h 1.90625 l -0.46875,2.41406 h -1.902344 z m 0,0"
           id="path142599" />
        <path
           style="fill:#000000;fill-opacity:1;fill-rule:nonzero;stroke:none"
           d="m 21.921875,605.92187 h 3.414063 v -11.78125 l -3.714844,0.7461 v -1.90235 l 3.695312,-0.74609 h 2.085938 v 13.68359 h 3.414062 v 1.75782 h -8.894531 z m 0,0"
           id="path142601" />
        <path
           style="fill:#000000;fill-opacity:1;fill-rule:nonzero;stroke:none"
           d="M 36.835938,605.92187 H 44.125 v 1.75782 h -9.800781 v -1.75782 c 0.792969,-0.82031 1.871093,-1.91796 3.238281,-3.30078 1.371094,-1.38281 2.230469,-2.27734 2.582031,-2.67578 0.667969,-0.75 1.136719,-1.38672 1.398438,-1.90625 0.269531,-0.52344 0.402343,-1.03515 0.402343,-1.53906 0,-0.82031 -0.289062,-1.48828 -0.863281,-2.00391 -0.578125,-0.51953 -1.328125,-0.77734 -2.25,-0.77734 -0.65625,0 -1.347656,0.11328 -2.074219,0.33984 -0.726562,0.22657 -1.503906,0.57422 -2.332031,1.03516 v -2.10938 c 0.839844,-0.33984 1.625,-0.59375 2.355469,-0.76562 0.734375,-0.17188 1.402344,-0.25781 2.011719,-0.25781 1.597656,0 2.871093,0.40234 3.824219,1.20312 0.949218,0.79688 1.425781,1.86328 1.425781,3.20313 0,0.63281 -0.117188,1.23828 -0.355469,1.80468 -0.238281,0.56641 -0.671875,1.23829 -1.300781,2.01172 -0.171875,0.19922 -0.71875,0.77735 -1.644531,1.73438 -0.921876,0.95312 -2.222657,2.28906 -3.90625,4.0039 z m 0,0"
           id="path142603" />
        <path
           style="fill:#000000;fill-opacity:1;fill-rule:nonzero;stroke:none"
           d="m 22.226562,458.63281 c 0,-1.4375 -0.3125,-2.53906 -0.9375,-3.29687 -0.625,-0.76563 -1.523437,-1.14453 -2.699218,-1.14453 -0.800782,0 -1.5625,0.20312 -2.292969,0.61328 -0.730469,0.41015 -1.375,1.0039 -1.941406,1.78906 -0.558594,0.76953 -1.003907,1.70312 -1.339844,2.80078 -0.332031,1.09375 -0.496094,2.17969 -0.496094,3.25391 0,1.36718 0.3125,2.42187 0.9375,3.16015 0.625,0.73828 1.515625,1.10547 2.671875,1.10547 0.851563,0 1.640625,-0.19922 2.367188,-0.59765 0.730468,-0.40235 1.351562,-0.98438 1.871094,-1.7461 0.554687,-0.80078 1.003906,-1.74609 1.34375,-2.83203 0.34375,-1.08594 0.515624,-2.12109 0.515624,-3.10547 z m -8.355468,-3.8125 c 0.722656,-0.94922 1.574218,-1.66797 2.558594,-2.15625 0.980468,-0.48828 2.074218,-0.73047 3.277343,-0.73047 1.679688,0 2.984375,0.55078 3.914063,1.65235 0.929687,1.09765 1.394531,2.63672 1.394531,4.62109 0,1.62109 -0.289063,3.16797 -0.867187,4.64063 -0.578126,1.46875 -1.40625,2.78515 -2.492188,3.94921 -0.722656,0.77344 -1.539062,1.36329 -2.449219,1.76954 -0.90625,0.40625 -1.863281,0.60937 -2.871093,0.60937 -1.164063,0 -2.144532,-0.24219 -2.933594,-0.72656 -0.792969,-0.48438 -1.382813,-1.20703 -1.773438,-2.16406 L 9.9375,474.99609 H 7.242188 l 4.414062,-22.66797 h 2.699219 z m 0,0"
           id="path142605" />
        <path
           style="fill:#000000;fill-opacity:1;fill-rule:nonzero;stroke:none"
           d="m 31.636719,437.26172 h 1.890625 l -0.464844,2.39453 h -1.886719 z m -0.863281,4.47656 h 1.890624 l -2.246093,11.49609 h -1.890625 z m 0,0"
           id="path142607" />
        <path
           style="fill:#000000;fill-opacity:1;fill-rule:nonzero;stroke:none"
           d="m 36.09375,450.625 h 2.164062 v 1.76953 l -1.683593,3.28125 h -1.320313 l 0.839844,-3.28125 z m 0,0"
           id="path142609" />
        <path
           style="fill:#000000;fill-opacity:1;fill-rule:nonzero;stroke:none"
           d="m 47.457031,441.73828 h 1.886719 l -2.265625,11.70313 -0.01172,0.0469 c -0.253906,1.30859 -0.542968,2.20703 -0.871094,2.69141 -0.308593,0.45703 -0.761718,0.80859 -1.355468,1.05468 -0.589844,0.2461 -1.289063,0.3711 -2.09375,0.3711 h -0.710938 l 0.308594,-1.59766 h 0.484375 c 0.738281,0 1.261719,-0.15625 1.574219,-0.46484 0.3125,-0.30469 0.574218,-1.00781 0.785156,-2.10156 z m 0.882813,-4.47656 h 1.886718 l -0.460937,2.39453 H 47.875 Z m 0,0"
           id="path142611" />
        <path
           style="fill:#000000;fill-opacity:1;fill-rule:nonzero;stroke:none"
           d="m 29,475.21875 h 3.386719 v -11.69531 l -3.683594,0.73828 V 462.375 l 3.664063,-0.73828 h 2.074218 v 13.58203 h 3.386719 v 1.74219 H 29 Z m 0,0"
           id="path142613" />
        <path
           style="fill:#000000;fill-opacity:1;fill-rule:nonzero;stroke:none"
           d="m 48.296875,468.69922 c 0.992187,0.21094 1.765625,0.65234 2.324219,1.32422 0.558594,0.67187 0.835937,1.5 0.835937,2.48437 0,1.51172 -0.519531,2.67969 -1.558593,3.51172 -1.042969,0.82813 -2.519532,1.24219 -4.433594,1.24219 -0.644532,0 -1.304688,-0.0664 -1.984375,-0.19141 -0.683594,-0.1289 -1.386719,-0.3164 -2.109375,-0.57031 v -2 c 0.574218,0.33203 1.203125,0.58594 1.882812,0.75781 0.6875,0.17188 1.402344,0.25391 2.148438,0.25391 1.300781,0 2.289062,-0.25391 2.972656,-0.76563 0.679688,-0.51562 1.019531,-1.25781 1.019531,-2.23828 0,-0.90625 -0.316406,-1.60937 -0.949219,-2.11719 C 47.8125,469.87891 46.933594,469.625 45.804688,469.625 h -1.785157 v -1.70703 h 1.867188 c 1.019531,0 1.796875,-0.20313 2.339843,-0.60938 0.539063,-0.40625 0.808594,-0.99609 0.808594,-1.76172 0,-0.78515 -0.277344,-1.39062 -0.835937,-1.80859 -0.554688,-0.42187 -1.355469,-0.63281 -2.394531,-0.63281 -0.570313,0 -1.179688,0.0625 -1.828126,0.18359 -0.652343,0.125 -1.367187,0.31641 -2.148437,0.57422 v -1.84766 c 0.789063,-0.21875 1.527344,-0.38281 2.214844,-0.49218 0.6875,-0.10938 1.335937,-0.16407 1.945312,-0.16407 1.574219,0 2.820313,0.35938 3.734375,1.07422 0.917969,0.71485 1.375,1.67969 1.375,2.89844 0,0.84766 -0.242187,1.56641 -0.726562,2.14844 -0.488282,0.58594 -1.179688,0.99219 -2.074219,1.21875 z m 0,0"
           id="path142615" />
        <path
           style="fill:#000000;fill-opacity:1;fill-rule:nonzero;stroke:none"
           d="m 39.320312,276.94531 c 0,-1.45703 -0.320312,-2.57422 -0.953124,-3.34375 -0.636719,-0.77734 -1.546876,-1.16406 -2.738282,-1.16406 -0.8125,0 -1.585937,0.20703 -2.328125,0.625 -0.738281,0.41406 -1.394531,1.01953 -1.96875,1.8125 -0.566406,0.78516 -1.019531,1.73047 -1.359375,2.84375 -0.335937,1.10937 -0.503906,2.21094 -0.503906,3.30469 0,1.38672 0.316406,2.45312 0.953125,3.20312 0.632813,0.75 1.539063,1.1211 2.707031,1.1211 0.863282,0 1.667969,-0.20313 2.40625,-0.60938 0.738282,-0.40625 1.371094,-0.99609 1.894532,-1.76953 0.566406,-0.8125 1.019531,-1.76953 1.367187,-2.87109 0.347656,-1.10157 0.523437,-2.15235 0.523437,-3.15235 z m -8.480468,-3.87109 c 0.734375,-0.96094 1.597656,-1.6875 2.59375,-2.1836 0.996094,-0.49609 2.105468,-0.74218 3.328125,-0.74218 1.707031,0 3.027343,0.55859 3.972656,1.67578 0.941406,1.11328 1.414063,2.67578 1.414063,4.6875 0,1.64844 -0.292969,3.21875 -0.882813,4.71094 -0.582031,1.49218 -1.425781,2.82812 -2.527344,4.00781 -0.734375,0.78515 -1.5625,1.38281 -2.484375,1.79297 -0.921875,0.41406 -1.890625,0.62109 -2.914062,0.62109 -1.179688,0 -2.171875,-0.24609 -2.976563,-0.73828 -0.800781,-0.49219 -1.402343,-1.22266 -1.796875,-2.19531 l -1.714844,8.83593 h -2.738281 l 4.480469,-23 h 2.738281 z m 0,0"
           id="path142617" />
        <path
           style="fill:#000000;fill-opacity:1;fill-rule:nonzero;stroke:none"
           d="m 48.867188,255.54297 h 1.917968 l -0.472656,2.42969 h -1.914062 z m -0.875,4.54297 H 49.90625 L 47.628906,271.75 h -1.917968 z m 0,0"
           id="path142619" />
        <path
           style="fill:#000000;fill-opacity:1;fill-rule:nonzero;stroke:none"
           d="m 53.386719,269.10156 h 2.195312 v 1.79297 L 53.875,274.22656 h -1.339844 l 0.851563,-3.33203 z m 0,0"
           id="path142621" />
        <path
           style="fill:#000000;fill-opacity:1;fill-rule:nonzero;stroke:none"
           d="m 64.914062,260.08594 h 1.917969 l -2.300781,11.87109 -0.01172,0.0508 c -0.257812,1.32813 -0.550781,2.23828 -0.886719,2.73047 -0.3125,0.46484 -0.769531,0.82031 -1.371093,1.07031 -0.601563,0.25 -1.308594,0.375 -2.125,0.375 h -0.722657 l 0.316407,-1.62109 h 0.488281 c 0.75,0 1.28125,-0.16016 1.601562,-0.47266 0.3125,-0.30859 0.578126,-1.01953 0.792969,-2.13281 z m 0.898438,-4.54297 h 1.914062 l -0.46875,2.42969 h -1.917968 z m 0,0"
           id="path142623" />
        <path
           style="fill:#000000;fill-opacity:1;fill-rule:nonzero;stroke:none"
           d="M 46.191406,293.77344 H 49.625 v -11.86328 l -3.738281,0.75 v -1.91797 l 3.71875,-0.75 h 2.105469 v 13.78125 h 3.433593 v 1.76953 h -8.953125 z m 0,0"
           id="path142625" />
        <path
           style="fill:#000000;fill-opacity:1;fill-rule:nonzero;stroke:none"
           d="m 65.175781,281.82422 -5.3125,8.30078 h 5.3125 z m -0.554687,-1.83203 h 2.648437 V 290.125 h 2.21875 v 1.75 h -2.21875 v 3.66797 h -2.09375 V 291.875 H 58.15625 v -2.02734 z m 0,0"
           id="path142627" />
        <path
           style="fill:#000000;fill-opacity:1;fill-rule:nonzero;stroke:none"
           d="m 98.242188,102.9375 c 0,-1.44922 -0.3125,-2.55859 -0.945313,-3.324219 -0.628906,-0.765625 -1.535156,-1.152343 -2.714844,-1.152343 -0.804687,0 -1.578125,0.207031 -2.3125,0.621093 -0.730469,0.410157 -1.382812,1.011719 -1.953125,1.800779 -0.5625,0.77735 -1.011718,1.71485 -1.347656,2.82032 -0.332031,1.10156 -0.5,2.19531 -0.5,3.27734 0,1.37891 0.3125,2.4375 0.945312,3.17969 0.628907,0.74218 1.523438,1.11718 2.6875,1.11718 0.855469,0 1.652344,-0.20312 2.386719,-0.60546 0.734375,-0.40235 1.359375,-0.98829 1.878907,-1.75782 0.5625,-0.80859 1.011718,-1.75781 1.355468,-2.85156 0.347656,-1.08984 0.519532,-2.13281 0.519532,-3.125 z m -8.414063,-3.84375 c 0.726563,-0.953125 1.585937,-1.675781 2.574219,-2.167969 0.992187,-0.492187 2.089844,-0.738281 3.304687,-0.738281 1.691407,0 3.003907,0.554688 3.941407,1.664062 0.933592,1.105469 1.402342,2.656248 1.402342,4.656248 0,1.63282 -0.29297,3.19141 -0.875,4.67188 -0.578124,1.48047 -1.414061,2.80469 -2.507811,3.97656 -0.726563,0.78125 -1.550781,1.375 -2.46875,1.78125 -0.910157,0.41016 -1.875,0.61719 -2.890625,0.61719 -1.171875,0 -2.15625,-0.2461 -2.953125,-0.73438 -0.796875,-0.48828 -1.390625,-1.21484 -1.785157,-2.17578 l -1.703124,8.76953 h -2.714844 l 4.445312,-22.828122 h 2.71875 z m 0,0"
           id="path142629" />
        <path
           style="fill:#000000;fill-opacity:1;fill-rule:nonzero;stroke:none"
           d="m 107.71875,81.691406 h 1.90234 l -0.46484,2.414063 h -1.90234 z m -0.86719,4.507813 H 108.75 l -2.26172,11.578125 h -1.90234 z m 0,0"
           id="path142631" />
        <path
           style="fill:#000000;fill-opacity:1;fill-rule:nonzero;stroke:none"
           d="m 112.20313,95.152344 h 2.17968 v 1.777344 l -1.6914,3.308592 h -1.33203 l 0.84375,-3.308592 z m 0,0"
           id="path142633" />
        <path
           style="fill:#000000;fill-opacity:1;fill-rule:nonzero;stroke:none"
           d="m 123.64453,86.199219 h 1.90235 l -2.28125,11.785156 -0.0117,0.05078 c -0.25391,1.316406 -0.54688,2.218755 -0.87891,2.707035 -0.30859,0.46094 -0.76562,0.8164 -1.36328,1.0625 -0.59375,0.25 -1.29688,0.375 -2.10938,0.375 h -0.71484 l 0.3125,-1.60938 h 0.48438 c 0.74609,0 1.27343,-0.15625 1.58984,-0.46875 0.3125,-0.308592 0.57422,-1.011717 0.78906,-2.117186 z m 0.89063,-4.507813 h 1.90234 l -0.46484,2.414063 h -1.90235 z m 0,0"
           id="path142635" />
        <path
           style="fill:#000000;fill-opacity:1;fill-rule:nonzero;stroke:none"
           d="m 105.0625,119.63672 h 3.41016 v -11.77734 l -3.71094,0.74609 v -1.90234 l 3.69141,-0.74219 h 2.08593 v 13.67578 h 3.41016 v 1.75391 h -8.88672 z m 0,0"
           id="path142637" />
        <path
           style="fill:#000000;fill-opacity:1;fill-rule:nonzero;stroke:none"
           d="m 118.19141,105.96094 h 8.19531 v 1.75781 h -6.28516 V 111.5 c 0.30078,-0.10547 0.60547,-0.17969 0.90625,-0.23047 0.30469,-0.0508 0.60938,-0.0781 0.91407,-0.0781 1.72265,0 3.08593,0.47265 4.08984,1.41406 1.00781,0.94531 1.51172,2.22266 1.51172,3.83594 0,1.66015 -0.51563,2.94922 -1.55078,3.87109 -1.03516,0.92188 -2.49219,1.37891 -4.3711,1.37891 -0.64843,0 -1.30859,-0.0547 -1.98437,-0.16407 -0.66797,-0.10937 -1.36328,-0.27343 -2.07813,-0.49609 v -2.10156 c 0.6211,0.33984 1.25782,0.58984 1.92188,0.7539 0.66015,0.16797 1.35937,0.25 2.09765,0.25 1.19141,0 2.13672,-0.3125 2.82813,-0.9414 0.69922,-0.625 1.04687,-1.47656 1.04687,-2.55078 0,-1.07422 -0.34765,-1.92578 -1.04687,-2.55078 -0.69141,-0.62891 -1.63672,-0.94141 -2.82813,-0.94141 -0.55859,0 -1.11718,0.0625 -1.67187,0.18359 -0.55469,0.125 -1.11719,0.31641 -1.69531,0.57813 z m 0,0"
           id="path142639" />
      </g>
      <g
         id="g147974"
         transform="matrix(14.943262,0,0,14.943262,6662.8685,-6908.7112)"
         style="stroke-width:0.0669198">
        <g
           id="g149502"
           transform="translate(4.1197395,-13.357943)">
          <path
             style="fill:none;stroke:#007f00;stroke-width:3;stroke-linecap:square;stroke-linejoin:round;stroke-miterlimit:4;stroke-opacity:1"
             d="m -941.37282,289.92928 49.46879,-5.96484 48.88671,-6.65625 46.65625,-5.52344 42.76563,-2.57031 37.22656,2.21094 30.03516,8.8164 21.41406,17.07032 13.33203,25.51562 6.81641,33.39063 1.85156,40.67968 -1.53906,47.39844 -3.36719,53.53906 -3.6875,59.04688 -3.72656,62.77731 -4.70313,63.57807 -6.68359,61.3907 -9.65625,56.2187 -13.63281,48.0703 -18.59766,36.9453 -24.16797,24.4961 -29.55859,13.9258 -34.6875,5.586 -39.56641,-0.5079 -44.17187,-4.3671 -48.52737,-5.9844 -52.2617,-5.8633 -53.94918,-5.9805 -53.2383,-6.8476 -50.125,-8.4571 -44.6172,-10.8046 -36.6992,-13.8946 -26.6758,-17.7031 -17.0703,-21.957 -9.1875,-26.543 -3.0352,-31.4414 1.3867,-36.668 4.0782,-42.2109 5.0898,-48.0117 5.7539,-52.60157 7.3789,-54.49998 10.0195,-53.65625 13.6915,-50.05469 18.371,-43.70703 24.0782,-34.625 30.2031,-24.35937 35.5977,-15.9375 40.125,-9.69922 43.789,-5.64844 46.58988,-3.78906 48.5273,-4.1211"
             id="path142419-5"
             transform="matrix(0.06691979,0,0,0.06691979,-439.34268,463.20341)" />
          <g
             id="g147991"
             transform="matrix(1.1005177,0,0,1.1005177,-1.9784419,-76.015792)"
             style="stroke:#000000;stroke-width:0.304038;stroke-dasharray:none;stroke-opacity:1">
            <g
               inkscape:label="MajorXGridlines"
               id="g147597"
               transform="translate(-477.3844,505.07501)"
               style="stroke:#000000;stroke-width:0.304038;stroke-dasharray:none;stroke-opacity:1">
              <path
                 style="fill:none;stroke:#000000;stroke-width:0.304038;stroke-dasharray:none;stroke-opacity:1"
                 d="M 14.1732,0 V 42.5197"
                 inkscape:label="MajorXDiv1"
                 id="path147593" />
              <path
                 style="fill:none;stroke:#000000;stroke-width:0.304038;stroke-dasharray:none;stroke-opacity:1"
                 d="M 28.3465,0 V 42.5197"
                 inkscape:label="MajorXDiv2"
                 id="path147595" />
            </g>
            <g
               inkscape:label="MajorYGridlines"
               id="g147603"
               transform="translate(-477.3844,505.07501)"
               style="stroke:#000000;stroke-width:0.304038;stroke-dasharray:none;stroke-opacity:1">
              <path
                 style="fill:none;stroke:#000000;stroke-width:0.304038;stroke-dasharray:none;stroke-opacity:1"
                 d="M 0,14.1732 H 42.5197"
                 inkscape:label="MajorYDiv1"
                 id="path147599" />
              <path
                 style="fill:none;stroke:#000000;stroke-width:0.304038;stroke-dasharray:none;stroke-opacity:1"
                 d="M 0,28.3465 H 42.5197"
                 inkscape:label="MajorYDiv2"
                 id="path147601" />
            </g>
            <rect
               x="-477.3844"
               y="505.07501"
               width="42.519684"
               height="42.519684"
               style="fill:none;stroke:#000000;stroke-width:0.304038;stroke-dasharray:none;stroke-opacity:1"
               inkscape:label="Border"
               id="rect147605" />
            <g
               inkscape:label="GridCartesian:X3:Y3"
               transform="translate(-477.3844,505.07501)"
               id="g147941"
               style="stroke:#000000;stroke-width:0.304038;stroke-dasharray:none;stroke-opacity:1">
              <g
                 inkscape:label="MajorXGridlines"
                 id="g147931"
                 style="stroke:#000000;stroke-width:0.304038;stroke-dasharray:none;stroke-opacity:1">
                <path
                   style="fill:none;stroke:#000000;stroke-width:0.304038;stroke-dasharray:none;stroke-opacity:1"
                   d="M 14.1732,0 V 42.5197"
                   inkscape:label="MajorXDiv1"
                   id="path147927" />
                <path
                   style="fill:none;stroke:#000000;stroke-width:0.304038;stroke-dasharray:none;stroke-opacity:1"
                   d="M 28.3465,0 V 42.5197"
                   inkscape:label="MajorXDiv2"
                   id="path147929" />
              </g>
              <g
                 inkscape:label="MajorYGridlines"
                 id="g147937"
                 style="stroke:#000000;stroke-width:0.304038;stroke-dasharray:none;stroke-opacity:1">
                <path
                   style="fill:none;stroke:#000000;stroke-width:0.304038;stroke-dasharray:none;stroke-opacity:1"
                   d="M 0,14.1732 H 42.5197"
                   inkscape:label="MajorYDiv1"
                   id="path147933" />
                <path
                   style="fill:none;stroke:#000000;stroke-width:0.304038;stroke-dasharray:none;stroke-opacity:1"
                   d="M 0,28.3465 H 42.5197"
                   inkscape:label="MajorYDiv2"
                   id="path147935" />
              </g>
              <rect
                 x="0"
                 y="0"
                 width="42.519684"
                 height="42.519684"
                 style="fill:none;stroke:#000000;stroke-width:0.304038;stroke-dasharray:none;stroke-opacity:1"
                 inkscape:label="Border"
                 id="rect147939" />
            </g>
          </g>
          <ellipse
             style="fill:#ff6161;fill-opacity:1;stroke:none;stroke-width:0.334599;stroke-linejoin:round;stroke-dasharray:none;stroke-opacity:1"
             id="path148408"
             cx="-520.67639"
             cy="485.92441"
             rx="0.93630433"
             ry="0.87388408" />
          <ellipse
             style="fill:#ff6161;fill-opacity:1;stroke:none;stroke-width:0.334599;stroke-linejoin:round;stroke-dasharray:none;stroke-opacity:1"
             id="path148408-8"
             cx="-505.25851"
             cy="481.18045"
             rx="0.93630433"
             ry="0.87388408" />
          <ellipse
             style="fill:#ff6161;fill-opacity:1;stroke:none;stroke-width:0.334599;stroke-linejoin:round;stroke-dasharray:none;stroke-opacity:1"
             id="path148408-9"
             cx="-482.16302"
             cy="481.18045"
             rx="0.93630433"
             ry="0.87388408" />
          <ellipse
             style="fill:#ff6161;fill-opacity:1;stroke:none;stroke-width:0.334599;stroke-linejoin:round;stroke-dasharray:none;stroke-opacity:1"
             id="path148408-4"
             cx="-525.10815"
             cy="503.15237"
             rx="0.93630433"
             ry="0.87388408" />
          <ellipse
             style="fill:#ff6161;fill-opacity:1;stroke:none;stroke-width:0.334599;stroke-linejoin:round;stroke-dasharray:none;stroke-opacity:1"
             id="path148408-7"
             cx="-525.23303"
             cy="519.38165"
             rx="0.93630433"
             ry="0.87388408" />
          <ellipse
             style="fill:#ff6161;fill-opacity:1;stroke:none;stroke-width:0.334599;stroke-linejoin:round;stroke-dasharray:none;stroke-opacity:1"
             id="path148408-91"
             cx="-505.00885"
             cy="525.4989"
             rx="0.93630433"
             ry="0.87388408" />
          <ellipse
             style="fill:#ff6161;fill-opacity:1;stroke:none;stroke-width:0.334599;stroke-linejoin:round;stroke-dasharray:none;stroke-opacity:1"
             id="path148408-2"
             cx="-485.90823"
             cy="524.87463"
             rx="0.93630433"
             ry="0.87388408" />
          <ellipse
             style="fill:#ff6161;fill-opacity:1;stroke:none;stroke-width:0.334599;stroke-linejoin:round;stroke-dasharray:none;stroke-opacity:1"
             id="path148408-6"
             cx="-482.03815"
             cy="507.39694"
             rx="0.93630433"
             ry="0.87388408" />
        </g>
      </g>
      <path
         style="fill:none;fill-opacity:1;stroke:#000000;stroke-width:10;stroke-linejoin:round;stroke-dasharray:none;stroke-opacity:1;marker-end:url(#Arrow5)"
         d="m -345.60293,413.74098 h 210.8044"
         id="path149558" />
      <text
         xml:space="preserve"
         style="font-weight:bold;font-size:60px;font-family:'Times New Roman';-inkscape-font-specification:'Times New Roman, Bold';fill:#000000;fill-opacity:1;stroke:none;stroke-width:9.99998;stroke-linejoin:round;stroke-dasharray:none;stroke-opacity:1"
         x="-320.3194"
         y="354.2605"
         id="text150055"><tspan
           sodipodi:role="line"
           id="tspan150053"
           style="fill:#000000;fill-opacity:1;stroke:none;stroke-width:10"
           x="-320.3194"
           y="354.2605">fitting</tspan></text>
    </g>
  </g>
</svg>
