<?xml version="1.0" encoding="utf-8" standalone="no"?>
<!DOCTYPE svg PUBLIC "-//W3C//DTD SVG 1.1//EN"
  "http://www.w3.org/Graphics/SVG/1.1/DTD/svg11.dtd">
<svg xmlns:xlink="http://www.w3.org/1999/xlink" width="432pt" height="432pt" viewBox="0 0 432 432" xmlns="http://www.w3.org/2000/svg" version="1.1">
 <metadata>
  <rdf:RDF xmlns:dc="http://purl.org/dc/elements/1.1/" xmlns:cc="http://creativecommons.org/ns#" xmlns:rdf="http://www.w3.org/1999/02/22-rdf-syntax-ns#">
   <cc:Work>
    <dc:type rdf:resource="http://purl.org/dc/dcmitype/StillImage"/>
    <dc:date>2024-03-12T05:33:13.575865</dc:date>
    <dc:format>image/svg+xml</dc:format>
    <dc:creator>
     <cc:Agent>
      <dc:title>Matplotlib v3.7.1, https://matplotlib.org/</dc:title>
     </cc:Agent>
    </dc:creator>
   </cc:Work>
  </rdf:RDF>
 </metadata>
 <defs>
  <style type="text/css">*{stroke-linejoin: round; stroke-linecap: butt}</style>
 </defs>
 <g id="figure_1">
  <g id="patch_1">
   <path d="M 0 432 
L 432 432 
L 432 0 
L 0 0 
z
" style="fill: #ffffff"/>
  </g>
  <g id="axes_1">
   <g id="patch_2">
    <path d="M 54 149.675294 
L 388.8 149.675294 
L 388.8 51.84 
L 54 51.84 
z
" style="fill: #ffffff"/>
   </g>
   <g id="patch_3">
    <path d="M 120.337153 92.032068 
L 120.337153 96.026174 
L 115.011679 96.026174 
L 115.011679 112.002598 
L 120.337153 112.002598 
L 120.337153 115.996704 
L 107.023467 115.996704 
L 107.023467 112.002598 
L 112.348941 112.002598 
L 112.348941 96.026174 
L 107.023467 96.026174 
L 107.023467 92.032068 
z
" clip-path="url(#p1e79280ad4)" style="fill: #0000ff"/>
   </g>
   <g id="patch_4">
    <path d="M 294.091821 97.683928 
L 294.091821 99.510523 
L 291.656362 99.510523 
L 291.656362 106.816901 
L 294.091821 106.816901 
L 294.091821 108.643496 
L 288.003173 108.643496 
L 288.003173 106.816901 
L 290.438632 106.816901 
L 290.438632 99.510523 
L 288.003173 99.510523 
L 288.003173 97.683928 
z
" clip-path="url(#p1e79280ad4)" style="fill: #0000ff"/>
   </g>
   <g id="matplotlib.axis_1"/>
   <g id="matplotlib.axis_2">
    <g id="ytick_1">
     <g id="line2d_1">
      <defs>
       <path id="m87af00a6cb" d="M 0 0 
L -3.5 0 
" style="stroke: #000000; stroke-width: 0.8"/>
      </defs>
      <g>
       <use xlink:href="#m87af00a6cb" x="54" y="141.72896" style="stroke: #000000; stroke-width: 0.8"/>
      </g>
     </g>
     <g id="text_1">
      <!-- −0.1 -->
      <g transform="translate(22.717187 145.528179) scale(0.1 -0.1)">
       <defs>
        <path id="DejaVuSans-2212" d="M 678 2272 
L 4684 2272 
L 4684 1741 
L 678 1741 
L 678 2272 
z
" transform="scale(0.015625)"/>
        <path id="DejaVuSans-30" d="M 2034 4250 
Q 1547 4250 1301 3770 
Q 1056 3291 1056 2328 
Q 1056 1369 1301 889 
Q 1547 409 2034 409 
Q 2525 409 2770 889 
Q 3016 1369 3016 2328 
Q 3016 3291 2770 3770 
Q 2525 4250 2034 4250 
z
M 2034 4750 
Q 2819 4750 3233 4129 
Q 3647 3509 3647 2328 
Q 3647 1150 3233 529 
Q 2819 -91 2034 -91 
Q 1250 -91 836 529 
Q 422 1150 422 2328 
Q 422 3509 836 4129 
Q 1250 4750 2034 4750 
z
" transform="scale(0.015625)"/>
        <path id="DejaVuSans-2e" d="M 684 794 
L 1344 794 
L 1344 0 
L 684 0 
L 684 794 
z
" transform="scale(0.015625)"/>
        <path id="DejaVuSans-31" d="M 794 531 
L 1825 531 
L 1825 4091 
L 703 3866 
L 703 4441 
L 1819 4666 
L 2450 4666 
L 2450 531 
L 3481 531 
L 3481 0 
L 794 0 
L 794 531 
z
" transform="scale(0.015625)"/>
       </defs>
       <use xlink:href="#DejaVuSans-2212"/>
       <use xlink:href="#DejaVuSans-30" x="83.789062"/>
       <use xlink:href="#DejaVuSans-2e" x="147.412109"/>
       <use xlink:href="#DejaVuSans-31" x="179.199219"/>
      </g>
     </g>
    </g>
    <g id="ytick_2">
     <g id="line2d_2">
      <g>
       <use xlink:href="#m87af00a6cb" x="54" y="111.577292" style="stroke: #000000; stroke-width: 0.8"/>
      </g>
     </g>
     <g id="text_2">
      <!-- 0.0 -->
      <g transform="translate(31.096875 115.376511) scale(0.1 -0.1)">
       <use xlink:href="#DejaVuSans-30"/>
       <use xlink:href="#DejaVuSans-2e" x="63.623047"/>
       <use xlink:href="#DejaVuSans-30" x="95.410156"/>
      </g>
     </g>
    </g>
    <g id="ytick_3">
     <g id="line2d_3">
      <g>
       <use xlink:href="#m87af00a6cb" x="54" y="81.425624" style="stroke: #000000; stroke-width: 0.8"/>
      </g>
     </g>
     <g id="text_3">
      <!-- 0.1 -->
      <g transform="translate(31.096875 85.224843) scale(0.1 -0.1)">
       <use xlink:href="#DejaVuSans-30"/>
       <use xlink:href="#DejaVuSans-2e" x="63.623047"/>
       <use xlink:href="#DejaVuSans-31" x="95.410156"/>
      </g>
     </g>
    </g>
   </g>
   <g id="line2d_4">
    <path d="M 149.670762 86.69102 
L 157.428689 86.514682 
L 165.733583 85.055297 
L 171.950559 85.21976 
L 173.444729 89.914967 
L 172.709151 98.220095 
L 172.236882 109.214321 
L 170.437733 118.142519 
L 165.721511 120.249563 
L 158.503579 119.104227 
L 149.199296 118.275286 
L 141.635295 116.579439 
L 139.638206 112.833388 
L 140.448199 106.525474 
L 141.305446 97.144036 
L 143.837211 89.071682 
L 149.670762 86.69102 
L 157.428689 86.514682 
L 165.733583 85.055297 
" clip-path="url(#p1e79280ad4)" style="fill: none; stroke: #ff0000; stroke-width: 1.5; stroke-linecap: square"/>
    <defs>
     <path id="m370bc69079" d="M 0 3 
C 0.795609 3 1.55874 2.683901 2.12132 2.12132 
C 2.683901 1.55874 3 0.795609 3 0 
C 3 -0.795609 2.683901 -1.55874 2.12132 -2.12132 
C 1.55874 -2.683901 0.795609 -3 0 -3 
C -0.795609 -3 -1.55874 -2.683901 -2.12132 -2.12132 
C -2.683901 -1.55874 -3 -0.795609 -3 0 
C -3 0.795609 -2.683901 1.55874 -2.12132 2.12132 
C -1.55874 2.683901 -0.795609 3 0 3 
z
" style="stroke: #ff0000"/>
    </defs>
    <g clip-path="url(#p1e79280ad4)">
     <use xlink:href="#m370bc69079" x="149.670762" y="86.69102" style="fill: #ff0000; stroke: #ff0000"/>
     <use xlink:href="#m370bc69079" x="157.428689" y="86.514682" style="fill: #ff0000; stroke: #ff0000"/>
     <use xlink:href="#m370bc69079" x="165.733583" y="85.055297" style="fill: #ff0000; stroke: #ff0000"/>
     <use xlink:href="#m370bc69079" x="171.950559" y="85.21976" style="fill: #ff0000; stroke: #ff0000"/>
     <use xlink:href="#m370bc69079" x="173.444729" y="89.914967" style="fill: #ff0000; stroke: #ff0000"/>
     <use xlink:href="#m370bc69079" x="172.709151" y="98.220095" style="fill: #ff0000; stroke: #ff0000"/>
     <use xlink:href="#m370bc69079" x="172.236882" y="109.214321" style="fill: #ff0000; stroke: #ff0000"/>
     <use xlink:href="#m370bc69079" x="170.437733" y="118.142519" style="fill: #ff0000; stroke: #ff0000"/>
     <use xlink:href="#m370bc69079" x="165.721511" y="120.249563" style="fill: #ff0000; stroke: #ff0000"/>
     <use xlink:href="#m370bc69079" x="158.503579" y="119.104227" style="fill: #ff0000; stroke: #ff0000"/>
     <use xlink:href="#m370bc69079" x="149.199296" y="118.275286" style="fill: #ff0000; stroke: #ff0000"/>
     <use xlink:href="#m370bc69079" x="141.635295" y="116.579439" style="fill: #ff0000; stroke: #ff0000"/>
     <use xlink:href="#m370bc69079" x="139.638206" y="112.833388" style="fill: #ff0000; stroke: #ff0000"/>
     <use xlink:href="#m370bc69079" x="140.448199" y="106.525474" style="fill: #ff0000; stroke: #ff0000"/>
     <use xlink:href="#m370bc69079" x="141.305446" y="97.144036" style="fill: #ff0000; stroke: #ff0000"/>
     <use xlink:href="#m370bc69079" x="143.837211" y="89.071682" style="fill: #ff0000; stroke: #ff0000"/>
     <use xlink:href="#m370bc69079" x="149.670762" y="86.69102" style="fill: #ff0000; stroke: #ff0000"/>
     <use xlink:href="#m370bc69079" x="157.428689" y="86.514682" style="fill: #ff0000; stroke: #ff0000"/>
     <use xlink:href="#m370bc69079" x="165.733583" y="85.055297" style="fill: #ff0000; stroke: #ff0000"/>
    </g>
   </g>
   <g id="line2d_5">
    <path d="M 197.283478 84.915102 
L 204.378778 84.726562 
L 213.756094 83.666592 
L 221.153408 85.432219 
L 222.3087 93.720472 
L 220.527978 102.934519 
L 219.117251 107.477531 
L 216.498877 109.987668 
L 211.095216 113.103091 
L 204.598285 115.478255 
L 198.7001 115.767615 
L 194.880572 113.680939 
L 194.61961 108.927996 
L 195.157257 102.09169 
L 193.733559 93.754924 
L 193.418852 87.00147 
L 197.283478 84.915102 
L 204.378778 84.726562 
L 213.756094 83.666592 
" clip-path="url(#p1e79280ad4)" style="fill: none; stroke: #ff0000; stroke-width: 1.5; stroke-linecap: square"/>
    <g clip-path="url(#p1e79280ad4)">
     <use xlink:href="#m370bc69079" x="197.283478" y="84.915102" style="fill: #ff0000; stroke: #ff0000"/>
     <use xlink:href="#m370bc69079" x="204.378778" y="84.726562" style="fill: #ff0000; stroke: #ff0000"/>
     <use xlink:href="#m370bc69079" x="213.756094" y="83.666592" style="fill: #ff0000; stroke: #ff0000"/>
     <use xlink:href="#m370bc69079" x="221.153408" y="85.432219" style="fill: #ff0000; stroke: #ff0000"/>
     <use xlink:href="#m370bc69079" x="222.3087" y="93.720472" style="fill: #ff0000; stroke: #ff0000"/>
     <use xlink:href="#m370bc69079" x="220.527978" y="102.934519" style="fill: #ff0000; stroke: #ff0000"/>
     <use xlink:href="#m370bc69079" x="219.117251" y="107.477531" style="fill: #ff0000; stroke: #ff0000"/>
     <use xlink:href="#m370bc69079" x="216.498877" y="109.987668" style="fill: #ff0000; stroke: #ff0000"/>
     <use xlink:href="#m370bc69079" x="211.095216" y="113.103091" style="fill: #ff0000; stroke: #ff0000"/>
     <use xlink:href="#m370bc69079" x="204.598285" y="115.478255" style="fill: #ff0000; stroke: #ff0000"/>
     <use xlink:href="#m370bc69079" x="198.7001" y="115.767615" style="fill: #ff0000; stroke: #ff0000"/>
     <use xlink:href="#m370bc69079" x="194.880572" y="113.680939" style="fill: #ff0000; stroke: #ff0000"/>
     <use xlink:href="#m370bc69079" x="194.61961" y="108.927996" style="fill: #ff0000; stroke: #ff0000"/>
     <use xlink:href="#m370bc69079" x="195.157257" y="102.09169" style="fill: #ff0000; stroke: #ff0000"/>
     <use xlink:href="#m370bc69079" x="193.733559" y="93.754924" style="fill: #ff0000; stroke: #ff0000"/>
     <use xlink:href="#m370bc69079" x="193.418852" y="87.00147" style="fill: #ff0000; stroke: #ff0000"/>
     <use xlink:href="#m370bc69079" x="197.283478" y="84.915102" style="fill: #ff0000; stroke: #ff0000"/>
     <use xlink:href="#m370bc69079" x="204.378778" y="84.726562" style="fill: #ff0000; stroke: #ff0000"/>
     <use xlink:href="#m370bc69079" x="213.756094" y="83.666592" style="fill: #ff0000; stroke: #ff0000"/>
    </g>
   </g>
   <g id="line2d_6">
    <path d="M 249.485061 89.078279 
L 257.720815 90.594229 
L 263.692811 91.175149 
L 267.88117 92.613082 
L 270.766011 96.70007 
L 272.158453 101.939373 
L 271.869616 106.834254 
L 269.033937 110.180479 
L 262.785855 110.773817 
L 255.840743 110.788751 
L 250.913971 112.399766 
L 247.400501 112.918337 
L 244.695294 109.655941 
L 242.684888 103.615251 
L 241.255824 95.798938 
L 242.743936 89.766711 
L 249.485061 89.078279 
L 257.720815 90.594229 
L 263.692811 91.175149 
" clip-path="url(#p1e79280ad4)" style="fill: none; stroke: #ff0000; stroke-width: 1.5; stroke-linecap: square"/>
    <g clip-path="url(#p1e79280ad4)">
     <use xlink:href="#m370bc69079" x="249.485061" y="89.078279" style="fill: #ff0000; stroke: #ff0000"/>
     <use xlink:href="#m370bc69079" x="257.720815" y="90.594229" style="fill: #ff0000; stroke: #ff0000"/>
     <use xlink:href="#m370bc69079" x="263.692811" y="91.175149" style="fill: #ff0000; stroke: #ff0000"/>
     <use xlink:href="#m370bc69079" x="267.88117" y="92.613082" style="fill: #ff0000; stroke: #ff0000"/>
     <use xlink:href="#m370bc69079" x="270.766011" y="96.70007" style="fill: #ff0000; stroke: #ff0000"/>
     <use xlink:href="#m370bc69079" x="272.158453" y="101.939373" style="fill: #ff0000; stroke: #ff0000"/>
     <use xlink:href="#m370bc69079" x="271.869616" y="106.834254" style="fill: #ff0000; stroke: #ff0000"/>
     <use xlink:href="#m370bc69079" x="269.033937" y="110.180479" style="fill: #ff0000; stroke: #ff0000"/>
     <use xlink:href="#m370bc69079" x="262.785855" y="110.773817" style="fill: #ff0000; stroke: #ff0000"/>
     <use xlink:href="#m370bc69079" x="255.840743" y="110.788751" style="fill: #ff0000; stroke: #ff0000"/>
     <use xlink:href="#m370bc69079" x="250.913971" y="112.399766" style="fill: #ff0000; stroke: #ff0000"/>
     <use xlink:href="#m370bc69079" x="247.400501" y="112.918337" style="fill: #ff0000; stroke: #ff0000"/>
     <use xlink:href="#m370bc69079" x="244.695294" y="109.655941" style="fill: #ff0000; stroke: #ff0000"/>
     <use xlink:href="#m370bc69079" x="242.684888" y="103.615251" style="fill: #ff0000; stroke: #ff0000"/>
     <use xlink:href="#m370bc69079" x="241.255824" y="95.798938" style="fill: #ff0000; stroke: #ff0000"/>
     <use xlink:href="#m370bc69079" x="242.743936" y="89.766711" style="fill: #ff0000; stroke: #ff0000"/>
     <use xlink:href="#m370bc69079" x="249.485061" y="89.078279" style="fill: #ff0000; stroke: #ff0000"/>
     <use xlink:href="#m370bc69079" x="257.720815" y="90.594229" style="fill: #ff0000; stroke: #ff0000"/>
     <use xlink:href="#m370bc69079" x="263.692811" y="91.175149" style="fill: #ff0000; stroke: #ff0000"/>
    </g>
   </g>
   <g id="line2d_7">
    <path d="M 157.519852 86.30084 
L 160.103519 85.989308 
L 162.656848 85.641647 
L 165.093518 85.353105 
L 167.327173 85.218939 
L 169.271475 85.334403 
L 170.840088 85.794748 
L 171.95849 86.686408 
L 172.65498 88.01906 
L 173.010815 89.762858 
L 173.107692 91.887625 
L 173.027301 94.36319 
L 172.851334 97.159379 
L 172.658695 100.243401 
L 172.464176 103.522261 
L 172.218459 106.84276 
L 171.869437 110.049084 
L 171.365006 112.985415 
L 170.653051 115.495937 
L 169.681638 117.425546 
L 168.419543 118.705083 
L 166.875756 119.432311 
L 165.06388 119.72417 
L 162.997527 119.697604 
L 160.690322 119.469554 
L 158.155856 119.15696 
L 155.42638 118.850813 
L 152.608646 118.538289 
L 149.828061 118.180616 
L 147.210005 117.739019 
L 144.879866 117.174723 
L 142.963044 116.448954 
L 141.569752 115.524486 
L 140.678123 114.377559 
L 140.198284 112.991351 
L 140.039805 111.349095 
L 140.112251 109.434026 
L 140.325186 107.229376 
L 140.591171 104.721723 
L 140.89165 101.974486 
L 141.276951 99.127934 
L 141.800397 96.325677 
L 142.515312 93.711323 
L 143.475013 91.428482 
L 144.732568 89.620093 
L 146.310021 88.347831 
L 148.169161 87.515556 
L 150.264846 87.008994 
L 152.551943 86.713871 
L 154.985329 86.51591 
L 157.519852 86.30084 
" clip-path="url(#p1e79280ad4)" style="fill: none; stroke: #008000; stroke-width: 1.5; stroke-linecap: square"/>
   </g>
   <g id="line2d_8">
    <path d="M 204.759118 84.581323 
L 207.4883 84.357134 
L 210.311493 84.164858 
L 213.089064 84.125632 
L 215.681335 84.360606 
L 217.948647 84.990923 
L 219.751353 86.137726 
L 220.967231 87.900746 
L 221.625818 90.193342 
L 221.834796 92.832911 
L 221.702508 95.636054 
L 221.337279 98.419376 
L 220.847441 100.99948 
L 220.337989 103.198589 
L 219.837241 104.968231 
L 219.296836 106.389229 
L 218.665078 107.548031 
L 217.890277 108.531084 
L 216.920726 109.424836 
L 215.70501 110.315394 
L 214.225479 111.247732 
L 212.530043 112.186938 
L 210.674138 113.08892 
L 208.713206 113.909589 
L 206.702714 114.604853 
L 204.69808 115.130621 
L 202.7536 115.448567 
L 200.918915 115.543415 
L 199.242546 115.405657 
L 197.772963 115.025782 
L 196.558662 114.394279 
L 195.648145 113.501638 
L 195.080136 112.340361 
L 194.808331 110.920458 
L 194.742653 109.260956 
L 194.792671 107.380954 
L 194.867944 105.299553 
L 194.878031 103.035855 
L 194.736475 100.610666 
L 194.44836 98.084063 
L 194.110316 95.555386 
L 193.822953 93.125684 
L 193.686884 90.896007 
L 193.802709 88.967403 
L 194.270695 87.440424 
L 195.149617 86.355182 
L 196.41765 85.63442 
L 198.043698 85.187397 
L 199.996676 84.92337 
L 202.24552 84.751591 
L 204.759118 84.581323 
" clip-path="url(#p1e79280ad4)" style="fill: none; stroke: #008000; stroke-width: 1.5; stroke-linecap: square"/>
   </g>
   <g id="line2d_9">
    <path d="M 257.343527 90.43839 
L 259.503486 90.735803 
L 261.447354 90.996191 
L 263.190901 91.278274 
L 264.749829 91.640775 
L 266.139871 92.142417 
L 267.376773 92.841919 
L 268.474725 93.790426 
L 269.434495 94.973132 
L 270.249947 96.341273 
L 270.914905 97.845802 
L 271.423174 99.437675 
L 271.768563 101.067848 
L 271.94442 102.687473 
L 271.933469 104.2523 
L 271.70781 105.722667 
L 271.239082 107.059114 
L 270.498928 108.222181 
L 269.458973 109.172408 
L 268.091161 109.870624 
L 266.40442 110.312541 
L 264.479476 110.561629 
L 262.405293 110.689142 
L 260.270849 110.766333 
L 258.16515 110.864456 
L 256.177138 111.054764 
L 254.377673 111.381953 
L 252.765045 111.784482 
L 251.319466 112.174255 
L 250.021079 112.463174 
L 248.850059 112.563141 
L 247.786593 112.386059 
L 246.811988 111.852335 
L 245.917399 110.956397 
L 245.099063 109.730785 
L 244.353277 108.208355 
L 243.676315 106.421962 
L 243.064457 104.404462 
L 242.515659 102.190456 
L 242.066331 99.854694 
L 241.791343 97.512075 
L 241.767236 95.279244 
L 242.070557 93.272845 
L 242.777835 91.609522 
L 243.965093 90.40535 
L 245.645434 89.707228 
L 247.709746 89.427721 
L 250.034861 89.463956 
L 252.497624 89.713062 
L 254.97491 90.072162 
L 257.343527 90.43839 
" clip-path="url(#p1e79280ad4)" style="fill: none; stroke: #008000; stroke-width: 1.5; stroke-linecap: square"/>
   </g>
   <g id="line2d_10">
    <path d="M 69.218182 110.000229 
L 69.272574 111.055602 
L 69.479715 112.091468 
L 69.834627 113.086784 
L 70.335668 114.037993 
L 71.358781 115.382031 
L 72.703878 116.626768 
L 74.365954 117.772408 
L 76.339334 118.819356 
L 78.61772 119.768236 
L 81.194233 120.619916 
L 84.06147 121.375538 
L 88.323008 122.236155 
L 93.067519 122.93298 
L 98.274087 123.471579 
L 103.920898 123.858831 
L 111.564114 124.142831 
L 119.814699 124.222823 
L 130.451745 124.082154 
L 143.772934 123.650723 
L 162.134747 122.802488 
L 220.847096 119.731758 
L 303.34087 115.042746 
L 336.807169 113.459966 
L 373.581818 111.938146 
L 373.581818 111.938146 
" clip-path="url(#p1e79280ad4)" style="fill: none; stroke: #000000; stroke-width: 1.5; stroke-linecap: square"/>
   </g>
   <g id="line2d_11">
    <path d="M 373.581818 111.938146 
L 359.588809 107.63991 
L 347.686075 104.214487 
L 335.085164 100.81314 
L 321.918378 97.497305 
L 309.037442 94.482632 
L 295.041943 91.459678 
L 282.282533 88.931795 
L 268.935871 86.52205 
L 255.12011 84.285152 
L 243.337915 82.590906 
L 231.390298 81.081649 
L 219.353499 79.784093 
L 207.305187 78.7226 
L 195.323937 77.918648 
L 185.757833 77.481136 
L 176.217244 77.296715 
L 166.851488 77.380022 
L 157.704436 77.728807 
L 148.819155 78.337384 
L 140.237535 79.196655 
L 131.999906 80.294227 
L 124.144679 81.614606 
L 116.708008 83.139472 
L 109.723495 84.848042 
L 103.221939 86.717516 
L 97.231142 88.72358 
L 91.775774 90.84097 
L 86.877289 93.044082 
L 83.579963 94.737411 
L 80.612699 96.454328 
L 77.980997 98.184898 
L 75.689378 99.91977 
L 73.74141 101.650307 
L 72.139735 103.368712 
L 70.886104 105.068137 
L 69.981403 106.742783 
L 69.425681 108.387975 
L 69.248736 109.466636 
L 69.218182 110.000229 
L 69.218182 110.000229 
" clip-path="url(#p1e79280ad4)" style="fill: none; stroke: #000000; stroke-width: 1.5; stroke-linecap: square"/>
   </g>
   <g id="patch_5">
    <path d="M 54 149.675294 
L 54 51.84 
" style="fill: none; stroke: #000000; stroke-width: 0.8; stroke-linejoin: miter; stroke-linecap: square"/>
   </g>
   <g id="text_4">
    <!-- group 1: No.1 - No.4 -->
    <g transform="translate(130.480313 45.84) scale(0.18 -0.18)">
     <defs>
      <path id="DejaVuSans-67" d="M 2906 1791 
Q 2906 2416 2648 2759 
Q 2391 3103 1925 3103 
Q 1463 3103 1205 2759 
Q 947 2416 947 1791 
Q 947 1169 1205 825 
Q 1463 481 1925 481 
Q 2391 481 2648 825 
Q 2906 1169 2906 1791 
z
M 3481 434 
Q 3481 -459 3084 -895 
Q 2688 -1331 1869 -1331 
Q 1566 -1331 1297 -1286 
Q 1028 -1241 775 -1147 
L 775 -588 
Q 1028 -725 1275 -790 
Q 1522 -856 1778 -856 
Q 2344 -856 2625 -561 
Q 2906 -266 2906 331 
L 2906 616 
Q 2728 306 2450 153 
Q 2172 0 1784 0 
Q 1141 0 747 490 
Q 353 981 353 1791 
Q 353 2603 747 3093 
Q 1141 3584 1784 3584 
Q 2172 3584 2450 3431 
Q 2728 3278 2906 2969 
L 2906 3500 
L 3481 3500 
L 3481 434 
z
" transform="scale(0.015625)"/>
      <path id="DejaVuSans-72" d="M 2631 2963 
Q 2534 3019 2420 3045 
Q 2306 3072 2169 3072 
Q 1681 3072 1420 2755 
Q 1159 2438 1159 1844 
L 1159 0 
L 581 0 
L 581 3500 
L 1159 3500 
L 1159 2956 
Q 1341 3275 1631 3429 
Q 1922 3584 2338 3584 
Q 2397 3584 2469 3576 
Q 2541 3569 2628 3553 
L 2631 2963 
z
" transform="scale(0.015625)"/>
      <path id="DejaVuSans-6f" d="M 1959 3097 
Q 1497 3097 1228 2736 
Q 959 2375 959 1747 
Q 959 1119 1226 758 
Q 1494 397 1959 397 
Q 2419 397 2687 759 
Q 2956 1122 2956 1747 
Q 2956 2369 2687 2733 
Q 2419 3097 1959 3097 
z
M 1959 3584 
Q 2709 3584 3137 3096 
Q 3566 2609 3566 1747 
Q 3566 888 3137 398 
Q 2709 -91 1959 -91 
Q 1206 -91 779 398 
Q 353 888 353 1747 
Q 353 2609 779 3096 
Q 1206 3584 1959 3584 
z
" transform="scale(0.015625)"/>
      <path id="DejaVuSans-75" d="M 544 1381 
L 544 3500 
L 1119 3500 
L 1119 1403 
Q 1119 906 1312 657 
Q 1506 409 1894 409 
Q 2359 409 2629 706 
Q 2900 1003 2900 1516 
L 2900 3500 
L 3475 3500 
L 3475 0 
L 2900 0 
L 2900 538 
Q 2691 219 2414 64 
Q 2138 -91 1772 -91 
Q 1169 -91 856 284 
Q 544 659 544 1381 
z
M 1991 3584 
L 1991 3584 
z
" transform="scale(0.015625)"/>
      <path id="DejaVuSans-70" d="M 1159 525 
L 1159 -1331 
L 581 -1331 
L 581 3500 
L 1159 3500 
L 1159 2969 
Q 1341 3281 1617 3432 
Q 1894 3584 2278 3584 
Q 2916 3584 3314 3078 
Q 3713 2572 3713 1747 
Q 3713 922 3314 415 
Q 2916 -91 2278 -91 
Q 1894 -91 1617 61 
Q 1341 213 1159 525 
z
M 3116 1747 
Q 3116 2381 2855 2742 
Q 2594 3103 2138 3103 
Q 1681 3103 1420 2742 
Q 1159 2381 1159 1747 
Q 1159 1113 1420 752 
Q 1681 391 2138 391 
Q 2594 391 2855 752 
Q 3116 1113 3116 1747 
z
" transform="scale(0.015625)"/>
      <path id="DejaVuSans-20" transform="scale(0.015625)"/>
      <path id="DejaVuSans-3a" d="M 750 794 
L 1409 794 
L 1409 0 
L 750 0 
L 750 794 
z
M 750 3309 
L 1409 3309 
L 1409 2516 
L 750 2516 
L 750 3309 
z
" transform="scale(0.015625)"/>
      <path id="DejaVuSans-4e" d="M 628 4666 
L 1478 4666 
L 3547 763 
L 3547 4666 
L 4159 4666 
L 4159 0 
L 3309 0 
L 1241 3903 
L 1241 0 
L 628 0 
L 628 4666 
z
" transform="scale(0.015625)"/>
      <path id="DejaVuSans-2d" d="M 313 2009 
L 1997 2009 
L 1997 1497 
L 313 1497 
L 313 2009 
z
" transform="scale(0.015625)"/>
      <path id="DejaVuSans-34" d="M 2419 4116 
L 825 1625 
L 2419 1625 
L 2419 4116 
z
M 2253 4666 
L 3047 4666 
L 3047 1625 
L 3713 1625 
L 3713 1100 
L 3047 1100 
L 3047 0 
L 2419 0 
L 2419 1100 
L 313 1100 
L 313 1709 
L 2253 4666 
z
" transform="scale(0.015625)"/>
     </defs>
     <use xlink:href="#DejaVuSans-67"/>
     <use xlink:href="#DejaVuSans-72" x="63.476562"/>
     <use xlink:href="#DejaVuSans-6f" x="102.339844"/>
     <use xlink:href="#DejaVuSans-75" x="163.521484"/>
     <use xlink:href="#DejaVuSans-70" x="226.900391"/>
     <use xlink:href="#DejaVuSans-20" x="290.376953"/>
     <use xlink:href="#DejaVuSans-31" x="322.164062"/>
     <use xlink:href="#DejaVuSans-3a" x="385.787109"/>
     <use xlink:href="#DejaVuSans-20" x="419.478516"/>
     <use xlink:href="#DejaVuSans-4e" x="451.265625"/>
     <use xlink:href="#DejaVuSans-6f" x="526.070312"/>
     <use xlink:href="#DejaVuSans-2e" x="585.501953"/>
     <use xlink:href="#DejaVuSans-31" x="617.289062"/>
     <use xlink:href="#DejaVuSans-20" x="680.912109"/>
     <use xlink:href="#DejaVuSans-2d" x="712.699219"/>
     <use xlink:href="#DejaVuSans-20" x="748.783203"/>
     <use xlink:href="#DejaVuSans-4e" x="780.570312"/>
     <use xlink:href="#DejaVuSans-6f" x="855.375"/>
     <use xlink:href="#DejaVuSans-2e" x="914.806641"/>
     <use xlink:href="#DejaVuSans-34" x="946.59375"/>
    </g>
   </g>
  </g>
  <g id="axes_2">
   <g id="patch_6">
    <path d="M 54 267.077647 
L 388.8 267.077647 
L 388.8 169.242353 
L 54 169.242353 
z
" style="fill: #ffffff"/>
   </g>
   <g id="patch_7">
    <path d="M 120.337153 209.434421 
L 120.337153 213.428527 
L 115.011679 213.428527 
L 115.011679 229.404951 
L 120.337153 229.404951 
L 120.337153 233.399057 
L 107.023467 233.399057 
L 107.023467 229.404951 
L 112.348941 229.404951 
L 112.348941 213.428527 
L 107.023467 213.428527 
L 107.023467 209.434421 
z
" clip-path="url(#p729ef59d82)" style="fill: #0000ff"/>
   </g>
   <g id="patch_8">
    <path d="M 294.091821 215.086281 
L 294.091821 216.912876 
L 291.656362 216.912876 
L 291.656362 224.219254 
L 294.091821 224.219254 
L 294.091821 226.045849 
L 288.003173 226.045849 
L 288.003173 224.219254 
L 290.438632 224.219254 
L 290.438632 216.912876 
L 288.003173 216.912876 
L 288.003173 215.086281 
z
" clip-path="url(#p729ef59d82)" style="fill: #0000ff"/>
   </g>
   <g id="matplotlib.axis_3"/>
   <g id="matplotlib.axis_4">
    <g id="ytick_4">
     <g id="line2d_12">
      <g>
       <use xlink:href="#m87af00a6cb" x="54" y="259.131313" style="stroke: #000000; stroke-width: 0.8"/>
      </g>
     </g>
     <g id="text_5">
      <!-- −0.1 -->
      <g transform="translate(22.717187 262.930532) scale(0.1 -0.1)">
       <use xlink:href="#DejaVuSans-2212"/>
       <use xlink:href="#DejaVuSans-30" x="83.789062"/>
       <use xlink:href="#DejaVuSans-2e" x="147.412109"/>
       <use xlink:href="#DejaVuSans-31" x="179.199219"/>
      </g>
     </g>
    </g>
    <g id="ytick_5">
     <g id="line2d_13">
      <g>
       <use xlink:href="#m87af00a6cb" x="54" y="228.979645" style="stroke: #000000; stroke-width: 0.8"/>
      </g>
     </g>
     <g id="text_6">
      <!-- 0.0 -->
      <g transform="translate(31.096875 232.778864) scale(0.1 -0.1)">
       <use xlink:href="#DejaVuSans-30"/>
       <use xlink:href="#DejaVuSans-2e" x="63.623047"/>
       <use xlink:href="#DejaVuSans-30" x="95.410156"/>
      </g>
     </g>
    </g>
    <g id="ytick_6">
     <g id="line2d_14">
      <g>
       <use xlink:href="#m87af00a6cb" x="54" y="198.827977" style="stroke: #000000; stroke-width: 0.8"/>
      </g>
     </g>
     <g id="text_7">
      <!-- 0.1 -->
      <g transform="translate(31.096875 202.627196) scale(0.1 -0.1)">
       <use xlink:href="#DejaVuSans-30"/>
       <use xlink:href="#DejaVuSans-2e" x="63.623047"/>
       <use xlink:href="#DejaVuSans-31" x="95.410156"/>
      </g>
     </g>
    </g>
   </g>
   <g id="line2d_15">
    <path d="M 148.444841 203.887544 
L 153.175959 203.411435 
L 160.994736 203.225859 
L 167.870447 205.186018 
L 169.772364 211.147117 
L 169.669947 218.681529 
L 170.532658 225.36163 
L 169.926689 231.009159 
L 165.418234 235.445857 
L 158.800657 237.465734 
L 151.867322 235.862797 
L 146.354764 232.093117 
L 143.999516 227.612765 
L 143.671401 221.702478 
L 144.240239 213.642997 
L 145.800047 206.637094 
L 148.444841 203.887544 
L 153.175959 203.411435 
L 160.994736 203.225859 
" clip-path="url(#p729ef59d82)" style="fill: none; stroke: #ff0000; stroke-width: 1.5; stroke-linecap: square"/>
    <g clip-path="url(#p729ef59d82)">
     <use xlink:href="#m370bc69079" x="148.444841" y="203.887544" style="fill: #ff0000; stroke: #ff0000"/>
     <use xlink:href="#m370bc69079" x="153.175959" y="203.411435" style="fill: #ff0000; stroke: #ff0000"/>
     <use xlink:href="#m370bc69079" x="160.994736" y="203.225859" style="fill: #ff0000; stroke: #ff0000"/>
     <use xlink:href="#m370bc69079" x="167.870447" y="205.186018" style="fill: #ff0000; stroke: #ff0000"/>
     <use xlink:href="#m370bc69079" x="169.772364" y="211.147117" style="fill: #ff0000; stroke: #ff0000"/>
     <use xlink:href="#m370bc69079" x="169.669947" y="218.681529" style="fill: #ff0000; stroke: #ff0000"/>
     <use xlink:href="#m370bc69079" x="170.532658" y="225.36163" style="fill: #ff0000; stroke: #ff0000"/>
     <use xlink:href="#m370bc69079" x="169.926689" y="231.009159" style="fill: #ff0000; stroke: #ff0000"/>
     <use xlink:href="#m370bc69079" x="165.418234" y="235.445857" style="fill: #ff0000; stroke: #ff0000"/>
     <use xlink:href="#m370bc69079" x="158.800657" y="237.465734" style="fill: #ff0000; stroke: #ff0000"/>
     <use xlink:href="#m370bc69079" x="151.867322" y="235.862797" style="fill: #ff0000; stroke: #ff0000"/>
     <use xlink:href="#m370bc69079" x="146.354764" y="232.093117" style="fill: #ff0000; stroke: #ff0000"/>
     <use xlink:href="#m370bc69079" x="143.999516" y="227.612765" style="fill: #ff0000; stroke: #ff0000"/>
     <use xlink:href="#m370bc69079" x="143.671401" y="221.702478" style="fill: #ff0000; stroke: #ff0000"/>
     <use xlink:href="#m370bc69079" x="144.240239" y="213.642997" style="fill: #ff0000; stroke: #ff0000"/>
     <use xlink:href="#m370bc69079" x="145.800047" y="206.637094" style="fill: #ff0000; stroke: #ff0000"/>
     <use xlink:href="#m370bc69079" x="148.444841" y="203.887544" style="fill: #ff0000; stroke: #ff0000"/>
     <use xlink:href="#m370bc69079" x="153.175959" y="203.411435" style="fill: #ff0000; stroke: #ff0000"/>
     <use xlink:href="#m370bc69079" x="160.994736" y="203.225859" style="fill: #ff0000; stroke: #ff0000"/>
    </g>
   </g>
   <g id="line2d_16">
    <path d="M 200.608405 206.196592 
L 205.2943 206.631135 
L 209.866777 207.118734 
L 213.332692 208.40782 
L 214.698898 211.246821 
L 215.373432 215.835872 
L 216.764331 222.375105 
L 216.993138 227.276575 
L 214.181394 226.952337 
L 209.657319 225.057105 
L 204.749134 225.245596 
L 200.755933 224.930967 
L 198.97681 221.526374 
L 198.167882 216.465666 
L 197.085264 211.182689 
L 197.356318 207.239109 
L 200.608405 206.196592 
L 205.2943 206.631135 
L 209.866777 207.118734 
" clip-path="url(#p729ef59d82)" style="fill: none; stroke: #ff0000; stroke-width: 1.5; stroke-linecap: square"/>
    <g clip-path="url(#p729ef59d82)">
     <use xlink:href="#m370bc69079" x="200.608405" y="206.196592" style="fill: #ff0000; stroke: #ff0000"/>
     <use xlink:href="#m370bc69079" x="205.2943" y="206.631135" style="fill: #ff0000; stroke: #ff0000"/>
     <use xlink:href="#m370bc69079" x="209.866777" y="207.118734" style="fill: #ff0000; stroke: #ff0000"/>
     <use xlink:href="#m370bc69079" x="213.332692" y="208.40782" style="fill: #ff0000; stroke: #ff0000"/>
     <use xlink:href="#m370bc69079" x="214.698898" y="211.246821" style="fill: #ff0000; stroke: #ff0000"/>
     <use xlink:href="#m370bc69079" x="215.373432" y="215.835872" style="fill: #ff0000; stroke: #ff0000"/>
     <use xlink:href="#m370bc69079" x="216.764331" y="222.375105" style="fill: #ff0000; stroke: #ff0000"/>
     <use xlink:href="#m370bc69079" x="216.993138" y="227.276575" style="fill: #ff0000; stroke: #ff0000"/>
     <use xlink:href="#m370bc69079" x="214.181394" y="226.952337" style="fill: #ff0000; stroke: #ff0000"/>
     <use xlink:href="#m370bc69079" x="209.657319" y="225.057105" style="fill: #ff0000; stroke: #ff0000"/>
     <use xlink:href="#m370bc69079" x="204.749134" y="225.245596" style="fill: #ff0000; stroke: #ff0000"/>
     <use xlink:href="#m370bc69079" x="200.755933" y="224.930967" style="fill: #ff0000; stroke: #ff0000"/>
     <use xlink:href="#m370bc69079" x="198.97681" y="221.526374" style="fill: #ff0000; stroke: #ff0000"/>
     <use xlink:href="#m370bc69079" x="198.167882" y="216.465666" style="fill: #ff0000; stroke: #ff0000"/>
     <use xlink:href="#m370bc69079" x="197.085264" y="211.182689" style="fill: #ff0000; stroke: #ff0000"/>
     <use xlink:href="#m370bc69079" x="197.356318" y="207.239109" style="fill: #ff0000; stroke: #ff0000"/>
     <use xlink:href="#m370bc69079" x="200.608405" y="206.196592" style="fill: #ff0000; stroke: #ff0000"/>
     <use xlink:href="#m370bc69079" x="205.2943" y="206.631135" style="fill: #ff0000; stroke: #ff0000"/>
     <use xlink:href="#m370bc69079" x="209.866777" y="207.118734" style="fill: #ff0000; stroke: #ff0000"/>
    </g>
   </g>
   <g id="line2d_17">
    <path d="M 249.986414 207.51124 
L 254.594166 206.861327 
L 260.62839 207.681794 
L 266.068591 209.86759 
L 268.894277 213.313662 
L 270.192724 217.74248 
L 271.051208 222.876514 
L 269.78165 227.503325 
L 264.695968 230.410473 
L 257.572958 231.726763 
L 250.191418 231.580999 
L 244.645151 228.95627 
L 243.027964 222.835663 
L 243.628051 216.175408 
L 244.733607 211.931731 
L 246.725954 209.308914 
L 249.986414 207.51124 
L 254.594166 206.861327 
L 260.62839 207.681794 
" clip-path="url(#p729ef59d82)" style="fill: none; stroke: #ff0000; stroke-width: 1.5; stroke-linecap: square"/>
    <g clip-path="url(#p729ef59d82)">
     <use xlink:href="#m370bc69079" x="249.986414" y="207.51124" style="fill: #ff0000; stroke: #ff0000"/>
     <use xlink:href="#m370bc69079" x="254.594166" y="206.861327" style="fill: #ff0000; stroke: #ff0000"/>
     <use xlink:href="#m370bc69079" x="260.62839" y="207.681794" style="fill: #ff0000; stroke: #ff0000"/>
     <use xlink:href="#m370bc69079" x="266.068591" y="209.86759" style="fill: #ff0000; stroke: #ff0000"/>
     <use xlink:href="#m370bc69079" x="268.894277" y="213.313662" style="fill: #ff0000; stroke: #ff0000"/>
     <use xlink:href="#m370bc69079" x="270.192724" y="217.74248" style="fill: #ff0000; stroke: #ff0000"/>
     <use xlink:href="#m370bc69079" x="271.051208" y="222.876514" style="fill: #ff0000; stroke: #ff0000"/>
     <use xlink:href="#m370bc69079" x="269.78165" y="227.503325" style="fill: #ff0000; stroke: #ff0000"/>
     <use xlink:href="#m370bc69079" x="264.695968" y="230.410473" style="fill: #ff0000; stroke: #ff0000"/>
     <use xlink:href="#m370bc69079" x="257.572958" y="231.726763" style="fill: #ff0000; stroke: #ff0000"/>
     <use xlink:href="#m370bc69079" x="250.191418" y="231.580999" style="fill: #ff0000; stroke: #ff0000"/>
     <use xlink:href="#m370bc69079" x="244.645151" y="228.95627" style="fill: #ff0000; stroke: #ff0000"/>
     <use xlink:href="#m370bc69079" x="243.027964" y="222.835663" style="fill: #ff0000; stroke: #ff0000"/>
     <use xlink:href="#m370bc69079" x="243.628051" y="216.175408" style="fill: #ff0000; stroke: #ff0000"/>
     <use xlink:href="#m370bc69079" x="244.733607" y="211.931731" style="fill: #ff0000; stroke: #ff0000"/>
     <use xlink:href="#m370bc69079" x="246.725954" y="209.308914" style="fill: #ff0000; stroke: #ff0000"/>
     <use xlink:href="#m370bc69079" x="249.986414" y="207.51124" style="fill: #ff0000; stroke: #ff0000"/>
     <use xlink:href="#m370bc69079" x="254.594166" y="206.861327" style="fill: #ff0000; stroke: #ff0000"/>
     <use xlink:href="#m370bc69079" x="260.62839" y="207.681794" style="fill: #ff0000; stroke: #ff0000"/>
    </g>
   </g>
   <g id="line2d_18">
    <path d="M 153.690571 203.459856 
L 155.83463 203.378994 
L 158.162779 203.388675 
L 160.542958 203.549686 
L 162.843073 203.922823 
L 164.931045 204.568877 
L 166.674802 205.548637 
L 167.958393 206.913026 
L 168.806241 208.627086 
L 169.31505 210.611633 
L 169.58213 212.787117 
L 169.704781 215.07399 
L 169.780306 217.392705 
L 169.902319 219.665248 
L 170.079596 221.848925 
L 170.236074 223.936358 
L 170.292005 225.921707 
L 170.16764 227.799129 
L 169.783222 229.562785 
L 169.059361 231.206745 
L 167.960319 232.714469 
L 166.535121 234.048806 
L 164.842526 235.170239 
L 162.941299 236.039249 
L 160.890219 236.61632 
L 158.748034 236.861932 
L 156.573205 236.751106 
L 154.422939 236.317016 
L 152.354155 235.607377 
L 150.423743 234.669898 
L 148.688604 233.552293 
L 147.205648 232.302275 
L 146.025173 230.962543 
L 145.139984 229.532177 
L 144.513293 227.987792 
L 144.108071 226.305821 
L 143.887281 224.462693 
L 143.813889 222.434841 
L 143.851697 220.201374 
L 143.983729 217.802981 
L 144.21223 215.341933 
L 144.54028 212.923179 
L 144.970965 210.651666 
L 145.507357 208.632344 
L 146.152618 206.96972 
L 146.919277 205.714753 
L 147.838056 204.814416 
L 148.941761 204.203735 
L 150.263203 203.817733 
L 151.835208 203.59143 
L 153.690571 203.459856 
" clip-path="url(#p729ef59d82)" style="fill: none; stroke: #008000; stroke-width: 1.5; stroke-linecap: square"/>
   </g>
   <g id="line2d_19">
    <path d="M 205.275401 206.639977 
L 206.745511 206.794323 
L 208.171452 206.978629 
L 209.52071 207.217414 
L 210.760717 207.535207 
L 211.858931 207.956532 
L 212.782818 208.505912 
L 213.505368 209.206608 
L 214.047714 210.070888 
L 214.455787 211.105356 
L 214.775736 212.316569 
L 215.053696 213.711086 
L 215.335802 215.295465 
L 215.66595 217.073677 
L 216.036433 218.990218 
L 216.38794 220.930103 
L 216.658921 222.775762 
L 216.787826 224.409624 
L 216.713093 225.714122 
L 216.373442 226.572303 
L 215.740713 226.941997 
L 214.85104 226.926276 
L 213.747935 226.644897 
L 212.474922 226.217618 
L 211.075547 225.764197 
L 209.593305 225.404392 
L 208.071572 225.223872 
L 206.553065 225.171961 
L 205.080379 225.16389 
L 203.69606 225.114897 
L 202.442678 224.940213 
L 201.36281 224.555075 
L 200.493167 223.883979 
L 199.819456 222.932052 
L 199.301134 221.745936 
L 198.897449 220.372614 
L 198.567638 218.859071 
L 198.270939 217.252292 
L 197.968553 215.599347 
L 197.666764 213.949315 
L 197.416935 212.353283 
L 197.272395 210.862422 
L 197.286473 209.527904 
L 197.512485 208.400903 
L 198.003487 207.532338 
L 198.779762 206.942296 
L 199.797924 206.590995 
L 201.007265 206.431775 
L 202.357084 206.417975 
L 203.796705 206.502927 
L 205.275401 206.639977 
" clip-path="url(#p729ef59d82)" style="fill: none; stroke: #008000; stroke-width: 1.5; stroke-linecap: square"/>
   </g>
   <g id="line2d_20">
    <path d="M 254.831917 207.10639 
L 256.596635 207.208388 
L 258.441201 207.457513 
L 260.299446 207.850317 
L 262.105131 208.383362 
L 263.792048 209.053205 
L 265.294005 209.856403 
L 266.551953 210.789116 
L 267.569157 211.844047 
L 268.380976 213.012115 
L 269.023054 214.284226 
L 269.53101 215.651287 
L 269.940471 217.104203 
L 270.28517 218.633243 
L 270.555263 220.213993 
L 270.69733 221.807364 
L 270.656059 223.373626 
L 270.37614 224.87305 
L 269.802244 226.265906 
L 268.879356 227.512581 
L 267.588262 228.587307 
L 265.979263 229.491216 
L 264.110631 230.228528 
L 262.040655 230.803463 
L 259.827653 231.220243 
L 257.529875 231.483088 
L 255.207346 231.589961 
L 252.926939 231.513798 
L 250.757301 231.221276 
L 248.76701 230.679073 
L 247.024678 229.853868 
L 245.598927 228.712337 
L 244.549598 227.230313 
L 243.860209 225.463303 
L 243.47499 223.507837 
L 243.337862 221.460784 
L 243.392725 219.419015 
L 243.583486 217.479399 
L 243.85548 215.736245 
L 244.18691 214.22495 
L 244.588841 212.922002 
L 245.073771 211.801326 
L 245.654201 210.836848 
L 246.342613 210.002494 
L 247.151479 209.272287 
L 248.090158 208.631793 
L 249.16194 208.089007 
L 250.369408 207.654503 
L 251.715154 207.338852 
L 253.201804 207.152623 
L 254.831917 207.10639 
" clip-path="url(#p729ef59d82)" style="fill: none; stroke: #008000; stroke-width: 1.5; stroke-linecap: square"/>
   </g>
   <g id="line2d_21">
    <path d="M 69.218182 227.402582 
L 69.272574 228.457955 
L 69.479715 229.493821 
L 69.834627 230.489137 
L 70.335668 231.440346 
L 71.358781 232.784384 
L 72.703878 234.029121 
L 74.365954 235.174761 
L 76.339334 236.221709 
L 78.61772 237.170588 
L 81.194233 238.022269 
L 84.06147 238.77789 
L 88.323008 239.638508 
L 93.067519 240.335333 
L 98.274087 240.873932 
L 103.920898 241.261184 
L 111.564114 241.545184 
L 119.814699 241.625176 
L 130.451745 241.484507 
L 143.772934 241.053076 
L 162.134747 240.20484 
L 220.847096 237.134111 
L 303.34087 232.445099 
L 336.807169 230.862319 
L 373.581818 229.340499 
L 373.581818 229.340499 
" clip-path="url(#p729ef59d82)" style="fill: none; stroke: #000000; stroke-width: 1.5; stroke-linecap: square"/>
   </g>
   <g id="line2d_22">
    <path d="M 373.581818 229.340499 
L 359.588809 225.042263 
L 347.686075 221.61684 
L 335.085164 218.215493 
L 321.918378 214.899658 
L 309.037442 211.884985 
L 295.041943 208.862031 
L 282.282533 206.334148 
L 268.935871 203.924403 
L 255.12011 201.687505 
L 243.337915 199.993258 
L 231.390298 198.484002 
L 219.353499 197.186446 
L 207.305187 196.124953 
L 195.323937 195.321001 
L 185.757833 194.883489 
L 176.217244 194.699068 
L 166.851488 194.782375 
L 157.704436 195.13116 
L 148.819155 195.739737 
L 140.237535 196.599007 
L 131.999906 197.69658 
L 124.144679 199.016959 
L 116.708008 200.541824 
L 109.723495 202.250395 
L 103.221939 204.119869 
L 97.231142 206.125932 
L 91.775774 208.243323 
L 86.877289 210.446435 
L 83.579963 212.139764 
L 80.612699 213.856681 
L 77.980997 215.587251 
L 75.689378 217.322123 
L 73.74141 219.05266 
L 72.139735 220.771065 
L 70.886104 222.47049 
L 69.981403 224.145136 
L 69.425681 225.790328 
L 69.248736 226.868989 
L 69.218182 227.402582 
L 69.218182 227.402582 
" clip-path="url(#p729ef59d82)" style="fill: none; stroke: #000000; stroke-width: 1.5; stroke-linecap: square"/>
   </g>
   <g id="patch_9">
    <path d="M 54 267.077647 
L 54 169.242353 
" style="fill: none; stroke: #000000; stroke-width: 0.8; stroke-linejoin: miter; stroke-linecap: square"/>
   </g>
   <g id="text_8">
    <!-- group 2: No.5 - No.7 -->
    <g transform="translate(130.480313 163.242353) scale(0.18 -0.18)">
     <defs>
      <path id="DejaVuSans-32" d="M 1228 531 
L 3431 531 
L 3431 0 
L 469 0 
L 469 531 
Q 828 903 1448 1529 
Q 2069 2156 2228 2338 
Q 2531 2678 2651 2914 
Q 2772 3150 2772 3378 
Q 2772 3750 2511 3984 
Q 2250 4219 1831 4219 
Q 1534 4219 1204 4116 
Q 875 4013 500 3803 
L 500 4441 
Q 881 4594 1212 4672 
Q 1544 4750 1819 4750 
Q 2544 4750 2975 4387 
Q 3406 4025 3406 3419 
Q 3406 3131 3298 2873 
Q 3191 2616 2906 2266 
Q 2828 2175 2409 1742 
Q 1991 1309 1228 531 
z
" transform="scale(0.015625)"/>
      <path id="DejaVuSans-35" d="M 691 4666 
L 3169 4666 
L 3169 4134 
L 1269 4134 
L 1269 2991 
Q 1406 3038 1543 3061 
Q 1681 3084 1819 3084 
Q 2600 3084 3056 2656 
Q 3513 2228 3513 1497 
Q 3513 744 3044 326 
Q 2575 -91 1722 -91 
Q 1428 -91 1123 -41 
Q 819 9 494 109 
L 494 744 
Q 775 591 1075 516 
Q 1375 441 1709 441 
Q 2250 441 2565 725 
Q 2881 1009 2881 1497 
Q 2881 1984 2565 2268 
Q 2250 2553 1709 2553 
Q 1456 2553 1204 2497 
Q 953 2441 691 2322 
L 691 4666 
z
" transform="scale(0.015625)"/>
      <path id="DejaVuSans-37" d="M 525 4666 
L 3525 4666 
L 3525 4397 
L 1831 0 
L 1172 0 
L 2766 4134 
L 525 4134 
L 525 4666 
z
" transform="scale(0.015625)"/>
     </defs>
     <use xlink:href="#DejaVuSans-67"/>
     <use xlink:href="#DejaVuSans-72" x="63.476562"/>
     <use xlink:href="#DejaVuSans-6f" x="102.339844"/>
     <use xlink:href="#DejaVuSans-75" x="163.521484"/>
     <use xlink:href="#DejaVuSans-70" x="226.900391"/>
     <use xlink:href="#DejaVuSans-20" x="290.376953"/>
     <use xlink:href="#DejaVuSans-32" x="322.164062"/>
     <use xlink:href="#DejaVuSans-3a" x="385.787109"/>
     <use xlink:href="#DejaVuSans-20" x="419.478516"/>
     <use xlink:href="#DejaVuSans-4e" x="451.265625"/>
     <use xlink:href="#DejaVuSans-6f" x="526.070312"/>
     <use xlink:href="#DejaVuSans-2e" x="585.501953"/>
     <use xlink:href="#DejaVuSans-35" x="617.289062"/>
     <use xlink:href="#DejaVuSans-20" x="680.912109"/>
     <use xlink:href="#DejaVuSans-2d" x="712.699219"/>
     <use xlink:href="#DejaVuSans-20" x="748.783203"/>
     <use xlink:href="#DejaVuSans-4e" x="780.570312"/>
     <use xlink:href="#DejaVuSans-6f" x="855.375"/>
     <use xlink:href="#DejaVuSans-2e" x="914.806641"/>
     <use xlink:href="#DejaVuSans-37" x="946.59375"/>
    </g>
   </g>
  </g>
  <g id="axes_3">
   <g id="patch_10">
    <path d="M 54 384.48 
L 388.8 384.48 
L 388.8 286.644706 
L 54 286.644706 
z
" style="fill: #ffffff"/>
   </g>
   <g id="patch_11">
    <path d="M 120.337153 326.836774 
L 120.337153 330.83088 
L 115.011679 330.83088 
L 115.011679 346.807304 
L 120.337153 346.807304 
L 120.337153 350.80141 
L 107.023467 350.80141 
L 107.023467 346.807304 
L 112.348941 346.807304 
L 112.348941 330.83088 
L 107.023467 330.83088 
L 107.023467 326.836774 
z
" clip-path="url(#p2cd90c3815)" style="fill: #0000ff"/>
   </g>
   <g id="patch_12">
    <path d="M 294.091821 332.488634 
L 294.091821 334.315229 
L 291.656362 334.315229 
L 291.656362 341.621607 
L 294.091821 341.621607 
L 294.091821 343.448202 
L 288.003173 343.448202 
L 288.003173 341.621607 
L 290.438632 341.621607 
L 290.438632 334.315229 
L 288.003173 334.315229 
L 288.003173 332.488634 
z
" clip-path="url(#p2cd90c3815)" style="fill: #0000ff"/>
   </g>
   <g id="matplotlib.axis_5">
    <g id="xtick_1">
     <g id="line2d_23">
      <defs>
       <path id="m5a7bd2e4ca" d="M 0 0 
L 0 3.5 
" style="stroke: #000000; stroke-width: 0.8"/>
      </defs>
      <g>
       <use xlink:href="#m5a7bd2e4ca" x="69.357358" y="384.48" style="stroke: #000000; stroke-width: 0.8"/>
      </g>
     </g>
     <g id="text_9">
      <!-- 0.0 -->
      <g transform="translate(61.405796 399.078438) scale(0.1 -0.1)">
       <use xlink:href="#DejaVuSans-30"/>
       <use xlink:href="#DejaVuSans-2e" x="63.623047"/>
       <use xlink:href="#DejaVuSans-30" x="95.410156"/>
      </g>
     </g>
    </g>
    <g id="xtick_2">
     <g id="line2d_24">
      <g>
       <use xlink:href="#m5a7bd2e4ca" x="129.660694" y="384.48" style="stroke: #000000; stroke-width: 0.8"/>
      </g>
     </g>
     <g id="text_10">
      <!-- 0.2 -->
      <g transform="translate(121.709132 399.078438) scale(0.1 -0.1)">
       <use xlink:href="#DejaVuSans-30"/>
       <use xlink:href="#DejaVuSans-2e" x="63.623047"/>
       <use xlink:href="#DejaVuSans-32" x="95.410156"/>
      </g>
     </g>
    </g>
    <g id="xtick_3">
     <g id="line2d_25">
      <g>
       <use xlink:href="#m5a7bd2e4ca" x="189.96403" y="384.48" style="stroke: #000000; stroke-width: 0.8"/>
      </g>
     </g>
     <g id="text_11">
      <!-- 0.4 -->
      <g transform="translate(182.012468 399.078438) scale(0.1 -0.1)">
       <use xlink:href="#DejaVuSans-30"/>
       <use xlink:href="#DejaVuSans-2e" x="63.623047"/>
       <use xlink:href="#DejaVuSans-34" x="95.410156"/>
      </g>
     </g>
    </g>
    <g id="xtick_4">
     <g id="line2d_26">
      <g>
       <use xlink:href="#m5a7bd2e4ca" x="250.267366" y="384.48" style="stroke: #000000; stroke-width: 0.8"/>
      </g>
     </g>
     <g id="text_12">
      <!-- 0.6 -->
      <g transform="translate(242.315803 399.078438) scale(0.1 -0.1)">
       <defs>
        <path id="DejaVuSans-36" d="M 2113 2584 
Q 1688 2584 1439 2293 
Q 1191 2003 1191 1497 
Q 1191 994 1439 701 
Q 1688 409 2113 409 
Q 2538 409 2786 701 
Q 3034 994 3034 1497 
Q 3034 2003 2786 2293 
Q 2538 2584 2113 2584 
z
M 3366 4563 
L 3366 3988 
Q 3128 4100 2886 4159 
Q 2644 4219 2406 4219 
Q 1781 4219 1451 3797 
Q 1122 3375 1075 2522 
Q 1259 2794 1537 2939 
Q 1816 3084 2150 3084 
Q 2853 3084 3261 2657 
Q 3669 2231 3669 1497 
Q 3669 778 3244 343 
Q 2819 -91 2113 -91 
Q 1303 -91 875 529 
Q 447 1150 447 2328 
Q 447 3434 972 4092 
Q 1497 4750 2381 4750 
Q 2619 4750 2861 4703 
Q 3103 4656 3366 4563 
z
" transform="scale(0.015625)"/>
       </defs>
       <use xlink:href="#DejaVuSans-30"/>
       <use xlink:href="#DejaVuSans-2e" x="63.623047"/>
       <use xlink:href="#DejaVuSans-36" x="95.410156"/>
      </g>
     </g>
    </g>
    <g id="xtick_5">
     <g id="line2d_27">
      <g>
       <use xlink:href="#m5a7bd2e4ca" x="310.570702" y="384.48" style="stroke: #000000; stroke-width: 0.8"/>
      </g>
     </g>
     <g id="text_13">
      <!-- 0.8 -->
      <g transform="translate(302.619139 399.078438) scale(0.1 -0.1)">
       <defs>
        <path id="DejaVuSans-38" d="M 2034 2216 
Q 1584 2216 1326 1975 
Q 1069 1734 1069 1313 
Q 1069 891 1326 650 
Q 1584 409 2034 409 
Q 2484 409 2743 651 
Q 3003 894 3003 1313 
Q 3003 1734 2745 1975 
Q 2488 2216 2034 2216 
z
M 1403 2484 
Q 997 2584 770 2862 
Q 544 3141 544 3541 
Q 544 4100 942 4425 
Q 1341 4750 2034 4750 
Q 2731 4750 3128 4425 
Q 3525 4100 3525 3541 
Q 3525 3141 3298 2862 
Q 3072 2584 2669 2484 
Q 3125 2378 3379 2068 
Q 3634 1759 3634 1313 
Q 3634 634 3220 271 
Q 2806 -91 2034 -91 
Q 1263 -91 848 271 
Q 434 634 434 1313 
Q 434 1759 690 2068 
Q 947 2378 1403 2484 
z
M 1172 3481 
Q 1172 3119 1398 2916 
Q 1625 2713 2034 2713 
Q 2441 2713 2670 2916 
Q 2900 3119 2900 3481 
Q 2900 3844 2670 4047 
Q 2441 4250 2034 4250 
Q 1625 4250 1398 4047 
Q 1172 3844 1172 3481 
z
" transform="scale(0.015625)"/>
       </defs>
       <use xlink:href="#DejaVuSans-30"/>
       <use xlink:href="#DejaVuSans-2e" x="63.623047"/>
       <use xlink:href="#DejaVuSans-38" x="95.410156"/>
      </g>
     </g>
    </g>
    <g id="xtick_6">
     <g id="line2d_28">
      <g>
       <use xlink:href="#m5a7bd2e4ca" x="370.874038" y="384.48" style="stroke: #000000; stroke-width: 0.8"/>
      </g>
     </g>
     <g id="text_14">
      <!-- 1.0 -->
      <g transform="translate(362.922475 399.078438) scale(0.1 -0.1)">
       <use xlink:href="#DejaVuSans-31"/>
       <use xlink:href="#DejaVuSans-2e" x="63.623047"/>
       <use xlink:href="#DejaVuSans-30" x="95.410156"/>
      </g>
     </g>
    </g>
   </g>
   <g id="matplotlib.axis_6">
    <g id="ytick_7">
     <g id="line2d_29">
      <g>
       <use xlink:href="#m87af00a6cb" x="54" y="376.533666" style="stroke: #000000; stroke-width: 0.8"/>
      </g>
     </g>
     <g id="text_15">
      <!-- −0.1 -->
      <g transform="translate(22.717187 380.332885) scale(0.1 -0.1)">
       <use xlink:href="#DejaVuSans-2212"/>
       <use xlink:href="#DejaVuSans-30" x="83.789062"/>
       <use xlink:href="#DejaVuSans-2e" x="147.412109"/>
       <use xlink:href="#DejaVuSans-31" x="179.199219"/>
      </g>
     </g>
    </g>
    <g id="ytick_8">
     <g id="line2d_30">
      <g>
       <use xlink:href="#m87af00a6cb" x="54" y="346.381998" style="stroke: #000000; stroke-width: 0.8"/>
      </g>
     </g>
     <g id="text_16">
      <!-- 0.0 -->
      <g transform="translate(31.096875 350.181217) scale(0.1 -0.1)">
       <use xlink:href="#DejaVuSans-30"/>
       <use xlink:href="#DejaVuSans-2e" x="63.623047"/>
       <use xlink:href="#DejaVuSans-30" x="95.410156"/>
      </g>
     </g>
    </g>
    <g id="ytick_9">
     <g id="line2d_31">
      <g>
       <use xlink:href="#m87af00a6cb" x="54" y="316.23033" style="stroke: #000000; stroke-width: 0.8"/>
      </g>
     </g>
     <g id="text_17">
      <!-- 0.1 -->
      <g transform="translate(31.096875 320.029549) scale(0.1 -0.1)">
       <use xlink:href="#DejaVuSans-30"/>
       <use xlink:href="#DejaVuSans-2e" x="63.623047"/>
       <use xlink:href="#DejaVuSans-31" x="95.410156"/>
      </g>
     </g>
    </g>
   </g>
   <g id="line2d_32">
    <path d="M 152.374079 322.457889 
L 158.277401 323.011111 
L 163.780716 321.38372 
L 167.528314 321.451983 
L 168.164483 327.092169 
L 167.790735 334.759195 
L 168.508581 340.907978 
L 168.085275 344.936018 
L 164.288071 346.240812 
L 158.61095 346.838287 
L 152.547891 348.744369 
L 147.822608 347.949616 
L 146.158813 340.444584 
L 146.089648 331.203199 
L 146.148257 325.199387 
L 147.765961 322.321499 
L 152.374079 322.457889 
L 158.277401 323.011111 
L 163.780716 321.38372 
" clip-path="url(#p2cd90c3815)" style="fill: none; stroke: #ff0000; stroke-width: 1.5; stroke-linecap: square"/>
    <g clip-path="url(#p2cd90c3815)">
     <use xlink:href="#m370bc69079" x="152.374079" y="322.457889" style="fill: #ff0000; stroke: #ff0000"/>
     <use xlink:href="#m370bc69079" x="158.277401" y="323.011111" style="fill: #ff0000; stroke: #ff0000"/>
     <use xlink:href="#m370bc69079" x="163.780716" y="321.38372" style="fill: #ff0000; stroke: #ff0000"/>
     <use xlink:href="#m370bc69079" x="167.528314" y="321.451983" style="fill: #ff0000; stroke: #ff0000"/>
     <use xlink:href="#m370bc69079" x="168.164483" y="327.092169" style="fill: #ff0000; stroke: #ff0000"/>
     <use xlink:href="#m370bc69079" x="167.790735" y="334.759195" style="fill: #ff0000; stroke: #ff0000"/>
     <use xlink:href="#m370bc69079" x="168.508581" y="340.907978" style="fill: #ff0000; stroke: #ff0000"/>
     <use xlink:href="#m370bc69079" x="168.085275" y="344.936018" style="fill: #ff0000; stroke: #ff0000"/>
     <use xlink:href="#m370bc69079" x="164.288071" y="346.240812" style="fill: #ff0000; stroke: #ff0000"/>
     <use xlink:href="#m370bc69079" x="158.61095" y="346.838287" style="fill: #ff0000; stroke: #ff0000"/>
     <use xlink:href="#m370bc69079" x="152.547891" y="348.744369" style="fill: #ff0000; stroke: #ff0000"/>
     <use xlink:href="#m370bc69079" x="147.822608" y="347.949616" style="fill: #ff0000; stroke: #ff0000"/>
     <use xlink:href="#m370bc69079" x="146.158813" y="340.444584" style="fill: #ff0000; stroke: #ff0000"/>
     <use xlink:href="#m370bc69079" x="146.089648" y="331.203199" style="fill: #ff0000; stroke: #ff0000"/>
     <use xlink:href="#m370bc69079" x="146.148257" y="325.199387" style="fill: #ff0000; stroke: #ff0000"/>
     <use xlink:href="#m370bc69079" x="147.765961" y="322.321499" style="fill: #ff0000; stroke: #ff0000"/>
     <use xlink:href="#m370bc69079" x="152.374079" y="322.457889" style="fill: #ff0000; stroke: #ff0000"/>
     <use xlink:href="#m370bc69079" x="158.277401" y="323.011111" style="fill: #ff0000; stroke: #ff0000"/>
     <use xlink:href="#m370bc69079" x="163.780716" y="321.38372" style="fill: #ff0000; stroke: #ff0000"/>
    </g>
   </g>
   <g id="line2d_33">
    <path d="M 200.520402 322.3 
L 207.566137 321.479615 
L 212.976636 320.811361 
L 216.44622 322.299955 
L 217.66921 327.950114 
L 217.715814 335.05842 
L 217.656242 340.921454 
L 216.296953 344.813931 
L 212.444407 346.010564 
L 207.074428 346.568086 
L 201.162841 348.543226 
L 196.099011 348.41603 
L 193.272304 342.666545 
L 192.127807 334.882389 
L 192.110604 328.651182 
L 194.486276 324.33602 
L 200.520402 322.3 
L 207.566137 321.479615 
L 212.976636 320.811361 
" clip-path="url(#p2cd90c3815)" style="fill: none; stroke: #ff0000; stroke-width: 1.5; stroke-linecap: square"/>
    <g clip-path="url(#p2cd90c3815)">
     <use xlink:href="#m370bc69079" x="200.520402" y="322.3" style="fill: #ff0000; stroke: #ff0000"/>
     <use xlink:href="#m370bc69079" x="207.566137" y="321.479615" style="fill: #ff0000; stroke: #ff0000"/>
     <use xlink:href="#m370bc69079" x="212.976636" y="320.811361" style="fill: #ff0000; stroke: #ff0000"/>
     <use xlink:href="#m370bc69079" x="216.44622" y="322.299955" style="fill: #ff0000; stroke: #ff0000"/>
     <use xlink:href="#m370bc69079" x="217.66921" y="327.950114" style="fill: #ff0000; stroke: #ff0000"/>
     <use xlink:href="#m370bc69079" x="217.715814" y="335.05842" style="fill: #ff0000; stroke: #ff0000"/>
     <use xlink:href="#m370bc69079" x="217.656242" y="340.921454" style="fill: #ff0000; stroke: #ff0000"/>
     <use xlink:href="#m370bc69079" x="216.296953" y="344.813931" style="fill: #ff0000; stroke: #ff0000"/>
     <use xlink:href="#m370bc69079" x="212.444407" y="346.010564" style="fill: #ff0000; stroke: #ff0000"/>
     <use xlink:href="#m370bc69079" x="207.074428" y="346.568086" style="fill: #ff0000; stroke: #ff0000"/>
     <use xlink:href="#m370bc69079" x="201.162841" y="348.543226" style="fill: #ff0000; stroke: #ff0000"/>
     <use xlink:href="#m370bc69079" x="196.099011" y="348.41603" style="fill: #ff0000; stroke: #ff0000"/>
     <use xlink:href="#m370bc69079" x="193.272304" y="342.666545" style="fill: #ff0000; stroke: #ff0000"/>
     <use xlink:href="#m370bc69079" x="192.127807" y="334.882389" style="fill: #ff0000; stroke: #ff0000"/>
     <use xlink:href="#m370bc69079" x="192.110604" y="328.651182" style="fill: #ff0000; stroke: #ff0000"/>
     <use xlink:href="#m370bc69079" x="194.486276" y="324.33602" style="fill: #ff0000; stroke: #ff0000"/>
     <use xlink:href="#m370bc69079" x="200.520402" y="322.3" style="fill: #ff0000; stroke: #ff0000"/>
     <use xlink:href="#m370bc69079" x="207.566137" y="321.479615" style="fill: #ff0000; stroke: #ff0000"/>
     <use xlink:href="#m370bc69079" x="212.976636" y="320.811361" style="fill: #ff0000; stroke: #ff0000"/>
    </g>
   </g>
   <g id="line2d_34">
    <path d="M 248.222625 323.084982 
L 255.029134 323.340882 
L 263.133605 324.231121 
L 269.542679 326.419634 
L 271.262996 330.570354 
L 270.632118 335.450971 
L 269.987609 339.829174 
L 267.972621 343.425893 
L 263.230304 345.962053 
L 257.103047 347.289421 
L 250.933238 347.259763 
L 246.134973 345.220429 
L 244.122349 340.518768 
L 243.477814 334.576688 
L 242.783821 328.816098 
L 243.78416 324.548397 
L 248.222625 323.084982 
L 255.029134 323.340882 
L 263.133605 324.231121 
" clip-path="url(#p2cd90c3815)" style="fill: none; stroke: #ff0000; stroke-width: 1.5; stroke-linecap: square"/>
    <g clip-path="url(#p2cd90c3815)">
     <use xlink:href="#m370bc69079" x="248.222625" y="323.084982" style="fill: #ff0000; stroke: #ff0000"/>
     <use xlink:href="#m370bc69079" x="255.029134" y="323.340882" style="fill: #ff0000; stroke: #ff0000"/>
     <use xlink:href="#m370bc69079" x="263.133605" y="324.231121" style="fill: #ff0000; stroke: #ff0000"/>
     <use xlink:href="#m370bc69079" x="269.542679" y="326.419634" style="fill: #ff0000; stroke: #ff0000"/>
     <use xlink:href="#m370bc69079" x="271.262996" y="330.570354" style="fill: #ff0000; stroke: #ff0000"/>
     <use xlink:href="#m370bc69079" x="270.632118" y="335.450971" style="fill: #ff0000; stroke: #ff0000"/>
     <use xlink:href="#m370bc69079" x="269.987609" y="339.829174" style="fill: #ff0000; stroke: #ff0000"/>
     <use xlink:href="#m370bc69079" x="267.972621" y="343.425893" style="fill: #ff0000; stroke: #ff0000"/>
     <use xlink:href="#m370bc69079" x="263.230304" y="345.962053" style="fill: #ff0000; stroke: #ff0000"/>
     <use xlink:href="#m370bc69079" x="257.103047" y="347.289421" style="fill: #ff0000; stroke: #ff0000"/>
     <use xlink:href="#m370bc69079" x="250.933238" y="347.259763" style="fill: #ff0000; stroke: #ff0000"/>
     <use xlink:href="#m370bc69079" x="246.134973" y="345.220429" style="fill: #ff0000; stroke: #ff0000"/>
     <use xlink:href="#m370bc69079" x="244.122349" y="340.518768" style="fill: #ff0000; stroke: #ff0000"/>
     <use xlink:href="#m370bc69079" x="243.477814" y="334.576688" style="fill: #ff0000; stroke: #ff0000"/>
     <use xlink:href="#m370bc69079" x="242.783821" y="328.816098" style="fill: #ff0000; stroke: #ff0000"/>
     <use xlink:href="#m370bc69079" x="243.78416" y="324.548397" style="fill: #ff0000; stroke: #ff0000"/>
     <use xlink:href="#m370bc69079" x="248.222625" y="323.084982" style="fill: #ff0000; stroke: #ff0000"/>
     <use xlink:href="#m370bc69079" x="255.029134" y="323.340882" style="fill: #ff0000; stroke: #ff0000"/>
     <use xlink:href="#m370bc69079" x="263.133605" y="324.231121" style="fill: #ff0000; stroke: #ff0000"/>
    </g>
   </g>
   <g id="line2d_35">
    <path d="M 158.210736 322.647675 
L 160.007914 322.38533 
L 161.7197 322.02671 
L 163.301689 321.698827 
L 164.709442 321.528703 
L 165.898534 321.643355 
L 166.824549 322.169799 
L 167.451028 323.217954 
L 167.810836 324.748918 
L 167.97254 326.647158 
L 168.005009 328.796507 
L 167.977101 331.080801 
L 167.957679 333.383876 
L 168.012645 335.591574 
L 168.139849 337.635942 
L 168.269088 339.495227 
L 168.3272 341.149687 
L 168.241026 342.57958 
L 167.937396 343.765162 
L 167.343467 344.686914 
L 166.424879 345.352354 
L 165.222 345.821505 
L 163.783778 346.160427 
L 162.159168 346.435176 
L 160.39714 346.71181 
L 158.546629 347.056389 
L 156.657855 347.502061 
L 154.786036 347.950354 
L 152.987674 348.269886 
L 151.319235 348.329274 
L 149.837203 347.997138 
L 148.598068 347.142096 
L 147.650959 345.653465 
L 146.981022 343.600708 
L 146.540465 341.146042 
L 146.281225 338.452455 
L 146.155234 335.682931 
L 146.114426 333.000455 
L 146.112713 330.564543 
L 146.149513 328.454857 
L 146.269748 326.671212 
L 146.520321 325.209947 
L 146.948137 324.067404 
L 147.600091 323.239927 
L 148.522819 322.723643 
L 149.730677 322.489016 
L 151.17532 322.456658 
L 152.801194 322.541459 
L 154.552749 322.658305 
L 156.374452 322.72208 
L 158.210736 322.647675 
" clip-path="url(#p2cd90c3815)" style="fill: none; stroke: #008000; stroke-width: 1.5; stroke-linecap: square"/>
   </g>
   <g id="line2d_36">
    <path d="M 207.293602 321.50497 
L 209.201207 321.285525 
L 210.931336 321.147351 
L 212.474001 321.156133 
L 213.819162 321.377566 
L 214.956804 321.87734 
L 215.876919 322.721145 
L 216.572661 323.963824 
L 217.064768 325.565806 
L 217.388189 327.438908 
L 217.578003 329.494543 
L 217.669274 331.644127 
L 217.697068 333.799073 
L 217.694909 335.872147 
L 217.660776 337.807173 
L 217.557104 339.579033 
L 217.344786 341.163962 
L 216.984717 342.538193 
L 216.437775 343.677961 
L 215.665038 344.559737 
L 214.649989 345.188717 
L 213.419604 345.625886 
L 212.005849 345.938639 
L 210.4407 346.194372 
L 208.756156 346.460479 
L 206.984164 346.804356 
L 205.158971 347.26294 
L 203.323835 347.751346 
L 201.524307 348.154233 
L 199.805893 348.356259 
L 198.21412 348.242081 
L 196.794524 347.696358 
L 195.588152 346.620124 
L 194.597055 345.056943 
L 193.803214 343.123769 
L 193.188456 340.938159 
L 192.734591 338.617673 
L 192.423435 336.279871 
L 192.238049 334.04011 
L 192.190074 331.963119 
L 192.319739 330.062996 
L 192.668516 328.351641 
L 193.27788 326.840949 
L 194.189291 325.542821 
L 195.443889 324.469033 
L 197.042419 323.616628 
L 198.907165 322.954046 
L 200.951384 322.446438 
L 203.088344 322.058957 
L 205.231336 321.756749 
L 207.293602 321.50497 
" clip-path="url(#p2cd90c3815)" style="fill: none; stroke: #008000; stroke-width: 1.5; stroke-linecap: square"/>
   </g>
   <g id="line2d_37">
    <path d="M 255.245466 323.446604 
L 257.681332 323.666091 
L 260.152008 323.972291 
L 262.559446 324.386956 
L 264.805527 324.931847 
L 266.792167 325.628717 
L 268.421291 326.499322 
L 269.607097 327.561049 
L 270.370673 328.793259 
L 270.788159 330.155734 
L 270.936165 331.608092 
L 270.891284 333.109954 
L 270.73011 334.62094 
L 270.526718 336.101319 
L 270.297175 337.52633 
L 269.999544 338.886177 
L 269.589365 340.171715 
L 269.022183 341.3738 
L 268.253523 342.483286 
L 267.239157 343.491042 
L 265.962734 344.389283 
L 264.462023 345.172851 
L 262.780998 345.83689 
L 260.963644 346.37654 
L 259.053982 346.786947 
L 257.095961 347.06325 
L 255.133975 347.19784 
L 253.213955 347.172084 
L 251.382275 346.964596 
L 249.68524 346.553991 
L 248.169189 345.918882 
L 246.880472 345.037884 
L 245.858901 343.894389 
L 245.087497 342.513394 
L 244.520049 340.941315 
L 244.110118 339.224745 
L 243.81125 337.410276 
L 243.576991 335.544502 
L 243.363049 333.673941 
L 243.17477 331.843375 
L 243.067135 330.095851 
L 243.097289 328.474342 
L 243.322376 327.021819 
L 243.799525 325.781254 
L 244.58564 324.795415 
L 245.708574 324.082325 
L 247.139748 323.611953 
L 248.844083 323.348748 
L 250.786516 323.257157 
L 252.93201 323.301625 
L 255.245466 323.446604 
" clip-path="url(#p2cd90c3815)" style="fill: none; stroke: #008000; stroke-width: 1.5; stroke-linecap: square"/>
   </g>
   <g id="line2d_38">
    <path d="M 69.218182 344.804935 
L 69.272574 345.860308 
L 69.479715 346.896174 
L 69.834627 347.89149 
L 70.335668 348.842699 
L 71.358781 350.186737 
L 72.703878 351.431474 
L 74.365954 352.577114 
L 76.339334 353.624062 
L 78.61772 354.572941 
L 81.194233 355.424622 
L 84.06147 356.180243 
L 88.323008 357.040861 
L 93.067519 357.737686 
L 98.274087 358.276285 
L 103.920898 358.663537 
L 111.564114 358.947537 
L 119.814699 359.027529 
L 130.451745 358.88686 
L 143.772934 358.455428 
L 162.134747 357.607193 
L 220.847096 354.536464 
L 303.34087 349.847452 
L 336.807169 348.264672 
L 373.581818 346.742852 
L 373.581818 346.742852 
" clip-path="url(#p2cd90c3815)" style="fill: none; stroke: #000000; stroke-width: 1.5; stroke-linecap: square"/>
   </g>
   <g id="line2d_39">
    <path d="M 373.581818 346.742852 
L 359.588809 342.444616 
L 347.686075 339.019193 
L 335.085164 335.617846 
L 321.918378 332.302011 
L 309.037442 329.287338 
L 295.041943 326.264384 
L 282.282533 323.736501 
L 268.935871 321.326755 
L 255.12011 319.089858 
L 243.337915 317.395611 
L 231.390298 315.886355 
L 219.353499 314.588799 
L 207.305187 313.527305 
L 195.323937 312.723354 
L 185.757833 312.285841 
L 176.217244 312.10142 
L 166.851488 312.184727 
L 157.704436 312.533513 
L 148.819155 313.142089 
L 140.237535 314.00136 
L 131.999906 315.098933 
L 124.144679 316.419312 
L 116.708008 317.944177 
L 109.723495 319.652748 
L 103.221939 321.522222 
L 97.231142 323.528285 
L 91.775774 325.645676 
L 86.877289 327.848788 
L 83.579963 329.542117 
L 80.612699 331.259034 
L 77.980997 332.989604 
L 75.689378 334.724476 
L 73.74141 336.455013 
L 72.139735 338.173418 
L 70.886104 339.872843 
L 69.981403 341.547488 
L 69.425681 343.192681 
L 69.248736 344.271342 
L 69.218182 344.804935 
L 69.218182 344.804935 
" clip-path="url(#p2cd90c3815)" style="fill: none; stroke: #000000; stroke-width: 1.5; stroke-linecap: square"/>
   </g>
   <g id="patch_13">
    <path d="M 54 384.48 
L 54 286.644706 
" style="fill: none; stroke: #000000; stroke-width: 0.8; stroke-linejoin: miter; stroke-linecap: square"/>
   </g>
   <g id="patch_14">
    <path d="M 54 384.48 
L 388.8 384.48 
" style="fill: none; stroke: #000000; stroke-width: 0.8; stroke-linejoin: miter; stroke-linecap: square"/>
   </g>
   <g id="text_18">
    <!-- group 3: No.8 - No.10 -->
    <g transform="translate(124.754063 280.644706) scale(0.18 -0.18)">
     <defs>
      <path id="DejaVuSans-33" d="M 2597 2516 
Q 3050 2419 3304 2112 
Q 3559 1806 3559 1356 
Q 3559 666 3084 287 
Q 2609 -91 1734 -91 
Q 1441 -91 1130 -33 
Q 819 25 488 141 
L 488 750 
Q 750 597 1062 519 
Q 1375 441 1716 441 
Q 2309 441 2620 675 
Q 2931 909 2931 1356 
Q 2931 1769 2642 2001 
Q 2353 2234 1838 2234 
L 1294 2234 
L 1294 2753 
L 1863 2753 
Q 2328 2753 2575 2939 
Q 2822 3125 2822 3475 
Q 2822 3834 2567 4026 
Q 2313 4219 1838 4219 
Q 1578 4219 1281 4162 
Q 984 4106 628 3988 
L 628 4550 
Q 988 4650 1302 4700 
Q 1616 4750 1894 4750 
Q 2613 4750 3031 4423 
Q 3450 4097 3450 3541 
Q 3450 3153 3228 2886 
Q 3006 2619 2597 2516 
z
" transform="scale(0.015625)"/>
     </defs>
     <use xlink:href="#DejaVuSans-67"/>
     <use xlink:href="#DejaVuSans-72" x="63.476562"/>
     <use xlink:href="#DejaVuSans-6f" x="102.339844"/>
     <use xlink:href="#DejaVuSans-75" x="163.521484"/>
     <use xlink:href="#DejaVuSans-70" x="226.900391"/>
     <use xlink:href="#DejaVuSans-20" x="290.376953"/>
     <use xlink:href="#DejaVuSans-33" x="322.164062"/>
     <use xlink:href="#DejaVuSans-3a" x="385.787109"/>
     <use xlink:href="#DejaVuSans-20" x="419.478516"/>
     <use xlink:href="#DejaVuSans-4e" x="451.265625"/>
     <use xlink:href="#DejaVuSans-6f" x="526.070312"/>
     <use xlink:href="#DejaVuSans-2e" x="585.501953"/>
     <use xlink:href="#DejaVuSans-38" x="617.289062"/>
     <use xlink:href="#DejaVuSans-20" x="680.912109"/>
     <use xlink:href="#DejaVuSans-2d" x="712.699219"/>
     <use xlink:href="#DejaVuSans-20" x="748.783203"/>
     <use xlink:href="#DejaVuSans-4e" x="780.570312"/>
     <use xlink:href="#DejaVuSans-6f" x="855.375"/>
     <use xlink:href="#DejaVuSans-2e" x="914.806641"/>
     <use xlink:href="#DejaVuSans-31" x="946.59375"/>
     <use xlink:href="#DejaVuSans-30" x="1010.216797"/>
    </g>
   </g>
  </g>
 </g>
 <defs>
  <clipPath id="p1e79280ad4">
   <rect x="54" y="51.84" width="334.8" height="97.835294"/>
  </clipPath>
  <clipPath id="p729ef59d82">
   <rect x="54" y="169.242353" width="334.8" height="97.835294"/>
  </clipPath>
  <clipPath id="p2cd90c3815">
   <rect x="54" y="286.644706" width="334.8" height="97.835294"/>
  </clipPath>
 </defs>
</svg>
