<?xml version="1.0" encoding="utf-8" standalone="no"?>
<!DOCTYPE svg PUBLIC "-//W3C//DTD SVG 1.1//EN"
  "http://www.w3.org/Graphics/SVG/1.1/DTD/svg11.dtd">
<svg xmlns:xlink="http://www.w3.org/1999/xlink" width="432pt" height="432pt" viewBox="0 0 432 432" xmlns="http://www.w3.org/2000/svg" version="1.1">
 <metadata>
  <rdf:RDF xmlns:dc="http://purl.org/dc/elements/1.1/" xmlns:cc="http://creativecommons.org/ns#" xmlns:rdf="http://www.w3.org/1999/02/22-rdf-syntax-ns#">
   <cc:Work>
    <dc:type rdf:resource="http://purl.org/dc/dcmitype/StillImage"/>
    <dc:date>2024-03-12T05:33:16.545013</dc:date>
    <dc:format>image/svg+xml</dc:format>
    <dc:creator>
     <cc:Agent>
      <dc:title>Matplotlib v3.7.1, https://matplotlib.org/</dc:title>
     </cc:Agent>
    </dc:creator>
   </cc:Work>
  </rdf:RDF>
 </metadata>
 <defs>
  <style type="text/css">*{stroke-linejoin: round; stroke-linecap: butt}</style>
 </defs>
 <g id="figure_1">
  <g id="patch_1">
   <path d="M 0 432 
L 432 432 
L 432 0 
L 0 0 
z
" style="fill: #ffffff"/>
  </g>
  <g id="axes_1">
   <g id="patch_2">
    <path d="M 54 149.675294 
L 388.8 149.675294 
L 388.8 51.84 
L 54 51.84 
z
" style="fill: #ffffff"/>
   </g>
   <g id="patch_3">
    <path d="M 120.337153 92.032068 
L 120.337153 96.026174 
L 115.011679 96.026174 
L 115.011679 112.002598 
L 120.337153 112.002598 
L 120.337153 115.996704 
L 107.023467 115.996704 
L 107.023467 112.002598 
L 112.348941 112.002598 
L 112.348941 96.026174 
L 107.023467 96.026174 
L 107.023467 92.032068 
z
" clip-path="url(#pf56719faf1)" style="fill: #0000ff"/>
   </g>
   <g id="patch_4">
    <path d="M 294.091821 97.683928 
L 294.091821 99.510523 
L 291.656362 99.510523 
L 291.656362 106.816901 
L 294.091821 106.816901 
L 294.091821 108.643496 
L 288.003173 108.643496 
L 288.003173 106.816901 
L 290.438632 106.816901 
L 290.438632 99.510523 
L 288.003173 99.510523 
L 288.003173 97.683928 
z
" clip-path="url(#pf56719faf1)" style="fill: #0000ff"/>
   </g>
   <g id="matplotlib.axis_1"/>
   <g id="matplotlib.axis_2">
    <g id="ytick_1">
     <g id="line2d_1">
      <defs>
       <path id="m84796ec3b4" d="M 0 0 
L -3.5 0 
" style="stroke: #000000; stroke-width: 0.8"/>
      </defs>
      <g>
       <use xlink:href="#m84796ec3b4" x="54" y="141.72896" style="stroke: #000000; stroke-width: 0.8"/>
      </g>
     </g>
     <g id="text_1">
      <!-- −0.1 -->
      <g transform="translate(22.717187 145.528179) scale(0.1 -0.1)">
       <defs>
        <path id="DejaVuSans-2212" d="M 678 2272 
L 4684 2272 
L 4684 1741 
L 678 1741 
L 678 2272 
z
" transform="scale(0.015625)"/>
        <path id="DejaVuSans-30" d="M 2034 4250 
Q 1547 4250 1301 3770 
Q 1056 3291 1056 2328 
Q 1056 1369 1301 889 
Q 1547 409 2034 409 
Q 2525 409 2770 889 
Q 3016 1369 3016 2328 
Q 3016 3291 2770 3770 
Q 2525 4250 2034 4250 
z
M 2034 4750 
Q 2819 4750 3233 4129 
Q 3647 3509 3647 2328 
Q 3647 1150 3233 529 
Q 2819 -91 2034 -91 
Q 1250 -91 836 529 
Q 422 1150 422 2328 
Q 422 3509 836 4129 
Q 1250 4750 2034 4750 
z
" transform="scale(0.015625)"/>
        <path id="DejaVuSans-2e" d="M 684 794 
L 1344 794 
L 1344 0 
L 684 0 
L 684 794 
z
" transform="scale(0.015625)"/>
        <path id="DejaVuSans-31" d="M 794 531 
L 1825 531 
L 1825 4091 
L 703 3866 
L 703 4441 
L 1819 4666 
L 2450 4666 
L 2450 531 
L 3481 531 
L 3481 0 
L 794 0 
L 794 531 
z
" transform="scale(0.015625)"/>
       </defs>
       <use xlink:href="#DejaVuSans-2212"/>
       <use xlink:href="#DejaVuSans-30" x="83.789062"/>
       <use xlink:href="#DejaVuSans-2e" x="147.412109"/>
       <use xlink:href="#DejaVuSans-31" x="179.199219"/>
      </g>
     </g>
    </g>
    <g id="ytick_2">
     <g id="line2d_2">
      <g>
       <use xlink:href="#m84796ec3b4" x="54" y="111.577292" style="stroke: #000000; stroke-width: 0.8"/>
      </g>
     </g>
     <g id="text_2">
      <!-- 0.0 -->
      <g transform="translate(31.096875 115.376511) scale(0.1 -0.1)">
       <use xlink:href="#DejaVuSans-30"/>
       <use xlink:href="#DejaVuSans-2e" x="63.623047"/>
       <use xlink:href="#DejaVuSans-30" x="95.410156"/>
      </g>
     </g>
    </g>
    <g id="ytick_3">
     <g id="line2d_3">
      <g>
       <use xlink:href="#m84796ec3b4" x="54" y="81.425624" style="stroke: #000000; stroke-width: 0.8"/>
      </g>
     </g>
     <g id="text_3">
      <!-- 0.1 -->
      <g transform="translate(31.096875 85.224843) scale(0.1 -0.1)">
       <use xlink:href="#DejaVuSans-30"/>
       <use xlink:href="#DejaVuSans-2e" x="63.623047"/>
       <use xlink:href="#DejaVuSans-31" x="95.410156"/>
      </g>
     </g>
    </g>
   </g>
   <g id="line2d_4">
    <path d="M 147.195722 84.303721 
L 151.370239 81.185228 
L 160.660242 80.52985 
L 169.396684 80.252501 
L 177.310634 86.577978 
L 176.952614 96.813332 
L 177.432128 108.993377 
L 173.932916 119.268996 
L 167.245782 119.633426 
L 159.188719 120.03356 
L 150.600517 120.522298 
L 142.789008 120.778318 
L 137.005995 110.963529 
L 136.760298 99.654638 
L 137.179283 89.632182 
L 144.49213 82.132937 
L 147.195722 84.303721 
L 151.370239 81.185228 
L 160.660242 80.52985 
" clip-path="url(#pf56719faf1)" style="fill: none; stroke: #ff0000; stroke-width: 1.5; stroke-linecap: square"/>
    <defs>
     <path id="m48f0fbeb07" d="M 0 3 
C 0.795609 3 1.55874 2.683901 2.12132 2.12132 
C 2.683901 1.55874 3 0.795609 3 0 
C 3 -0.795609 2.683901 -1.55874 2.12132 -2.12132 
C 1.55874 -2.683901 0.795609 -3 0 -3 
C -0.795609 -3 -1.55874 -2.683901 -2.12132 -2.12132 
C -2.683901 -1.55874 -3 -0.795609 -3 0 
C -3 0.795609 -2.683901 1.55874 -2.12132 2.12132 
C -1.55874 2.683901 -0.795609 3 0 3 
z
" style="stroke: #ff0000"/>
    </defs>
    <g clip-path="url(#pf56719faf1)">
     <use xlink:href="#m48f0fbeb07" x="147.195722" y="84.303721" style="fill: #ff0000; stroke: #ff0000"/>
     <use xlink:href="#m48f0fbeb07" x="151.370239" y="81.185228" style="fill: #ff0000; stroke: #ff0000"/>
     <use xlink:href="#m48f0fbeb07" x="160.660242" y="80.52985" style="fill: #ff0000; stroke: #ff0000"/>
     <use xlink:href="#m48f0fbeb07" x="169.396684" y="80.252501" style="fill: #ff0000; stroke: #ff0000"/>
     <use xlink:href="#m48f0fbeb07" x="177.310634" y="86.577978" style="fill: #ff0000; stroke: #ff0000"/>
     <use xlink:href="#m48f0fbeb07" x="176.952614" y="96.813332" style="fill: #ff0000; stroke: #ff0000"/>
     <use xlink:href="#m48f0fbeb07" x="177.432128" y="108.993377" style="fill: #ff0000; stroke: #ff0000"/>
     <use xlink:href="#m48f0fbeb07" x="173.932916" y="119.268996" style="fill: #ff0000; stroke: #ff0000"/>
     <use xlink:href="#m48f0fbeb07" x="167.245782" y="119.633426" style="fill: #ff0000; stroke: #ff0000"/>
     <use xlink:href="#m48f0fbeb07" x="159.188719" y="120.03356" style="fill: #ff0000; stroke: #ff0000"/>
     <use xlink:href="#m48f0fbeb07" x="150.600517" y="120.522298" style="fill: #ff0000; stroke: #ff0000"/>
     <use xlink:href="#m48f0fbeb07" x="142.789008" y="120.778318" style="fill: #ff0000; stroke: #ff0000"/>
     <use xlink:href="#m48f0fbeb07" x="137.005995" y="110.963529" style="fill: #ff0000; stroke: #ff0000"/>
     <use xlink:href="#m48f0fbeb07" x="136.760298" y="99.654638" style="fill: #ff0000; stroke: #ff0000"/>
     <use xlink:href="#m48f0fbeb07" x="137.179283" y="89.632182" style="fill: #ff0000; stroke: #ff0000"/>
     <use xlink:href="#m48f0fbeb07" x="144.49213" y="82.132937" style="fill: #ff0000; stroke: #ff0000"/>
     <use xlink:href="#m48f0fbeb07" x="147.195722" y="84.303721" style="fill: #ff0000; stroke: #ff0000"/>
     <use xlink:href="#m48f0fbeb07" x="151.370239" y="81.185228" style="fill: #ff0000; stroke: #ff0000"/>
     <use xlink:href="#m48f0fbeb07" x="160.660242" y="80.52985" style="fill: #ff0000; stroke: #ff0000"/>
    </g>
   </g>
   <g id="line2d_5">
    <path d="M 198.17783 84.838227 
L 201.573492 81.244524 
L 212.882304 81.978001 
L 222.819897 86.147512 
L 224.868936 95.88441 
L 219.900971 106.274749 
L 219.491177 108.426195 
L 219.336631 109.475079 
L 218.407505 113.591564 
L 211.121164 117.253865 
L 201.154986 117.934621 
L 192.64003 115.223518 
L 188.804279 104.434653 
L 189.149571 93.000867 
L 193.905644 86.795723 
L 197.247195 86.075536 
L 198.17783 84.838227 
L 201.573492 81.244524 
L 212.882304 81.978001 
" clip-path="url(#pf56719faf1)" style="fill: none; stroke: #ff0000; stroke-width: 1.5; stroke-linecap: square"/>
    <g clip-path="url(#pf56719faf1)">
     <use xlink:href="#m48f0fbeb07" x="198.17783" y="84.838227" style="fill: #ff0000; stroke: #ff0000"/>
     <use xlink:href="#m48f0fbeb07" x="201.573492" y="81.244524" style="fill: #ff0000; stroke: #ff0000"/>
     <use xlink:href="#m48f0fbeb07" x="212.882304" y="81.978001" style="fill: #ff0000; stroke: #ff0000"/>
     <use xlink:href="#m48f0fbeb07" x="222.819897" y="86.147512" style="fill: #ff0000; stroke: #ff0000"/>
     <use xlink:href="#m48f0fbeb07" x="224.868936" y="95.88441" style="fill: #ff0000; stroke: #ff0000"/>
     <use xlink:href="#m48f0fbeb07" x="219.900971" y="106.274749" style="fill: #ff0000; stroke: #ff0000"/>
     <use xlink:href="#m48f0fbeb07" x="219.491177" y="108.426195" style="fill: #ff0000; stroke: #ff0000"/>
     <use xlink:href="#m48f0fbeb07" x="219.336631" y="109.475079" style="fill: #ff0000; stroke: #ff0000"/>
     <use xlink:href="#m48f0fbeb07" x="218.407505" y="113.591564" style="fill: #ff0000; stroke: #ff0000"/>
     <use xlink:href="#m48f0fbeb07" x="211.121164" y="117.253865" style="fill: #ff0000; stroke: #ff0000"/>
     <use xlink:href="#m48f0fbeb07" x="201.154986" y="117.934621" style="fill: #ff0000; stroke: #ff0000"/>
     <use xlink:href="#m48f0fbeb07" x="192.64003" y="115.223518" style="fill: #ff0000; stroke: #ff0000"/>
     <use xlink:href="#m48f0fbeb07" x="188.804279" y="104.434653" style="fill: #ff0000; stroke: #ff0000"/>
     <use xlink:href="#m48f0fbeb07" x="189.149571" y="93.000867" style="fill: #ff0000; stroke: #ff0000"/>
     <use xlink:href="#m48f0fbeb07" x="193.905644" y="86.795723" style="fill: #ff0000; stroke: #ff0000"/>
     <use xlink:href="#m48f0fbeb07" x="197.247195" y="86.075536" style="fill: #ff0000; stroke: #ff0000"/>
     <use xlink:href="#m48f0fbeb07" x="198.17783" y="84.838227" style="fill: #ff0000; stroke: #ff0000"/>
     <use xlink:href="#m48f0fbeb07" x="201.573492" y="81.244524" style="fill: #ff0000; stroke: #ff0000"/>
     <use xlink:href="#m48f0fbeb07" x="212.882304" y="81.978001" style="fill: #ff0000; stroke: #ff0000"/>
    </g>
   </g>
   <g id="line2d_6">
    <path d="M 247.851246 89.316421 
L 252.443561 86.964816 
L 262.816736 88.244943 
L 270.884522 89.922674 
L 276.648202 97.757844 
L 271.291789 105.352063 
L 270.261233 108.933637 
L 268.981966 109.753587 
L 267.883178 111.509451 
L 261.561958 114.406428 
L 251.246982 115.013191 
L 242.478103 113.855707 
L 236.158473 104.964489 
L 237.324419 95.053055 
L 241.856012 91.226105 
L 245.523127 90.210037 
L 247.851246 89.316421 
L 252.443561 86.964816 
L 262.816736 88.244943 
" clip-path="url(#pf56719faf1)" style="fill: none; stroke: #ff0000; stroke-width: 1.5; stroke-linecap: square"/>
    <g clip-path="url(#pf56719faf1)">
     <use xlink:href="#m48f0fbeb07" x="247.851246" y="89.316421" style="fill: #ff0000; stroke: #ff0000"/>
     <use xlink:href="#m48f0fbeb07" x="252.443561" y="86.964816" style="fill: #ff0000; stroke: #ff0000"/>
     <use xlink:href="#m48f0fbeb07" x="262.816736" y="88.244943" style="fill: #ff0000; stroke: #ff0000"/>
     <use xlink:href="#m48f0fbeb07" x="270.884522" y="89.922674" style="fill: #ff0000; stroke: #ff0000"/>
     <use xlink:href="#m48f0fbeb07" x="276.648202" y="97.757844" style="fill: #ff0000; stroke: #ff0000"/>
     <use xlink:href="#m48f0fbeb07" x="271.291789" y="105.352063" style="fill: #ff0000; stroke: #ff0000"/>
     <use xlink:href="#m48f0fbeb07" x="270.261233" y="108.933637" style="fill: #ff0000; stroke: #ff0000"/>
     <use xlink:href="#m48f0fbeb07" x="268.981966" y="109.753587" style="fill: #ff0000; stroke: #ff0000"/>
     <use xlink:href="#m48f0fbeb07" x="267.883178" y="111.509451" style="fill: #ff0000; stroke: #ff0000"/>
     <use xlink:href="#m48f0fbeb07" x="261.561958" y="114.406428" style="fill: #ff0000; stroke: #ff0000"/>
     <use xlink:href="#m48f0fbeb07" x="251.246982" y="115.013191" style="fill: #ff0000; stroke: #ff0000"/>
     <use xlink:href="#m48f0fbeb07" x="242.478103" y="113.855707" style="fill: #ff0000; stroke: #ff0000"/>
     <use xlink:href="#m48f0fbeb07" x="236.158473" y="104.964489" style="fill: #ff0000; stroke: #ff0000"/>
     <use xlink:href="#m48f0fbeb07" x="237.324419" y="95.053055" style="fill: #ff0000; stroke: #ff0000"/>
     <use xlink:href="#m48f0fbeb07" x="241.856012" y="91.226105" style="fill: #ff0000; stroke: #ff0000"/>
     <use xlink:href="#m48f0fbeb07" x="245.523127" y="90.210037" style="fill: #ff0000; stroke: #ff0000"/>
     <use xlink:href="#m48f0fbeb07" x="247.851246" y="89.316421" style="fill: #ff0000; stroke: #ff0000"/>
     <use xlink:href="#m48f0fbeb07" x="252.443561" y="86.964816" style="fill: #ff0000; stroke: #ff0000"/>
     <use xlink:href="#m48f0fbeb07" x="262.816736" y="88.244943" style="fill: #ff0000; stroke: #ff0000"/>
    </g>
   </g>
   <g id="line2d_7">
    <path d="M 152.222822 81.595746 
L 154.608098 81.106651 
L 157.33143 80.801457 
L 160.207071 80.611834 
L 163.069002 80.499865 
L 165.866591 80.605175 
L 168.590975 81.131645 
L 171.216798 82.262704 
L 173.574705 84.00295 
L 175.421202 86.264902 
L 176.534271 88.961285 
L 176.991623 92.018002 
L 177.086987 95.370449 
L 177.109356 98.952943 
L 177.129073 102.670225 
L 176.997823 106.39745 
L 176.559404 110.007295 
L 175.730761 113.318196 
L 174.530324 116.073331 
L 172.984094 118.011866 
L 171.128683 119.058346 
L 169.021297 119.497345 
L 166.721491 119.654697 
L 164.281253 119.779723 
L 161.731666 119.910355 
L 159.100198 120.048327 
L 156.416905 120.193328 
L 153.722071 120.336873 
L 151.058568 120.468433 
L 148.469034 120.542661 
L 145.994921 120.310878 
L 143.677254 119.450813 
L 141.562253 117.682519 
L 139.741394 115.095326 
L 138.329461 111.968705 
L 137.430259 108.575969 
L 136.995874 105.085513 
L 136.869051 101.590119 
L 136.897703 98.179847 
L 137.104056 94.920514 
L 137.684648 91.853703 
L 138.838491 89.021641 
L 140.533276 86.543655 
L 142.415705 84.646054 
L 144.110346 83.561138 
L 145.423322 83.292953 
L 146.513357 83.402245 
L 147.579655 83.399072 
L 148.802589 82.969126 
L 150.310508 82.283339 
L 152.222822 81.595746 
" clip-path="url(#pf56719faf1)" style="fill: none; stroke: #008000; stroke-width: 1.5; stroke-linecap: square"/>
   </g>
   <g id="line2d_8">
    <path d="M 202.892354 81.96572 
L 205.599519 81.724768 
L 208.812749 81.897721 
L 212.227843 82.455371 
L 215.55067 83.379581 
L 218.546243 84.716785 
L 221.000982 86.536788 
L 222.718352 88.893198 
L 223.649981 91.698342 
L 223.823795 94.791803 
L 223.282635 98.007253 
L 222.263077 101.106355 
L 221.141332 103.79887 
L 220.285855 105.804357 
L 219.815795 107.094045 
L 219.600993 107.890836 
L 219.501396 108.427717 
L 219.419652 108.898984 
L 219.31764 109.44524 
L 219.161229 110.202476 
L 218.869283 111.227262 
L 218.269359 112.421917 
L 217.178615 113.671052 
L 215.485828 114.866964 
L 213.277642 115.9232 
L 210.674529 116.756941 
L 207.79948 117.296934 
L 204.785371 117.518172 
L 201.767597 117.407209 
L 198.878198 116.934957 
L 196.229941 115.98098 
L 193.928621 114.391774 
L 192.071426 112.041714 
L 190.680819 109.048194 
L 189.740792 105.653741 
L 189.236 102.099834 
L 189.164262 98.599729 
L 189.532895 95.346338 
L 190.345293 92.528294 
L 191.50978 90.246028 
L 192.839604 88.511773 
L 194.145274 87.332126 
L 195.300297 86.63204 
L 196.265575 86.223184 
L 197.008962 85.909238 
L 197.558947 85.536861 
L 198.061778 85.036195 
L 198.677225 84.34706 
L 199.569495 83.475191 
L 200.915038 82.608406 
L 202.892354 81.96572 
" clip-path="url(#pf56719faf1)" style="fill: none; stroke: #008000; stroke-width: 1.5; stroke-linecap: square"/>
   </g>
   <g id="line2d_9">
    <path d="M 253.407043 87.570104 
L 256.053341 87.566949 
L 259.026614 87.82971 
L 262.061929 88.252405 
L 264.923876 88.761969 
L 267.549865 89.477491 
L 269.939868 90.58761 
L 272.073611 92.253054 
L 273.753995 94.390736 
L 274.692888 96.79203 
L 274.633771 99.250776 
L 273.759278 101.608361 
L 272.568552 103.740438 
L 271.554059 105.526844 
L 270.893914 106.926281 
L 270.451887 107.976313 
L 270.079521 108.718639 
L 269.69364 109.226871 
L 269.301622 109.61891 
L 268.917036 110.015618 
L 268.493239 110.501797 
L 267.866626 111.092219 
L 266.86021 111.793569 
L 265.348305 112.58441 
L 263.34694 113.365608 
L 260.896338 114.024726 
L 258.060322 114.470938 
L 254.996861 114.699867 
L 251.887522 114.728747 
L 248.89684 114.55105 
L 246.090316 114.021468 
L 243.497608 112.944461 
L 241.157833 111.153644 
L 239.192982 108.736966 
L 237.767733 105.913333 
L 237.034917 102.903257 
L 236.981613 99.934327 
L 237.475452 97.239237 
L 238.381358 95.043711 
L 239.562523 93.410517 
L 240.88041 92.23947 
L 242.197491 91.423469 
L 243.425231 90.863046 
L 244.543064 90.469328 
L 245.535789 90.154316 
L 246.430319 89.841447 
L 247.335328 89.476382 
L 248.368871 89.007406 
L 249.648349 88.434384 
L 251.28934 87.899688 
L 253.407043 87.570104 
" clip-path="url(#pf56719faf1)" style="fill: none; stroke: #008000; stroke-width: 1.5; stroke-linecap: square"/>
   </g>
   <g id="line2d_10">
    <path d="M 69.218182 110.000229 
L 69.272574 111.055602 
L 69.479715 112.091468 
L 69.834627 113.086784 
L 70.335668 114.037993 
L 71.358781 115.382031 
L 72.703878 116.626768 
L 74.365954 117.772408 
L 76.339334 118.819356 
L 78.61772 119.768236 
L 81.194233 120.619916 
L 84.06147 121.375538 
L 88.323008 122.236155 
L 93.067519 122.93298 
L 98.274087 123.471579 
L 103.920898 123.858831 
L 111.564114 124.142831 
L 119.814699 124.222823 
L 130.451745 124.082154 
L 143.772934 123.650723 
L 162.134747 122.802488 
L 220.847096 119.731758 
L 303.34087 115.042746 
L 336.807169 113.459966 
L 373.581818 111.938146 
L 373.581818 111.938146 
" clip-path="url(#pf56719faf1)" style="fill: none; stroke: #000000; stroke-width: 1.5; stroke-linecap: square"/>
   </g>
   <g id="line2d_11">
    <path d="M 373.581818 111.938146 
L 359.588809 107.63991 
L 347.686075 104.214487 
L 335.085164 100.81314 
L 321.918378 97.497305 
L 309.037442 94.482632 
L 295.041943 91.459678 
L 282.282533 88.931795 
L 268.935871 86.52205 
L 255.12011 84.285152 
L 243.337915 82.590906 
L 231.390298 81.081649 
L 219.353499 79.784093 
L 207.305187 78.7226 
L 195.323937 77.918648 
L 185.757833 77.481136 
L 176.217244 77.296715 
L 166.851488 77.380022 
L 157.704436 77.728807 
L 148.819155 78.337384 
L 140.237535 79.196655 
L 131.999906 80.294227 
L 124.144679 81.614606 
L 116.708008 83.139472 
L 109.723495 84.848042 
L 103.221939 86.717516 
L 97.231142 88.72358 
L 91.775774 90.84097 
L 86.877289 93.044082 
L 83.579963 94.737411 
L 80.612699 96.454328 
L 77.980997 98.184898 
L 75.689378 99.91977 
L 73.74141 101.650307 
L 72.139735 103.368712 
L 70.886104 105.068137 
L 69.981403 106.742783 
L 69.425681 108.387975 
L 69.248736 109.466636 
L 69.218182 110.000229 
L 69.218182 110.000229 
" clip-path="url(#pf56719faf1)" style="fill: none; stroke: #000000; stroke-width: 1.5; stroke-linecap: square"/>
   </g>
   <g id="patch_5">
    <path d="M 54 149.675294 
L 54 51.84 
" style="fill: none; stroke: #000000; stroke-width: 0.8; stroke-linejoin: miter; stroke-linecap: square"/>
   </g>
   <g id="text_4">
    <!-- group 1: No.1 - No.4 -->
    <g transform="translate(130.480313 45.84) scale(0.18 -0.18)">
     <defs>
      <path id="DejaVuSans-67" d="M 2906 1791 
Q 2906 2416 2648 2759 
Q 2391 3103 1925 3103 
Q 1463 3103 1205 2759 
Q 947 2416 947 1791 
Q 947 1169 1205 825 
Q 1463 481 1925 481 
Q 2391 481 2648 825 
Q 2906 1169 2906 1791 
z
M 3481 434 
Q 3481 -459 3084 -895 
Q 2688 -1331 1869 -1331 
Q 1566 -1331 1297 -1286 
Q 1028 -1241 775 -1147 
L 775 -588 
Q 1028 -725 1275 -790 
Q 1522 -856 1778 -856 
Q 2344 -856 2625 -561 
Q 2906 -266 2906 331 
L 2906 616 
Q 2728 306 2450 153 
Q 2172 0 1784 0 
Q 1141 0 747 490 
Q 353 981 353 1791 
Q 353 2603 747 3093 
Q 1141 3584 1784 3584 
Q 2172 3584 2450 3431 
Q 2728 3278 2906 2969 
L 2906 3500 
L 3481 3500 
L 3481 434 
z
" transform="scale(0.015625)"/>
      <path id="DejaVuSans-72" d="M 2631 2963 
Q 2534 3019 2420 3045 
Q 2306 3072 2169 3072 
Q 1681 3072 1420 2755 
Q 1159 2438 1159 1844 
L 1159 0 
L 581 0 
L 581 3500 
L 1159 3500 
L 1159 2956 
Q 1341 3275 1631 3429 
Q 1922 3584 2338 3584 
Q 2397 3584 2469 3576 
Q 2541 3569 2628 3553 
L 2631 2963 
z
" transform="scale(0.015625)"/>
      <path id="DejaVuSans-6f" d="M 1959 3097 
Q 1497 3097 1228 2736 
Q 959 2375 959 1747 
Q 959 1119 1226 758 
Q 1494 397 1959 397 
Q 2419 397 2687 759 
Q 2956 1122 2956 1747 
Q 2956 2369 2687 2733 
Q 2419 3097 1959 3097 
z
M 1959 3584 
Q 2709 3584 3137 3096 
Q 3566 2609 3566 1747 
Q 3566 888 3137 398 
Q 2709 -91 1959 -91 
Q 1206 -91 779 398 
Q 353 888 353 1747 
Q 353 2609 779 3096 
Q 1206 3584 1959 3584 
z
" transform="scale(0.015625)"/>
      <path id="DejaVuSans-75" d="M 544 1381 
L 544 3500 
L 1119 3500 
L 1119 1403 
Q 1119 906 1312 657 
Q 1506 409 1894 409 
Q 2359 409 2629 706 
Q 2900 1003 2900 1516 
L 2900 3500 
L 3475 3500 
L 3475 0 
L 2900 0 
L 2900 538 
Q 2691 219 2414 64 
Q 2138 -91 1772 -91 
Q 1169 -91 856 284 
Q 544 659 544 1381 
z
M 1991 3584 
L 1991 3584 
z
" transform="scale(0.015625)"/>
      <path id="DejaVuSans-70" d="M 1159 525 
L 1159 -1331 
L 581 -1331 
L 581 3500 
L 1159 3500 
L 1159 2969 
Q 1341 3281 1617 3432 
Q 1894 3584 2278 3584 
Q 2916 3584 3314 3078 
Q 3713 2572 3713 1747 
Q 3713 922 3314 415 
Q 2916 -91 2278 -91 
Q 1894 -91 1617 61 
Q 1341 213 1159 525 
z
M 3116 1747 
Q 3116 2381 2855 2742 
Q 2594 3103 2138 3103 
Q 1681 3103 1420 2742 
Q 1159 2381 1159 1747 
Q 1159 1113 1420 752 
Q 1681 391 2138 391 
Q 2594 391 2855 752 
Q 3116 1113 3116 1747 
z
" transform="scale(0.015625)"/>
      <path id="DejaVuSans-20" transform="scale(0.015625)"/>
      <path id="DejaVuSans-3a" d="M 750 794 
L 1409 794 
L 1409 0 
L 750 0 
L 750 794 
z
M 750 3309 
L 1409 3309 
L 1409 2516 
L 750 2516 
L 750 3309 
z
" transform="scale(0.015625)"/>
      <path id="DejaVuSans-4e" d="M 628 4666 
L 1478 4666 
L 3547 763 
L 3547 4666 
L 4159 4666 
L 4159 0 
L 3309 0 
L 1241 3903 
L 1241 0 
L 628 0 
L 628 4666 
z
" transform="scale(0.015625)"/>
      <path id="DejaVuSans-2d" d="M 313 2009 
L 1997 2009 
L 1997 1497 
L 313 1497 
L 313 2009 
z
" transform="scale(0.015625)"/>
      <path id="DejaVuSans-34" d="M 2419 4116 
L 825 1625 
L 2419 1625 
L 2419 4116 
z
M 2253 4666 
L 3047 4666 
L 3047 1625 
L 3713 1625 
L 3713 1100 
L 3047 1100 
L 3047 0 
L 2419 0 
L 2419 1100 
L 313 1100 
L 313 1709 
L 2253 4666 
z
" transform="scale(0.015625)"/>
     </defs>
     <use xlink:href="#DejaVuSans-67"/>
     <use xlink:href="#DejaVuSans-72" x="63.476562"/>
     <use xlink:href="#DejaVuSans-6f" x="102.339844"/>
     <use xlink:href="#DejaVuSans-75" x="163.521484"/>
     <use xlink:href="#DejaVuSans-70" x="226.900391"/>
     <use xlink:href="#DejaVuSans-20" x="290.376953"/>
     <use xlink:href="#DejaVuSans-31" x="322.164062"/>
     <use xlink:href="#DejaVuSans-3a" x="385.787109"/>
     <use xlink:href="#DejaVuSans-20" x="419.478516"/>
     <use xlink:href="#DejaVuSans-4e" x="451.265625"/>
     <use xlink:href="#DejaVuSans-6f" x="526.070312"/>
     <use xlink:href="#DejaVuSans-2e" x="585.501953"/>
     <use xlink:href="#DejaVuSans-31" x="617.289062"/>
     <use xlink:href="#DejaVuSans-20" x="680.912109"/>
     <use xlink:href="#DejaVuSans-2d" x="712.699219"/>
     <use xlink:href="#DejaVuSans-20" x="748.783203"/>
     <use xlink:href="#DejaVuSans-4e" x="780.570312"/>
     <use xlink:href="#DejaVuSans-6f" x="855.375"/>
     <use xlink:href="#DejaVuSans-2e" x="914.806641"/>
     <use xlink:href="#DejaVuSans-34" x="946.59375"/>
    </g>
   </g>
  </g>
  <g id="axes_2">
   <g id="patch_6">
    <path d="M 54 267.077647 
L 388.8 267.077647 
L 388.8 169.242353 
L 54 169.242353 
z
" style="fill: #ffffff"/>
   </g>
   <g id="patch_7">
    <path d="M 120.337153 209.434421 
L 120.337153 213.428527 
L 115.011679 213.428527 
L 115.011679 229.404951 
L 120.337153 229.404951 
L 120.337153 233.399057 
L 107.023467 233.399057 
L 107.023467 229.404951 
L 112.348941 229.404951 
L 112.348941 213.428527 
L 107.023467 213.428527 
L 107.023467 209.434421 
z
" clip-path="url(#p8040645966)" style="fill: #0000ff"/>
   </g>
   <g id="patch_8">
    <path d="M 294.091821 215.086281 
L 294.091821 216.912876 
L 291.656362 216.912876 
L 291.656362 224.219254 
L 294.091821 224.219254 
L 294.091821 226.045849 
L 288.003173 226.045849 
L 288.003173 224.219254 
L 290.438632 224.219254 
L 290.438632 216.912876 
L 288.003173 216.912876 
L 288.003173 215.086281 
z
" clip-path="url(#p8040645966)" style="fill: #0000ff"/>
   </g>
   <g id="matplotlib.axis_3"/>
   <g id="matplotlib.axis_4">
    <g id="ytick_4">
     <g id="line2d_12">
      <g>
       <use xlink:href="#m84796ec3b4" x="54" y="259.131313" style="stroke: #000000; stroke-width: 0.8"/>
      </g>
     </g>
     <g id="text_5">
      <!-- −0.1 -->
      <g transform="translate(22.717187 262.930532) scale(0.1 -0.1)">
       <use xlink:href="#DejaVuSans-2212"/>
       <use xlink:href="#DejaVuSans-30" x="83.789062"/>
       <use xlink:href="#DejaVuSans-2e" x="147.412109"/>
       <use xlink:href="#DejaVuSans-31" x="179.199219"/>
      </g>
     </g>
    </g>
    <g id="ytick_5">
     <g id="line2d_13">
      <g>
       <use xlink:href="#m84796ec3b4" x="54" y="228.979645" style="stroke: #000000; stroke-width: 0.8"/>
      </g>
     </g>
     <g id="text_6">
      <!-- 0.0 -->
      <g transform="translate(31.096875 232.778864) scale(0.1 -0.1)">
       <use xlink:href="#DejaVuSans-30"/>
       <use xlink:href="#DejaVuSans-2e" x="63.623047"/>
       <use xlink:href="#DejaVuSans-30" x="95.410156"/>
      </g>
     </g>
    </g>
    <g id="ytick_6">
     <g id="line2d_14">
      <g>
       <use xlink:href="#m84796ec3b4" x="54" y="198.827977" style="stroke: #000000; stroke-width: 0.8"/>
      </g>
     </g>
     <g id="text_7">
      <!-- 0.1 -->
      <g transform="translate(31.096875 202.627196) scale(0.1 -0.1)">
       <use xlink:href="#DejaVuSans-30"/>
       <use xlink:href="#DejaVuSans-2e" x="63.623047"/>
       <use xlink:href="#DejaVuSans-31" x="95.410156"/>
      </g>
     </g>
    </g>
   </g>
   <g id="line2d_15">
    <path d="M 152.279594 204.668339 
L 158.836493 204.650868 
L 164.58444 205.657362 
L 168.437138 208.245446 
L 169.362766 213.124188 
L 169.00297 219.152863 
L 168.66739 225.262365 
L 166.854319 229.911252 
L 162.120529 231.479033 
L 156.09947 231.793051 
L 150.572091 232.072613 
L 146.512181 230.471488 
L 144.776394 224.404037 
L 144.465107 216.677517 
L 144.914518 210.439202 
L 146.876043 206.244223 
L 152.279594 204.668339 
L 158.836493 204.650868 
L 164.58444 205.657362 
" clip-path="url(#p8040645966)" style="fill: none; stroke: #ff0000; stroke-width: 1.5; stroke-linecap: square"/>
    <g clip-path="url(#p8040645966)">
     <use xlink:href="#m48f0fbeb07" x="152.279594" y="204.668339" style="fill: #ff0000; stroke: #ff0000"/>
     <use xlink:href="#m48f0fbeb07" x="158.836493" y="204.650868" style="fill: #ff0000; stroke: #ff0000"/>
     <use xlink:href="#m48f0fbeb07" x="164.58444" y="205.657362" style="fill: #ff0000; stroke: #ff0000"/>
     <use xlink:href="#m48f0fbeb07" x="168.437138" y="208.245446" style="fill: #ff0000; stroke: #ff0000"/>
     <use xlink:href="#m48f0fbeb07" x="169.362766" y="213.124188" style="fill: #ff0000; stroke: #ff0000"/>
     <use xlink:href="#m48f0fbeb07" x="169.00297" y="219.152863" style="fill: #ff0000; stroke: #ff0000"/>
     <use xlink:href="#m48f0fbeb07" x="168.66739" y="225.262365" style="fill: #ff0000; stroke: #ff0000"/>
     <use xlink:href="#m48f0fbeb07" x="166.854319" y="229.911252" style="fill: #ff0000; stroke: #ff0000"/>
     <use xlink:href="#m48f0fbeb07" x="162.120529" y="231.479033" style="fill: #ff0000; stroke: #ff0000"/>
     <use xlink:href="#m48f0fbeb07" x="156.09947" y="231.793051" style="fill: #ff0000; stroke: #ff0000"/>
     <use xlink:href="#m48f0fbeb07" x="150.572091" y="232.072613" style="fill: #ff0000; stroke: #ff0000"/>
     <use xlink:href="#m48f0fbeb07" x="146.512181" y="230.471488" style="fill: #ff0000; stroke: #ff0000"/>
     <use xlink:href="#m48f0fbeb07" x="144.776394" y="224.404037" style="fill: #ff0000; stroke: #ff0000"/>
     <use xlink:href="#m48f0fbeb07" x="144.465107" y="216.677517" style="fill: #ff0000; stroke: #ff0000"/>
     <use xlink:href="#m48f0fbeb07" x="144.914518" y="210.439202" style="fill: #ff0000; stroke: #ff0000"/>
     <use xlink:href="#m48f0fbeb07" x="146.876043" y="206.244223" style="fill: #ff0000; stroke: #ff0000"/>
     <use xlink:href="#m48f0fbeb07" x="152.279594" y="204.668339" style="fill: #ff0000; stroke: #ff0000"/>
     <use xlink:href="#m48f0fbeb07" x="158.836493" y="204.650868" style="fill: #ff0000; stroke: #ff0000"/>
     <use xlink:href="#m48f0fbeb07" x="164.58444" y="205.657362" style="fill: #ff0000; stroke: #ff0000"/>
    </g>
   </g>
   <g id="line2d_16">
    <path d="M 202.339158 204.878119 
L 208.057283 204.962967 
L 213.255651 205.983095 
L 216.793898 208.344656 
L 217.78003 212.539736 
L 217.541666 217.831753 
L 217.315328 223.604835 
L 215.74952 228.168942 
L 211.369152 229.656249 
L 205.935129 229.923201 
L 201.129464 230.061605 
L 197.688105 228.492939 
L 196.104065 222.774206 
L 195.731991 215.631176 
L 196.007051 209.999303 
L 197.678289 206.275553 
L 202.339158 204.878119 
L 208.057283 204.962967 
L 213.255651 205.983095 
" clip-path="url(#p8040645966)" style="fill: none; stroke: #ff0000; stroke-width: 1.5; stroke-linecap: square"/>
    <g clip-path="url(#p8040645966)">
     <use xlink:href="#m48f0fbeb07" x="202.339158" y="204.878119" style="fill: #ff0000; stroke: #ff0000"/>
     <use xlink:href="#m48f0fbeb07" x="208.057283" y="204.962967" style="fill: #ff0000; stroke: #ff0000"/>
     <use xlink:href="#m48f0fbeb07" x="213.255651" y="205.983095" style="fill: #ff0000; stroke: #ff0000"/>
     <use xlink:href="#m48f0fbeb07" x="216.793898" y="208.344656" style="fill: #ff0000; stroke: #ff0000"/>
     <use xlink:href="#m48f0fbeb07" x="217.78003" y="212.539736" style="fill: #ff0000; stroke: #ff0000"/>
     <use xlink:href="#m48f0fbeb07" x="217.541666" y="217.831753" style="fill: #ff0000; stroke: #ff0000"/>
     <use xlink:href="#m48f0fbeb07" x="217.315328" y="223.604835" style="fill: #ff0000; stroke: #ff0000"/>
     <use xlink:href="#m48f0fbeb07" x="215.74952" y="228.168942" style="fill: #ff0000; stroke: #ff0000"/>
     <use xlink:href="#m48f0fbeb07" x="211.369152" y="229.656249" style="fill: #ff0000; stroke: #ff0000"/>
     <use xlink:href="#m48f0fbeb07" x="205.935129" y="229.923201" style="fill: #ff0000; stroke: #ff0000"/>
     <use xlink:href="#m48f0fbeb07" x="201.129464" y="230.061605" style="fill: #ff0000; stroke: #ff0000"/>
     <use xlink:href="#m48f0fbeb07" x="197.688105" y="228.492939" style="fill: #ff0000; stroke: #ff0000"/>
     <use xlink:href="#m48f0fbeb07" x="196.104065" y="222.774206" style="fill: #ff0000; stroke: #ff0000"/>
     <use xlink:href="#m48f0fbeb07" x="195.731991" y="215.631176" style="fill: #ff0000; stroke: #ff0000"/>
     <use xlink:href="#m48f0fbeb07" x="196.007051" y="209.999303" style="fill: #ff0000; stroke: #ff0000"/>
     <use xlink:href="#m48f0fbeb07" x="197.678289" y="206.275553" style="fill: #ff0000; stroke: #ff0000"/>
     <use xlink:href="#m48f0fbeb07" x="202.339158" y="204.878119" style="fill: #ff0000; stroke: #ff0000"/>
     <use xlink:href="#m48f0fbeb07" x="208.057283" y="204.962967" style="fill: #ff0000; stroke: #ff0000"/>
     <use xlink:href="#m48f0fbeb07" x="213.255651" y="205.983095" style="fill: #ff0000; stroke: #ff0000"/>
    </g>
   </g>
   <g id="line2d_17">
    <path d="M 251.806811 207.803741 
L 258.365786 207.910682 
L 263.924997 208.988993 
L 267.617021 211.128155 
L 268.513046 214.237341 
L 268.188427 218.160117 
L 267.976379 222.884824 
L 266.265136 226.767533 
L 261.157497 228.143167 
L 254.838047 228.457011 
L 249.508053 228.619266 
L 245.776897 227.328587 
L 244.213657 222.633655 
L 243.990033 216.774955 
L 244.403138 212.099058 
L 246.319852 208.995061 
L 251.806811 207.803741 
L 258.365786 207.910682 
L 263.924997 208.988993 
" clip-path="url(#p8040645966)" style="fill: none; stroke: #ff0000; stroke-width: 1.5; stroke-linecap: square"/>
    <g clip-path="url(#p8040645966)">
     <use xlink:href="#m48f0fbeb07" x="251.806811" y="207.803741" style="fill: #ff0000; stroke: #ff0000"/>
     <use xlink:href="#m48f0fbeb07" x="258.365786" y="207.910682" style="fill: #ff0000; stroke: #ff0000"/>
     <use xlink:href="#m48f0fbeb07" x="263.924997" y="208.988993" style="fill: #ff0000; stroke: #ff0000"/>
     <use xlink:href="#m48f0fbeb07" x="267.617021" y="211.128155" style="fill: #ff0000; stroke: #ff0000"/>
     <use xlink:href="#m48f0fbeb07" x="268.513046" y="214.237341" style="fill: #ff0000; stroke: #ff0000"/>
     <use xlink:href="#m48f0fbeb07" x="268.188427" y="218.160117" style="fill: #ff0000; stroke: #ff0000"/>
     <use xlink:href="#m48f0fbeb07" x="267.976379" y="222.884824" style="fill: #ff0000; stroke: #ff0000"/>
     <use xlink:href="#m48f0fbeb07" x="266.265136" y="226.767533" style="fill: #ff0000; stroke: #ff0000"/>
     <use xlink:href="#m48f0fbeb07" x="261.157497" y="228.143167" style="fill: #ff0000; stroke: #ff0000"/>
     <use xlink:href="#m48f0fbeb07" x="254.838047" y="228.457011" style="fill: #ff0000; stroke: #ff0000"/>
     <use xlink:href="#m48f0fbeb07" x="249.508053" y="228.619266" style="fill: #ff0000; stroke: #ff0000"/>
     <use xlink:href="#m48f0fbeb07" x="245.776897" y="227.328587" style="fill: #ff0000; stroke: #ff0000"/>
     <use xlink:href="#m48f0fbeb07" x="244.213657" y="222.633655" style="fill: #ff0000; stroke: #ff0000"/>
     <use xlink:href="#m48f0fbeb07" x="243.990033" y="216.774955" style="fill: #ff0000; stroke: #ff0000"/>
     <use xlink:href="#m48f0fbeb07" x="244.403138" y="212.099058" style="fill: #ff0000; stroke: #ff0000"/>
     <use xlink:href="#m48f0fbeb07" x="246.319852" y="208.995061" style="fill: #ff0000; stroke: #ff0000"/>
     <use xlink:href="#m48f0fbeb07" x="251.806811" y="207.803741" style="fill: #ff0000; stroke: #ff0000"/>
     <use xlink:href="#m48f0fbeb07" x="258.365786" y="207.910682" style="fill: #ff0000; stroke: #ff0000"/>
     <use xlink:href="#m48f0fbeb07" x="263.924997" y="208.988993" style="fill: #ff0000; stroke: #ff0000"/>
    </g>
   </g>
   <g id="line2d_18">
    <path d="M 158.70167 204.821528 
L 160.623095 205.035244 
L 162.426081 205.372088 
L 164.075049 205.850328 
L 165.534588 206.488793 
L 166.770467 207.309547 
L 167.748879 208.335819 
L 168.442175 209.586584 
L 168.876311 211.04372 
L 169.104849 212.670007 
L 169.181149 214.428159 
L 169.152548 216.282189 
L 169.062054 218.197044 
L 168.950662 220.13737 
L 168.815227 222.060396 
L 168.608458 223.915933 
L 168.281167 225.653449 
L 167.784928 227.221381 
L 167.072365 228.566732 
L 166.096449 229.636698 
L 164.841925 230.414071 
L 163.355227 230.950788 
L 161.689877 231.306719 
L 159.900541 231.537034 
L 158.045053 231.683913 
L 156.181752 231.787309 
L 154.364597 231.870434 
L 152.629898 231.889534 
L 151.00958 231.784111 
L 149.535109 231.490963 
L 148.235465 230.931089 
L 147.138726 230.019771 
L 146.268914 228.684709 
L 145.614832 226.961746 
L 145.147149 224.94241 
L 144.836708 222.719144 
L 144.658609 220.390542 
L 144.591032 218.059638 
L 144.613191 215.827792 
L 144.726523 213.755664 
L 144.954684 211.863214 
L 145.322635 210.168638 
L 145.870716 208.690402 
L 146.660589 207.447346 
L 147.755134 206.458195 
L 149.173677 205.72478 
L 150.850942 205.216114 
L 152.711931 204.897448 
L 154.684175 204.738101 
L 156.702194 204.71863 
L 158.70167 204.821528 
" clip-path="url(#p8040645966)" style="fill: none; stroke: #008000; stroke-width: 1.5; stroke-linecap: square"/>
   </g>
   <g id="line2d_19">
    <path d="M 207.970661 205.118846 
L 209.684461 205.345747 
L 211.30766 205.681731 
L 212.802918 206.140102 
L 214.133753 206.734488 
L 215.269013 207.480347 
L 216.179477 208.393802 
L 216.841029 209.488147 
L 217.27406 210.752038 
L 217.52188 212.161443 
L 217.627882 213.692386 
L 217.633794 215.323077 
L 217.580158 217.0333 
L 217.505728 218.802142 
L 217.408617 220.591822 
L 217.246309 222.347694 
L 216.974482 224.014328 
L 216.547209 225.533974 
L 215.916308 226.845664 
L 215.03372 227.888511 
L 213.884807 228.640083 
L 212.519814 229.15263 
L 210.996432 229.486977 
L 209.37175 229.698034 
L 207.701196 229.824375 
L 206.039859 229.901776 
L 204.437701 229.951431 
L 202.923992 229.936197 
L 201.522874 229.80435 
L 200.257552 229.501002 
L 199.146062 228.952794 
L 198.204573 228.079685 
L 197.446615 226.813532 
L 196.862887 225.18984 
L 196.432336 223.297489 
L 196.133933 221.226075 
L 195.948092 219.068991 
L 195.856279 216.922367 
L 195.840882 214.880657 
L 195.90492 212.998461 
L 196.072041 211.290519 
L 196.367035 209.769846 
L 196.825707 208.44973 
L 197.499139 207.343849 
L 198.439244 206.465798 
L 199.661538 205.816138 
L 201.110825 205.370121 
L 202.723778 205.100094 
L 204.439828 204.9807 
L 206.206024 204.992924 
L 207.970661 205.118846 
" clip-path="url(#p8040645966)" style="fill: none; stroke: #008000; stroke-width: 1.5; stroke-linecap: square"/>
   </g>
   <g id="line2d_20">
    <path d="M 258.199164 208.072577 
L 260.08215 208.312439 
L 261.834321 208.654704 
L 263.427292 209.102299 
L 264.832384 209.6575 
L 266.019636 210.318727 
L 266.958627 211.083004 
L 267.624693 211.947204 
L 268.043374 212.906884 
L 268.266075 213.956925 
L 268.344109 215.092392 
L 268.324385 216.310974 
L 268.250656 217.612246 
L 268.164599 218.994713 
L 268.06165 220.43125 
L 267.891006 221.869101 
L 267.599772 223.254394 
L 267.131334 224.532977 
L 266.423892 225.650319 
L 265.415629 226.552122 
L 264.086881 227.216206 
L 262.499829 227.682765 
L 260.726043 227.999152 
L 258.837237 228.208582 
L 256.905512 228.342838 
L 255.002962 228.431746 
L 253.19304 228.493054 
L 251.504392 228.496196 
L 249.957024 228.39853 
L 248.570725 228.155037 
L 247.364456 227.706807 
L 246.356878 226.989909 
L 245.563418 225.950058 
L 244.971473 224.617031 
L 244.554019 223.063887 
L 244.284094 221.364184 
L 244.136987 219.593399 
L 244.089629 217.828394 
L 244.120057 216.144727 
L 244.230961 214.587216 
L 244.449673 213.16995 
L 244.804947 211.905664 
L 245.341192 210.806463 
L 246.124515 209.883578 
L 247.222248 209.148096 
L 248.654597 208.601238 
L 250.350216 208.22507 
L 252.227237 207.999465 
L 254.207098 207.906516 
L 256.220382 207.934456 
L 258.199164 208.072577 
" clip-path="url(#p8040645966)" style="fill: none; stroke: #008000; stroke-width: 1.5; stroke-linecap: square"/>
   </g>
   <g id="line2d_21">
    <path d="M 69.218182 227.402582 
L 69.272574 228.457955 
L 69.479715 229.493821 
L 69.834627 230.489137 
L 70.335668 231.440346 
L 71.358781 232.784384 
L 72.703878 234.029121 
L 74.365954 235.174761 
L 76.339334 236.221709 
L 78.61772 237.170588 
L 81.194233 238.022269 
L 84.06147 238.77789 
L 88.323008 239.638508 
L 93.067519 240.335333 
L 98.274087 240.873932 
L 103.920898 241.261184 
L 111.564114 241.545184 
L 119.814699 241.625176 
L 130.451745 241.484507 
L 143.772934 241.053076 
L 162.134747 240.20484 
L 220.847096 237.134111 
L 303.34087 232.445099 
L 336.807169 230.862319 
L 373.581818 229.340499 
L 373.581818 229.340499 
" clip-path="url(#p8040645966)" style="fill: none; stroke: #000000; stroke-width: 1.5; stroke-linecap: square"/>
   </g>
   <g id="line2d_22">
    <path d="M 373.581818 229.340499 
L 359.588809 225.042263 
L 347.686075 221.61684 
L 335.085164 218.215493 
L 321.918378 214.899658 
L 309.037442 211.884985 
L 295.041943 208.862031 
L 282.282533 206.334148 
L 268.935871 203.924403 
L 255.12011 201.687505 
L 243.337915 199.993258 
L 231.390298 198.484002 
L 219.353499 197.186446 
L 207.305187 196.124953 
L 195.323937 195.321001 
L 185.757833 194.883489 
L 176.217244 194.699068 
L 166.851488 194.782375 
L 157.704436 195.13116 
L 148.819155 195.739737 
L 140.237535 196.599007 
L 131.999906 197.69658 
L 124.144679 199.016959 
L 116.708008 200.541824 
L 109.723495 202.250395 
L 103.221939 204.119869 
L 97.231142 206.125932 
L 91.775774 208.243323 
L 86.877289 210.446435 
L 83.579963 212.139764 
L 80.612699 213.856681 
L 77.980997 215.587251 
L 75.689378 217.322123 
L 73.74141 219.05266 
L 72.139735 220.771065 
L 70.886104 222.47049 
L 69.981403 224.145136 
L 69.425681 225.790328 
L 69.248736 226.868989 
L 69.218182 227.402582 
L 69.218182 227.402582 
" clip-path="url(#p8040645966)" style="fill: none; stroke: #000000; stroke-width: 1.5; stroke-linecap: square"/>
   </g>
   <g id="patch_9">
    <path d="M 54 267.077647 
L 54 169.242353 
" style="fill: none; stroke: #000000; stroke-width: 0.8; stroke-linejoin: miter; stroke-linecap: square"/>
   </g>
   <g id="text_8">
    <!-- group 2: No.5 - No.7 -->
    <g transform="translate(130.480313 163.242353) scale(0.18 -0.18)">
     <defs>
      <path id="DejaVuSans-32" d="M 1228 531 
L 3431 531 
L 3431 0 
L 469 0 
L 469 531 
Q 828 903 1448 1529 
Q 2069 2156 2228 2338 
Q 2531 2678 2651 2914 
Q 2772 3150 2772 3378 
Q 2772 3750 2511 3984 
Q 2250 4219 1831 4219 
Q 1534 4219 1204 4116 
Q 875 4013 500 3803 
L 500 4441 
Q 881 4594 1212 4672 
Q 1544 4750 1819 4750 
Q 2544 4750 2975 4387 
Q 3406 4025 3406 3419 
Q 3406 3131 3298 2873 
Q 3191 2616 2906 2266 
Q 2828 2175 2409 1742 
Q 1991 1309 1228 531 
z
" transform="scale(0.015625)"/>
      <path id="DejaVuSans-35" d="M 691 4666 
L 3169 4666 
L 3169 4134 
L 1269 4134 
L 1269 2991 
Q 1406 3038 1543 3061 
Q 1681 3084 1819 3084 
Q 2600 3084 3056 2656 
Q 3513 2228 3513 1497 
Q 3513 744 3044 326 
Q 2575 -91 1722 -91 
Q 1428 -91 1123 -41 
Q 819 9 494 109 
L 494 744 
Q 775 591 1075 516 
Q 1375 441 1709 441 
Q 2250 441 2565 725 
Q 2881 1009 2881 1497 
Q 2881 1984 2565 2268 
Q 2250 2553 1709 2553 
Q 1456 2553 1204 2497 
Q 953 2441 691 2322 
L 691 4666 
z
" transform="scale(0.015625)"/>
      <path id="DejaVuSans-37" d="M 525 4666 
L 3525 4666 
L 3525 4397 
L 1831 0 
L 1172 0 
L 2766 4134 
L 525 4134 
L 525 4666 
z
" transform="scale(0.015625)"/>
     </defs>
     <use xlink:href="#DejaVuSans-67"/>
     <use xlink:href="#DejaVuSans-72" x="63.476562"/>
     <use xlink:href="#DejaVuSans-6f" x="102.339844"/>
     <use xlink:href="#DejaVuSans-75" x="163.521484"/>
     <use xlink:href="#DejaVuSans-70" x="226.900391"/>
     <use xlink:href="#DejaVuSans-20" x="290.376953"/>
     <use xlink:href="#DejaVuSans-32" x="322.164062"/>
     <use xlink:href="#DejaVuSans-3a" x="385.787109"/>
     <use xlink:href="#DejaVuSans-20" x="419.478516"/>
     <use xlink:href="#DejaVuSans-4e" x="451.265625"/>
     <use xlink:href="#DejaVuSans-6f" x="526.070312"/>
     <use xlink:href="#DejaVuSans-2e" x="585.501953"/>
     <use xlink:href="#DejaVuSans-35" x="617.289062"/>
     <use xlink:href="#DejaVuSans-20" x="680.912109"/>
     <use xlink:href="#DejaVuSans-2d" x="712.699219"/>
     <use xlink:href="#DejaVuSans-20" x="748.783203"/>
     <use xlink:href="#DejaVuSans-4e" x="780.570312"/>
     <use xlink:href="#DejaVuSans-6f" x="855.375"/>
     <use xlink:href="#DejaVuSans-2e" x="914.806641"/>
     <use xlink:href="#DejaVuSans-37" x="946.59375"/>
    </g>
   </g>
  </g>
  <g id="axes_3">
   <g id="patch_10">
    <path d="M 54 384.48 
L 388.8 384.48 
L 388.8 286.644706 
L 54 286.644706 
z
" style="fill: #ffffff"/>
   </g>
   <g id="patch_11">
    <path d="M 120.337153 326.836774 
L 120.337153 330.83088 
L 115.011679 330.83088 
L 115.011679 346.807304 
L 120.337153 346.807304 
L 120.337153 350.80141 
L 107.023467 350.80141 
L 107.023467 346.807304 
L 112.348941 346.807304 
L 112.348941 330.83088 
L 107.023467 330.83088 
L 107.023467 326.836774 
z
" clip-path="url(#pfde85f95f8)" style="fill: #0000ff"/>
   </g>
   <g id="patch_12">
    <path d="M 294.091821 332.488634 
L 294.091821 334.315229 
L 291.656362 334.315229 
L 291.656362 341.621607 
L 294.091821 341.621607 
L 294.091821 343.448202 
L 288.003173 343.448202 
L 288.003173 341.621607 
L 290.438632 341.621607 
L 290.438632 334.315229 
L 288.003173 334.315229 
L 288.003173 332.488634 
z
" clip-path="url(#pfde85f95f8)" style="fill: #0000ff"/>
   </g>
   <g id="matplotlib.axis_5">
    <g id="xtick_1">
     <g id="line2d_23">
      <defs>
       <path id="m7c7fa75b66" d="M 0 0 
L 0 3.5 
" style="stroke: #000000; stroke-width: 0.8"/>
      </defs>
      <g>
       <use xlink:href="#m7c7fa75b66" x="69.357358" y="384.48" style="stroke: #000000; stroke-width: 0.8"/>
      </g>
     </g>
     <g id="text_9">
      <!-- 0.0 -->
      <g transform="translate(61.405796 399.078438) scale(0.1 -0.1)">
       <use xlink:href="#DejaVuSans-30"/>
       <use xlink:href="#DejaVuSans-2e" x="63.623047"/>
       <use xlink:href="#DejaVuSans-30" x="95.410156"/>
      </g>
     </g>
    </g>
    <g id="xtick_2">
     <g id="line2d_24">
      <g>
       <use xlink:href="#m7c7fa75b66" x="129.660694" y="384.48" style="stroke: #000000; stroke-width: 0.8"/>
      </g>
     </g>
     <g id="text_10">
      <!-- 0.2 -->
      <g transform="translate(121.709132 399.078438) scale(0.1 -0.1)">
       <use xlink:href="#DejaVuSans-30"/>
       <use xlink:href="#DejaVuSans-2e" x="63.623047"/>
       <use xlink:href="#DejaVuSans-32" x="95.410156"/>
      </g>
     </g>
    </g>
    <g id="xtick_3">
     <g id="line2d_25">
      <g>
       <use xlink:href="#m7c7fa75b66" x="189.96403" y="384.48" style="stroke: #000000; stroke-width: 0.8"/>
      </g>
     </g>
     <g id="text_11">
      <!-- 0.4 -->
      <g transform="translate(182.012468 399.078438) scale(0.1 -0.1)">
       <use xlink:href="#DejaVuSans-30"/>
       <use xlink:href="#DejaVuSans-2e" x="63.623047"/>
       <use xlink:href="#DejaVuSans-34" x="95.410156"/>
      </g>
     </g>
    </g>
    <g id="xtick_4">
     <g id="line2d_26">
      <g>
       <use xlink:href="#m7c7fa75b66" x="250.267366" y="384.48" style="stroke: #000000; stroke-width: 0.8"/>
      </g>
     </g>
     <g id="text_12">
      <!-- 0.6 -->
      <g transform="translate(242.315803 399.078438) scale(0.1 -0.1)">
       <defs>
        <path id="DejaVuSans-36" d="M 2113 2584 
Q 1688 2584 1439 2293 
Q 1191 2003 1191 1497 
Q 1191 994 1439 701 
Q 1688 409 2113 409 
Q 2538 409 2786 701 
Q 3034 994 3034 1497 
Q 3034 2003 2786 2293 
Q 2538 2584 2113 2584 
z
M 3366 4563 
L 3366 3988 
Q 3128 4100 2886 4159 
Q 2644 4219 2406 4219 
Q 1781 4219 1451 3797 
Q 1122 3375 1075 2522 
Q 1259 2794 1537 2939 
Q 1816 3084 2150 3084 
Q 2853 3084 3261 2657 
Q 3669 2231 3669 1497 
Q 3669 778 3244 343 
Q 2819 -91 2113 -91 
Q 1303 -91 875 529 
Q 447 1150 447 2328 
Q 447 3434 972 4092 
Q 1497 4750 2381 4750 
Q 2619 4750 2861 4703 
Q 3103 4656 3366 4563 
z
" transform="scale(0.015625)"/>
       </defs>
       <use xlink:href="#DejaVuSans-30"/>
       <use xlink:href="#DejaVuSans-2e" x="63.623047"/>
       <use xlink:href="#DejaVuSans-36" x="95.410156"/>
      </g>
     </g>
    </g>
    <g id="xtick_5">
     <g id="line2d_27">
      <g>
       <use xlink:href="#m7c7fa75b66" x="310.570702" y="384.48" style="stroke: #000000; stroke-width: 0.8"/>
      </g>
     </g>
     <g id="text_13">
      <!-- 0.8 -->
      <g transform="translate(302.619139 399.078438) scale(0.1 -0.1)">
       <defs>
        <path id="DejaVuSans-38" d="M 2034 2216 
Q 1584 2216 1326 1975 
Q 1069 1734 1069 1313 
Q 1069 891 1326 650 
Q 1584 409 2034 409 
Q 2484 409 2743 651 
Q 3003 894 3003 1313 
Q 3003 1734 2745 1975 
Q 2488 2216 2034 2216 
z
M 1403 2484 
Q 997 2584 770 2862 
Q 544 3141 544 3541 
Q 544 4100 942 4425 
Q 1341 4750 2034 4750 
Q 2731 4750 3128 4425 
Q 3525 4100 3525 3541 
Q 3525 3141 3298 2862 
Q 3072 2584 2669 2484 
Q 3125 2378 3379 2068 
Q 3634 1759 3634 1313 
Q 3634 634 3220 271 
Q 2806 -91 2034 -91 
Q 1263 -91 848 271 
Q 434 634 434 1313 
Q 434 1759 690 2068 
Q 947 2378 1403 2484 
z
M 1172 3481 
Q 1172 3119 1398 2916 
Q 1625 2713 2034 2713 
Q 2441 2713 2670 2916 
Q 2900 3119 2900 3481 
Q 2900 3844 2670 4047 
Q 2441 4250 2034 4250 
Q 1625 4250 1398 4047 
Q 1172 3844 1172 3481 
z
" transform="scale(0.015625)"/>
       </defs>
       <use xlink:href="#DejaVuSans-30"/>
       <use xlink:href="#DejaVuSans-2e" x="63.623047"/>
       <use xlink:href="#DejaVuSans-38" x="95.410156"/>
      </g>
     </g>
    </g>
    <g id="xtick_6">
     <g id="line2d_28">
      <g>
       <use xlink:href="#m7c7fa75b66" x="370.874038" y="384.48" style="stroke: #000000; stroke-width: 0.8"/>
      </g>
     </g>
     <g id="text_14">
      <!-- 1.0 -->
      <g transform="translate(362.922475 399.078438) scale(0.1 -0.1)">
       <use xlink:href="#DejaVuSans-31"/>
       <use xlink:href="#DejaVuSans-2e" x="63.623047"/>
       <use xlink:href="#DejaVuSans-30" x="95.410156"/>
      </g>
     </g>
    </g>
   </g>
   <g id="matplotlib.axis_6">
    <g id="ytick_7">
     <g id="line2d_29">
      <g>
       <use xlink:href="#m84796ec3b4" x="54" y="376.533666" style="stroke: #000000; stroke-width: 0.8"/>
      </g>
     </g>
     <g id="text_15">
      <!-- −0.1 -->
      <g transform="translate(22.717187 380.332885) scale(0.1 -0.1)">
       <use xlink:href="#DejaVuSans-2212"/>
       <use xlink:href="#DejaVuSans-30" x="83.789062"/>
       <use xlink:href="#DejaVuSans-2e" x="147.412109"/>
       <use xlink:href="#DejaVuSans-31" x="179.199219"/>
      </g>
     </g>
    </g>
    <g id="ytick_8">
     <g id="line2d_30">
      <g>
       <use xlink:href="#m84796ec3b4" x="54" y="346.381998" style="stroke: #000000; stroke-width: 0.8"/>
      </g>
     </g>
     <g id="text_16">
      <!-- 0.0 -->
      <g transform="translate(31.096875 350.181217) scale(0.1 -0.1)">
       <use xlink:href="#DejaVuSans-30"/>
       <use xlink:href="#DejaVuSans-2e" x="63.623047"/>
       <use xlink:href="#DejaVuSans-30" x="95.410156"/>
      </g>
     </g>
    </g>
    <g id="ytick_9">
     <g id="line2d_31">
      <g>
       <use xlink:href="#m84796ec3b4" x="54" y="316.23033" style="stroke: #000000; stroke-width: 0.8"/>
      </g>
     </g>
     <g id="text_17">
      <!-- 0.1 -->
      <g transform="translate(31.096875 320.029549) scale(0.1 -0.1)">
       <use xlink:href="#DejaVuSans-30"/>
       <use xlink:href="#DejaVuSans-2e" x="63.623047"/>
       <use xlink:href="#DejaVuSans-31" x="95.410156"/>
      </g>
     </g>
    </g>
   </g>
   <g id="line2d_32">
    <path d="M 151.845955 322.375179 
L 158.294145 322.326717 
L 164.199619 322.473382 
L 168.299554 324.176798 
L 169.3909 329.365162 
L 169.075311 336.046151 
L 168.529339 342.441871 
L 166.604147 347.187607 
L 161.843346 348.825502 
L 156.011422 349.120839 
L 150.690705 349.343569 
L 146.837631 347.651341 
L 145.334177 341.469471 
L 145.076245 333.732027 
L 145.180538 327.694727 
L 146.77274 323.719646 
L 151.845955 322.375179 
L 158.294145 322.326717 
L 164.199619 322.473382 
" clip-path="url(#pfde85f95f8)" style="fill: none; stroke: #ff0000; stroke-width: 1.5; stroke-linecap: square"/>
    <g clip-path="url(#pfde85f95f8)">
     <use xlink:href="#m48f0fbeb07" x="151.845955" y="322.375179" style="fill: #ff0000; stroke: #ff0000"/>
     <use xlink:href="#m48f0fbeb07" x="158.294145" y="322.326717" style="fill: #ff0000; stroke: #ff0000"/>
     <use xlink:href="#m48f0fbeb07" x="164.199619" y="322.473382" style="fill: #ff0000; stroke: #ff0000"/>
     <use xlink:href="#m48f0fbeb07" x="168.299554" y="324.176798" style="fill: #ff0000; stroke: #ff0000"/>
     <use xlink:href="#m48f0fbeb07" x="169.3909" y="329.365162" style="fill: #ff0000; stroke: #ff0000"/>
     <use xlink:href="#m48f0fbeb07" x="169.075311" y="336.046151" style="fill: #ff0000; stroke: #ff0000"/>
     <use xlink:href="#m48f0fbeb07" x="168.529339" y="342.441871" style="fill: #ff0000; stroke: #ff0000"/>
     <use xlink:href="#m48f0fbeb07" x="166.604147" y="347.187607" style="fill: #ff0000; stroke: #ff0000"/>
     <use xlink:href="#m48f0fbeb07" x="161.843346" y="348.825502" style="fill: #ff0000; stroke: #ff0000"/>
     <use xlink:href="#m48f0fbeb07" x="156.011422" y="349.120839" style="fill: #ff0000; stroke: #ff0000"/>
     <use xlink:href="#m48f0fbeb07" x="150.690705" y="349.343569" style="fill: #ff0000; stroke: #ff0000"/>
     <use xlink:href="#m48f0fbeb07" x="146.837631" y="347.651341" style="fill: #ff0000; stroke: #ff0000"/>
     <use xlink:href="#m48f0fbeb07" x="145.334177" y="341.469471" style="fill: #ff0000; stroke: #ff0000"/>
     <use xlink:href="#m48f0fbeb07" x="145.076245" y="333.732027" style="fill: #ff0000; stroke: #ff0000"/>
     <use xlink:href="#m48f0fbeb07" x="145.180538" y="327.694727" style="fill: #ff0000; stroke: #ff0000"/>
     <use xlink:href="#m48f0fbeb07" x="146.77274" y="323.719646" style="fill: #ff0000; stroke: #ff0000"/>
     <use xlink:href="#m48f0fbeb07" x="151.845955" y="322.375179" style="fill: #ff0000; stroke: #ff0000"/>
     <use xlink:href="#m48f0fbeb07" x="158.294145" y="322.326717" style="fill: #ff0000; stroke: #ff0000"/>
     <use xlink:href="#m48f0fbeb07" x="164.199619" y="322.473382" style="fill: #ff0000; stroke: #ff0000"/>
    </g>
   </g>
   <g id="line2d_33">
    <path d="M 202.247451 322.381681 
L 208.009415 322.157652 
L 213.108643 322.412888 
L 216.652208 324.152051 
L 217.62303 329.036897 
L 217.480554 335.248723 
L 217.235897 341.120396 
L 215.667323 345.415207 
L 211.362803 346.711851 
L 205.955241 346.847792 
L 201.16925 347.139891 
L 197.76388 345.77327 
L 196.46479 340.166759 
L 196.247489 333.085657 
L 196.28559 327.55305 
L 197.669024 323.768363 
L 202.247451 322.381681 
L 208.009415 322.157652 
L 213.108643 322.412888 
" clip-path="url(#pfde85f95f8)" style="fill: none; stroke: #ff0000; stroke-width: 1.5; stroke-linecap: square"/>
    <g clip-path="url(#pfde85f95f8)">
     <use xlink:href="#m48f0fbeb07" x="202.247451" y="322.381681" style="fill: #ff0000; stroke: #ff0000"/>
     <use xlink:href="#m48f0fbeb07" x="208.009415" y="322.157652" style="fill: #ff0000; stroke: #ff0000"/>
     <use xlink:href="#m48f0fbeb07" x="213.108643" y="322.412888" style="fill: #ff0000; stroke: #ff0000"/>
     <use xlink:href="#m48f0fbeb07" x="216.652208" y="324.152051" style="fill: #ff0000; stroke: #ff0000"/>
     <use xlink:href="#m48f0fbeb07" x="217.62303" y="329.036897" style="fill: #ff0000; stroke: #ff0000"/>
     <use xlink:href="#m48f0fbeb07" x="217.480554" y="335.248723" style="fill: #ff0000; stroke: #ff0000"/>
     <use xlink:href="#m48f0fbeb07" x="217.235897" y="341.120396" style="fill: #ff0000; stroke: #ff0000"/>
     <use xlink:href="#m48f0fbeb07" x="215.667323" y="345.415207" style="fill: #ff0000; stroke: #ff0000"/>
     <use xlink:href="#m48f0fbeb07" x="211.362803" y="346.711851" style="fill: #ff0000; stroke: #ff0000"/>
     <use xlink:href="#m48f0fbeb07" x="205.955241" y="346.847792" style="fill: #ff0000; stroke: #ff0000"/>
     <use xlink:href="#m48f0fbeb07" x="201.16925" y="347.139891" style="fill: #ff0000; stroke: #ff0000"/>
     <use xlink:href="#m48f0fbeb07" x="197.76388" y="345.77327" style="fill: #ff0000; stroke: #ff0000"/>
     <use xlink:href="#m48f0fbeb07" x="196.46479" y="340.166759" style="fill: #ff0000; stroke: #ff0000"/>
     <use xlink:href="#m48f0fbeb07" x="196.247489" y="333.085657" style="fill: #ff0000; stroke: #ff0000"/>
     <use xlink:href="#m48f0fbeb07" x="196.28559" y="327.55305" style="fill: #ff0000; stroke: #ff0000"/>
     <use xlink:href="#m48f0fbeb07" x="197.669024" y="323.768363" style="fill: #ff0000; stroke: #ff0000"/>
     <use xlink:href="#m48f0fbeb07" x="202.247451" y="322.381681" style="fill: #ff0000; stroke: #ff0000"/>
     <use xlink:href="#m48f0fbeb07" x="208.009415" y="322.157652" style="fill: #ff0000; stroke: #ff0000"/>
     <use xlink:href="#m48f0fbeb07" x="213.108643" y="322.412888" style="fill: #ff0000; stroke: #ff0000"/>
    </g>
   </g>
   <g id="line2d_34">
    <path d="M 251.305091 325.458978 
L 258.175599 325.506939 
L 263.882181 325.711024 
L 267.641081 326.970211 
L 268.452698 330.560895 
L 268.157107 335.318617 
L 268.190835 340.242496 
L 266.639165 344.033075 
L 261.163526 345.277549 
L 254.485232 345.4384 
L 249.496416 345.608244 
L 246.177871 344.418825 
L 244.850883 339.98251 
L 244.522904 334.313222 
L 244.367883 329.601928 
L 245.796877 326.428317 
L 251.305091 325.458978 
L 258.175599 325.506939 
L 263.882181 325.711024 
" clip-path="url(#pfde85f95f8)" style="fill: none; stroke: #ff0000; stroke-width: 1.5; stroke-linecap: square"/>
    <g clip-path="url(#pfde85f95f8)">
     <use xlink:href="#m48f0fbeb07" x="251.305091" y="325.458978" style="fill: #ff0000; stroke: #ff0000"/>
     <use xlink:href="#m48f0fbeb07" x="258.175599" y="325.506939" style="fill: #ff0000; stroke: #ff0000"/>
     <use xlink:href="#m48f0fbeb07" x="263.882181" y="325.711024" style="fill: #ff0000; stroke: #ff0000"/>
     <use xlink:href="#m48f0fbeb07" x="267.641081" y="326.970211" style="fill: #ff0000; stroke: #ff0000"/>
     <use xlink:href="#m48f0fbeb07" x="268.452698" y="330.560895" style="fill: #ff0000; stroke: #ff0000"/>
     <use xlink:href="#m48f0fbeb07" x="268.157107" y="335.318617" style="fill: #ff0000; stroke: #ff0000"/>
     <use xlink:href="#m48f0fbeb07" x="268.190835" y="340.242496" style="fill: #ff0000; stroke: #ff0000"/>
     <use xlink:href="#m48f0fbeb07" x="266.639165" y="344.033075" style="fill: #ff0000; stroke: #ff0000"/>
     <use xlink:href="#m48f0fbeb07" x="261.163526" y="345.277549" style="fill: #ff0000; stroke: #ff0000"/>
     <use xlink:href="#m48f0fbeb07" x="254.485232" y="345.4384" style="fill: #ff0000; stroke: #ff0000"/>
     <use xlink:href="#m48f0fbeb07" x="249.496416" y="345.608244" style="fill: #ff0000; stroke: #ff0000"/>
     <use xlink:href="#m48f0fbeb07" x="246.177871" y="344.418825" style="fill: #ff0000; stroke: #ff0000"/>
     <use xlink:href="#m48f0fbeb07" x="244.850883" y="339.98251" style="fill: #ff0000; stroke: #ff0000"/>
     <use xlink:href="#m48f0fbeb07" x="244.522904" y="334.313222" style="fill: #ff0000; stroke: #ff0000"/>
     <use xlink:href="#m48f0fbeb07" x="244.367883" y="329.601928" style="fill: #ff0000; stroke: #ff0000"/>
     <use xlink:href="#m48f0fbeb07" x="245.796877" y="326.428317" style="fill: #ff0000; stroke: #ff0000"/>
     <use xlink:href="#m48f0fbeb07" x="251.305091" y="325.458978" style="fill: #ff0000; stroke: #ff0000"/>
     <use xlink:href="#m48f0fbeb07" x="258.175599" y="325.506939" style="fill: #ff0000; stroke: #ff0000"/>
     <use xlink:href="#m48f0fbeb07" x="263.882181" y="325.711024" style="fill: #ff0000; stroke: #ff0000"/>
    </g>
   </g>
   <g id="line2d_35">
    <path d="M 158.203695 322.359237 
L 160.145598 322.392377 
L 161.99054 322.490116 
L 163.697158 322.69707 
L 165.224276 323.059931 
L 166.53201 323.637496 
L 167.580944 324.492939 
L 168.338119 325.680412 
L 168.826814 327.175447 
L 169.099272 328.913093 
L 169.207416 330.82835 
L 169.195463 332.860103 
L 169.102088 334.950031 
L 168.964257 337.040159 
L 168.782424 339.078999 
L 168.520532 341.021548 
L 168.140847 342.823061 
L 167.601628 344.437578 
L 166.855555 345.817451 
L 165.85518 346.915184 
L 164.586318 347.716562 
L 163.099365 348.272003 
L 161.452132 348.639346 
L 159.701027 348.872601 
L 157.898581 349.015194 
L 156.096626 349.108738 
L 154.343601 349.177849 
L 152.674258 349.179156 
L 151.119953 349.052287 
L 149.711741 348.734194 
L 148.4791 348.146179 
L 147.450937 347.203884 
L 146.651577 345.835634 
L 146.065512 344.080222 
L 145.656732 342.033322 
L 145.389358 339.791507 
L 145.231499 337.45717 
L 145.154148 335.136903 
L 145.129731 332.935413 
L 145.16222 330.911976 
L 145.28713 329.08043 
L 145.541598 327.452699 
L 145.974079 326.043398 
L 146.64872 324.870879 
L 147.630483 323.953604 
L 148.942007 323.290386 
L 150.523726 322.841876 
L 152.306626 322.564346 
L 154.223153 322.415874 
L 156.209795 322.359528 
L 158.203695 322.359237 
" clip-path="url(#pfde85f95f8)" style="fill: none; stroke: #008000; stroke-width: 1.5; stroke-linecap: square"/>
   </g>
   <g id="line2d_36">
    <path d="M 207.898963 322.237529 
L 209.597946 322.272547 
L 211.199794 322.389565 
L 212.675277 322.621498 
L 213.994656 323.003675 
L 215.125567 323.58546 
L 216.034693 324.421296 
L 216.694412 325.557618 
L 217.126758 326.971065 
L 217.379341 328.602339 
L 217.499396 330.392044 
L 217.526029 332.283534 
L 217.492498 334.222135 
L 217.430413 336.153512 
L 217.336322 338.03009 
L 217.171717 339.811049 
L 216.896509 341.455812 
L 216.468133 342.921393 
L 215.840562 344.161466 
L 214.96779 345.129734 
L 213.835253 345.81355 
L 212.489444 346.265616 
L 210.983859 346.546138 
L 209.372717 346.711292 
L 207.712216 346.806135 
L 206.05884 346.873818 
L 204.463843 346.940388 
L 202.957356 346.963479 
L 201.564279 346.88362 
L 200.309341 346.638539 
L 199.216579 346.149589 
L 198.309781 345.332199 
L 197.608693 344.114108 
L 197.097958 342.530268 
L 196.744154 340.670837 
L 196.513982 338.626771 
L 196.377719 336.493695 
L 196.308227 334.370593 
L 196.279735 332.354599 
L 196.296561 330.498512 
L 196.393111 328.810792 
L 196.605321 327.298105 
L 196.97904 325.972993 
L 197.573854 324.85616 
L 198.450047 323.968744 
L 199.628036 323.31242 
L 201.050808 322.851051 
L 202.652444 322.544165 
L 204.368309 322.355555 
L 206.137324 322.260806 
L 207.898963 322.237529 
" clip-path="url(#pfde85f95f8)" style="fill: none; stroke: #008000; stroke-width: 1.5; stroke-linecap: square"/>
   </g>
   <g id="line2d_37">
    <path d="M 257.981617 325.532959 
L 259.930079 325.58619 
L 261.733658 325.684866 
L 263.36671 325.858443 
L 264.802732 326.137762 
L 266.01064 326.561725 
L 266.957697 327.172151 
L 267.617688 328.005242 
L 268.021338 329.048253 
L 268.228696 330.263235 
L 268.299535 331.612248 
L 268.286301 333.060315 
L 268.23618 334.574591 
L 268.193955 336.122077 
L 268.151793 337.665084 
L 268.04924 339.161234 
L 267.823434 340.567914 
L 267.405989 341.841032 
L 266.720826 342.934445 
L 265.691749 343.802103 
L 264.294815 344.427646 
L 262.607537 344.852371 
L 260.719076 345.124197 
L 258.719926 345.288181 
L 256.704262 345.381481 
L 254.766817 345.439899 
L 252.986477 345.485798 
L 251.378495 345.487783 
L 249.94228 345.401019 
L 248.678417 345.17877 
L 247.594798 344.763206 
L 246.70196 344.092476 
L 246.007404 343.113717 
L 245.492274 341.852303 
L 245.124158 340.373893 
L 244.870765 338.744716 
L 244.702802 337.034204 
L 244.593151 335.314101 
L 244.51627 333.655099 
L 244.481745 332.102594 
L 244.534286 330.67668 
L 244.720444 329.396378 
L 245.100919 328.28184 
L 245.756016 327.354796 
L 246.767053 326.63693 
L 248.161543 326.130787 
L 249.862464 325.801742 
L 251.78078 325.610905 
L 253.828936 325.521906 
L 255.923487 325.505329 
L 257.981617 325.532959 
" clip-path="url(#pfde85f95f8)" style="fill: none; stroke: #008000; stroke-width: 1.5; stroke-linecap: square"/>
   </g>
   <g id="line2d_38">
    <path d="M 69.218182 344.804935 
L 69.272574 345.860308 
L 69.479715 346.896174 
L 69.834627 347.89149 
L 70.335668 348.842699 
L 71.358781 350.186737 
L 72.703878 351.431474 
L 74.365954 352.577114 
L 76.339334 353.624062 
L 78.61772 354.572941 
L 81.194233 355.424622 
L 84.06147 356.180243 
L 88.323008 357.040861 
L 93.067519 357.737686 
L 98.274087 358.276285 
L 103.920898 358.663537 
L 111.564114 358.947537 
L 119.814699 359.027529 
L 130.451745 358.88686 
L 143.772934 358.455428 
L 162.134747 357.607193 
L 220.847096 354.536464 
L 303.34087 349.847452 
L 336.807169 348.264672 
L 373.581818 346.742852 
L 373.581818 346.742852 
" clip-path="url(#pfde85f95f8)" style="fill: none; stroke: #000000; stroke-width: 1.5; stroke-linecap: square"/>
   </g>
   <g id="line2d_39">
    <path d="M 373.581818 346.742852 
L 359.588809 342.444616 
L 347.686075 339.019193 
L 335.085164 335.617846 
L 321.918378 332.302011 
L 309.037442 329.287338 
L 295.041943 326.264384 
L 282.282533 323.736501 
L 268.935871 321.326755 
L 255.12011 319.089858 
L 243.337915 317.395611 
L 231.390298 315.886355 
L 219.353499 314.588799 
L 207.305187 313.527305 
L 195.323937 312.723354 
L 185.757833 312.285841 
L 176.217244 312.10142 
L 166.851488 312.184727 
L 157.704436 312.533513 
L 148.819155 313.142089 
L 140.237535 314.00136 
L 131.999906 315.098933 
L 124.144679 316.419312 
L 116.708008 317.944177 
L 109.723495 319.652748 
L 103.221939 321.522222 
L 97.231142 323.528285 
L 91.775774 325.645676 
L 86.877289 327.848788 
L 83.579963 329.542117 
L 80.612699 331.259034 
L 77.980997 332.989604 
L 75.689378 334.724476 
L 73.74141 336.455013 
L 72.139735 338.173418 
L 70.886104 339.872843 
L 69.981403 341.547488 
L 69.425681 343.192681 
L 69.248736 344.271342 
L 69.218182 344.804935 
L 69.218182 344.804935 
" clip-path="url(#pfde85f95f8)" style="fill: none; stroke: #000000; stroke-width: 1.5; stroke-linecap: square"/>
   </g>
   <g id="patch_13">
    <path d="M 54 384.48 
L 54 286.644706 
" style="fill: none; stroke: #000000; stroke-width: 0.8; stroke-linejoin: miter; stroke-linecap: square"/>
   </g>
   <g id="patch_14">
    <path d="M 54 384.48 
L 388.8 384.48 
" style="fill: none; stroke: #000000; stroke-width: 0.8; stroke-linejoin: miter; stroke-linecap: square"/>
   </g>
   <g id="text_18">
    <!-- group 3: No.8 - No.10 -->
    <g transform="translate(124.754063 280.644706) scale(0.18 -0.18)">
     <defs>
      <path id="DejaVuSans-33" d="M 2597 2516 
Q 3050 2419 3304 2112 
Q 3559 1806 3559 1356 
Q 3559 666 3084 287 
Q 2609 -91 1734 -91 
Q 1441 -91 1130 -33 
Q 819 25 488 141 
L 488 750 
Q 750 597 1062 519 
Q 1375 441 1716 441 
Q 2309 441 2620 675 
Q 2931 909 2931 1356 
Q 2931 1769 2642 2001 
Q 2353 2234 1838 2234 
L 1294 2234 
L 1294 2753 
L 1863 2753 
Q 2328 2753 2575 2939 
Q 2822 3125 2822 3475 
Q 2822 3834 2567 4026 
Q 2313 4219 1838 4219 
Q 1578 4219 1281 4162 
Q 984 4106 628 3988 
L 628 4550 
Q 988 4650 1302 4700 
Q 1616 4750 1894 4750 
Q 2613 4750 3031 4423 
Q 3450 4097 3450 3541 
Q 3450 3153 3228 2886 
Q 3006 2619 2597 2516 
z
" transform="scale(0.015625)"/>
     </defs>
     <use xlink:href="#DejaVuSans-67"/>
     <use xlink:href="#DejaVuSans-72" x="63.476562"/>
     <use xlink:href="#DejaVuSans-6f" x="102.339844"/>
     <use xlink:href="#DejaVuSans-75" x="163.521484"/>
     <use xlink:href="#DejaVuSans-70" x="226.900391"/>
     <use xlink:href="#DejaVuSans-20" x="290.376953"/>
     <use xlink:href="#DejaVuSans-33" x="322.164062"/>
     <use xlink:href="#DejaVuSans-3a" x="385.787109"/>
     <use xlink:href="#DejaVuSans-20" x="419.478516"/>
     <use xlink:href="#DejaVuSans-4e" x="451.265625"/>
     <use xlink:href="#DejaVuSans-6f" x="526.070312"/>
     <use xlink:href="#DejaVuSans-2e" x="585.501953"/>
     <use xlink:href="#DejaVuSans-38" x="617.289062"/>
     <use xlink:href="#DejaVuSans-20" x="680.912109"/>
     <use xlink:href="#DejaVuSans-2d" x="712.699219"/>
     <use xlink:href="#DejaVuSans-20" x="748.783203"/>
     <use xlink:href="#DejaVuSans-4e" x="780.570312"/>
     <use xlink:href="#DejaVuSans-6f" x="855.375"/>
     <use xlink:href="#DejaVuSans-2e" x="914.806641"/>
     <use xlink:href="#DejaVuSans-31" x="946.59375"/>
     <use xlink:href="#DejaVuSans-30" x="1010.216797"/>
    </g>
   </g>
  </g>
 </g>
 <defs>
  <clipPath id="pf56719faf1">
   <rect x="54" y="51.84" width="334.8" height="97.835294"/>
  </clipPath>
  <clipPath id="p8040645966">
   <rect x="54" y="169.242353" width="334.8" height="97.835294"/>
  </clipPath>
  <clipPath id="pfde85f95f8">
   <rect x="54" y="286.644706" width="334.8" height="97.835294"/>
  </clipPath>
 </defs>
</svg>
